<svg width="80" height="80" viewBox="0 0 80 80" fill="none" xmlns="http://www.w3.org/2000/svg">
<path d="M25.8844 68.1566C25.4487 67.8885 25.2699 67.4975 25.2811 66.9835C25.3034 65.8663 25.3034 64.7491 25.2811 63.643C25.2699 63.0509 25.5157 62.671 26.0185 62.3805C28.7669 60.7494 31.4929 59.0847 34.2525 57.4647C34.677 57.2189 34.7999 56.9731 34.6882 56.4815C34.4089 55.2302 34.2078 53.9677 33.9508 52.7053C33.8503 52.1913 33.7944 51.6774 33.7944 51.1523C33.7944 48.996 33.7944 46.8398 33.7944 44.6835C33.7944 43.9685 33.7721 43.9573 33.1241 44.2031C26.3425 46.7616 19.5385 49.3089 12.7345 51.8562C11.5949 52.2807 11.0252 51.8897 11.014 50.6719C11.014 48.9849 11.0252 47.2867 11.0028 45.5996C10.9916 44.9852 11.2374 44.583 11.7737 44.3037C12.634 43.8679 13.4607 43.3652 14.3322 42.9406C14.7009 42.7507 14.8349 42.5049 14.8126 42.1027C14.7902 41.5888 14.8014 41.0637 14.8126 40.5386C14.8461 39.2091 15.7064 38.1253 17.0024 37.779C18.2201 37.4438 19.572 37.9689 20.2088 39.1085C20.4658 39.5777 20.6781 39.5442 21.0579 39.3096C21.6836 38.9409 22.3204 38.6057 22.9684 38.2706C23.2701 38.1142 23.4041 37.9131 23.3929 37.5667C23.3706 36.9746 23.3818 36.3825 23.3929 35.7791C23.4153 34.4831 24.2867 33.3547 25.5045 33.0196C26.7558 32.6732 28.1412 33.1983 28.7557 34.3491C29.035 34.8742 29.2584 34.8742 29.7277 34.606C30.8226 33.9692 31.9175 33.3436 33.057 32.7961C33.6603 32.5056 33.8168 32.1258 33.8056 31.5001C33.7721 28.4501 33.7832 25.4 33.7944 22.3611C33.8168 19.3893 34.4089 16.5403 35.6267 13.8143C36.2076 12.5183 37.0679 11.5575 38.4533 11.1553C40.3302 10.6078 42.3636 11.5463 43.2574 13.3674C44.5199 15.9594 45.2349 18.6743 45.3243 21.5679C45.436 24.9531 45.3578 28.3272 45.369 31.7124C45.369 32.204 45.5254 32.4833 45.9723 32.7067C47.2124 33.3436 48.4302 34.0139 49.648 34.6954C49.9943 34.8854 50.1396 34.8295 50.3295 34.4831C51.011 33.243 52.307 32.6732 53.6142 32.9972C54.9102 33.3212 55.7816 34.472 55.7928 35.8797C55.7928 36.4383 55.8151 36.9969 55.7928 37.5555C55.7816 37.9019 55.9157 38.103 56.2173 38.2594C56.9324 38.6281 57.625 39.008 58.3289 39.399C58.597 39.5554 58.7311 39.5219 58.8987 39.2426C59.6696 37.9466 60.9432 37.4103 62.2504 37.7902C63.5911 38.17 64.3843 39.2761 64.3843 40.762C64.3843 41.0748 64.429 41.3988 64.3732 41.7117C64.2503 42.4602 64.5743 42.8736 65.2334 43.1641C65.9596 43.4881 66.6411 43.9126 67.3562 44.2813C67.6802 44.4489 67.9483 44.6612 68.1382 44.974C68.1382 47.1303 68.1382 49.2865 68.1382 51.4428C67.602 52.0908 67.3003 52.1802 66.4959 51.8785C59.6808 49.32 52.8656 46.7616 46.0505 44.2143C45.4137 43.9797 45.3913 43.9908 45.3913 44.6612C45.3913 46.8509 45.3913 49.0407 45.3913 51.2417C45.3913 51.7221 45.3466 52.2025 45.2461 52.6829C45.0003 53.9566 44.788 55.2414 44.4975 56.5039C44.3858 56.9954 44.531 57.2301 44.9444 57.4759C47.6817 59.0959 50.3965 60.7382 53.1226 62.3694C53.6589 62.6822 53.927 63.0844 53.9047 63.7212C53.8711 64.7938 53.8823 65.8775 53.9047 66.95C53.9158 67.4751 53.7706 67.8997 53.3013 68.179C52.9327 68.179 52.5528 68.179 52.1841 68.179C49.0447 67.6427 45.9164 67.1064 42.777 66.559C42.5759 66.5255 42.4195 66.5813 42.2966 66.7601C41.8385 67.4863 41.1347 67.8885 40.3638 68.179C39.8387 68.179 39.3247 68.179 38.7996 68.179C38.0287 67.8773 37.3249 67.4863 36.8668 66.7489C36.7216 66.5143 36.5093 66.5366 36.2747 66.5813C35.0345 66.7936 33.7944 66.9947 32.5543 67.207C30.6997 67.531 28.8339 67.855 26.9793 68.179C26.6329 68.1566 26.2531 68.1566 25.8844 68.1566ZM43.358 36.7288C43.358 31.9917 43.3691 27.2546 43.358 22.5064C43.3468 19.7133 42.7882 17.0543 41.5927 14.5181C41.1793 13.6467 40.5649 13.0211 39.5593 13.0211C38.5874 13.0211 37.984 13.6244 37.5818 14.4846C36.4534 16.9314 35.8725 19.5122 35.8613 22.2047C35.8501 31.9023 35.8501 41.6111 35.8613 51.3087C35.8613 51.5545 35.8613 51.7891 35.906 52.0237C36.7327 56.3475 37.5707 60.66 38.4086 64.9837C38.565 65.7769 38.9449 66.1344 39.604 66.1344C40.2744 66.1344 40.6542 65.7881 40.8107 64.9949C41.4475 61.7325 42.0173 58.459 42.7211 55.2079C43.2462 52.8058 43.4138 50.4038 43.3803 47.9682C43.3244 44.2366 43.358 40.4827 43.358 36.7288ZM33.7944 38.3264C33.7944 37.4215 33.7944 36.5053 33.7944 35.6004C33.7944 34.7178 33.7944 34.7066 33.0347 35.12C28.9233 37.3433 24.8007 39.5777 20.6892 41.801C18.3207 43.0747 15.9522 44.3707 13.5836 45.6443C13.2038 45.8454 13.0473 46.0912 13.0585 46.5158C13.092 47.309 13.0585 48.1134 13.0697 48.9067C13.0697 49.5211 13.1144 49.5435 13.6618 49.3424C14.6338 48.9849 15.6058 48.6162 16.589 48.2475C22.1193 46.1694 27.6496 44.0914 33.1799 42.0357C33.6603 41.8569 33.8391 41.6111 33.8168 41.0972C33.7721 40.1811 33.7944 39.2537 33.7944 38.3264ZM45.4137 38.2929C45.4137 39.2537 45.436 40.2257 45.4025 41.1866C45.3913 41.6335 45.5366 41.8569 45.9611 42.0021C47.5029 42.5496 49.0223 43.1417 50.5529 43.7115C55.5246 45.5773 60.4963 47.4431 65.468 49.2977C66.116 49.5435 66.1272 49.5323 66.1384 48.8061C66.1384 48.2698 66.0714 47.7224 66.1496 47.1973C66.2948 46.2253 65.8814 45.7337 65.0212 45.2756C61.1108 43.2199 57.234 41.086 53.346 38.9744C50.9105 37.6561 48.4749 36.3378 46.0393 35.0306C45.4137 34.6954 45.4025 34.6954 45.4025 35.4328C45.4137 36.4048 45.4137 37.3433 45.4137 38.2929ZM27.3368 64.8049C27.3368 65.1178 27.348 65.3189 27.3368 65.5311C27.3256 65.8551 27.4262 66.0004 27.7949 65.9333C30.4651 65.4753 33.1352 65.0284 35.8166 64.5926C36.163 64.5368 36.23 64.4139 36.163 64.0676C35.8725 62.6487 35.5932 61.2298 35.3474 59.7997C35.258 59.3193 35.1016 59.2858 34.6994 59.5316C32.5208 60.8611 30.3533 62.1794 28.1524 63.4531C27.5379 63.8106 27.1469 64.1793 27.3368 64.8049ZM51.8713 64.9725C51.8378 64.4921 51.9942 64.0005 51.4132 63.6653C49.0894 62.3135 46.7767 60.9169 44.4864 59.5092C44.073 59.2523 43.9613 59.3752 43.8831 59.7885C43.6373 61.1069 43.3803 62.414 43.1233 63.7212C42.9669 64.5256 42.9669 64.5144 43.7713 64.6485C46.1287 65.0395 48.4972 65.4194 50.8546 65.8216C52.0836 66.0339 51.8489 66.0227 51.8713 64.9725ZM25.3816 36.0696C25.3705 36.9522 25.3928 36.9634 26.0296 36.6171C26.3201 36.4607 26.6106 36.2931 26.9122 36.1367C27.1133 36.0249 27.2474 35.8909 27.158 35.6451C27.024 35.2764 26.7893 34.9971 26.3648 34.9636C25.9514 34.9412 25.6386 35.1311 25.4934 35.5222C25.404 35.7456 25.3928 35.9914 25.3816 36.0696ZM53.8264 36.1143C53.8153 36.0696 53.8041 35.8685 53.7594 35.6674C53.6477 35.187 53.3237 34.9412 52.8321 34.9636C52.4076 34.9859 52.1618 35.2764 52.05 35.6451C51.9271 36.0361 52.2847 36.092 52.5081 36.226C52.7427 36.3713 52.9885 36.5053 53.2343 36.6282C53.8153 36.9522 53.8376 36.9411 53.8264 36.1143ZM16.8683 40.7508C16.8571 41.5106 16.9018 41.5441 17.5163 41.2201C17.7956 41.0748 18.0637 40.9184 18.343 40.762C18.6447 40.5944 18.6335 40.371 18.4659 40.114C18.209 39.723 17.8403 39.656 17.4381 39.7788C16.9577 39.9353 16.8348 40.3375 16.8683 40.7508ZM62.3398 40.7732C62.3733 40.371 62.2839 39.9576 61.8035 39.79C61.4572 39.6671 61.0997 39.6895 60.8315 40.0023C60.5746 40.3039 60.4963 40.5833 60.9321 40.8067C61.2002 40.9408 61.446 41.086 61.7141 41.2313C62.3063 41.5329 62.3398 41.5106 62.3398 40.7732Z" fill="#5E713E"/>
<path d="M39.5592 16.7303C40.4976 16.8197 41.2909 17.1772 41.6931 18.0933C41.9612 18.7078 42.14 19.3558 42.3523 19.9814C42.4305 20.2161 42.3858 20.3836 42.14 20.4619C42.1065 20.473 42.073 20.4842 42.0394 20.4954C40.5982 21.0763 40.6094 21.0763 40.0954 19.5904C39.9949 19.2999 40.0284 18.8083 39.6039 18.8307C39.2017 18.8419 39.2128 19.3223 39.1123 19.6128C38.6095 21.0428 38.6207 21.0428 37.213 20.5177C36.8555 20.3836 36.7549 20.2161 36.889 19.8585C37.1013 19.2999 37.2577 18.7301 37.4811 18.1827C37.8498 17.2554 38.5983 16.842 39.5592 16.7303Z" fill="#5E713E"/>
</svg>
