<svg width="89" height="70" viewBox="0 0 89 70" fill="none" xmlns="http://www.w3.org/2000/svg">
<path d="M15.0579 59.7217C15.069 63.3494 17.73 65.9927 21.3818 65.9927C36.8132 66.0038 52.2335 66.0038 67.6649 65.9817C68.3107 65.9817 68.9119 65.9153 69.4463 65.7715C72.2409 65.0305 73.9777 62.7079 73.9777 59.7217C73.9777 56.6691 73.9777 53.6055 73.9777 50.5529C73.9777 44.6468 73.9777 38.7297 74 32.8236C74 31.7729 73.6771 31.1646 72.7864 30.6005C69.3684 28.3996 65.9503 26.1765 62.5434 23.9534C60.3611 22.5267 58.1678 21.0999 55.9856 19.6842C55.2396 19.1976 54.9835 18.6114 55.106 17.7155C55.2173 16.9303 55.351 15.7468 55.2285 14.6519C54.9947 12.6168 53.9704 10.8915 52.0999 9.38729L51.2426 8.70157L52.0888 8.01584C53.3135 7.02044 54.6829 6.30153 56.2973 5.81489C56.7872 5.67111 57.1658 5.38355 57.3662 5.01856C57.5332 4.70888 57.5554 4.35496 57.4441 3.98998C57.1769 3.16047 56.4198 2.81761 55.4623 3.09411C52.9906 3.80195 50.8084 5.1181 48.9936 6.99832C48.615 7.38542 48.0138 7.62874 47.4571 7.60662C45.0522 7.51814 43.037 8.21492 41.456 9.71909C40.4651 10.6592 39.5299 10.8804 38.2161 10.4712C37.292 10.1836 36.3568 10.062 35.4327 10.062C33.6401 10.062 31.8698 10.5044 30.1775 11.0242C20.8252 13.8777 14.8686 21.6087 15.0022 30.7111C15.1024 37.2365 15.0801 43.8615 15.069 50.2764C15.0579 53.4285 15.0579 56.5806 15.0579 59.7217ZM71.1164 49.3363V50.7188C71.1164 53.705 71.1164 56.6912 71.1164 59.6885C71.1164 61.8231 69.7914 63.1503 67.6649 63.1503C59.1921 63.1503 50.7304 63.1503 42.2576 63.1503C35.299 63.1503 28.3293 63.1503 21.3707 63.1503C19.2887 63.1503 17.9304 61.812 17.9304 59.7549C17.9304 56.8461 17.9304 53.9483 17.9304 51.0395V49.4026C17.9304 49.2588 17.9415 49.1151 17.9526 48.9492L18.0083 47.6773L19.0438 47.8985C20.6136 48.2303 21.9051 49.0155 22.9628 49.7455C24.5661 50.8515 26.303 51.5483 28.1289 51.8248C31.9812 52.411 35.3436 51.6257 38.4276 49.4358C41.9348 46.9362 46.7446 46.9031 50.3853 49.3694C51.1201 49.8672 51.9218 50.3759 52.7457 50.7409C57.3773 52.7538 61.8865 52.3667 66.1396 49.5796C67.0971 48.9492 68.3997 48.186 69.9918 47.8321L71.0384 47.5998L71.1052 48.8828C71.1052 49.0487 71.1164 49.1925 71.1164 49.3363ZM71.0718 44.7574L70.3147 44.868C67.9766 45.2109 65.9169 46.3722 64.013 47.5335C62.1648 48.6616 60.2721 49.2146 58.3905 49.2146C56.353 49.2146 54.3266 48.551 52.3671 47.2349C49.5503 45.3325 46.5887 44.5251 43.3265 44.7463C40.9439 44.9122 38.7394 45.7196 36.5683 47.2238C33.3061 49.48 29.721 49.8008 25.9022 48.1528C25.6015 48.0201 25.3677 47.8985 25.1673 47.7547C22.807 46.0957 20.814 45.2109 18.7209 44.8901L17.9638 44.7795V33.642H71.083V44.7574H71.0718ZM46.9561 10.4491H46.9672C49.9956 10.4601 52.4673 12.9155 52.4784 15.9349C52.4896 17.4169 51.9106 18.8105 50.8752 19.8501C49.8286 20.9008 48.4369 21.4759 46.9561 21.4759C46.945 21.4759 46.945 21.4759 46.9338 21.4759C45.453 21.4759 44.0613 20.9008 43.0036 19.8501C41.9459 18.7994 41.3669 17.4169 41.3781 15.957C41.4003 12.9155 43.8943 10.4491 46.9561 10.4491ZM17.8636 29.7268C17.897 29.4613 17.9081 29.1959 17.9304 28.9304C17.9749 28.3332 18.0306 27.7028 18.1642 27.0834C19.5002 21.0557 23.308 16.7644 29.4761 14.3201C31.0348 13.7007 32.6938 13.391 34.297 13.0814L34.6867 13.0039C35.3325 12.8823 35.9671 12.9708 36.5238 13.0371C36.7353 13.0703 36.9468 13.0924 37.1584 13.1035C37.6594 13.1367 38.038 13.3247 38.3052 13.6344C38.706 14.121 38.628 14.7625 38.6058 14.9616C38.2495 17.804 39.1736 20.2372 41.3335 22.1727C44.4844 25.0041 49.1383 25.0594 52.3894 22.3055C53.1242 21.6861 53.8368 21.6418 54.6273 22.1617C56.9987 23.7322 59.3814 25.2806 61.764 26.829L64.4695 28.5876C64.6031 28.6761 64.7367 28.7756 64.9037 28.8862L67.4311 30.689H17.7634L17.8636 29.7268Z" fill="#3060A9"/>
</svg>
