<svg width="89" height="70" viewBox="0 0 89 70" fill="none" xmlns="http://www.w3.org/2000/svg">
<path d="M11.9898 44.35C11.9898 37.91 11.9798 31.47 11.9998 25.03C11.9998 24.41 11.8298 24.1 11.2398 23.83C9.24977 22.95 8.13977 21.35 8.10977 19.19C8.03977 14.06 8.07978 8.92 8.08978 3.79C8.08978 2.94 8.43978 2.47 9.08978 2.31C9.81978 2.13 10.4998 2.63 10.5998 3.46C10.6598 3.94 10.6298 4.43 10.6298 4.92C10.6298 7.66 10.6398 10.41 10.6298 13.15C10.6298 13.67 10.7098 13.98 11.3398 13.97C11.9598 13.96 11.9898 13.63 11.9898 13.16C11.9798 10.14 11.9898 7.12 11.9898 4.09C11.9898 2.9 12.4198 2.28 13.2398 2.26C14.0798 2.24 14.5298 2.89 14.5298 4.12C14.5298 7.14 14.5398 10.16 14.5198 13.18C14.5198 13.75 14.6898 13.98 15.2798 13.95C15.7298 13.93 15.8898 13.75 15.8898 13.31C15.8798 12.05 15.8898 10.8 15.8898 9.54C15.8898 7.7 15.8898 5.87 15.8898 4.03C15.8898 3.7 15.8898 3.38 16.0098 3.07C16.2198 2.53 16.6298 2.25 17.1898 2.26C17.7198 2.27 18.1098 2.54 18.3198 3.05C18.4498 3.38 18.4498 3.73 18.4498 4.08C18.4498 7.1 18.4598 10.12 18.4398 13.14C18.4398 13.68 18.5598 13.96 19.1698 13.94C19.7398 13.93 19.8098 13.64 19.7998 13.19C19.7898 10.54 19.7998 7.89 19.7998 5.24C19.7998 4.73 19.7898 4.22 19.8098 3.71C19.8398 2.81 20.3398 2.25 21.0798 2.25C21.8098 2.25 22.3398 2.82 22.3498 3.71C22.3698 6.2 22.3598 8.68 22.3598 11.17C22.3598 13.7 22.3698 16.24 22.3598 18.77C22.3498 21.19 21.2798 22.96 19.0098 23.91C18.5098 24.12 18.4498 24.43 18.4498 24.88C18.4598 28.2 18.4498 31.53 18.4498 34.85C18.4498 44.43 18.4498 54 18.4498 63.58C18.4498 65.53 17.4898 66.81 15.8098 67.16C13.8198 67.57 12.0298 66.04 12.0098 63.85C11.9898 61.34 11.9998 58.83 11.9998 56.32C11.9898 52.34 11.9898 48.34 11.9898 44.35ZM14.5398 44.37C14.5398 50.71 14.5398 57.06 14.5498 63.41C14.5498 63.92 14.3398 64.67 15.1998 64.68C16.0698 64.7 15.8898 63.96 15.8898 63.44C15.8998 56.75 15.8998 50.05 15.8998 43.36C15.8998 37.29 15.8898 31.23 15.9098 25.16C15.9098 24.56 15.7798 24.26 15.0998 24.3C14.4198 24.34 14.5498 24.81 14.5498 25.2C14.5398 31.59 14.5398 37.98 14.5398 44.37ZM15.2698 16.5C13.9498 16.5 12.6198 16.51 11.2998 16.49C10.8398 16.48 10.6098 16.63 10.6298 17.13C10.6498 17.85 10.6198 18.57 10.6498 19.29C10.6998 20.65 11.7398 21.71 13.1098 21.74C14.5298 21.77 15.9398 21.77 17.3598 21.74C18.7198 21.7 19.7498 20.64 19.7998 19.27C19.8198 18.57 19.7898 17.88 19.8198 17.18C19.8398 16.66 19.6298 16.48 19.1198 16.49C17.8298 16.51 16.5498 16.5 15.2698 16.5Z" fill="#3060A9"/>
<path d="M44.4897 59.4599C30.7197 59.2999 19.7897 48.4299 19.8297 34.6799C19.8697 20.9399 30.8497 10.0399 44.5497 10.0699C58.2897 10.0999 69.1997 21.0799 69.1797 34.7799C69.1597 48.5099 58.2397 59.3099 44.4897 59.4599ZM22.3497 34.7699C22.3497 47.0299 32.1997 56.8999 44.4497 56.9099C56.7697 56.9199 66.6597 47.0399 66.6597 34.7299C66.6597 22.4499 56.7797 12.5899 44.4797 12.5999C32.1897 12.5999 22.3397 22.4599 22.3497 34.7699Z" fill="#3060A9"/>
<path d="M70.5699 33.8799C70.5699 24.0999 70.5699 14.3199 70.5699 4.52991C70.5699 4.26991 70.5599 4.01991 70.5699 3.75991C70.6099 2.63991 71.2399 2.11991 72.3499 2.26991C74.2299 2.50991 75.5999 3.56991 76.7199 5.00991C78.6599 7.50991 79.6199 10.4399 80.2499 13.4899C80.7399 15.8599 80.9399 18.2599 80.9399 20.6899C80.9299 27.5899 80.9399 34.4899 80.9399 41.3899C80.9399 42.9199 80.5699 43.2899 79.0599 43.2999C78.6599 43.2999 78.2699 43.3399 77.8799 43.2899C77.1799 43.2099 77.0299 43.5199 77.0299 44.1699C77.0499 50.6799 77.0399 57.1799 77.0399 63.6899C77.0399 64.9599 76.6299 66.0199 75.5299 66.7299C73.4399 68.0799 70.7799 66.6799 70.5899 64.1299C70.5699 63.8499 70.5799 63.5699 70.5799 63.2899C70.5699 53.4899 70.5699 43.6899 70.5699 33.8799ZM73.1199 22.9699C73.1199 28.6399 73.1299 34.3099 73.1099 39.9799C73.1099 40.6399 73.2899 40.8799 73.9699 40.8499C75.1799 40.7999 76.3899 40.8099 77.5899 40.8499C78.2099 40.8699 78.3899 40.6599 78.3899 40.0499C78.3699 32.9199 78.3999 25.7799 78.3499 18.6499C78.3299 15.8199 77.7999 13.0599 76.8199 10.3999C76.1599 8.61991 75.3199 6.93991 73.8799 5.63991C73.6899 5.46991 73.4899 5.17991 73.2599 5.25991C72.9799 5.35991 73.1299 5.70991 73.1299 5.94991C73.1199 11.6299 73.1199 17.2999 73.1199 22.9699ZM74.4699 53.9099C74.4699 50.6399 74.4499 47.3599 74.4799 44.0899C74.4899 43.4099 74.2199 43.2599 73.6099 43.2999C72.9599 43.3399 73.1099 43.8099 73.1099 44.1599C73.0999 50.6399 73.0999 57.1199 73.1099 63.5999C73.1099 63.8099 73.1099 64.0199 73.1499 64.2199C73.2099 64.5299 73.4399 64.6899 73.7499 64.6999C74.0899 64.7099 74.3499 64.5699 74.4199 64.2199C74.4699 63.9699 74.4599 63.7099 74.4599 63.4599C74.4699 60.2799 74.4699 57.0899 74.4699 53.9099Z" fill="#3060A9"/>
<path d="M63.9399 34.7701C63.9399 45.5401 55.2599 54.1701 44.4499 54.1801C33.7599 54.1901 24.9999 45.3701 25.0599 34.6501C25.1299 23.9301 33.7699 15.3001 44.5599 15.3101C55.2799 15.3201 63.9399 24.0201 63.9399 34.7701ZM44.5199 17.7801C35.1899 17.7801 27.5399 25.4101 27.5399 34.7201C27.5399 44.0601 35.1499 51.7101 44.4599 51.7201C53.8099 51.7301 61.4799 44.0801 61.4799 34.7401C61.4699 25.4201 53.8299 17.7801 44.5199 17.7801Z" fill="#3060A9"/>
</svg>
