<svg width="80" height="80" viewBox="0 0 80 80" fill="none" xmlns="http://www.w3.org/2000/svg">
<path d="M24.9789 10C37.3581 10 49.7386 10 62.1177 10C62.1524 10.0268 62.1831 10.0685 62.2218 10.0778C65.5174 10.9167 67.5721 13.1877 67.8523 16.5901C68.1045 19.6584 67.9711 22.7454 67.907 25.8231C67.8777 27.2605 66.7449 28.2028 65.2866 28.2095C62.7141 28.2202 60.1404 28.235 57.5679 28.1974C56.9382 28.188 56.7621 28.3276 56.7634 28.9893C56.7861 40.7267 56.7821 52.4641 56.7781 64.2016C56.7781 67.4631 54.3417 69.9864 51.1422 69.9904C39.6303 70.0039 28.1184 70.0025 16.6065 69.9904C14.7052 69.9877 13.2015 69.1381 12.0647 67.6121C11.4657 66.8068 11.2388 65.8565 11 64.9089V58.8825C11.4657 57.5349 12.4063 57.0356 13.8113 57.0893C15.826 57.1645 17.846 57.0826 19.8621 57.1242C20.4718 57.1363 20.5866 56.939 20.5839 56.3699C20.5612 51.8199 20.5706 47.2699 20.5706 42.7199C20.5706 33.6426 20.5666 24.5654 20.5732 15.4869C20.5746 12.7273 22.105 10.7758 24.7454 10.1141C24.8268 10.094 24.9002 10.0389 24.9763 10.0013L24.9789 10ZM56.6673 12.1421H55.8134C45.9666 12.1421 36.1186 12.1421 26.2718 12.1421C23.8982 12.1421 22.704 13.3327 22.704 15.7056C22.704 29.2268 22.708 42.7494 22.6894 56.2706C22.6894 56.9269 22.8188 57.1256 23.5139 57.1229C30.943 57.0933 38.3734 57.1041 45.8039 57.1054C46.9193 57.1054 47.2382 57.4222 47.2395 58.5241C47.2435 60.4877 47.2449 62.4514 47.2395 64.415C47.2369 65.1518 47.3996 65.8297 47.8653 66.4135C48.8433 67.6389 50.7873 68.1583 52.347 67.6107C53.8934 67.0685 54.6499 65.9156 54.6513 64.0982C54.6579 48.7691 54.6726 33.44 54.6579 18.1122C54.6553 15.9352 55.1503 13.9675 56.6687 12.1408L56.6673 12.1421ZM46.3122 67.8523C45.1915 66.4806 45.066 64.9908 45.1047 63.4486C45.1341 62.2447 45.0887 61.038 45.1207 59.8341C45.1327 59.3563 44.9766 59.2395 44.519 59.2395C34.2706 59.2516 24.0209 59.2529 13.7726 59.2368C13.2522 59.2368 13.1428 59.4113 13.1535 59.8918C13.1815 61.2528 13.1628 62.6138 13.1642 63.9761C13.1642 66.4269 14.5704 67.8523 16.9894 67.8523C26.484 67.8523 35.9785 67.8523 45.473 67.8523H46.3122ZM56.7981 21.0288C56.7981 22.7387 56.8114 24.144 56.7901 25.5466C56.7834 25.9465 56.8808 26.0834 57.3038 26.0808C59.8949 26.062 62.4873 26.0606 65.0784 26.0808C65.6375 26.0848 65.8203 25.8553 65.8176 25.3251C65.8056 22.6729 65.8269 20.0208 65.8016 17.3686C65.7882 15.9137 65.2972 14.6171 64.3086 13.538C62.6207 11.6952 60.0296 11.6804 58.3178 13.5004C57.5666 14.299 57.0996 15.2506 56.9222 16.3311C56.6486 17.9914 56.8768 19.6691 56.7981 21.0301V21.0288Z" fill="#5E713E"/>
<path d="M38.457 25.2934C37.3369 25.2934 36.5824 25.8414 36.1935 26.9373C36.0631 27.3053 35.9394 27.6775 35.5658 27.867C35.1733 28.0661 34.7835 28.0455 34.4286 27.7791C34.016 27.4701 33.9205 27.0279 34.0603 26.5568C34.2485 25.9265 34.4877 25.3113 34.7055 24.6891C35.598 22.1375 36.4972 19.59 37.3777 17.0343C37.5793 16.4506 37.8521 15.9892 38.5309 16.0002C39.1775 16.0098 39.4409 16.4685 39.6318 17.0178C40.7071 20.1064 41.7865 23.1936 42.8739 26.2781C43.0849 26.8755 43.0715 27.4042 42.519 27.7942C42.0418 28.1307 41.3725 27.981 41.0512 27.4742C40.9558 27.3232 40.898 27.146 40.8361 26.9771C40.4239 25.8546 39.6313 25.2934 38.4584 25.2934H38.457ZM38.5081 20.3385C38.1868 21.2517 37.922 21.9933 37.668 22.7377C37.6304 22.8475 37.5282 23.0563 37.7218 23.07C38.2312 23.1071 38.7433 23.0934 39.2541 23.0851C39.406 23.0824 39.406 22.9478 39.3804 22.8338C39.3603 22.7459 39.3199 22.6635 39.2904 22.577C39.0511 21.8931 38.8132 21.2105 38.5081 20.3385Z" fill="#5E713E"/>
<path d="M38.5432 35.0037C41.9248 35.0037 45.3077 35.0062 48.6894 35C49.1938 35 49.6359 35.0825 49.8862 35.561C50.2026 36.1632 49.8304 36.8704 49.1277 36.9791C48.9176 37.0115 48.6985 36.9965 48.4832 36.9965C41.8263 36.9965 35.1706 36.9965 28.5137 36.9965C28.4061 36.9965 28.2984 36.999 28.1908 36.9965C27.4803 36.9791 27.0186 36.603 27.0005 36.027C26.9823 35.4348 27.466 35.0062 28.2038 35.005C31.6502 34.9988 35.0967 35.0025 38.5445 35.0025L38.5432 35.0037Z" fill="#5E713E"/>
<path d="M38.5404 51.9952C35.1774 51.9952 31.8145 51.9952 28.4515 51.9952C28.2361 51.9952 28.013 52.0127 27.8093 51.9615C27.2903 51.8316 26.9802 51.4856 27.001 50.9711C27.023 50.434 27.3487 50.0893 27.9222 50.0156C28.1129 49.9906 28.3101 50.0031 28.5034 50.0031C35.1645 50.0031 41.8255 50.0031 48.4853 50.0031C48.6578 50.0031 48.8304 49.9956 49.003 50.0094C49.5894 50.0556 49.9812 50.434 49.9994 50.9586C50.0176 51.5119 49.6244 51.929 49.0159 51.9902C48.8447 52.0077 48.6708 51.9964 48.4996 51.9964C45.1794 51.9964 41.8606 51.9964 38.5404 51.9964V51.9952Z" fill="#5E713E"/>
<path d="M38.4716 44.9971C35.1303 44.9971 31.7877 44.9971 28.4464 44.9971C28.231 44.9971 28.0065 45.0146 27.8028 44.9634C27.2851 44.831 26.9814 44.4811 27.0009 43.9664C27.0203 43.4554 27.337 43.1243 27.8677 43.0206C28.0338 42.9881 28.2115 43.0044 28.3841 43.0044C35.1316 43.0044 41.8803 43.0044 48.6278 43.0044C48.8004 43.0044 48.9781 42.9869 49.1429 43.0219C49.6645 43.1318 49.9825 43.4392 49.9993 43.9676C50.0162 44.4974 49.7177 44.8285 49.2026 44.9621C49.0002 45.0146 48.7744 44.9971 48.5603 44.9971C45.197 44.9984 41.8336 44.9971 38.4703 44.9971H38.4716Z" fill="#5E713E"/>
<path d="M49.0457 19.832C49.6459 18.8427 50.2259 17.8819 50.8126 16.9265C51.2701 16.1811 51.838 15.9779 52.4193 16.3356C52.9885 16.6866 53.0787 17.3154 52.644 18.0432C51.9645 19.1802 51.2943 20.3253 50.5757 21.4379C50.3012 21.8621 50.3268 22.1711 50.5865 22.5831C51.3293 23.7607 52.0317 24.9628 52.7396 26.1621C53.1567 26.8682 53.0666 27.4631 52.5135 27.8209C51.9456 28.1881 51.3347 27.9849 50.8973 27.2639C50.2797 26.2475 49.6728 25.2243 49 24.0995C48.5209 24.8774 48.0822 25.5902 47.6435 26.3031C47.4444 26.6283 47.2627 26.9658 47.046 27.2802C46.6706 27.825 46.0987 27.9686 45.5887 27.6705C45.0572 27.3601 44.8889 26.7394 45.2361 26.1445C45.9507 24.9235 46.6814 23.7119 47.4363 22.5153C47.6691 22.1481 47.6987 21.8757 47.4538 21.4894C46.6975 20.2942 45.9843 19.0718 45.2617 17.8548C44.8365 17.1393 44.9374 16.4847 45.5066 16.1527C46.0799 15.8179 46.6706 16.0388 47.112 16.7639C47.7068 17.7423 48.2935 18.7262 48.8869 19.706C48.9085 19.7412 48.9556 19.7616 49.0457 19.832Z" fill="#5E713E"/>
<path d="M29.4944 16.0024C30.8883 16.0024 32.2822 15.9969 33.6746 16.0051C34.5148 16.0105 34.9958 16.4074 35 17.0694C35.0042 17.7245 34.5065 18.154 33.69 18.169C32.8777 18.1826 32.0627 18.207 31.2518 18.1608C30.7038 18.1296 30.5989 18.3334 30.6031 18.8187C30.6255 21.37 30.6157 23.9226 30.6087 26.4739C30.6087 26.7648 30.6045 27.0733 30.5066 27.3411C30.3305 27.8168 29.9292 28.0316 29.4078 27.9963C28.9157 27.9636 28.5731 27.7054 28.4487 27.2446C28.3788 26.9877 28.3844 26.7077 28.383 26.4386C28.3788 23.909 28.3676 21.3795 28.39 18.8513C28.3942 18.3416 28.2809 18.1228 27.7049 18.1595C26.9192 18.2098 26.1265 18.1812 25.3366 18.169C24.5258 18.1567 24.0085 17.7272 24.0001 17.087C23.9917 16.4346 24.4922 16.0105 25.3129 16.0051C26.7067 15.9956 28.1006 16.0024 29.493 16.0024H29.4944Z" fill="#5E713E"/>
</svg>
