<svg width="89" height="70" viewBox="0 0 89 70" fill="none" xmlns="http://www.w3.org/2000/svg">
<path d="M20.9398 2.25C22.6098 2.52 24.2198 2.96 25.7098 3.79C29.6398 5.99 31.9798 9.31 32.6898 13.76C32.7798 14.32 32.9698 14.52 33.5698 14.52C46.1898 14.5 58.8098 14.51 71.4298 14.51C72.8498 14.51 73.2098 14.89 73.1598 16.31C72.9698 22.04 68.3998 27.13 62.7598 27.93C62.2998 27.99 61.8398 28.08 61.3798 28.03C60.8398 27.98 60.6498 28.23 60.5198 28.72C59.8698 31.16 59.2198 33.61 58.4198 36.01C57.3898 39.1 56.0898 42.08 53.9798 44.61C52.6398 46.21 51.0698 47.5 48.9998 48.04C48.6798 48.13 48.5698 48.29 48.5698 48.61C48.5798 51.64 48.5898 54.68 48.5598 57.71C48.5598 58.34 48.9998 58.26 49.3398 58.31C51.7698 58.65 53.9398 59.6 55.8698 61.09C57.3898 62.27 58.5598 63.75 59.5498 65.38C60.1198 66.32 59.5798 67.22 58.4398 67.23C54.2498 67.24 50.0498 67.23 45.8598 67.23C42.7498 67.23 39.6398 67.22 36.5298 67.23C35.9798 67.23 35.4798 67.17 35.1898 66.63C34.8898 66.08 35.0898 65.61 35.3998 65.12C37.3798 61.92 40.1098 59.67 43.7698 58.66C44.3998 58.49 45.0498 58.37 45.6998 58.27C46.0498 58.22 46.1998 58.09 46.1998 57.72C46.1898 54.67 46.1898 51.61 46.1998 48.56C46.1998 48.3 46.1398 48.13 45.8498 48.05C42.9798 47.26 41.1098 45.25 39.5498 42.87C37.6798 40.01 36.5698 36.82 35.6398 33.55C35.1698 31.9 34.6998 30.24 34.2598 28.58C34.1498 28.17 33.9798 28.01 33.5498 28.01C31.6098 28.03 29.8098 27.5 28.1098 26.6C27.7298 26.4 27.4698 26.42 27.1198 26.67C21.6998 30.5 14.5298 29.91 9.79984 25.26C4.81984 20.35 4.49984 12.2 9.06984 6.93C11.2998 4.36 14.0998 2.82 17.4598 2.32C17.5298 2.31 17.6098 2.28 17.6798 2.25H20.9398ZM26.5698 22.5C27.3498 23.3 28.1298 23.92 28.9998 24.42C30.7298 25.41 32.5998 25.74 34.5798 25.68C35.6398 25.65 35.9898 25.96 36.2598 26.97C36.6898 28.55 37.1198 30.14 37.5598 31.72C38.3198 34.44 39.1298 37.14 40.4198 39.67C41.4398 41.67 42.6498 43.52 44.5098 44.85C46.3298 46.16 48.1798 46.21 50.0698 44.99C50.7598 44.55 51.3598 44 51.8898 43.39C53.2798 41.8 54.2898 39.98 55.0998 38.05C56.5798 34.53 57.4398 30.81 58.4698 27.15C58.8298 25.88 59.0898 25.64 60.4198 25.67C61.8898 25.7 63.3098 25.52 64.6698 24.96C65.9898 24.41 67.1298 23.63 68.1698 22.5H26.5698ZM47.2998 16.89V16.9H24.8098C24.6698 16.9 24.5398 16.91 24.3998 16.9C24.0598 16.89 23.9598 17.04 24.0298 17.37C24.1698 18.01 24.3598 18.64 24.5498 19.27C24.7398 19.91 25.0798 20.11 25.7598 20.11C40.1598 20.09 54.5498 20.09 68.9498 20.09C69.1098 20.09 69.2598 20.08 69.4098 20.09C69.6998 20.11 69.8698 19.98 69.9798 19.71C70.2298 19.08 70.4398 18.44 70.5698 17.77C70.7298 16.9 70.7298 16.89 69.8498 16.89C62.3298 16.89 54.8198 16.89 47.2998 16.89ZM38.5298 64.85C38.7998 64.86 38.9298 64.88 39.0598 64.88C44.5898 64.88 50.1098 64.88 55.6398 64.88C55.6998 64.88 55.7598 64.88 55.8098 64.88C55.9198 64.87 56.0698 64.92 56.1298 64.8C56.2098 64.65 56.0498 64.56 55.9798 64.46C55.9198 64.38 55.8498 64.31 55.7898 64.24C52.5098 60.69 47.3698 59.58 42.9298 61.48C41.2098 62.2 39.7698 63.3 38.5298 64.85ZM16.3198 14.51C16.3398 14.47 16.3698 14.42 16.3898 14.38C14.5598 12.56 12.7298 10.74 10.8998 8.92C10.6898 8.71 10.5798 8.82 10.4398 9C9.31984 10.49 8.60984 12.16 8.31984 14.01C8.26984 14.33 8.34984 14.53 8.73984 14.53C11.2698 14.5 13.7998 14.51 16.3198 14.51ZM20.5098 21.82C20.5098 23.25 20.5298 24.68 20.4998 26.11C20.4898 26.62 20.6798 26.77 21.1498 26.68C22.5698 26.42 23.8998 25.94 25.1398 25.18C25.4998 24.96 25.5398 24.81 25.2198 24.5C23.1998 22.55 22.0398 20.16 21.6298 17.41C21.5598 16.91 21.3198 16.89 20.9398 16.89C20.4998 16.89 20.5098 17.18 20.5098 17.48C20.5098 18.92 20.5098 20.37 20.5098 21.82ZM22.2398 14.27C22.2898 14.35 22.3498 14.42 22.3998 14.5C24.9398 14.5 27.4898 14.5 30.0298 14.5C30.3798 14.5 30.3798 14.32 30.3398 14.04C30.0698 12.23 29.3698 10.6 28.3198 9.11C28.0498 8.73 27.8798 8.82 27.6098 9.09C26.0298 10.68 24.4498 12.26 22.8598 13.84C22.6798 14.02 22.4498 14.13 22.2398 14.27ZM20.5098 12.62C20.5598 12.64 20.5998 12.66 20.6498 12.67C22.4498 10.87 24.2498 9.08 26.0598 7.28C26.3098 7.04 26.1798 6.89 25.9598 6.73C24.4798 5.67 22.8498 4.96 21.0398 4.68C20.5998 4.61 20.5098 4.76 20.5198 5.16C20.5298 7.44 20.5298 9.72 20.5298 11.99V12.62H20.5098ZM18.0798 12.63C18.0998 12.56 18.1198 12.49 18.1198 12.42C18.1198 9.97 18.1198 7.52 18.1298 5.07C18.1298 4.67 17.9498 4.64 17.6198 4.69C15.8698 4.95 14.2898 5.62 12.8398 6.63C12.4398 6.91 12.3798 7.09 12.7598 7.46C14.4198 9.08 16.0398 10.73 17.6798 12.36C17.7998 12.47 17.8698 12.62 18.0798 12.63ZM18.0398 18.68C16.1898 20.52 14.4098 22.31 12.6198 24.09C12.3198 24.39 12.5598 24.52 12.7698 24.67C14.1498 25.68 15.6798 26.34 17.3598 26.65C18.0498 26.78 18.1398 26.7 18.1398 26.01C18.1398 23.89 18.1398 21.76 18.1398 19.64C18.1298 19.35 18.1798 19.06 18.0398 18.68ZM16.3098 16.97C16.1898 16.93 16.1598 16.9 16.1198 16.9C13.6698 16.9 11.2098 16.9 8.75984 16.89C8.27984 16.89 8.28984 17.18 8.34984 17.51C8.64984 19.23 9.30984 20.8 10.3198 22.23C10.5898 22.61 10.7598 22.59 11.0698 22.28C12.7098 20.62 14.3698 18.97 16.0198 17.32C16.1198 17.22 16.1898 17.11 16.3098 16.97Z" fill="#3060A9"/>
</svg>
