<svg width="80" height="80" viewBox="0 0 80 80" fill="none" xmlns="http://www.w3.org/2000/svg">
<path d="M11.1475 62.6705V58.6433C11.5359 57.805 12.3183 57.8094 13.1165 57.8408C11.6544 54.9771 12.1885 52.6043 14.6216 50.6238C13.322 49.5063 12.3194 48.1961 11.607 46.6684C11.4523 46.3355 11.3936 45.96 11.1486 45.6686V36.832C11.3067 36.6829 11.3326 36.4733 11.3981 36.2839C11.8802 34.8761 12.3589 33.4673 12.8377 32.0584C14.6374 26.7557 16.4349 21.4531 18.2368 16.1516C18.8906 14.226 20.172 12.9124 22.1287 12.2768C22.481 12.1625 22.8468 12.0919 23.207 12C23.5829 12 23.9578 12 24.3338 12C25.246 12.2107 26.1199 12.4999 26.9464 12.9662C40.6781 20.7044 54.4165 28.4302 68.156 36.1561C68.6234 36.4195 68.8526 36.7816 68.8504 37.3308C68.838 39.9401 68.8436 42.5493 68.847 45.1586C68.847 45.3862 68.8165 45.5991 68.7183 45.8076C67.9313 47.4765 66.9468 49.0098 65.5355 50.2304C65.2013 50.5196 65.2814 50.6216 65.5851 50.8569C67.1952 52.1044 67.8828 53.7408 67.6208 55.7651C67.526 56.4936 67.2076 57.1392 66.8621 57.8487C67.115 57.8487 67.2991 57.8464 67.482 57.8487C68.4292 57.8621 68.8402 58.2735 68.8425 59.2284C68.8447 60.1228 68.8764 61.0195 68.8255 61.9117C68.7285 63.6075 68.0792 65.05 66.7007 66.1159C65.6947 66.8927 64.5306 67.0003 63.2965 66.998C47.7697 66.9801 32.2428 66.9857 16.716 66.9868C16.5094 66.9868 16.3028 66.9969 16.0973 67.0014C14.0977 67.0406 12.6514 66.1574 11.7165 64.4167C11.4218 63.8687 11.3304 63.2567 11.1497 62.6727L11.1475 62.6705ZM63.0335 36.053C63.047 36.0228 63.0594 35.9914 63.073 35.9611C62.9183 35.8692 62.7659 35.7728 62.6101 35.6854C59.5763 33.9761 56.5414 32.2669 53.5064 30.5587C44.2719 25.3603 35.0373 20.163 25.8038 14.9635C25.2799 14.6687 24.7504 14.393 24.1328 14.3425C22.3805 14.2013 21.0064 15.1641 20.3821 16.9978C18.8036 21.6335 17.2331 26.2715 15.6592 30.9095C15.1274 32.4787 14.6058 34.0512 14.0593 35.6159C13.9419 35.951 13.96 36.1102 14.363 36.0564C14.4556 36.044 14.5505 36.0541 14.6442 36.0541C30.5865 36.0541 46.5289 36.0541 62.4712 36.0541H63.0323L63.0335 36.053ZM39.995 44.0983C48.6526 44.0983 57.3091 44.0961 65.9668 44.1062C66.3868 44.1062 66.5539 44.0255 66.546 43.5648C66.5177 42.0181 66.5234 40.4702 66.5426 38.9235C66.5471 38.5267 66.4647 38.3821 66.021 38.3832C48.6684 38.3955 31.3159 38.3955 13.9645 38.3832C13.5185 38.3832 13.4395 38.5323 13.4451 38.9257C13.4643 40.4164 13.4767 41.9082 13.4406 43.3989C13.4282 43.9392 13.5399 44.1151 14.1361 44.114C22.7553 44.0916 31.3757 44.0983 39.995 44.0983ZM39.943 64.6846C47.8284 64.6846 55.7138 64.6813 63.598 64.6869C65.1448 64.6869 65.9927 64.0626 66.3969 62.5752C66.5663 61.9543 66.5053 61.3176 66.5415 60.6866C66.5663 60.2573 66.441 60.1071 65.9826 60.115C63.9187 60.152 61.8536 60.1609 59.7885 60.1632C53.3495 60.1677 46.9093 60.1699 40.4703 60.1553C39.9927 60.1553 39.7059 60.2798 39.4237 60.6922C37.2965 63.8025 33.0614 64.0256 30.7547 61.0901C30.162 60.3369 29.6223 60.1172 28.6919 60.1352C25.0891 60.2058 21.4829 60.1677 17.8789 60.1621C16.5647 60.1598 15.2505 60.1486 13.9374 60.1172C13.5749 60.1083 13.4304 60.2114 13.4474 60.5857C13.4778 61.2369 13.4191 61.8904 13.5117 62.5394C13.707 63.9023 14.6905 64.7306 16.0623 64.6936C16.3434 64.6857 16.6257 64.6835 16.9068 64.6835C24.5855 64.6835 32.2643 64.6835 39.943 64.6835V64.6846ZM35.3376 46.377C32.3332 46.377 29.3287 46.377 26.3254 46.377C25.7112 46.377 25.7101 46.3815 25.9912 46.9408C27.8282 50.5857 29.6629 54.2306 31.5044 57.8733C31.7732 58.4046 32.0204 58.9561 32.3614 59.4403C33.7117 61.3647 36.2205 61.3311 37.5381 59.3865C37.756 59.0637 37.9231 58.7072 38.1162 58.3676C40.2942 54.5433 42.4744 50.7202 44.6524 46.8959C44.9448 46.3826 44.9414 46.377 44.3509 46.377C41.3465 46.3759 38.342 46.377 35.3387 46.377H35.3376ZM56.6136 46.377C53.7808 46.377 50.9469 46.3803 48.1141 46.3725C47.7911 46.3725 47.5608 46.4184 47.3824 46.7412C46.4622 48.4046 45.524 50.0578 44.5711 51.7032C44.4017 51.9946 44.4525 52.1022 44.7472 52.2244C48.3624 53.7285 51.8614 53.6769 55.1899 51.4521C55.6336 51.1551 56.0762 51.0464 56.6102 51.0587C60.2131 51.1383 63.2096 49.9042 65.3887 46.9654C65.5027 46.8107 65.7455 46.6549 65.6371 46.4532C65.549 46.2896 65.2927 46.3803 65.1132 46.3803C62.2804 46.3759 59.4464 46.377 56.6136 46.377ZM52.0511 57.8296C55.4123 57.8296 58.7735 57.8296 62.1347 57.8285C62.3786 57.8285 62.6236 57.8263 62.8652 57.796C64.2009 57.629 65.2442 56.5788 65.3548 55.3021C65.479 53.872 64.6751 52.666 63.3383 52.2445C62.9793 52.1313 62.653 52.138 62.3052 52.2916C60.5992 53.0414 58.804 53.381 56.9433 53.3766C56.608 53.3766 56.3347 53.4584 56.0536 53.6355C54.1579 54.8258 52.0963 55.4792 49.8426 55.5375C47.72 55.5924 45.7024 55.1553 43.7852 54.2788C43.3381 54.0748 43.1541 54.1544 42.9384 54.568C42.4654 55.477 41.9392 56.3591 41.4334 57.2524C41.2166 57.6365 41.3197 57.8289 41.7428 57.8296C45.1785 57.8296 48.6154 57.8296 52.0511 57.8296ZM22.8728 57.8296C24.7109 57.8296 26.549 57.8218 28.3871 57.8363C28.789 57.8397 28.8873 57.7702 28.6807 57.3813C28.1568 56.395 27.6656 55.3907 27.1632 54.3943C26.6754 53.4281 26.6788 53.4595 25.569 53.5514C22.7463 53.7845 19.9858 53.5324 17.3765 52.3443C17.0073 52.1762 16.7137 52.1963 16.3705 52.3443C15.1071 52.8912 14.4003 54.2015 14.6611 55.5364C14.9219 56.8691 16.0781 57.8106 17.5267 57.8251C19.3083 57.8431 21.09 57.8296 22.8728 57.8296ZM25.5656 51.2257C24.8102 49.7271 24.0696 48.2902 23.3639 46.8365C23.19 46.479 22.98 46.3658 22.5905 46.368C19.927 46.3837 17.2647 46.3747 14.6013 46.3803C14.4443 46.3803 14.2625 46.312 14.1293 46.4655C15.7382 49.8347 20.5683 51.8634 25.5656 51.2257Z" fill="#5E713E"/>
<path d="M27.3425 32.648C27.3312 31.9788 27.7772 31.5148 28.4478 31.498C29.0779 31.4823 29.5656 31.9743 29.578 32.6379C29.5905 33.2891 29.1196 33.7755 28.4625 33.7901C27.8291 33.8047 27.3538 33.3205 27.3425 32.648Z" fill="#5E713E"/>
<path d="M31.884 23.465C31.8818 24.1296 31.4076 24.6284 30.7776 24.6262C30.125 24.6239 29.6372 24.1408 29.6372 23.4964C29.6372 22.8384 30.1227 22.3352 30.7505 22.3397C31.4211 22.3441 31.8863 22.8059 31.884 23.465Z" fill="#5E713E"/>
<path d="M19.2575 28.0425C19.2575 27.3845 19.7272 26.9205 20.3944 26.9183C21.0188 26.916 21.5066 27.4271 21.5043 28.0817C21.5021 28.7262 21.012 29.2093 20.3594 29.2081C19.7306 29.2081 19.2563 28.706 19.2563 28.0425H19.2575Z" fill="#5E713E"/>
<path d="M28.4135 28.0671C28.4034 28.7407 27.9303 29.2227 27.2946 29.2081C26.6409 29.1935 26.161 28.7004 26.1746 28.0559C26.1893 27.3946 26.6804 26.9026 27.3093 26.9182C27.9845 26.9351 28.4237 27.3924 28.4135 28.066V28.0671Z" fill="#5E713E"/>
<path d="M46.9581 32.6435C46.9502 31.9732 47.3973 31.5114 48.0691 31.498C48.6935 31.4856 49.1891 31.9866 49.1993 32.6435C49.2095 33.2868 48.7262 33.7789 48.0736 33.7912C47.4391 33.8024 46.966 33.3159 46.9581 32.6435Z" fill="#5E713E"/>
<path d="M43.4532 28.0783C44.1036 28.0693 44.5744 28.5401 44.5846 29.207C44.5936 29.8548 44.1171 30.3357 43.4589 30.3446C42.8131 30.3536 42.3513 29.8828 42.3434 29.2081C42.3355 28.53 42.7713 28.0873 43.4544 28.0783H43.4532Z" fill="#5E713E"/>
<path d="M37.7266 31.4688C37.7311 30.8042 38.194 30.3491 38.8647 30.3525C39.4868 30.3558 39.9757 30.8725 39.97 31.5215C39.9644 32.1716 39.4811 32.6378 38.8172 32.6345C38.1771 32.6311 37.7232 32.1447 37.7277 31.4677L37.7266 31.4688Z" fill="#5E713E"/>
<path d="M52.7229 33.752C52.7308 33.0896 53.1949 32.6513 53.8768 32.6592C54.5147 32.667 54.9833 33.168 54.9686 33.8282C54.9551 34.476 54.4639 34.9412 53.8046 34.9288C53.1655 34.9176 52.7139 34.4256 52.7218 33.752H52.7229Z" fill="#5E713E"/>
<path d="M27.2649 18.9133C27.2649 19.5735 26.7963 20.042 26.1347 20.0431C25.5081 20.0431 25.0203 19.5387 25.0181 18.8853C25.0158 18.2352 25.4923 17.7656 26.1584 17.7599C26.7963 17.7555 27.2649 18.2441 27.2649 18.9133Z" fill="#5E713E"/>
<path d="M23.7977 32.6625C23.7966 33.3272 23.3314 33.7923 22.6686 33.7912C22.0431 33.7912 21.561 33.2823 21.561 32.6233C21.561 31.9765 22.0443 31.4991 22.7036 31.4968C23.3393 31.4946 23.8 31.9855 23.7988 32.6625H23.7977Z" fill="#5E713E"/>
<path d="M23.7966 23.4908C23.7989 24.1577 23.3405 24.6228 22.6766 24.6273C22.0511 24.6307 21.5633 24.1274 21.5577 23.4706C21.552 22.8205 22.0251 22.3475 22.6912 22.3397C23.3303 22.3318 23.7932 22.8138 23.7955 23.4908H23.7966Z" fill="#5E713E"/>
<path d="M36.5391 26.8992C35.8661 26.8947 35.3987 26.4329 35.4043 25.7784C35.41 25.1171 35.8865 24.6318 36.5266 24.6351C37.2029 24.6385 37.65 25.0868 37.6467 25.7593C37.6433 26.4397 37.1939 26.9026 36.5402 26.8992H36.5391Z" fill="#5E713E"/>
<path d="M33.0524 31.4823C32.4032 31.4811 31.9538 31.0093 31.9561 30.3312C31.9583 29.6643 32.4122 29.2182 33.0885 29.2193C33.7298 29.2193 34.1927 29.7035 34.1893 30.3715C34.1871 31.0373 33.7298 31.4834 33.0524 31.4811V31.4823Z" fill="#5E713E"/>
</svg>
