<svg width="52" height="52" viewBox="0 0 52 52" fill="none" xmlns="http://www.w3.org/2000/svg">
<path d="M13.3156 51.1578C13.1361 51.0513 12.9905 50.8961 12.8955 50.7103C12.8005 50.5245 12.7599 50.3156 12.7786 50.1078C12.7956 49.1078 12.7986 48.1079 12.7786 47.1149C12.7647 46.8822 12.8199 46.6507 12.9371 46.4493C13.0544 46.2479 13.2285 46.0856 13.4376 45.9828C15.8956 44.5198 18.3376 43.0359 20.8036 41.5829C20.9703 41.5163 21.1045 41.3872 21.1777 41.2233C21.2509 41.0593 21.2573 40.8735 21.1956 40.7049C20.9466 39.5859 20.7636 38.4527 20.5406 37.3287C20.4489 36.8725 20.4033 36.4081 20.4046 35.9427C20.4099 34.0094 20.4099 32.0799 20.4046 30.1539C20.4046 29.5129 20.3876 29.5038 19.8046 29.7228L1.5446 36.5577C0.524596 36.9397 0.012926 36.5851 0.00959266 35.4938C0.00959266 33.9808 0.0216112 32.4667 0.00361121 30.9537C-0.0154348 30.7128 0.0411903 30.472 0.165599 30.2648C0.290007 30.0575 0.475995 29.8942 0.697611 29.7977C1.46661 29.4037 2.2126 28.9619 2.9846 28.5729C3.13013 28.5149 3.25165 28.4091 3.32923 28.2731C3.40682 28.137 3.43587 27.9786 3.4116 27.8238C3.3876 27.3598 3.3986 26.8929 3.4116 26.4239C3.4207 25.8539 3.61745 25.3027 3.97142 24.8558C4.32538 24.4089 4.81682 24.0911 5.36961 23.9518C5.91166 23.8026 6.48794 23.8383 7.00758 24.0528C7.52722 24.2674 7.96066 24.6487 8.2396 25.1368C8.4746 25.5588 8.65659 25.5238 9.00059 25.3168C9.55559 24.9828 10.1326 24.6837 10.7116 24.3917C10.835 24.344 10.9391 24.2569 11.0079 24.1439C11.0766 24.0309 11.106 23.8982 11.0916 23.7667C11.0716 23.2357 11.0816 22.7019 11.0916 22.1669C11.0993 21.6049 11.2884 21.0605 11.6308 20.6149C11.9733 20.1692 12.4506 19.8459 12.9916 19.6937C13.5398 19.5364 14.1249 19.568 14.6531 19.7833C15.1812 19.9986 15.6216 20.385 15.9036 20.8807C16.1556 21.3517 16.3586 21.3538 16.7696 21.1158C17.7476 20.5488 18.7326 19.9879 19.7516 19.4999C19.9788 19.4106 20.1692 19.2471 20.2917 19.036C20.4142 18.8249 20.4618 18.5784 20.4266 18.3368C20.4006 15.6074 20.3979 12.8796 20.4186 10.1529C20.4237 7.51732 20.9831 4.91225 22.0606 2.50694C22.2721 1.94438 22.6096 1.43761 23.0473 1.02574C23.485 0.613878 24.0112 0.30764 24.5856 0.130724C25.4208 -0.0980539 26.3098 -0.0249059 27.0964 0.337267C27.8829 0.699439 28.5165 1.3274 28.8856 2.1107C30.0172 4.39845 30.6485 6.90103 30.7376 9.45177C30.8376 12.4788 30.7646 15.5039 30.7816 18.5309C30.7629 18.7176 30.8053 18.9053 30.9025 19.0658C30.9997 19.2263 31.1465 19.3508 31.3206 19.4208C32.4306 19.9868 33.5206 20.5908 34.6116 21.2008C34.9176 21.3718 35.0526 21.3179 35.2206 21.0109C35.4879 20.4883 35.9251 20.0722 36.4601 19.8309C36.9951 19.5896 37.5963 19.5375 38.1649 19.683C38.7335 19.8285 39.2358 20.1631 39.5892 20.6317C39.9425 21.1003 40.1261 21.6751 40.1096 22.2618C40.1096 22.7618 40.1266 23.2618 40.1096 23.7618C40.0949 23.8934 40.1241 24.026 40.1926 24.1393C40.2612 24.2525 40.3652 24.3399 40.4886 24.3878C41.1246 24.7138 41.7533 25.0544 42.3746 25.4098C42.6146 25.5468 42.7316 25.5157 42.8806 25.2667C43.1528 24.7362 43.6007 24.3168 44.1478 24.0797C44.6949 23.8426 45.3074 23.8027 45.8806 23.9669C46.4562 24.1235 46.9605 24.4733 47.3088 24.9576C47.6571 25.442 47.8283 26.0313 47.7936 26.6268C47.8153 26.9085 47.813 27.1915 47.7866 27.4728C47.7226 27.7476 47.7675 28.0368 47.912 28.2792C48.0565 28.5216 48.2894 28.6984 48.5616 28.7728C49.2126 29.0628 49.8236 29.4438 50.4616 29.7728C50.7471 29.9095 50.9893 30.1223 51.1616 30.3878V36.1769C51.0944 36.3034 51.0018 36.4147 50.8896 36.5038C50.7774 36.5928 50.648 36.6577 50.5095 36.6944C50.371 36.7312 50.2264 36.7389 50.0848 36.7171C49.9432 36.6954 49.8076 36.6444 49.6866 36.5677L31.3866 29.7049C30.8216 29.4919 30.7996 29.5048 30.7996 30.1048C30.7996 32.0668 30.7996 34.0288 30.7996 35.9908C30.7994 36.4229 30.7568 36.8541 30.6726 37.2779C30.4496 38.4189 30.2616 39.5668 30.0066 40.6998C29.946 40.869 29.9539 41.0551 30.0286 41.2186C30.1033 41.3821 30.239 41.51 30.4066 41.5748C32.8536 43.0228 35.2826 44.4988 37.7276 45.9498C37.9517 46.0589 38.1381 46.2326 38.2629 46.4483C38.3876 46.6641 38.4449 46.9121 38.4276 47.1608C38.4006 48.1248 38.4066 49.0898 38.4276 50.0538C38.4531 50.2694 38.416 50.4877 38.3208 50.6827C38.2256 50.8778 38.0762 51.0414 37.8906 51.1539H36.8906C34.0826 50.6719 31.2753 50.1889 28.4686 49.7049C28.3877 49.6841 28.3021 49.6902 28.225 49.7225C28.1479 49.7548 28.0835 49.8115 28.0416 49.8839C27.6235 50.4895 27.0138 50.9368 26.3106 51.1539H24.9106C24.209 50.932 23.6009 50.4834 23.1816 49.8788C23.0506 49.6698 22.8636 49.6938 22.6546 49.7298C21.5446 49.9208 20.4316 50.0967 19.3216 50.2867C17.6549 50.5727 15.9913 50.8619 14.3306 51.1539L13.3156 51.1578ZM28.9536 23.0279C28.9536 18.7873 28.9536 14.5455 28.9536 10.3028C28.9661 7.83263 28.4245 5.39103 27.3686 3.15782C27.2386 2.77567 26.9949 2.44244 26.6701 2.20275C26.3454 1.96305 25.9551 1.82831 25.5516 1.81676C25.157 1.82793 24.7753 1.95996 24.458 2.19493C24.1408 2.42991 23.9033 2.75649 23.7776 3.13072C22.7664 5.29298 22.2418 7.65069 22.2406 10.0377C22.2273 18.721 22.2273 27.4041 22.2406 36.0868C22.2345 36.3026 22.2486 36.5186 22.2826 36.7318C23.0253 40.5985 23.7719 44.4652 24.5226 48.3319C24.6596 49.0379 25.0036 49.3619 25.5946 49.3639C26.1856 49.3659 26.5386 49.0528 26.6756 48.3478C27.2426 45.4288 27.7526 42.4969 28.3856 39.5909C28.829 37.4599 29.026 35.2848 28.9726 33.1087C28.9276 29.7487 28.9606 26.3899 28.9606 23.0289M20.4016 24.4549V22.0099C20.4016 21.2179 20.4016 21.2099 19.7216 21.5809C16.0369 23.5729 12.3526 25.5662 8.66859 27.5609C6.54959 28.7089 4.4336 29.8608 2.3086 31.0018C2.15609 31.064 2.02795 31.1741 1.94352 31.3155C1.8591 31.457 1.82299 31.622 1.84062 31.7858C1.86762 32.4988 1.84059 33.2158 1.84959 33.9308C1.84959 34.4788 1.8876 34.5048 2.3766 34.3248C3.24926 34.0008 4.12092 33.6745 4.99159 33.3458C9.94092 31.4898 14.8909 29.6364 19.8416 27.7858C20.0258 27.7455 20.1875 27.6362 20.2935 27.4803C20.3995 27.3245 20.4418 27.1339 20.4116 26.9479C20.3776 26.1179 20.4016 25.2859 20.4016 24.4549M30.8016 24.4288C30.8016 25.2918 30.8196 26.1578 30.7936 27.0218C30.7683 27.1848 30.8059 27.3511 30.8987 27.4874C30.9915 27.6237 31.1327 27.7196 31.2936 27.7557C32.6706 28.2507 34.0366 28.7727 35.4056 29.2877L48.7586 34.2877C49.3426 34.5067 49.3526 34.4977 49.3586 33.8497C49.3295 33.3687 49.3336 32.8864 49.3706 32.4059C49.4425 32.0448 49.3791 31.6698 49.1925 31.3524C49.0059 31.035 48.7091 30.7976 48.3586 30.6849C44.8586 28.8489 41.3916 26.9339 37.9126 25.0499C35.7346 23.8699 33.5553 22.692 31.3746 21.5167C30.8116 21.2167 30.8066 21.2217 30.8056 21.8807C30.8056 22.7277 30.8056 23.5809 30.8056 24.4259M14.6236 48.1517C14.6236 48.4317 14.6286 48.6157 14.6236 48.7977C14.6126 49.0897 14.6986 49.2188 15.0336 49.1608C17.4236 48.7521 19.8159 48.3521 22.2106 47.9608C22.5196 47.9098 22.5786 47.7958 22.5166 47.4938C22.2559 46.2271 22.0119 44.9549 21.7846 43.6769C21.7086 43.2459 21.5676 43.2169 21.2086 43.4349C19.2626 44.6209 17.3146 45.8019 15.3456 46.9479C14.8116 47.2579 14.4616 47.5868 14.6246 48.1478M36.5926 48.3028C36.5626 47.8758 36.7036 47.4357 36.1786 47.1297C34.0966 45.9157 32.0336 44.6677 29.9786 43.4127C29.6076 43.1867 29.5066 43.2979 29.4386 43.6659C29.2216 44.8419 28.9886 46.0148 28.7596 47.1888C28.6196 47.9048 28.6186 47.9009 29.3416 48.0189C31.4556 48.3649 33.5693 48.7141 35.6826 49.0668C36.7826 49.2518 36.5706 49.2378 36.5966 48.3028M12.8806 22.4278C12.8686 23.2148 12.8806 23.2279 13.4576 22.9139C13.7206 22.7709 13.9806 22.6218 14.2456 22.4828C14.4266 22.3828 14.5456 22.2627 14.4656 22.0467C14.4276 21.8831 14.3381 21.7361 14.2103 21.6271C14.0825 21.518 13.9232 21.4527 13.7556 21.4408C13.588 21.4203 13.4185 21.4591 13.2764 21.5504C13.1343 21.6417 13.0286 21.7798 12.9776 21.9408C12.9267 22.0993 12.8931 22.263 12.8776 22.4288M38.3416 22.4718C38.3304 22.3373 38.3107 22.2038 38.2826 22.0719C38.2551 21.8791 38.1525 21.7049 37.9973 21.5873C37.842 21.4697 37.6466 21.418 37.4536 21.4437C37.2856 21.4546 37.1258 21.5209 36.9992 21.6319C36.8727 21.743 36.7863 21.8925 36.7536 22.0577C36.6446 22.4077 36.9646 22.4577 37.1646 22.5777C37.3646 22.6977 37.5986 22.8238 37.8176 22.9408C38.3346 23.2178 38.3466 23.2088 38.3416 22.4718M5.24461 26.6178C5.23661 27.3028 5.27159 27.3258 5.82359 27.0358C6.07259 26.9068 6.31662 26.7647 6.56462 26.6307C6.83762 26.4817 6.8256 26.2809 6.6746 26.0509C6.5739 25.9026 6.42568 25.793 6.25437 25.7403C6.08307 25.6877 5.89892 25.695 5.73231 25.7611C5.5657 25.8272 5.42659 25.9481 5.33793 26.1039C5.24927 26.2596 5.21635 26.4408 5.24461 26.6178M45.9446 26.6417C45.9834 26.4615 45.956 26.2734 45.8675 26.1117C45.779 25.9499 45.6353 25.8254 45.4626 25.7609C45.3173 25.6944 45.1545 25.6766 44.9983 25.7101C44.8421 25.7436 44.7008 25.8267 44.5956 25.9469C44.3646 26.2129 44.2956 26.4659 44.6816 26.6639C44.9176 26.7839 45.1466 26.9189 45.3816 27.0419C45.9126 27.3219 45.9486 27.2987 45.9456 26.6417" fill="#3060A9"/>
</svg>
