<svg width="89" height="70" viewBox="0 0 89 70" fill="none" xmlns="http://www.w3.org/2000/svg">
<path d="M10.8999 15.4701C10.1299 14.2401 8.85987 13.9901 7.56987 13.8801C6.19987 13.7601 4.89987 14.0101 3.73987 14.8501C3.15987 15.2701 2.46987 15.1401 2.12987 14.6201C1.78987 14.1201 1.90987 13.5201 2.49987 13.0901C4.42987 11.6901 6.58987 11.4001 8.88987 11.8701C9.88987 12.0801 10.8499 12.4001 11.6999 13.0601C11.3999 10.7301 9.56987 8.72009 7.29987 8.68009C6.99987 8.67009 6.68987 8.69009 6.37987 8.67009C5.75987 8.64009 5.34987 8.31009 5.30987 7.69009C5.26987 7.08009 5.60987 6.65009 6.21987 6.56009C7.72987 6.35009 9.14987 6.64009 10.4699 7.41009C11.5099 8.02009 12.2099 8.95009 12.8799 9.93009C13.4899 8.26009 12.5099 5.58009 10.9499 4.58009C10.7599 4.46009 10.5399 4.37009 10.3599 4.23009C9.84987 3.88009 9.67987 3.40009 9.96987 2.85009C10.2599 2.31009 10.7499 2.12009 11.3299 2.36009C12.4099 2.81009 13.2699 3.54009 13.9299 4.53009C14.8499 5.91009 15.1799 7.46009 15.2399 9.08009C15.2499 9.28009 15.2499 9.49009 15.2599 9.69009C15.2599 9.73009 15.3199 9.76009 15.3499 9.80009C15.5899 9.80009 15.6899 9.60009 15.8299 9.47009C17.5899 7.75009 19.6999 7.35009 22.0299 7.85009C22.8699 8.03009 23.2899 8.57009 23.1399 9.21009C22.9799 9.87009 22.4399 10.1401 21.5699 9.95009C18.9299 9.37009 17.5499 10.4301 16.1299 12.6501C16.7199 12.7001 17.2199 12.4401 17.7499 12.3701C19.8299 12.0901 21.7399 12.5301 23.5099 13.6201C23.8399 13.8301 24.2199 14.1001 24.1799 14.4901C24.0799 15.3101 24.5599 15.1801 25.0599 15.1801C27.8599 15.1701 30.6499 15.1601 33.4499 15.1801C34.0099 15.1801 34.2899 15.0501 34.4899 14.4601C34.8499 13.3601 35.7199 12.7701 36.8699 12.7601C41.9799 12.7401 47.0899 12.7301 52.1999 12.7601C53.3499 12.7701 54.2099 13.3801 54.5599 14.4801C54.7499 15.1001 55.0799 15.1801 55.6099 15.1801C58.1999 15.1701 60.7999 15.1701 63.3899 15.1701C64.9299 15.1701 65.5599 15.8001 65.5799 17.3501C65.5899 18.0101 65.5899 18.6701 65.5799 19.3301C65.5699 20.0501 65.3499 20.6601 64.7399 21.1201C64.1499 21.5701 64.2299 22.1801 64.8899 22.4601C65.6599 22.7901 65.9899 23.3701 66.0699 24.1701C66.1899 25.3801 66.3299 26.5901 66.4899 27.8001C66.5999 28.6701 66.4499 29.4001 65.6499 29.9201C65.0699 30.3001 65.1899 31.2501 65.8399 31.5001C66.6799 31.8101 67.0699 32.3901 67.1799 33.2601C67.3799 34.7701 67.6399 36.2701 67.8699 37.7801C67.9599 38.4001 67.7699 38.8801 67.1599 39.1401C66.9499 39.2301 66.5899 39.1301 66.6599 39.5401C66.7199 39.9201 66.5999 40.4401 67.0799 40.6001C68.2299 41.0001 68.6199 41.8901 68.7899 42.9901C68.9499 44.0401 69.1699 45.0901 69.3799 46.1301C69.5299 46.8701 69.3199 47.4701 68.7499 47.9701C68.1299 48.5101 68.2999 49.4401 69.0699 49.6701C69.7999 49.8901 70.2399 50.3501 70.4099 51.0801C70.7299 52.4901 71.0599 53.9001 71.3799 55.3101C71.5299 55.9901 71.2899 56.5601 70.7799 57.0201C70.6599 57.1301 70.4199 57.1801 70.5199 57.4201C70.5899 57.5801 70.7799 57.5601 70.9199 57.5701C73.5299 57.7101 75.7499 58.6701 77.4299 60.7301C77.5099 60.8301 77.5999 60.9501 77.7399 60.9001C77.8799 60.8501 77.8699 60.6901 77.8799 60.5701C77.8899 60.4401 77.8899 60.3201 77.8899 60.1901C77.9099 55.7201 77.9699 51.2401 77.7299 46.7801C77.3999 40.4601 76.7299 34.1801 75.7099 27.9401C75.2399 25.0401 74.7199 22.1301 74.5399 19.1901C74.4899 18.4001 73.9899 17.9301 73.1599 17.8401C71.2599 17.6201 69.4999 18.7401 68.8699 20.5501C68.8299 20.6701 68.7999 20.7901 68.7599 20.9101C68.4999 21.6801 68.0299 22.0101 67.4299 21.8501C66.7499 21.6701 66.4599 21.0801 66.6899 20.2701C67.2499 18.2501 68.5099 16.8401 70.4599 16.0601C71.3099 15.7201 72.2099 15.5801 73.1499 15.5201C72.0499 14.6801 70.8299 14.2401 69.4599 14.3901C68.4899 14.5001 67.5899 14.8501 66.7599 15.3701C65.9999 15.8501 65.3899 15.7901 65.0299 15.2101C64.6699 14.6401 64.8599 14.0201 65.6099 13.5701C67.5599 12.3901 69.6499 11.9701 71.8999 12.4801C72.2099 12.5501 72.5299 12.6301 72.8799 12.7201C72.1799 10.7901 70.0599 9.53009 68.1499 9.85009C67.8499 9.90009 67.5499 9.96009 67.2499 10.0101C66.5699 10.1201 66.0399 9.80009 65.8999 9.20009C65.7699 8.62009 66.1099 8.07009 66.7999 7.90009C69.1099 7.34009 71.2399 7.67009 73.0599 9.32009C73.2599 9.50009 73.3899 9.78009 73.7499 9.81009C73.8099 9.10009 73.8399 8.40009 73.9499 7.71009C74.2799 5.48009 75.2799 3.67009 77.3099 2.55009C77.7999 2.28009 78.2999 2.12009 78.7999 2.52009C79.4299 3.02009 79.3599 3.95009 78.5499 4.33009C76.5199 5.28009 75.7299 7.95009 76.1099 10.0001C76.4399 9.57009 76.7299 9.16009 77.0399 8.78009C78.4499 7.08009 80.3199 6.46009 82.4599 6.53009C83.2699 6.56009 83.7599 7.03009 83.7599 7.65009C83.7599 8.31009 83.2499 8.74009 82.3599 8.69009C79.8499 8.56009 78.0199 10.0801 77.2799 13.1301C78.4699 12.2301 79.7899 11.8901 81.1499 11.7401C83.0099 11.5301 84.7399 11.9001 86.3099 12.9401C87.0899 13.4601 87.2999 14.0801 86.9099 14.6501C86.5299 15.2201 85.8799 15.2501 85.0999 14.7401C83.0999 13.4301 79.7999 13.6401 78.3699 15.1701C78.2899 15.2601 78.2099 15.3701 78.0699 15.5501C78.6999 15.6401 79.2599 15.6901 79.8099 15.7901C82.2499 16.2401 84.1699 17.9301 84.6099 20.0301C84.6599 20.2801 84.6899 20.5301 84.6799 20.7901C84.6599 21.4501 84.2999 21.8601 83.6599 21.9201C83.0399 21.9701 82.6799 21.5801 82.5299 21.0001C81.9999 18.9101 80.5899 17.8101 78.5099 17.8701C77.2799 17.9001 76.7199 18.4301 76.7599 19.6601C76.8399 21.8201 77.2399 23.9501 77.5899 26.0801C78.4099 31.1401 79.1099 36.2201 79.5299 41.3301C80.0099 47.2901 80.1599 53.2501 80.0799 59.2201C80.0799 59.4501 80.0799 59.6801 80.0699 59.9101C79.9999 61.0001 79.9999 61.0001 81.1099 61.2001C82.8699 61.5301 84.2499 62.4601 85.3099 63.8801C85.7199 64.4201 85.9899 65.0301 86.5399 65.5001C87.1499 66.0301 86.7699 67.0501 85.9699 67.2101C85.6999 67.2601 85.4099 67.2401 85.1299 67.2401C58.0399 67.2401 30.9399 67.2401 3.84987 67.2401C3.61987 67.2401 3.38987 67.2501 3.15987 67.2301C2.61987 67.1601 2.26987 66.8701 2.20987 66.3101C2.14987 65.7301 2.40987 65.3301 2.96987 65.1501C3.01987 65.1301 3.06987 65.1001 3.11987 65.1101C4.27987 65.3001 4.71987 64.5401 5.19987 63.6801C5.90987 62.4001 7.03987 61.5201 8.39987 60.9701C8.84987 60.7901 8.98987 60.5501 8.97987 60.0601C8.85987 55.7401 8.91987 51.4201 9.10987 47.1001C9.42987 40.0401 10.2599 33.0401 11.4199 26.0701C11.7399 24.1401 11.9799 22.2001 12.2399 20.2701C12.2799 19.9401 12.2799 19.6101 12.2599 19.2801C12.2199 18.4901 11.8099 18.0201 11.0299 17.8501C9.63987 17.5501 7.64987 18.3801 6.87987 19.5801C6.64987 19.9301 6.56987 20.3201 6.51987 20.7301C6.42987 21.4801 5.93987 21.9301 5.33987 21.8801C4.70987 21.8201 4.27987 21.2701 4.33987 20.5001C4.48987 18.7901 5.42987 17.5801 6.82987 16.6901C7.89987 16.0101 9.08987 15.6601 10.3599 15.6001C10.5099 15.5901 10.6599 15.5701 10.8099 15.5601C10.8399 15.5601 10.8599 15.5301 10.8999 15.4701ZM15.7799 15.5701C16.1399 15.5901 16.3599 15.6001 16.5799 15.6201C19.3199 15.7801 21.6199 17.6101 22.3199 20.2001C22.5499 21.0501 22.3299 21.6301 21.6899 21.8501C21.0499 22.0701 20.5299 21.7101 20.2499 20.8701C20.1999 20.7301 20.1599 20.5801 20.1099 20.4401C19.4799 18.7301 17.7699 17.6701 15.9699 17.8401C15.0599 17.9301 14.5499 18.3601 14.4999 19.1901C14.2599 22.7901 13.5699 26.3301 13.0299 29.8901C12.1699 35.4901 11.6099 41.1101 11.3099 46.7701C11.0899 50.9601 11.1299 55.1501 11.1299 59.3401C11.1299 60.1001 11.2199 60.5501 12.1299 60.4901C12.6299 60.4601 13.0999 60.8301 13.6099 60.3301C14.7799 59.1701 16.2499 58.5401 17.8799 58.3301C18.2199 58.2801 18.4499 58.1901 18.5299 57.8301C18.6099 57.5001 18.5699 57.2701 18.2699 57.0401C17.6999 56.6001 17.4999 55.9701 17.6599 55.2701C17.9699 53.8601 18.3199 52.4501 18.6399 51.0401C18.7999 50.3201 19.2499 49.9001 19.9399 49.6901C20.7099 49.4501 20.9199 48.5301 20.3099 48.0101C19.6799 47.4701 19.5099 46.8301 19.6799 46.0301C19.9399 44.8101 20.1599 43.5901 20.3699 42.3601C20.5199 41.4901 20.8699 40.8201 21.7999 40.6001C22.2299 40.5001 22.3099 40.1701 22.3599 39.7901C22.3999 39.4501 22.4199 39.1801 22.0499 38.9501C21.3899 38.5701 21.1499 37.9401 21.2699 37.1901C21.4699 35.8401 21.6899 34.4801 21.8799 33.1201C21.9899 32.3001 22.3899 31.7801 23.1699 31.5001C23.8299 31.2601 23.9999 30.2901 23.4199 29.9401C22.5699 29.4101 22.4299 28.6601 22.5399 27.7601C22.6899 26.5501 22.8399 25.3401 22.9599 24.1301C23.0399 23.3201 23.3699 22.7301 24.1599 22.4501C24.4399 22.3501 24.6299 22.2101 24.6499 21.8601C24.6699 21.4701 24.4599 21.3201 24.1499 21.2001C23.5499 20.9601 23.1399 20.5101 23.1399 19.8901C23.1299 18.5101 22.8899 17.1201 23.3999 15.6901C22.8199 15.8001 22.4399 15.4801 22.0299 15.2301C20.0299 14.0201 17.5099 14.1301 15.7799 15.5701ZM40.3999 39.9001C40.3999 47.6801 40.3899 55.4501 40.3999 63.2301C40.3999 65.3201 40.1199 65.0401 42.2099 65.0601C43.3899 65.0701 43.3899 65.0601 43.3899 63.9101C43.3899 48.2301 43.3899 32.5501 43.3899 16.8701C43.3899 14.9401 43.3899 14.9401 41.4699 14.9401C40.3899 14.9401 40.3899 14.9401 40.3899 16.0401C40.3999 23.9901 40.3999 31.9401 40.3999 39.9001ZM45.5999 40.0501C45.5999 47.8001 45.5999 55.5501 45.5999 63.3001C45.5999 65.2901 45.3299 65.0301 47.3299 65.0501C48.5899 65.0601 48.5999 65.0501 48.5999 63.7401C48.5999 48.1101 48.5999 32.4801 48.5999 16.8501C48.5999 14.9201 48.5999 14.9201 46.6699 14.9201C45.5999 14.9201 45.5999 14.9201 45.5999 16.0301C45.5999 24.0401 45.5999 32.0401 45.5999 40.0501ZM38.1999 40.0301C38.1999 32.0501 38.1999 24.0701 38.1999 16.0901C38.1999 15.8601 38.1999 15.6301 38.1899 15.4001C38.1899 15.2201 38.1399 15.0601 37.9499 14.9701C37.1899 14.6001 36.4599 15.0301 36.4599 15.8701C36.4599 31.9801 36.4599 48.0901 36.4499 64.2101C36.4499 64.8101 36.5999 65.0701 37.2499 65.0801C37.9799 65.1001 38.2099 64.8601 38.1999 64.1201C38.1899 56.0901 38.1999 48.0601 38.1999 40.0301ZM52.5399 40.0501C52.5399 31.9901 52.5299 23.9401 52.5499 15.8801C52.5499 15.1601 52.3399 14.9101 51.5999 14.9001C50.8499 14.9001 50.7899 15.2501 50.7999 15.8401C50.8199 19.5501 50.8099 23.2601 50.8099 26.9701C50.8099 39.3201 50.8099 51.6701 50.7999 64.0201C50.7999 64.6401 50.7999 65.1001 51.6599 65.0701C52.3699 65.0501 52.5599 64.8201 52.5599 64.1301C52.5299 56.1101 52.5399 48.0801 52.5399 40.0501ZM71.5699 65.0501C75.2299 65.0601 78.8799 65.0601 82.5399 65.0501C82.7699 65.0501 83.1199 65.1801 83.2099 64.8701C83.2799 64.6401 82.9899 64.4901 82.8199 64.3501C81.8799 63.5601 80.7999 63.2101 79.5799 63.2701C79.1499 63.2901 78.7999 63.3901 78.5699 63.8101C78.3099 64.3001 77.8499 64.4401 77.3299 64.3001C76.8299 64.1701 76.6599 63.7201 76.4599 63.3101C75.2499 60.9601 73.2999 59.7601 70.6799 59.7901C68.7199 59.8101 67.1099 60.6901 65.9099 62.2601C65.4499 62.8601 64.9399 63.1501 64.2099 62.7501C63.9499 62.6101 63.6699 62.6101 63.3899 62.6301C62.1399 62.7501 61.1299 63.3501 60.3099 64.2701C60.1499 64.4501 59.8499 64.6301 59.9699 64.8901C60.0899 65.1601 60.4299 65.0201 60.6699 65.0201C64.3099 65.0601 67.9399 65.0501 71.5699 65.0501ZM18.1799 65.0501H24.6599C26.0099 65.0501 27.3499 65.0601 28.6999 65.0401C28.9399 65.0401 29.2899 65.1701 29.3699 64.8701C29.4399 64.6201 29.1199 64.4601 28.9299 64.3001C28.3199 63.7801 27.5899 63.4701 26.8099 63.3101C26.3299 63.2101 25.8999 63.2401 25.4999 63.6601C24.9699 64.2001 24.3299 64.0801 23.8699 63.4701C23.7799 63.3501 23.7099 63.2101 23.6299 63.0801C22.2399 61.0401 20.3499 60.1201 17.8799 60.5101C16.3899 60.7401 15.2699 61.5501 14.3399 62.7001C13.7499 63.4301 13.2599 63.4701 12.5199 62.9101C12.3299 62.7701 12.1399 62.6701 11.9099 62.6401C10.1099 62.3901 8.59987 62.9501 7.39987 64.3101C7.23987 64.4901 6.94987 64.6801 7.09987 64.9401C7.20987 65.1401 7.51987 65.0301 7.74987 65.0301C11.2199 65.0601 14.6999 65.0501 18.1799 65.0501ZM27.4999 51.8301C25.4699 51.8301 23.4399 51.8401 21.4099 51.8201C20.8999 51.8101 20.6099 51.9601 20.5099 52.5001C20.3899 53.2001 20.2099 53.8901 20.0399 54.5701C19.9099 55.0901 20.1099 55.2501 20.6099 55.2501C24.9499 55.2401 29.2899 55.2401 33.6199 55.2501C34.0699 55.2501 34.2699 55.0801 34.2599 54.6201C34.2499 53.9601 34.2299 53.3001 34.2699 52.6401C34.3099 52.0101 34.0599 51.8001 33.4299 51.8101C31.4599 51.8501 29.4799 51.8301 27.4999 51.8301ZM61.8999 55.2501C63.9299 55.2501 65.9599 55.2501 67.9899 55.2501C69.0899 55.2501 69.0899 55.2501 68.8499 54.1501C68.7299 53.5801 68.5699 53.0201 68.4699 52.4501C68.3899 52.0401 68.2099 51.8301 67.7599 51.8301C63.6299 51.8401 59.4899 51.8401 55.3599 51.8301C54.8899 51.8301 54.7299 52.0501 54.7399 52.4801C54.7499 53.1101 54.7799 53.7501 54.7299 54.3801C54.6899 55.0301 54.8999 55.2801 55.5899 55.2601C57.6899 55.2201 59.7899 55.2501 61.8999 55.2501ZM28.0599 46.1101C29.8899 46.1101 31.7199 46.1001 33.5399 46.1101C34.0599 46.1101 34.2899 45.9401 34.2699 45.4101C34.2499 44.7001 34.2599 43.9901 34.2599 43.2801C34.2599 42.8601 34.0799 42.6901 33.6599 42.6901C30.1299 42.7001 26.5999 42.7001 23.0699 42.6901C22.6199 42.6901 22.4499 42.8801 22.3899 43.3101C22.2999 43.9601 22.1699 44.6101 22.0099 45.2501C21.8599 45.8801 22.0399 46.1301 22.7199 46.1201C24.5099 46.0901 26.2899 46.1101 28.0599 46.1101ZM60.8199 46.1101C62.6499 46.1101 64.4799 46.0901 66.3099 46.1201C66.9399 46.1301 67.1199 45.9001 66.9799 45.3001C66.8199 44.6301 66.6899 43.9601 66.5999 43.2801C66.5399 42.8301 66.3199 42.6901 65.8899 42.6901C62.3899 42.7001 58.8799 42.7001 55.3799 42.6901C54.9299 42.6901 54.7299 42.8601 54.7399 43.3201C54.7499 43.9801 54.7699 44.6401 54.7299 45.3001C54.6899 45.9401 54.9499 46.1401 55.5699 46.1301C57.3199 46.0901 59.0699 46.1101 60.8199 46.1101ZM28.8699 36.9901C30.3899 36.9901 31.9199 36.9801 33.4499 37.0001C34.0099 37.0101 34.3199 36.8601 34.2799 36.2301C34.2499 35.6001 34.2599 34.9601 34.2799 34.3201C34.2899 33.8301 34.0699 33.6501 33.5899 33.6501C30.5899 33.6601 27.5899 33.6601 24.5899 33.6501C24.1399 33.6501 23.9499 33.8501 23.8899 34.2701C23.7999 34.9201 23.7399 35.5901 23.5899 36.2301C23.4499 36.8301 23.6499 37.0101 24.2299 37.0101C25.7699 36.9801 27.3199 36.9901 28.8699 36.9901ZM60.1099 36.9901C61.6899 36.9901 63.2599 36.9901 64.8399 36.9901C65.1299 36.9901 65.5199 37.0301 65.4499 36.5501C65.3399 35.7501 65.1999 34.9501 65.0799 34.1401C65.0199 33.7501 64.7799 33.6601 64.4299 33.6601C61.4099 33.6601 58.3799 33.6701 55.3599 33.6601C54.9099 33.6601 54.7199 33.8601 54.7299 34.3101C54.7399 34.9401 54.7599 35.5801 54.7199 36.2201C54.6899 36.8301 54.9499 37.0201 55.5299 37.0101C57.0599 36.9701 58.5899 36.9901 60.1099 36.9901ZM29.4499 27.9501C30.8199 27.9501 32.1899 27.9301 33.5599 27.9601C34.0899 27.9701 34.2899 27.7701 34.2799 27.2501C34.2599 26.5701 34.2599 25.8801 34.2799 25.2001C34.2899 24.7101 34.0799 24.5301 33.5999 24.5301C30.9599 24.5401 28.3299 24.5401 25.6899 24.5301C25.2499 24.5301 25.0499 24.6901 25.0199 25.1501C24.9899 25.7801 24.9099 26.4101 24.8299 27.0401C24.7199 27.9501 24.7099 27.9501 25.6499 27.9501C26.9199 27.9501 28.1899 27.9501 29.4499 27.9501ZM59.5399 27.9501C60.8799 27.9501 62.2299 27.9301 63.5699 27.9601C64.1599 27.9701 64.3199 27.7801 64.2099 27.1901C64.0799 26.5201 64.0299 25.8401 63.9899 25.1501C63.9599 24.7001 63.7699 24.5301 63.3299 24.5301C60.6699 24.5401 58.0099 24.5401 55.3499 24.5301C54.8799 24.5301 54.7299 24.7601 54.7399 25.1901C54.7499 25.8701 54.7599 26.5601 54.7399 27.2401C54.7199 27.7601 54.9199 27.9601 55.4499 27.9501C56.8099 27.9301 58.1799 27.9501 59.5399 27.9501ZM27.5699 57.4301C25.6699 57.4301 23.7599 57.4301 21.8599 57.4301C21.6299 57.4301 21.3999 57.4301 21.1799 57.4601C20.7799 57.5101 20.7599 57.8501 20.6999 58.1401C20.6399 58.4701 20.9099 58.5001 21.1199 58.5801C21.4499 58.7101 21.7999 58.7601 22.1599 58.7601C25.9199 58.7501 29.6699 58.7501 33.4299 58.7601C33.8899 58.7601 34.2899 58.7701 34.2799 58.1101C34.2699 57.4801 33.9199 57.4201 33.4399 57.4201C31.4799 57.4301 29.5299 57.4301 27.5699 57.4301ZM61.5099 57.4301C59.5299 57.4301 57.5499 57.4301 55.5599 57.4301C55.1799 57.4301 54.7799 57.3901 54.7299 57.9601C54.6799 58.5501 54.8799 58.7701 55.4999 58.7701C58.7999 58.7501 62.1099 58.7501 65.4099 58.7701C66.1899 58.7801 66.9299 58.7201 67.5999 58.2901C67.8299 58.1401 68.2999 58.1701 68.1699 57.7301C68.0599 57.3501 67.6699 57.4401 67.3799 57.4401C65.4199 57.4301 63.4699 57.4301 61.5099 57.4301ZM60.9199 61.1001C60.8099 61.0101 60.7699 60.9601 60.7299 60.9601C59.4599 60.9501 58.1899 60.9401 56.9199 60.9401C54.7199 60.9401 54.7199 60.9401 54.7199 63.1501C54.7199 65.1601 54.9799 65.3701 56.9899 65.0501C57.2099 65.0101 57.3899 64.9501 57.4799 64.7501C58.1999 63.1301 59.3299 61.9101 60.9199 61.1001ZM24.9599 61.1201C27.7799 60.8901 30.0499 61.7601 31.5599 64.0701C32.0899 64.8801 32.6399 65.1401 33.5299 65.0701C34.0999 65.0301 34.2899 64.8201 34.2699 64.2801C34.2399 63.4401 34.2299 62.6001 34.2699 61.7601C34.2999 61.1101 34.0199 60.9301 33.4099 60.9301C30.7899 60.9501 28.1699 60.9401 25.5599 60.9401C25.3999 60.9501 25.2099 60.9001 24.9599 61.1201ZM29.7799 17.3601C28.5399 17.3601 27.2999 17.3901 26.0499 17.3501C25.3599 17.3301 25.2699 17.6801 25.2699 18.2401C25.2699 18.8001 25.3499 19.1501 26.0499 19.1401C28.5299 19.1101 31.0199 19.1101 33.4999 19.1401C34.1999 19.1501 34.2799 18.8101 34.2799 18.2401C34.2799 17.6901 34.2199 17.3201 33.5099 17.3401C32.2699 17.3901 31.0199 17.3601 29.7799 17.3601ZM59.0599 19.1301C60.2299 19.1301 61.3999 19.0901 62.5599 19.1401C63.2899 19.1701 63.3899 18.8201 63.3799 18.2201C63.3799 17.6401 63.2699 17.3401 62.5899 17.3501C60.2299 17.3801 57.8699 17.3801 55.5099 17.3501C54.8299 17.3401 54.7199 17.6501 54.7099 18.2301C54.6999 18.8501 54.8399 19.1701 55.5499 19.1501C56.7199 19.0901 57.8899 19.1301 59.0599 19.1301ZM28.4099 49.6201C30.0899 49.6201 31.7599 49.6101 33.4399 49.6201C33.9199 49.6201 34.2799 49.5901 34.2799 48.9501C34.2699 48.2901 33.8699 48.3001 33.4099 48.3101C31.6299 48.3201 29.8499 48.3101 28.0799 48.3101C26.5799 48.3101 25.0799 48.3401 23.5899 48.3001C22.9299 48.2901 22.8299 48.7101 22.7899 49.1701C22.7299 49.7801 23.2399 49.6001 23.5399 49.6101C25.1599 49.6301 26.7899 49.6201 28.4099 49.6201ZM60.5199 49.6201C62.2199 49.6201 63.9199 49.6101 65.6299 49.6301C66.2199 49.6401 66.2999 49.4101 66.1799 48.8801C66.0599 48.3801 65.7599 48.3201 65.3499 48.3201C62.0699 48.3301 58.7999 48.3301 55.5199 48.3201C55.0599 48.3201 54.7399 48.3801 54.7299 48.9701C54.7299 49.5401 55.0099 49.6401 55.4899 49.6401C57.1599 49.6101 58.8399 49.6201 60.5199 49.6201ZM29.4799 39.1901C28.0299 39.1901 26.5899 39.2001 25.1399 39.1901C24.4599 39.1801 24.5599 39.7101 24.5099 40.1001C24.4399 40.6101 24.8599 40.5001 25.1299 40.5001C27.9199 40.5101 30.7099 40.5001 33.4999 40.5101C33.9699 40.5101 34.2699 40.4001 34.2699 39.8401C34.2699 39.2701 33.9799 39.1701 33.5099 39.1801C32.1699 39.2001 30.8299 39.1901 29.4799 39.1901ZM59.6699 40.5101C61.0399 40.5101 62.4099 40.4801 63.7799 40.5201C64.4499 40.5401 64.5399 40.2701 64.4399 39.7001C64.3499 39.2201 64.0399 39.1801 63.6599 39.1801C60.9399 39.1801 58.2299 39.1901 55.5099 39.1801C55.0499 39.1801 54.7299 39.2301 54.7199 39.8201C54.7199 40.4401 55.0599 40.5101 55.5499 40.5101C56.9299 40.5001 58.2999 40.5101 59.6699 40.5101ZM30.0299 31.4601C31.1999 31.4601 32.3599 31.4501 33.5199 31.4701C34.0099 31.4801 34.2799 31.3601 34.2699 30.8001C34.2599 30.2301 33.9599 30.1201 33.4899 30.1401C33.0599 30.1501 32.6299 30.1401 32.1999 30.1401C30.3299 30.1401 28.4499 30.1601 26.5799 30.1301C25.8799 30.1201 25.8899 30.6001 25.8399 31.0401C25.7799 31.6101 26.2399 31.4501 26.5299 31.4601C27.6999 31.4701 28.8699 31.4601 30.0299 31.4601ZM58.9299 30.1401C57.8399 30.1401 56.7499 30.1401 55.6599 30.1401C55.1999 30.1401 54.7399 30.0801 54.7199 30.7901C54.7099 31.5001 55.1399 31.4701 55.6199 31.4701C57.8699 31.4601 60.1299 31.4701 62.3799 31.4601C62.6799 31.4601 63.1799 31.6701 63.1499 31.0501C63.1199 30.5601 63.0699 30.1001 62.3499 30.1301C61.2099 30.1701 60.0699 30.1401 58.9299 30.1401ZM30.6199 21.3301C29.5999 21.3301 28.5899 21.3301 27.5699 21.3301C27.1999 21.3301 26.8399 21.3201 26.8499 21.8601C26.8599 22.3601 27.2199 22.3301 27.5499 22.3301C29.5599 22.3301 31.5599 22.3301 33.5699 22.3301C33.9099 22.3301 34.2499 22.3301 34.2599 21.8401C34.2699 21.3601 33.9499 21.3301 33.5899 21.3301C32.5999 21.3301 31.6099 21.3301 30.6199 21.3301ZM58.4299 22.3301C59.4699 22.3301 60.5099 22.3301 61.5499 22.3301C61.8899 22.3301 62.1499 22.2601 62.1499 21.8301C62.1499 21.4101 61.8999 21.3301 61.5599 21.3301C59.4999 21.3301 57.4499 21.3301 55.3899 21.3301C55.0699 21.3301 54.7699 21.3501 54.7499 21.7901C54.7299 22.2501 55.0099 22.3301 55.3899 22.3301C56.3999 22.3301 57.4099 22.3301 58.4299 22.3301Z" fill="#3060A9"/>
</svg>
