<svg width="80" height="80" viewBox="0 0 80 80" fill="none" xmlns="http://www.w3.org/2000/svg">
<path d="M8.00251 43.3742C8.00251 49.2324 8 55.291 8.00628 61.2493C8.00879 64.1055 9.87483 66.3768 12.6494 66.9011C13.1087 66.9876 13.5981 66.9951 14.1014 66.9951C29.3196 67 45.9308 67.0012 64.8823 66.9988C68.1451 66.9988 70.1793 65.4001 70.931 62.2471C70.9486 62.1754 70.9749 62.1136 71 62.0629V17.879C70.9511 17.7182 70.9071 17.5587 70.8632 17.4029C70.7214 16.8948 70.5884 16.4138 70.3424 15.9897C69.2607 14.1239 67.7096 13.1546 65.5989 13.026C65.3956 13.0136 65.1747 13.0087 64.8823 13.0087C60.3659 13.0087 55.8508 13.0087 51.3344 13.0087C39.1304 13.0087 26.5124 13.0111 14.1014 13H14.0926C11.6806 13 9.93883 13.9187 8.76926 15.8067C8.25099 16.645 7.99875 17.6292 8 18.8162C8.00502 23.119 8.00377 27.4935 8.00377 31.7233V43.3742H8.00251ZM68.3697 54.2276C68.3697 56.5286 68.3697 58.8284 68.3697 61.1294C68.3697 63.1819 67.1336 64.4084 65.0643 64.4084C56.6213 64.4109 48.029 64.4121 39.1505 64.4121C31.03 64.4121 22.6711 64.4121 13.9683 64.4097C11.8475 64.4097 10.6303 63.2029 10.6303 61.0997V54.6554C10.6303 47.044 10.6303 39.1741 10.6152 31.434C10.6152 31.1335 10.6491 30.7527 10.9239 30.4819C11.1937 30.2161 11.5652 30.179 11.894 30.179H11.9028C19.4184 30.1926 27.0595 30.1926 34.4496 30.1914H39.5157H44.4964C51.9141 30.1914 59.5854 30.1926 67.1286 30.179C67.47 30.179 67.8213 30.2136 68.0849 30.4733C68.3484 30.7329 68.386 31.0903 68.3848 31.4018C68.3697 39.0109 68.3697 46.7472 68.3697 54.2276ZM10.6341 21.1506C10.6328 20.3877 10.6315 19.626 10.6328 18.8644C10.6353 16.8218 11.8752 15.6015 13.9495 15.599C18.1522 15.594 22.4239 15.5953 26.5563 15.5953H37.6747C46.7326 15.5953 55.7906 15.5953 64.8485 15.5928H64.8547C65.6278 15.5928 66.4409 15.6398 67.1575 16.1949C67.9443 16.8045 68.3622 17.6144 68.366 18.5355C68.371 19.6396 68.371 20.745 68.3697 21.8492C68.3697 23.4108 68.3697 25.0243 68.3835 26.6107C68.3873 26.9457 68.2969 27.1955 68.1087 27.3735C67.8439 27.6258 67.5101 27.6109 67.3106 27.6023C67.278 27.601 67.2453 27.5998 67.2127 27.5998C61.2933 27.5998 55.3727 27.5998 49.4533 27.5998H34.4584C27.0557 27.5998 19.3996 27.5986 11.8701 27.6122H11.8613C11.5376 27.6122 11.1737 27.5751 10.9101 27.313C10.6441 27.0471 10.6127 26.691 10.6165 26.3782C10.6403 24.6373 10.6366 22.863 10.6341 21.1481V21.1506Z" fill="#5E713E"/>
<path d="M21.7412 51.2892C21.8943 50.8627 22.0449 50.435 22.2131 49.9533L22.9836 47.7632L23.5332 49.1994C23.6336 49.4629 23.7277 49.7087 23.8168 49.942C23.9988 50.4199 24.1607 50.8452 24.3263 51.2679C24.7091 52.2463 25.2876 52.3441 25.6904 52.3341C26.3015 52.3178 26.7194 51.9578 26.9691 51.234C27.8112 48.7943 28.5654 46.5929 29.2731 44.5057C29.4338 44.0315 29.4288 43.6 29.2581 43.2563C29.1138 42.9678 28.8515 42.7533 28.5001 42.6367C27.771 42.3946 27.0997 42.7985 26.7922 43.6665C26.6466 44.0754 26.5023 44.4856 26.3429 44.9372L25.5699 47.126L25.019 45.7023C24.9186 45.4439 24.8245 45.2006 24.7342 44.9673C24.5284 44.4367 24.3502 43.9788 24.1732 43.5084C24.0578 43.2011 23.921 43.0017 23.7302 42.8637C23.3575 42.5928 22.9384 42.5062 22.5494 42.6191C22.1541 42.7345 21.8403 43.0406 21.6647 43.4821C21.484 43.9387 21.3208 44.4153 21.1476 44.9196C21.0636 45.1654 20.9757 45.4201 20.8816 45.6873L20.3734 47.126L19.8225 45.7036C19.7221 45.4427 19.6267 45.1968 19.5351 44.9597C19.3456 44.468 19.1674 44.0039 18.9867 43.5511C18.6654 42.7496 17.9702 42.3896 17.2549 42.6555C16.9174 42.7809 16.6676 43.0067 16.5308 43.3065C16.3752 43.6502 16.379 44.0767 16.5409 44.5057C17.2988 46.5051 18.1296 48.6701 19.1536 51.3218C19.5125 52.25 20.086 52.3441 20.4863 52.3353C21.0836 52.3215 21.4952 51.9791 21.7425 51.2905L21.7412 51.2892Z" fill="#5E713E"/>
<path d="M38.3384 51.2892C38.4915 50.8627 38.6421 50.435 38.8102 49.9533L39.5807 47.7632L40.1304 49.1994C40.2308 49.4629 40.3249 49.7087 40.414 49.942C40.5959 50.4199 40.7578 50.8452 40.9235 51.2679C41.3062 52.2463 41.8847 52.3441 42.2876 52.3341C42.8987 52.3178 43.3166 51.9578 43.5663 51.234C44.4084 48.7943 45.1625 46.5929 45.8703 44.5057C46.0309 44.0315 46.0259 43.6 45.8553 43.2563C45.7109 42.9678 45.4487 42.7533 45.0973 42.6367C44.3682 42.3946 43.6968 42.7985 43.3894 43.6665C43.2438 44.0754 43.0995 44.4856 42.9401 44.9372L42.1671 47.126L41.6162 45.7023C41.5158 45.4439 41.4217 45.2006 41.3313 44.9673C41.1255 44.4367 40.9473 43.9788 40.7704 43.5084C40.6549 43.2011 40.5181 43.0017 40.3274 42.8637C39.9547 42.5928 39.5356 42.5062 39.1465 42.6191C38.7512 42.7345 38.4375 43.0406 38.2618 43.4821C38.0811 43.9387 37.918 44.4153 37.7448 44.9196C37.6607 45.1654 37.5729 45.4201 37.4788 45.6873L36.9705 47.126L36.4196 45.7036C36.3192 45.4427 36.2239 45.1968 36.1323 44.9597C35.9428 44.468 35.7646 44.0039 35.5839 43.5511C35.2626 42.7496 34.5674 42.3896 33.8521 42.6555C33.5145 42.7809 33.2648 43.0067 33.128 43.3065C32.9724 43.6502 32.9762 44.0767 33.1381 44.5057C33.896 46.5051 34.7268 48.6701 35.7508 51.3218C36.1097 52.25 36.6832 52.3441 37.0835 52.3353C37.6808 52.3215 38.0924 51.9791 38.3396 51.2905L38.3384 51.2892Z" fill="#5E713E"/>
<path d="M54.936 51.2892C55.0891 50.8627 55.2397 50.435 55.4079 49.9533L56.1784 47.7632L56.728 49.1994C56.8284 49.4629 56.9225 49.7087 57.0116 49.942C57.1936 50.4199 57.3555 50.8452 57.5211 51.2679C57.9039 52.2463 58.4824 52.3441 58.8852 52.3341C59.4964 52.3178 59.9142 51.9578 60.164 51.234C61.006 48.7943 61.7602 46.5929 62.468 44.5057C62.6286 44.0315 62.6236 43.6 62.4529 43.2563C62.3086 42.9678 62.0463 42.7533 61.695 42.6367C60.9659 42.3946 60.2945 42.7985 59.987 43.6665C59.8415 44.0754 59.6971 44.4856 59.5378 44.9372L58.7647 47.126L58.2138 45.7023C58.1135 45.4439 58.0193 45.2006 57.929 44.9673C57.7232 44.4367 57.545 43.9788 57.368 43.5084C57.2526 43.2011 57.1158 43.0017 56.9251 42.8637C56.5524 42.5928 56.1332 42.5062 55.7442 42.6191C55.3489 42.7345 55.0352 43.0406 54.8595 43.4821C54.6788 43.9387 54.5156 44.4153 54.3425 44.9196C54.2584 45.1654 54.1705 45.4201 54.0764 45.6873L53.5682 47.126L53.0173 45.7036C52.9169 45.4427 52.8215 45.1968 52.7299 44.9597C52.5404 44.468 52.3622 44.0039 52.1815 43.5511C51.8603 42.7496 51.165 42.3896 50.4497 42.6555C50.1122 42.7809 49.8625 43.0067 49.7257 43.3065C49.5701 43.6502 49.5738 44.0767 49.7357 44.5057C50.4937 46.5051 51.3244 48.6701 52.3484 51.3218C52.7073 52.25 53.2808 52.3441 53.6811 52.3353C54.2785 52.3215 54.6901 51.9791 54.9373 51.2905L54.936 51.2892Z" fill="#5E713E"/>
<path d="M17.1973 19.5641C18.2377 19.5591 19.0672 20.3644 19.086 21.3992C19.1061 22.4516 18.259 23.3284 17.2162 23.3347C16.1922 23.3409 15.2962 22.4403 15.31 21.418C15.3238 20.3982 16.1671 19.5691 17.1961 19.5641H17.1973Z" fill="#5E713E"/>
<path d="M17.206 23.8991C16.571 23.8991 15.9398 23.6294 15.4717 23.1591C15.0011 22.6862 14.7363 22.049 14.7451 21.4118C14.7627 20.0897 15.8607 19.0072 17.1934 19.0009H17.2072C18.5537 19.0009 19.6254 20.0483 19.6505 21.3904C19.6631 22.0552 19.4133 22.6837 18.9465 23.1616C18.486 23.6345 17.8723 23.8966 17.2185 23.9004H17.2047L17.206 23.8991ZM17.206 20.1285H17.1984C16.4769 20.1323 15.8833 20.7143 15.8732 21.4255C15.8682 21.7617 16.0138 22.1029 16.2723 22.3626C16.5308 22.6235 16.8684 22.7715 17.211 22.769C17.5598 22.7665 17.8886 22.626 18.1371 22.3713C18.3906 22.1117 18.5261 21.7705 18.5198 21.4092C18.506 20.6892 17.93 20.1273 17.206 20.1273V20.1285Z" fill="#5E713E"/>
<path d="M23.0237 21.423C23.03 20.3894 23.8532 19.5678 24.8885 19.5628C25.9476 19.5578 26.8085 20.412 26.796 21.4556C26.7847 22.4604 25.9213 23.3221 24.9161 23.3334C23.8758 23.3447 23.0174 22.4779 23.0237 21.423Z" fill="#5E713E"/>
<path d="M24.896 23.8991C24.2548 23.8991 23.6499 23.647 23.1894 23.1891C22.715 22.7162 22.4553 22.0891 22.4603 21.4205C22.4691 20.0696 23.5345 19.0071 24.886 18.9996H24.8986C25.5637 18.9996 26.1861 19.258 26.6542 19.7284C27.1172 20.195 27.3695 20.8109 27.3619 21.4632C27.3469 22.7689 26.23 23.8853 24.9237 23.8991C24.9149 23.8991 24.9061 23.8991 24.8973 23.8991H24.896ZM24.8986 20.1285H24.891C24.1657 20.1323 23.5935 20.703 23.5884 21.428C23.5859 21.7905 23.7265 22.1317 23.985 22.3889C24.2322 22.6347 24.556 22.7702 24.896 22.7702C24.9011 22.7702 24.9048 22.7702 24.9099 22.7702C25.6063 22.7627 26.2237 22.1468 26.2313 21.4506C26.235 21.1032 26.1008 20.7733 25.8523 20.5236C25.5988 20.2678 25.26 20.1285 24.8986 20.1285Z" fill="#5E713E"/>
<path d="M31.0601 21.4556C31.0538 20.3932 31.8934 19.5566 32.9563 19.5641C33.9903 19.5716 34.821 20.397 34.8273 21.423C34.8336 22.4629 33.9564 23.3434 32.9261 23.3334C31.9109 23.3234 31.0664 22.4729 31.0601 21.4556Z" fill="#5E713E"/>
<path d="M32.945 23.8991C32.9374 23.8991 32.9287 23.8991 32.9211 23.8991C31.5922 23.8866 30.5042 22.7915 30.4954 21.4594C30.4916 20.7933 30.7439 20.1724 31.2069 19.7096C31.67 19.2467 32.2962 18.9934 32.96 18.9996C34.2927 19.0097 35.3833 20.0947 35.392 21.4193C35.3958 22.0678 35.1285 22.71 34.6579 23.1779C34.1911 23.6432 33.5837 23.8979 32.9437 23.8979L32.945 23.8991ZM31.6248 21.4531C31.6298 22.1606 32.2272 22.7639 32.9324 22.7702C33.2713 22.774 33.6051 22.6347 33.8611 22.3789C34.1183 22.123 34.2651 21.7755 34.2626 21.4268C34.2576 20.7043 33.6829 20.1336 32.9525 20.1285C32.9487 20.1285 32.945 20.1285 32.9425 20.1285C32.5836 20.1285 32.2523 20.2628 32.0063 20.5086C31.7591 20.7557 31.6236 21.0906 31.6261 21.4519L31.6248 21.4531Z" fill="#5E713E"/>
</svg>
