<svg width="80" height="80" viewBox="0 0 80 80" fill="none" xmlns="http://www.w3.org/2000/svg">
<path d="M72.9997 40.2706C72.6562 41.7518 71.7084 42.8418 70.6399 43.8739C69.4758 45 68.3745 46.1891 67.2196 47.3242C66.6952 47.839 66.4972 48.4142 66.6021 49.1246C66.8892 51.0498 67.1396 52.9802 67.4477 54.9029C67.9249 57.8808 66.2416 60.2629 63.2211 60.8008C61.2075 61.1599 59.1912 61.5074 57.1723 61.8355C56.4919 61.9462 56.0186 62.2679 55.7 62.8663C54.7627 64.6281 53.807 66.3809 52.8565 68.1363C51.3791 70.8671 48.6758 71.7204 45.831 70.3562C44.0507 69.503 42.2665 68.6588 40.4954 67.7863C39.815 67.4504 39.1909 67.4529 38.5066 67.794C36.7197 68.6819 34.9185 69.5403 33.1133 70.3923C30.3038 71.7165 27.6242 70.8414 26.1507 68.1286C25.2173 66.4118 24.2838 64.6964 23.3727 62.9693C23.024 62.3078 22.5245 61.9385 21.7641 61.8188C19.7872 61.5061 17.8181 61.1367 15.8425 60.8124C12.898 60.3298 11.1269 57.9979 11.5333 55.0856C11.8047 53.1372 12.0878 51.1888 12.392 49.2456C12.5139 48.4631 12.3173 47.8377 11.7404 47.2688C10.3259 45.8725 8.94281 44.4466 7.55449 43.0259C5.48053 40.9024 5.48184 38.0944 7.55842 35.971C8.96248 34.5348 10.3626 33.0947 11.7889 31.6804C12.3304 31.1437 12.5113 30.5466 12.3999 29.8156C12.1036 27.8698 11.8322 25.9214 11.5412 23.9756C11.102 21.0517 12.8757 18.6734 15.8464 18.1883C17.8443 17.8614 19.8344 17.4959 21.8323 17.169C22.5376 17.0532 23.0122 16.7032 23.3399 16.0829C24.2642 14.3378 25.2094 12.6043 26.1533 10.8695C27.6294 8.15671 30.3065 7.28417 33.1172 8.6097C34.9224 9.46164 36.725 10.32 38.5105 11.2067C39.1949 11.5465 39.8202 11.549 40.5006 11.2131C42.2901 10.3303 44.0927 9.47323 45.8926 8.61099C48.6496 7.29061 51.3856 8.15413 52.8316 10.8065C53.7664 12.5219 54.7011 14.2361 55.6057 15.967C55.974 16.6723 56.4866 17.0635 57.3047 17.1883C59.2842 17.4895 61.2546 17.8498 63.225 18.2011C66.1695 18.7262 67.8803 21.0169 67.4792 23.9073C67.2091 25.8557 66.9246 27.8041 66.6205 29.7474C66.4985 30.5273 66.6808 31.1566 67.2655 31.7241C68.4113 32.8386 69.4941 34.0161 70.6425 35.1267C71.7097 36.1601 72.6641 37.2463 73.0023 38.7301V40.2719L72.9997 40.2706ZM14.7845 55.787C14.7531 56.7715 15.3207 57.4175 16.342 57.5938C18.1655 57.9091 19.9825 58.2643 21.8153 58.5088C24.0046 58.801 25.5555 59.8447 26.5151 61.8239C27.3004 63.4442 28.2076 65.0065 29.0676 66.592C29.7113 67.7785 30.4808 68.0295 31.7079 67.4465C33.4908 66.5984 35.279 65.7593 37.0488 64.8842C38.6875 64.0735 40.3026 64.0683 41.9414 64.8675C43.6968 65.7233 45.46 66.5598 47.2207 67.4053C48.5578 68.0475 49.2802 67.812 49.9894 66.5032C50.9294 64.7671 51.8707 63.0298 52.8093 61.2924C53.6339 59.7661 54.9266 58.9078 56.6584 58.6285C58.6786 58.3029 60.6935 57.9464 62.7085 57.59C63.8124 57.3944 64.3577 56.6402 64.2004 55.5566C63.9185 53.6082 63.6419 51.6598 63.3456 49.714C63.069 47.8982 63.5371 46.3423 64.8821 45.027C66.256 43.6822 67.5867 42.2949 68.9317 40.9217C69.9359 39.8961 69.9399 39.1123 68.9488 38.0995C67.605 36.7251 66.2731 35.3391 64.8992 33.9942C63.579 32.7009 63.069 31.1759 63.3365 29.3781C63.6249 27.4309 63.9002 25.4825 64.1899 23.5354C64.3643 22.3682 63.8386 21.6128 62.6705 21.4069C60.6988 21.0607 58.7297 20.6926 56.7501 20.3889C54.9095 20.1071 53.5802 19.1869 52.7241 17.5654C51.8222 15.8576 50.894 14.1628 49.9737 12.464C49.2881 11.1977 48.5447 10.9622 47.2469 11.5851C45.4679 12.4409 43.6863 13.2941 41.9086 14.1512C40.2922 14.9298 38.6901 14.9246 37.0737 14.1293C35.3026 13.2581 33.517 12.4138 31.7341 11.5658C30.4664 10.9635 29.7205 11.2106 29.0545 12.4422C28.1145 14.1782 27.1745 15.9156 26.2411 17.6555C25.4231 19.1805 24.1514 20.0775 22.4209 20.3657C20.4034 20.7029 18.3871 21.053 16.3708 21.4017C15.1922 21.605 14.6521 22.3527 14.8238 23.5084C15.1123 25.4555 15.3889 27.4039 15.6786 29.351C15.9447 31.145 15.4557 32.679 14.1369 33.9762C12.7656 35.3236 11.4337 36.7097 10.0886 38.0828C9.08178 39.1098 9.07653 39.8883 10.0689 40.9024C11.3983 42.2601 12.7092 43.6384 14.074 44.9601C15.5187 46.3603 15.9618 48.0075 15.6367 49.9431C15.3063 51.9043 15.0624 53.8798 14.7884 55.7883L14.7845 55.787Z" fill="#5E713E"/>
<path d="M31.2277 37.8663C27.5832 37.8702 24.6047 34.963 24.5955 31.3918C24.5876 27.8013 27.5963 24.853 31.2526 24.8658C34.8958 24.88 37.8455 27.7987 37.8376 31.3841C37.8298 34.981 34.8919 37.8612 31.2264 37.8663H31.2277ZM34.534 31.3892C34.5379 29.5901 33.0434 28.114 31.2225 28.1179C29.4002 28.1217 27.8926 29.612 27.907 31.3931C27.9214 33.1626 29.395 34.6104 31.1949 34.6233C33.0342 34.6361 34.53 33.1884 34.534 31.3892Z" fill="#5E713E"/>
<path d="M41.1688 47.6315C41.1635 44.0384 44.0975 41.148 47.7617 41.1338C51.4114 41.121 54.3926 44.014 54.4109 47.589C54.4306 51.1795 51.4285 54.1382 47.7709 54.133C44.1316 54.1279 41.1727 51.2156 41.1675 47.6315H41.1688ZM47.8325 44.3782C45.9879 44.3576 44.4842 45.7951 44.4724 47.5903C44.4606 49.392 45.9355 50.8681 47.7617 50.8823C49.5774 50.8964 51.0968 49.4139 51.0981 47.6276C51.0981 45.8607 49.6298 44.3988 47.8325 44.3782Z" fill="#5E713E"/>
<path d="M51.0891 29.7407C51.0864 30.2941 50.8098 30.7085 50.4231 31.0855C48.7372 32.7302 47.0604 34.3813 45.3798 36.0312C40.6013 40.722 35.8201 45.4103 31.0469 50.105C30.6024 50.5425 30.1397 50.9196 29.4658 50.8668C28.83 50.8179 28.3502 50.5103 28.0801 49.939C27.8114 49.3701 27.8651 48.8142 28.244 48.3046C28.3581 48.1501 28.4983 48.0124 28.6373 47.876C35.0952 41.5353 41.5543 35.196 48.0096 28.8527C48.4946 28.3766 49.0059 28.0252 49.7374 28.1617C50.5266 28.3084 51.093 28.9634 51.0904 29.742L51.0891 29.7407Z" fill="#5E713E"/>
</svg>
