<svg width="80" height="80" viewBox="0 0 80 80" fill="none" xmlns="http://www.w3.org/2000/svg">
<path d="M10.1039 22.0074C9.75926 21.5359 9.30379 21.1571 8.77798 20.9048C8.25218 20.6524 7.67233 20.5344 7.09003 20.561C5.86555 20.4127 4.62987 20.7269 3.62368 21.4423C3.5167 21.5313 3.39231 21.5968 3.25853 21.6345C3.12476 21.6723 2.98457 21.6816 2.84701 21.6616C2.70946 21.6417 2.57761 21.593 2.45996 21.5188C2.34231 21.4446 2.24148 21.3465 2.16399 21.2308C2.08923 21.1193 2.03848 20.9935 2.01496 20.8612C1.99145 20.729 1.99569 20.5932 2.02742 20.4627C2.05915 20.3322 2.11767 20.2098 2.19925 20.1032C2.28082 19.9967 2.38366 19.9084 2.50118 19.8439C3.32763 19.2522 4.27223 18.8473 5.26981 18.6571C6.2674 18.4669 7.29424 18.496 8.27953 18.7424C9.19922 18.8988 10.0694 19.2697 10.82 19.8252C10.7289 18.7983 10.2794 17.8366 9.55063 17.1096C8.82187 16.3825 7.86065 15.9367 6.83632 15.8508C6.56064 15.8453 6.28715 15.8563 6.00817 15.8387C5.88623 15.8458 5.7641 15.8283 5.64902 15.7872C5.53395 15.7461 5.42827 15.6823 5.33824 15.5995C5.24821 15.5167 5.17566 15.4166 5.1249 15.3052C5.07414 15.1938 5.0462 15.0733 5.04273 14.9508C5.02571 14.8288 5.03391 14.7046 5.06682 14.5859C5.09972 14.4672 5.15663 14.3566 5.234 14.2609C5.31137 14.1652 5.40755 14.0865 5.51656 14.0297C5.62556 13.9729 5.74505 13.9392 5.86759 13.9307C7.1993 13.7353 8.55744 14.0077 9.71177 14.7018C10.6006 15.2872 11.3463 16.0663 11.8931 16.981C12.1059 16.0886 12.0535 15.1532 11.7424 14.2903C11.4313 13.4274 10.875 12.6747 10.1423 12.1253C9.96768 12.0151 9.77437 11.9292 9.60742 11.8102C9.50047 11.7513 9.40642 11.6714 9.33087 11.5752C9.25532 11.4791 9.19981 11.3687 9.16764 11.2506C9.13547 11.1326 9.12729 11.0092 9.14359 10.8879C9.1599 10.7666 9.20035 10.6499 9.26255 10.5445C9.31101 10.4317 9.38196 10.33 9.47104 10.2457C9.56013 10.1614 9.66546 10.0963 9.78056 10.0543C9.89567 10.0123 10.0181 9.99434 10.1404 10.0016C10.2627 10.0088 10.3822 10.041 10.4916 10.0962C11.4543 10.4987 12.2733 11.1837 12.8409 12.0614C13.615 13.2994 14.0261 14.7309 14.0271 16.1922C14.0337 16.3762 14.0348 16.5613 14.0491 16.743C14.0491 16.7783 14.1007 16.8102 14.1304 16.8466C14.35 16.8466 14.4401 16.6681 14.5697 16.5469C15.295 15.8301 16.1951 15.3167 17.1802 15.0579C18.1652 14.799 19.2007 14.8039 20.1833 15.072C20.9434 15.2328 21.3234 15.7252 21.1861 16.3057C21.0433 16.9049 20.5556 17.1528 19.7583 16.9766C17.3738 16.4489 16.1228 17.4172 14.8344 19.4231C15.3317 19.3965 15.8242 19.3115 16.3018 19.1698C18.1179 18.9134 19.9655 19.3166 21.5112 20.3066C21.8132 20.4928 22.157 20.7406 22.1131 21.0942C22.0208 21.8378 22.4536 21.721 22.9083 21.7188C25.4374 21.707 27.9669 21.707 30.4967 21.7188C30.7083 21.7556 30.9258 21.7066 31.1015 21.5827C31.2771 21.4588 31.3966 21.27 31.4336 21.0578C31.5684 20.5961 31.8538 20.1932 32.2442 19.9136C32.6345 19.6339 33.1071 19.4938 33.5863 19.5157C38.2081 19.4936 42.8307 19.4936 47.4539 19.5157C47.9335 19.4958 48.4056 19.6395 48.7932 19.9234C49.1808 20.2073 49.461 20.6146 49.588 21.0788C49.7615 21.6384 50.0592 21.7144 50.5424 21.7111C52.8885 21.6968 55.2345 21.7023 57.5795 21.7111C58.97 21.7111 59.5411 22.2861 59.5565 23.6884C59.5642 24.2876 59.5631 24.888 59.5565 25.4862C59.5712 25.7982 59.5099 26.1092 59.3781 26.3922C59.2463 26.6753 59.0478 26.922 58.7997 27.111C58.683 27.1729 58.5875 27.2686 58.5256 27.3857C58.4638 27.5027 58.4384 27.6358 58.4529 27.7674C58.4673 27.8991 58.5209 28.0234 58.6066 28.1242C58.6924 28.225 58.8063 28.2976 58.9337 28.3326C59.2448 28.4574 59.5122 28.6715 59.7027 28.9479C59.8932 29.2243 59.9982 29.5509 60.0046 29.8869C60.1144 30.9885 60.243 32.0845 60.3802 33.1806C60.4693 33.541 60.4436 33.9203 60.3067 34.2653C60.1698 34.6102 59.9285 34.9035 59.6169 35.1039C59.4991 35.191 59.4065 35.3078 59.3485 35.4426C59.2906 35.5773 59.2693 35.725 59.287 35.8707C59.3046 36.0164 59.3605 36.1547 59.449 36.2716C59.5375 36.3885 59.6553 36.4797 59.7904 36.536C60.1298 36.6491 60.4273 36.8623 60.644 37.1476C60.8607 37.433 60.9866 37.7772 61.0052 38.1354C61.1842 39.5058 61.4226 40.8673 61.6291 42.2332C61.694 42.4826 61.6638 42.7473 61.5444 42.9755C61.4249 43.2038 61.2248 43.379 60.9832 43.467C60.7954 43.5463 60.4637 43.456 60.5263 43.8327C60.5845 44.1819 60.4681 44.6479 60.9042 44.7988C61.3491 44.9627 61.7345 45.2572 62.0103 45.6438C62.2862 46.0304 62.4396 46.4914 62.4506 46.9667C62.5978 47.9239 62.7955 48.8713 62.9844 49.8208C63.0593 50.1245 63.0454 50.4434 62.9443 50.7394C62.8432 51.0353 62.6592 51.2958 62.4144 51.4897C62.2864 51.5889 62.1882 51.7216 62.1306 51.8733C62.073 52.0249 62.0583 52.1895 62.0881 52.349C62.1178 52.5085 62.1909 52.6567 62.2992 52.7771C62.4076 52.8976 62.547 52.9858 62.7021 53.0319C63.0046 53.1076 63.2791 53.2686 63.4932 53.4958C63.7073 53.723 63.852 54.007 63.9103 54.3141C64.2014 55.5952 64.5023 56.8741 64.7835 58.1563C64.8467 58.4401 64.8298 58.7359 64.7345 59.0105C64.6392 59.2851 64.4694 59.5276 64.2442 59.7107C64.1344 59.8098 63.9147 59.8583 64.0102 60.0709C64.075 60.2196 64.242 60.1997 64.376 60.2075C65.507 60.2257 66.6202 60.4921 67.6376 60.9878C68.655 61.4836 69.5519 62.1967 70.2653 63.077C70.3367 63.1663 70.4158 63.2775 70.5443 63.228C70.6728 63.1784 70.6607 63.0407 70.6684 62.9283C70.6761 62.816 70.6761 62.697 70.6761 62.5824C70.6958 58.5232 70.7453 54.4639 70.5344 50.4091C70.2366 44.68 69.6261 38.9715 68.7056 33.3095C68.2181 30.6822 67.8651 28.0317 67.6479 25.3683C67.6411 25.04 67.5062 24.7275 67.2724 24.4977C67.0386 24.268 66.7243 24.1391 66.3969 24.1389C65.5668 24.0403 64.7281 24.2312 64.0216 24.6795C63.3152 25.1278 62.7841 25.8063 62.5176 26.6009C62.4803 26.7111 62.4539 26.8212 62.4177 26.9314C62.1804 27.6287 61.7587 27.9228 61.2095 27.7818C60.5977 27.6188 60.3308 27.0856 60.5417 26.3498C60.7593 25.4845 61.1827 24.685 61.7757 24.0197C62.3687 23.3544 63.1135 22.8431 63.9465 22.5295C64.7264 22.2359 65.5481 22.0693 66.3805 22.036C65.4455 21.2634 64.2429 20.8949 63.0371 21.0116C62.165 21.1148 61.329 21.4207 60.5955 21.905C59.9102 22.3456 59.3544 22.2806 59.0271 21.7629C58.6998 21.2451 58.8689 20.6855 59.5554 20.2713C60.3911 19.7362 61.3245 19.373 62.3014 19.2028C63.2783 19.0326 64.2792 19.0588 65.2459 19.2799C65.5303 19.3427 65.8115 19.4165 66.1322 19.4936C65.8131 18.6405 65.2172 17.9197 64.4402 17.4474C63.6633 16.9751 62.7505 16.7786 61.8487 16.8895C61.5763 16.9336 61.3061 16.9909 61.0349 17.036C60.9066 17.0707 60.7726 17.079 60.6411 17.0606C60.5095 17.0422 60.383 16.9973 60.2691 16.9287C60.1552 16.8601 60.0562 16.7692 59.9781 16.6614C59.9 16.5536 59.8444 16.4311 59.8146 16.3013C59.7866 16.1704 59.7856 16.0351 59.8117 15.9038C59.8378 15.7725 59.8904 15.6479 59.9664 15.5377C60.0423 15.4276 60.14 15.3343 60.2533 15.2634C60.3666 15.1926 60.4931 15.1458 60.6252 15.1259C61.5996 14.8304 62.6338 14.7934 63.6268 15.0185C64.6197 15.2436 65.5375 15.7232 66.2904 16.4103C66.4694 16.5723 66.5891 16.8234 66.9154 16.8565C66.9736 16.2132 66.9999 15.5754 67.0944 14.9475C67.1846 13.9779 67.5085 13.0449 68.0381 12.2288C68.5677 11.4127 69.2872 10.7379 70.1346 10.2625C70.3252 10.1098 70.5605 10.0241 70.8043 10.0186C71.0482 10.013 71.2871 10.0878 71.4844 10.2317C71.6199 10.3329 71.7257 10.4688 71.791 10.6251C71.8563 10.7813 71.8786 10.9523 71.8556 11.1201C71.8326 11.2879 71.7652 11.4465 71.6603 11.5793C71.5554 11.7121 71.4169 11.8143 71.2593 11.8752C69.4261 12.7322 68.7111 15.1634 69.0505 17.0184C69.3493 16.6241 69.6063 16.2539 69.8929 15.9069C70.4868 15.1961 71.2429 14.6394 72.097 14.2841C72.9511 13.9287 73.878 13.7852 74.7992 13.8657C75.534 13.8889 75.9733 14.3163 75.9711 14.8847C75.9711 15.4817 75.5065 15.8761 74.7058 15.8298C72.4356 15.7075 70.7782 17.0922 70.1104 19.8571C71.3123 19.0435 72.7226 18.5944 74.1723 18.5635C75.6221 18.5326 77.0501 18.9213 78.2853 19.6831C78.9949 20.1524 79.1783 20.7186 78.8257 21.2374C78.4731 21.7563 77.8921 21.7783 77.1892 21.3156C75.3802 20.1215 72.3906 20.3132 71.0989 21.7056C71.022 21.7882 70.9583 21.8829 70.8287 22.0493C71.4021 22.1264 71.9084 22.1748 72.407 22.2696C73.4275 22.4124 74.3834 22.8533 75.1557 23.5373C75.928 24.2214 76.4824 25.1183 76.7498 26.1162C76.7975 26.341 76.8196 26.5705 76.8158 26.8003C76.8263 27.0512 76.7403 27.2965 76.5756 27.4856C76.411 27.6747 76.1802 27.7932 75.9309 27.8165C75.6817 27.8398 75.433 27.7662 75.2363 27.611C75.0396 27.4557 74.9098 27.2305 74.8739 26.9821C74.7337 26.1367 74.2818 25.3751 73.6077 24.8484C72.9336 24.3217 72.0867 24.0684 71.2351 24.1389C70.1181 24.1665 69.6129 24.6489 69.6557 25.7637C69.7876 27.7176 70.037 29.6618 70.4026 31.5855C71.1428 36.1801 71.7821 40.7847 72.1599 45.4278C72.5992 50.8321 72.7299 56.2451 72.6607 61.6648C72.6607 61.8708 72.6608 62.079 72.6509 62.2872C72.6201 63.3271 72.6212 63.3227 73.6185 63.51C75.1525 63.7948 76.5163 64.6661 77.422 65.94C77.7357 66.4715 78.109 66.9653 78.5346 67.4117C78.6518 67.5329 78.7335 67.684 78.7709 67.8486C78.8082 68.0132 78.7997 68.1849 78.7463 68.345C78.6929 68.5051 78.5967 68.6473 78.4681 68.7563C78.3396 68.8652 78.1836 68.9366 78.0173 68.9627C77.7667 68.9979 77.5132 69.0082 77.2606 68.9936C52.745 68.9936 28.2294 68.9936 3.71375 68.9936C3.50682 69.0018 3.29958 68.9974 3.09319 68.9803C2.87097 68.9762 2.65859 68.8877 2.49881 68.7328C2.33902 68.5778 2.24372 68.3679 2.23209 68.1453C2.19019 67.9145 2.23845 67.6764 2.36687 67.4804C2.49529 67.2843 2.69401 67.1453 2.92184 67.0922C2.96318 67.0712 3.00847 67.0593 3.05475 67.057C4.10036 67.2266 4.50565 66.5426 4.94059 65.7582C5.58997 64.6252 6.61425 63.7557 7.83581 63.3007C8.00942 63.2538 8.15926 63.1435 8.25582 62.9914C8.35238 62.8393 8.38866 62.6565 8.35751 62.4789C8.24768 58.5584 8.3015 54.6379 8.47723 50.7208C8.79365 44.321 9.49604 37.9464 10.5806 31.6318C10.8738 29.8836 11.088 28.1222 11.3252 26.3641C11.3591 26.0664 11.365 25.7662 11.3428 25.4674C11.3504 25.1511 11.2405 24.8433 11.0345 24.6037C10.8285 24.3641 10.541 24.2099 10.228 24.1709C9.51939 24.0744 8.79798 24.1693 8.13809 24.4456C7.47821 24.7219 6.90373 25.1697 6.47387 25.7428C6.28617 26.0608 6.17346 26.4176 6.14437 26.786C6.0587 27.4646 5.61606 27.8776 5.08008 27.8281C4.93638 27.8099 4.79798 27.7622 4.6735 27.6879C4.54902 27.6136 4.44115 27.5144 4.35663 27.3965C4.27211 27.2785 4.21275 27.1444 4.18226 27.0023C4.15178 26.8603 4.15081 26.7136 4.17944 26.5712C4.24818 25.8557 4.48909 25.1676 4.88147 24.5661C5.27386 23.9646 5.80598 23.4676 6.43213 23.1178C7.38951 22.5092 8.49112 22.167 9.6239 22.1264C9.76009 22.1209 9.89629 22.1021 10.0314 22.0856C10.0468 22.0856 10.0588 22.0537 10.0995 21.9997M14.5126 22.0911L15.2408 22.1352C16.4329 22.1899 17.5773 22.6209 18.5106 23.3667C19.444 24.1125 20.1186 25.1349 20.4381 26.2881C20.6468 27.0592 20.4458 27.5846 19.8692 27.7818C19.2926 27.979 18.8236 27.6562 18.5688 26.8918C18.5248 26.7607 18.4897 26.6274 18.4424 26.4974C18.1646 25.7445 17.646 25.105 16.9677 24.6788C16.2894 24.2525 15.4894 24.0635 14.6927 24.1411C13.8679 24.2227 13.4088 24.6159 13.3604 25.3672C13.1474 28.6366 12.5224 31.8488 12.0282 35.0797C11.2546 40.1543 10.7351 45.2646 10.4718 50.3914C10.273 54.1907 10.3093 57.9922 10.3093 61.7981C10.3093 62.4844 10.3949 62.8997 11.2121 62.8424C11.6602 62.8105 12.0908 63.1519 12.5521 62.6959C13.6011 61.6747 14.9604 61.0346 16.4138 60.8772C16.7224 60.8365 16.9267 60.7516 17.0047 60.419C17.0525 60.2914 17.0555 60.1514 17.0134 60.0219C16.9713 59.8923 16.8865 59.7811 16.773 59.7063C16.5303 59.5252 16.3476 59.2751 16.2486 58.9884C16.1497 58.7017 16.1391 58.3918 16.2183 58.0991C16.5028 56.8168 16.8114 55.5412 17.097 54.2612C17.1566 53.9657 17.2989 53.6934 17.5073 53.4761C17.7156 53.2588 17.9813 53.1055 18.2733 53.0341C18.4288 52.9924 18.5699 52.9086 18.6812 52.792C18.7925 52.6753 18.8697 52.5303 18.9044 52.3726C18.939 52.2149 18.9299 52.0507 18.8779 51.898C18.8258 51.7452 18.733 51.6097 18.6094 51.5062C18.347 51.298 18.1523 51.0161 18.05 50.6966C17.9477 50.3771 17.9425 50.0343 18.035 49.7118C18.2678 48.6102 18.4677 47.4976 18.6566 46.385C18.6688 46.0134 18.8022 45.6561 19.0363 45.3678C19.2704 45.0795 19.5923 44.8761 19.9527 44.7888C20.3382 44.6974 20.4184 44.3989 20.4557 44.0552C20.4897 43.7457 20.5117 43.4978 20.1712 43.2974C19.897 43.1438 19.6798 42.9053 19.5521 42.6175C19.4244 42.3298 19.393 42.0083 19.4628 41.7012C19.6473 40.4707 19.8472 39.2447 20.012 38.0131C20.0347 37.6779 20.1584 37.3575 20.3667 37.0943C20.575 36.8311 20.858 36.6375 21.1784 36.5392C21.3152 36.4886 21.4362 36.4023 21.5289 36.2894C21.6217 36.1765 21.6828 36.0409 21.7062 35.8965C21.7295 35.752 21.7142 35.604 21.6618 35.4674C21.6094 35.3309 21.5218 35.2108 21.408 35.1193C21.0831 34.9183 20.8308 34.6185 20.6878 34.2636C20.5448 33.9088 20.5185 33.5173 20.6128 33.1464C20.7479 32.0448 20.8873 30.9532 20.9939 29.8539C20.9932 29.517 21.0979 29.1884 21.2931 28.9144C21.4884 28.6403 21.7644 28.4345 22.0823 28.326C22.2067 28.3021 22.319 28.2359 22.4002 28.1385C22.4815 28.0412 22.5267 27.9187 22.5283 27.7917C22.5469 27.4403 22.358 27.3004 22.079 27.1914C21.8218 27.1126 21.5955 26.9553 21.4315 26.7415C21.2675 26.5277 21.1741 26.2679 21.1641 25.9984C21.0084 24.7257 21.0881 23.4351 21.3992 22.1914C21.1751 22.2095 20.9496 22.1818 20.7365 22.11C20.5234 22.0383 20.327 21.9239 20.1591 21.7739C19.3018 21.2305 18.297 20.9686 17.2844 21.0247C16.2718 21.0807 15.3017 21.452 14.5093 22.0867M36.7858 44.1588C36.7858 51.2161 36.7858 58.2739 36.7858 65.3319C36.7858 67.2266 36.5354 66.9722 38.4267 66.9843C39.4954 66.9942 39.4965 66.9843 39.4965 65.9367C39.4965 51.7052 39.4965 37.4745 39.4965 23.2445C39.4965 21.4897 39.4965 21.4897 37.7567 21.4941C36.7836 21.4941 36.7814 21.4941 36.7814 22.4965C36.7814 29.7161 36.7814 36.9354 36.7814 44.1544M41.491 44.2943C41.491 51.3289 41.491 58.3634 41.491 65.398C41.491 67.2002 41.2439 66.97 43.0573 66.9843C44.2017 66.9942 44.2028 66.9843 44.2028 65.7968C44.2028 51.6123 44.2028 37.4278 44.2028 23.2434C44.2028 21.4908 44.2028 21.4908 42.4532 21.4941C41.4888 21.4941 41.4867 21.4941 41.4867 22.4987V44.3108M34.7868 44.2898V22.5648C34.7868 22.3577 34.7868 22.1495 34.7802 21.9424C34.7888 21.862 34.7722 21.7808 34.7329 21.7102C34.6936 21.6396 34.6333 21.5829 34.5605 21.548C34.4225 21.4608 34.2631 21.4138 34.0999 21.4123C33.9368 21.4109 33.7765 21.455 33.637 21.5397C33.4974 21.6244 33.3841 21.7464 33.3098 21.8921C33.2355 22.0377 33.2031 22.2012 33.2162 22.3643C33.2162 36.9865 33.2129 51.6083 33.2063 66.2297C33.2063 66.7805 33.3392 67.0096 33.9345 67.0206C34.5935 67.0339 34.8 66.8235 34.7978 66.1537C34.7765 58.8643 34.7725 51.5763 34.7857 44.2898M47.756 44.3119C47.756 37.0012 47.76 29.6905 47.768 22.3797C47.768 21.7188 47.5747 21.4985 46.9048 21.4897C46.2348 21.4808 46.1754 21.8058 46.1776 22.3423C46.193 25.7087 46.1853 29.075 46.1853 32.4436C46.1853 43.6502 46.1853 54.8586 46.1853 66.0689C46.1853 66.6318 46.1853 67.0438 46.9597 67.0239C47.5989 67.0085 47.7746 66.8036 47.7735 66.1746C47.7552 58.8867 47.7512 51.5991 47.7615 44.3119M64.9878 67.0041V67.0107C68.2974 67.0107 71.6067 67.0107 74.9156 67.0107C75.1276 67.0107 75.4373 67.1275 75.5197 66.8466C75.5801 66.6417 75.3231 66.5018 75.1693 66.3729C74.356 65.6748 73.3029 65.323 72.2346 65.3925C72.0519 65.3767 71.8685 65.4145 71.7069 65.5014C71.5452 65.5882 71.4122 65.7203 71.3241 65.8816C71.224 66.081 71.0544 66.2367 70.8475 66.3191C70.6407 66.4015 70.4108 66.405 70.2016 66.3289C69.748 66.211 69.5997 65.8012 69.4108 65.43C68.9576 64.4346 68.2174 63.5982 67.2857 63.0288C66.354 62.4594 65.2736 62.183 64.1838 62.2354C63.339 62.2399 62.5075 62.4458 61.7577 62.8362C61.0079 63.2265 60.3615 63.7901 59.8717 64.4804C59.4554 65.0312 58.993 65.2846 58.334 64.921C58.1049 64.8088 57.8467 64.7703 57.5949 64.8109C56.5074 64.9241 55.5071 65.4589 54.8073 66.3013C54.6623 66.4655 54.3888 66.6318 54.4954 66.8675C54.6019 67.1032 54.9094 66.9909 55.1247 66.9909C58.4109 66.9982 61.6975 67.0001 64.9845 66.9964M16.6741 66.9964H22.5359C23.754 66.9964 24.9732 67.0019 26.1912 66.9909C26.4043 66.9909 26.725 67.1066 26.8008 66.8356C26.8645 66.6053 26.5745 66.4611 26.4043 66.3156C25.8532 65.856 25.193 65.5471 24.4877 65.4189C24.2795 65.3558 24.0579 65.3524 23.8479 65.4091C23.6378 65.4657 23.4478 65.5802 23.2993 65.7395C23.2033 65.8503 23.0818 65.936 22.9453 65.9892C22.8089 66.0424 22.6616 66.0614 22.5161 66.0447C22.3707 66.028 22.2315 65.9761 22.1106 65.8933C21.9896 65.8106 21.8906 65.6996 21.822 65.5699C21.7397 65.4597 21.6792 65.333 21.6024 65.2185C21.0809 64.3392 20.3012 63.643 19.3701 63.2251C18.439 62.8073 17.4018 62.6882 16.4006 62.8843C15.1181 63.1086 13.9704 63.8184 13.1946 64.8671C13.1191 65.0129 13.0091 65.1378 12.8741 65.2309C12.7392 65.324 12.5835 65.3824 12.4208 65.401C12.2581 65.4196 12.0933 65.3978 11.941 65.3376C11.7886 65.2773 11.6533 65.1804 11.5471 65.0554C11.3873 64.9261 11.1957 64.8424 10.9924 64.8131C10.2399 64.6841 9.46672 64.7564 8.75092 65.0227C8.03513 65.289 7.402 65.7399 6.9154 66.33C6.77371 66.4908 6.50462 66.6604 6.64191 66.905C6.74516 67.0834 7.02523 66.9898 7.22623 66.9909C10.3748 66.9909 13.5234 66.9909 16.6719 66.9909M25.1061 54.9838C23.2696 54.9838 21.4332 54.9938 19.5979 54.9761C19.1355 54.9706 18.8719 55.1006 18.7862 55.5908C18.6764 56.2253 18.516 56.851 18.3579 57.4745C18.2371 57.9471 18.4216 58.0925 18.8774 58.0914C22.8021 58.0833 26.7268 58.0833 30.6516 58.0914C31.0623 58.0914 31.2381 57.9316 31.2304 57.5229C31.2183 56.9237 31.2007 56.3234 31.237 55.7274C31.271 55.1524 31.0426 54.9651 30.4769 54.9728C28.6866 55.0004 26.8963 54.9838 25.1061 54.9838ZM56.2241 58.0891H61.7323C62.7208 58.0891 62.7296 58.0892 62.5132 57.0889C62.4034 56.5723 62.2628 56.0601 62.165 55.5468C62.1631 55.4667 62.1446 55.3879 62.1106 55.3154C62.0766 55.243 62.028 55.1784 61.9677 55.1258C61.9075 55.0733 61.837 55.0339 61.7607 55.0102C61.6844 54.9865 61.604 54.979 61.5247 54.9882C57.7838 54.9963 54.0432 54.9963 50.303 54.9882C49.8812 54.9882 49.7341 55.1843 49.7407 55.5798C49.7516 56.1559 49.7725 56.7331 49.7341 57.3059C49.6945 57.8964 49.8922 58.1189 50.5106 58.1079C52.4151 58.0737 54.3196 58.0947 56.2219 58.0958M25.6102 49.8054C27.2643 49.8054 28.9184 49.7944 30.5725 49.812C31.0393 49.812 31.248 49.6556 31.2315 49.1731C31.2095 48.5287 31.2194 47.8832 31.226 47.2376C31.226 46.8587 31.0612 46.7034 30.6834 46.7045C27.4902 46.7111 24.2966 46.7111 21.1026 46.7045C20.6951 46.7045 20.5436 46.8807 20.4886 47.2696C20.4063 47.8622 20.2855 48.4505 20.146 49.0321C20.0065 49.6137 20.1745 49.8307 20.7863 49.8186C22.3943 49.7922 24.0022 49.8098 25.6113 49.8098M55.2499 49.8098C56.9051 49.8098 58.5592 49.7944 60.2133 49.8175C60.7877 49.8263 60.9481 49.6181 60.8185 49.0707C60.6728 48.4663 60.5581 47.8548 60.4747 47.2387C60.4198 46.8267 60.2188 46.7034 59.8333 46.7045C56.662 46.7118 53.4915 46.7118 50.3217 46.7045C49.9131 46.7045 49.7319 46.8576 49.7396 47.2718C49.7516 47.871 49.7692 48.4725 49.733 49.0684C49.6989 49.6468 49.9296 49.8318 50.4941 49.8197C52.079 49.7933 53.665 49.812 55.2499 49.8109M26.3395 41.5326C27.719 41.5326 29.0996 41.5194 30.4791 41.5381C30.9844 41.5459 31.2644 41.4115 31.2337 40.842C31.2029 40.2725 31.2139 39.6886 31.2337 39.1125C31.2458 38.6653 31.0415 38.5 30.6087 38.5011C27.8944 38.5085 25.1807 38.5085 22.4678 38.5011C22.3883 38.4885 22.307 38.4936 22.2297 38.516C22.1523 38.5384 22.0809 38.5776 22.0203 38.6307C21.9597 38.6839 21.9115 38.7498 21.8792 38.8237C21.8468 38.8977 21.8311 38.9778 21.833 39.0585C21.7528 39.6512 21.6946 40.2526 21.5584 40.8332C21.4299 41.3773 21.6155 41.5425 22.1351 41.537C23.5376 41.5216 24.9402 41.5315 26.3439 41.537M54.6129 41.537C56.0407 41.537 57.4686 41.537 58.8887 41.537C59.1556 41.537 59.5016 41.5767 59.4379 41.1361C59.3401 40.4057 59.2105 39.6809 59.1084 38.9506C59.0578 38.597 58.8349 38.51 58.5241 38.51C55.7885 38.51 53.0525 38.51 50.3162 38.51C49.9065 38.51 49.7352 38.695 49.7418 39.0993C49.7516 39.6754 49.7659 40.2526 49.7418 40.8276C49.7132 41.3784 49.9515 41.5536 50.4765 41.5448C51.8561 41.5227 53.2356 41.537 54.6151 41.537M26.8755 33.3326C28.1144 33.3326 29.3533 33.3183 30.5912 33.3392C31.0667 33.3469 31.2502 33.1707 31.2392 32.6959C31.2172 32.0757 31.2205 31.4533 31.2392 30.8332C31.2513 30.3859 31.0579 30.2262 30.6208 30.2284C28.236 30.2409 25.8511 30.2409 23.4662 30.2284C23.0708 30.2284 22.8841 30.3749 22.8622 30.7891C22.8325 31.3619 22.7611 31.9336 22.6919 32.5031C22.592 33.3271 22.5821 33.3282 23.4377 33.3293H26.8777M54.1043 33.3293C55.3191 33.3293 56.535 33.3128 57.7497 33.337C58.2835 33.348 58.4318 33.174 58.3264 32.6408C58.2166 32.0304 58.1491 31.4132 58.1243 30.7935C58.1001 30.3826 57.9222 30.2273 57.5246 30.2284C55.1155 30.2357 52.7076 30.2357 50.3008 30.2284C49.8714 30.2284 49.7418 30.4377 49.7516 30.8265C49.7615 31.4478 49.7692 32.0691 49.7516 32.6893C49.7352 33.1597 49.9153 33.3502 50.3953 33.3381C51.6342 33.315 52.872 33.3304 54.1109 33.3304M25.1895 60.083C23.4673 60.083 21.7444 60.083 20.0208 60.083C19.8143 60.0789 19.6077 60.0881 19.4024 60.1105C19.0432 60.1579 19.0202 60.463 18.9631 60.7318C18.9048 61.0303 19.1542 61.0623 19.3387 61.1295C19.6407 61.2407 19.9604 61.2956 20.2822 61.2914C23.6819 61.2855 27.082 61.2855 30.4824 61.2914C30.9009 61.2914 31.2589 61.3002 31.2513 60.7021C31.2513 60.1348 30.9283 60.0775 30.4901 60.0786C28.7218 60.0863 26.9524 60.0786 25.1829 60.0786M55.8902 60.0786C54.097 60.0786 52.3031 60.0786 50.5084 60.0786C50.1646 60.0786 49.8022 60.0411 49.7571 60.5589C49.7121 61.0766 49.8955 61.2958 50.4513 61.2925C53.4409 61.272 56.4303 61.272 59.4192 61.2925C60.1073 61.3468 60.7958 61.1933 61.3962 60.8519C61.6049 60.7197 62.0267 60.7483 61.9102 60.344C61.8114 60.0026 61.4621 60.0786 61.1974 60.0775C59.4269 60.0709 57.6564 60.0775 55.8859 60.0775M55.3554 63.4119C55.2532 63.3326 55.2203 63.2863 55.1873 63.2852C54.0395 63.2775 52.8918 63.2698 51.744 63.2687C49.7538 63.2687 49.7538 63.2687 49.7538 65.2703C49.7538 67.0956 49.9878 67.2894 51.8077 66.9909C51.8987 66.9886 51.9874 66.9619 52.0646 66.9137C52.1418 66.8655 52.2048 66.7974 52.2471 66.7166C52.8517 65.2768 53.9532 64.1036 55.3499 63.4119M22.8072 63.4251C23.9546 63.2432 25.13 63.3993 26.1907 63.8745C27.2513 64.3497 28.1516 65.1235 28.7822 66.1019C28.9484 66.4209 29.2097 66.68 29.5296 66.8431C29.8495 67.0062 30.2121 67.0651 30.567 67.0118C31.0788 66.9766 31.2534 66.7915 31.2392 66.2947C31.2161 65.5357 31.2073 64.7724 31.2392 64.0123C31.2655 63.4251 31.0195 63.2566 30.4626 63.261C28.0946 63.2797 25.7255 63.2676 23.3564 63.2709C23.2592 63.2548 23.1596 63.2603 23.0648 63.2869C22.9699 63.3136 22.882 63.3607 22.8072 63.4251ZM27.172 23.7137C26.0484 23.7137 24.9237 23.7402 23.8012 23.7027C23.1741 23.6829 23.0917 24.0013 23.0928 24.5135C23.0939 25.0257 23.1675 25.3363 23.7968 25.3286C26.044 25.3029 28.2916 25.3029 30.5395 25.3286C31.1689 25.3374 31.2458 25.0268 31.2425 24.5168C31.2392 24.0067 31.1843 23.6785 30.5428 23.7027C29.4203 23.7424 28.2956 23.7137 27.172 23.7137ZM53.6628 25.3198C54.7194 25.3198 55.7771 25.2845 56.8315 25.3308C57.4905 25.3606 57.5806 25.0455 57.5762 24.4958C57.5762 23.9726 57.4806 23.6928 56.8612 23.7005C54.726 23.7314 52.5905 23.7314 50.4546 23.7005C49.8362 23.6917 49.7417 23.9759 49.7341 24.498C49.7253 25.0598 49.8494 25.354 50.4941 25.3275C51.5496 25.2857 52.6073 25.3165 53.6628 25.3176M25.9496 53.0021C27.4664 53.0021 28.9821 52.9966 30.4989 53.0021C30.9316 53.0021 31.2622 52.9768 31.2578 52.393C31.2534 51.8091 30.8877 51.808 30.4747 51.8091C28.8657 51.8091 27.2577 51.8091 25.6486 51.8091C24.2933 51.8091 22.9368 51.8322 21.5848 51.8014C20.9873 51.7882 20.8961 52.176 20.8577 52.5935C20.8061 53.1442 21.2619 52.9867 21.5409 52.9889C23.0115 53.0054 24.4822 52.9966 25.9529 52.9966M55.0006 52.9966C56.5383 52.9966 58.0759 52.9856 59.6202 52.9966C60.1496 53.0021 60.2309 52.7961 60.1177 52.3137C60.0079 51.8609 59.7421 51.8014 59.3643 51.8025C56.3988 51.8069 53.4333 51.8069 50.4678 51.8025C50.0504 51.8025 49.7593 51.8598 49.7571 52.3907C49.7549 52.9217 50.013 53.001 50.448 52.9977C51.9648 52.9834 53.4816 52.9977 54.9984 52.9977M26.9194 43.5243C25.6113 43.5243 24.3043 43.5309 22.9961 43.5243C22.3811 43.5188 22.4711 43.9935 22.4228 44.3515C22.3613 44.8164 22.7424 44.7173 22.9874 44.7184C25.5135 44.7261 28.0397 44.7184 30.5571 44.7261C30.9866 44.7261 31.2523 44.6313 31.2578 44.1191C31.2633 43.6069 30.9986 43.5133 30.5659 43.5188C29.35 43.5342 28.1342 43.5243 26.9194 43.5243ZM54.2318 44.725C55.4718 44.725 56.714 44.6963 57.9529 44.736C58.5625 44.7558 58.6427 44.5057 58.5471 43.9913C58.4669 43.5507 58.188 43.5232 57.842 43.5232C55.3839 43.5232 52.9258 43.5232 50.4678 43.5232C50.0526 43.5232 49.7582 43.5672 49.756 44.1037C49.756 44.6688 50.068 44.7338 50.5106 44.7294C51.7506 44.7206 52.9906 44.7294 54.2318 44.7294M27.4115 36.5183C28.4659 36.5183 29.5203 36.5073 30.5736 36.5238C31.0129 36.5304 31.2622 36.4258 31.2567 35.9146C31.2512 35.4035 30.9745 35.3011 30.5505 35.3143C30.1617 35.3264 29.7718 35.3143 29.383 35.3143C27.6871 35.3143 25.9913 35.333 24.2955 35.3088C23.6661 35.2989 23.6727 35.7362 23.6288 36.1339C23.5728 36.6472 23.9901 36.5073 24.2494 36.5106C25.3038 36.526 26.3582 36.5172 27.4115 36.5172M53.5618 35.3154H50.6061C50.191 35.3154 49.7692 35.257 49.7549 35.9069C49.7407 36.5569 50.1339 36.5205 50.5688 36.5194C52.6073 36.5139 54.6469 36.5194 56.6865 36.5095C56.9556 36.5095 57.4103 36.6935 57.3829 36.1416C57.3598 35.701 57.306 35.278 56.6547 35.3044C55.6255 35.3474 54.5931 35.3165 53.5618 35.3154ZM27.9486 27.3236H25.1906C24.8556 27.3236 24.5316 27.3081 24.5316 27.8005C24.5415 28.2577 24.8611 28.2269 25.1621 28.2269C26.9773 28.2313 28.7932 28.2313 30.6098 28.2269C30.9195 28.2269 31.226 28.2268 31.2348 27.7862C31.2436 27.3456 30.9558 27.3225 30.6329 27.3236C29.7366 27.3236 28.8404 27.3236 27.9442 27.3236M53.1049 28.2269C54.0472 28.2269 54.9896 28.2269 55.932 28.2269C56.2395 28.2269 56.4811 28.1673 56.4724 27.7763C56.4636 27.3852 56.2527 27.3202 55.9342 27.3213C54.0729 27.3213 52.2116 27.3213 50.3502 27.3213C50.0592 27.3213 49.7868 27.3357 49.7703 27.7344C49.7527 28.1563 50.0087 28.2279 50.3469 28.2257C51.2662 28.2257 52.1856 28.2257 53.1049 28.2257" fill="#5E713E"/>
</svg>
