<svg width="89" height="70" viewBox="0 0 89 70" fill="none" xmlns="http://www.w3.org/2000/svg">
<path d="M44.4902 67.25C33.5302 67.25 22.5702 67.25 11.6102 67.25C11.2902 67.25 10.9702 67.26 10.6602 67.2C10.0302 67.08 9.66021 66.69 9.66021 66.02C9.66021 63.8 9.65021 61.58 9.66021 59.36C9.66021 58.58 10.0802 58.17 10.8902 58.12C11.4802 58.08 12.0702 58.1 12.6602 58.11C13.0302 58.12 13.2002 57.95 13.1802 57.58C13.1702 57.42 13.1802 57.26 13.1802 57.1C13.1802 45.14 13.1802 33.19 13.1902 21.23C13.1902 20.67 13.0902 20.18 12.7902 19.69C12.1802 18.7 12.0602 17.59 11.9502 16.45C11.7502 14.44 12.3902 12.88 13.7102 11.35C16.0202 8.68 18.1302 5.84 20.3002 3.05C20.7302 2.5 21.2202 2.25 21.9202 2.25C36.9802 2.26 52.0402 2.26 67.1002 2.25C67.8002 2.25 68.3002 2.51 68.7202 3.05C71.3402 6.4 73.9802 9.75 76.6202 13.09C76.8802 13.42 77.0502 13.77 77.0302 14.21C76.9702 15.45 77.1502 16.7 76.9002 17.93C76.7902 18.47 76.6602 19.01 76.3402 19.45C75.8602 20.12 75.8102 20.85 75.8102 21.64C75.8202 33.46 75.8202 45.28 75.8202 57.1C75.8202 58.1 75.8202 58.09 76.8302 58.1C77.2802 58.1 77.7402 58.08 78.1902 58.12C78.9502 58.19 79.3402 58.61 79.3402 59.37C79.3502 61.57 79.3502 63.76 79.3402 65.96C79.3402 66.72 78.9502 67.13 78.2002 67.23C77.9102 67.27 77.6102 67.25 77.3202 67.25C66.3702 67.25 55.4302 67.25 44.4902 67.25ZM73.5302 40.12C73.5302 34.39 73.5302 28.66 73.5402 22.93C73.5402 22.42 73.5302 22.22 72.8902 22.43C70.2602 23.26 67.8702 22.85 65.9102 20.8C65.4902 20.36 65.2802 20.43 64.9002 20.83C62.2902 23.53 58.0702 23.52 55.4402 20.81C55.0802 20.44 54.8802 20.37 54.4802 20.78C51.7802 23.56 47.6502 23.55 44.9302 20.76C44.5602 20.38 44.3702 20.41 44.0202 20.77C41.3402 23.52 37.1702 23.54 34.5202 20.8C34.1102 20.38 33.9002 20.41 33.5102 20.81C30.8902 23.52 26.6802 23.52 24.0602 20.8C23.6602 20.38 23.4502 20.4 23.0502 20.81C21.1202 22.81 18.7802 23.22 16.1902 22.48C15.4402 22.27 15.4502 22.24 15.4502 23.02C15.4502 30.61 15.4502 38.19 15.4502 45.78C15.4502 49.63 15.4602 53.48 15.4402 57.33C15.4402 57.93 15.6202 58.12 16.2102 58.11C18.2902 58.08 20.3802 58.09 22.4602 58.1C22.9502 58.1 23.1502 57.93 23.1402 57.43C23.1202 56.39 23.1302 55.35 23.1302 54.3C23.1302 53.07 23.1302 53.07 21.9102 52.85C19.9602 52.5 18.8402 51.42 18.5702 49.45C18.3002 47.48 18.5702 45.57 19.3702 43.74C19.7602 42.85 19.9202 41.94 19.7302 40.96C19.5502 40.02 19.2102 39.13 18.8402 38.26C18.4902 37.45 18.1502 36.64 18.0502 35.74C17.9302 34.69 18.2902 33.88 19.2102 33.33C19.7802 32.99 20.4102 32.8 21.0302 32.6C21.3702 32.49 21.7002 32.37 21.7602 31.9C21.8502 31.16 22.3502 30.73 23.0302 30.57C23.8702 30.37 24.7402 30.39 25.5902 30.55C26.2302 30.67 26.7002 31.08 26.8602 31.74C27.0102 32.39 27.4302 32.68 28.0302 32.81C28.3202 32.87 28.6002 32.95 28.8802 33.03C30.1402 33.43 30.6802 34.31 30.5602 35.61C30.4202 37.06 29.7702 38.34 29.2602 39.67C28.7602 40.97 28.6402 42.3 29.2102 43.57C30.0002 45.32 30.2002 47.12 30.1202 49C30.0402 50.97 29.0202 52.27 27.1002 52.75C26.7702 52.83 26.4402 52.92 26.1002 52.93C25.5702 52.94 25.4802 53.21 25.4802 53.67C25.5002 54.89 25.5102 56.12 25.4802 57.34C25.4602 57.9 25.6602 58.09 26.2202 58.08C28.3902 58.06 30.5702 58.07 32.7402 58.07C33.7002 58.07 33.7002 58.07 33.7002 57.09C33.7002 47.96 33.7002 38.84 33.7002 29.71C33.7002 29.46 33.6902 29.21 33.7102 28.96C33.7702 28.35 34.1002 27.95 34.7102 27.84C34.9502 27.79 35.2002 27.78 35.4502 27.78C41.4702 27.78 47.5002 27.78 53.5202 27.78C53.7402 27.78 53.9702 27.79 54.2002 27.83C54.8402 27.94 55.1902 28.34 55.2402 28.99C55.2602 29.24 55.2502 29.49 55.2502 29.74C55.2502 38.89 55.2502 48.04 55.2502 57.18C55.2502 57.64 55.1702 58.08 55.9002 58.07C58.2102 58.04 60.5202 58.05 62.8302 58.06C63.2902 58.06 63.4802 57.9 63.4702 57.43C63.4502 56.21 63.4402 54.98 63.4802 53.76C63.5002 53.15 63.3202 52.93 62.6802 52.94C60.9602 52.98 59.2402 52.96 57.5202 52.95C56.4302 52.94 55.9602 52.32 56.2302 51.25C56.3302 50.86 56.4602 50.47 56.6202 50.1C57.6902 47.6 58.9502 45.19 60.4202 42.9C60.9302 42.11 61.2402 41.3 61.1702 40.35C61.1402 39.91 60.9902 39.8 60.5802 39.91C59.8002 40.13 59.0502 39.9 58.3202 39.65C57.7102 39.44 57.4202 38.91 57.5902 38.3C57.9702 36.93 58.3802 35.55 59.0302 34.28C59.6502 33.06 60.5402 32.19 62.0302 32.18C62.4902 32.18 62.7202 31.91 62.7702 31.46C62.8402 30.76 63.3002 30.49 63.9302 30.45C64.4902 30.42 65.0602 30.45 65.6302 30.44C66.3502 30.42 66.8102 30.74 66.9702 31.43C67.0802 31.92 67.3502 32.13 67.8302 32.24C69.1102 32.55 70.1702 33.22 70.8602 34.37C71.6602 35.71 71.8902 37.21 71.9402 38.74C71.9602 39.44 71.4902 39.87 70.7802 39.9C70.2402 39.93 69.6902 39.94 69.1502 39.9C68.5602 39.86 68.4002 40.13 68.4302 40.67C68.4702 41.49 68.8202 42.19 69.2102 42.89C70.6802 45.52 72.1202 48.16 73.0002 51.07C73.3702 52.32 72.8902 52.95 71.6002 52.95C69.9202 52.96 68.2502 52.97 66.5702 52.94C66.0202 52.93 65.8002 53.1 65.8202 53.67C65.8502 54.87 65.8502 56.07 65.8202 57.27C65.8002 57.86 66.0002 58.07 66.6002 58.06C68.5902 58.03 70.5902 58.05 72.5802 58.05C73.5202 58.05 73.5202 58.05 73.5202 57.13C73.5302 51.49 73.5302 45.81 73.5302 40.12ZM52.9202 44.13C52.9202 39.78 52.9202 35.44 52.9202 31.09C52.9202 30.17 52.9202 30.17 52.0402 30.17C47.0202 30.17 41.9902 30.18 36.9702 30.16C36.3002 30.16 36.0702 30.33 36.0702 31.03C36.0902 39.77 36.0902 48.5 36.0702 57.24C36.0702 57.94 36.3002 58.12 36.9702 58.12C41.9702 58.1 46.9702 58.11 51.9702 58.11C52.9202 58.11 52.9202 58.11 52.9202 57.18C52.9202 52.82 52.9202 48.48 52.9202 44.13ZM44.5002 60.46H25.8102C21.4402 60.46 17.0702 60.47 12.7002 60.45C12.1202 60.45 11.8902 60.61 11.9202 61.22C11.9702 62.1 11.9302 62.99 11.9302 63.87C11.9302 64.89 11.9302 64.89 12.9802 64.89C33.9902 64.89 55.0102 64.89 76.0202 64.89C76.1302 64.89 76.2502 64.88 76.3602 64.89C76.8802 64.95 77.0902 64.75 77.0702 64.2C77.0302 63.27 77.0602 62.34 77.0602 61.41C77.0602 60.46 77.0602 60.46 76.0802 60.46C65.5502 60.46 55.0202 60.46 44.5002 60.46ZM24.3902 50.61V50.62C24.6802 50.62 24.9802 50.62 25.2702 50.62C25.5902 50.62 25.9002 50.63 26.2202 50.6C27.1802 50.52 27.6302 50.08 27.7802 49.13C28.0102 47.61 27.7902 46.14 27.1802 44.75C26.2702 42.67 26.3602 40.62 27.2102 38.56C27.5402 37.77 27.8302 36.96 28.1502 36.16C28.3902 35.57 28.2502 35.26 27.6002 35.08C26.4502 34.76 25.3902 34.29 24.8002 33.12C24.6002 32.72 24.1102 32.73 23.8802 33.13C23.2502 34.23 22.2502 34.81 21.0702 35.1C20.4602 35.25 20.3602 35.6 20.5302 36.1C20.7502 36.74 21.0202 37.36 21.2702 38C22.0802 40.04 22.5902 42.13 21.6702 44.26C21.0402 45.73 20.7902 47.24 20.8702 48.82C20.9302 50.01 21.3702 50.51 22.5502 50.6C23.1602 50.65 23.7802 50.61 24.3902 50.61ZM60.7302 36.25C61.9702 35.67 62.5802 35.96 62.8902 37.17C63.0602 37.85 63.2202 38.53 63.3702 39.22C63.7302 40.84 63.5702 42.39 62.6402 43.78C61.3202 45.74 60.3102 47.87 59.2502 49.97C58.9402 50.6 58.9602 50.63 59.6702 50.64C62.9702 50.64 66.2802 50.64 69.5902 50.64C70.4502 50.64 70.4602 50.61 70.1702 49.81C69.4702 47.88 68.4002 46.14 67.3402 44.4C65.9802 42.15 65.7302 39.88 66.9002 37.49C67.1202 37.04 67.2902 36.56 67.7102 36.26C68.1802 35.92 68.6702 36.1 69.2102 36.36C68.8302 35.22 68.1302 34.62 67.0502 34.5C66.0402 34.39 65.1802 34.11 64.9602 32.95C64.9602 32.93 64.8802 32.93 64.8202 32.9C64.4302 33.81 63.7002 34.41 62.7502 34.43C61.5402 34.48 61.1402 35.24 60.7302 36.25ZM43.3602 8.75C43.3602 7.57 43.3502 6.4 43.3702 5.22C43.3802 4.79 43.2302 4.61 42.7802 4.61C41.2902 4.63 39.7902 4.62 38.3002 4.61C37.9002 4.61 37.6902 4.73 37.5802 5.15C36.9702 7.52 36.3402 9.88 35.7102 12.24C35.6002 12.66 35.6502 12.87 36.1602 12.86C38.3602 12.84 40.5502 12.84 42.7502 12.86C43.2202 12.86 43.3902 12.68 43.3802 12.22C43.3502 11.06 43.3602 9.91 43.3602 8.75ZM45.6302 8.74C45.6302 9.87 45.6602 11.01 45.6202 12.14C45.6002 12.72 45.8202 12.88 46.3702 12.87C48.5002 12.85 50.6302 12.85 52.7602 12.87C53.3102 12.88 53.4202 12.71 53.2902 12.19C52.6602 9.88 52.0502 7.56 51.4502 5.23C51.3302 4.77 51.1202 4.6 50.6502 4.61C49.2002 4.63 47.7502 4.63 46.3002 4.61C45.8102 4.6 45.6102 4.76 45.6202 5.27C45.6502 6.43 45.6302 7.58 45.6302 8.74ZM29.3202 12.85C30.4102 12.85 31.4902 12.84 32.5802 12.86C32.9902 12.87 33.2002 12.71 33.3002 12.32C33.9102 9.95 34.5202 7.59 35.1502 5.23C35.2802 4.75 35.1002 4.62 34.6502 4.62C33.2002 4.63 31.7502 4.63 30.3002 4.62C29.9602 4.62 29.7602 4.76 29.6102 5.05C28.3402 7.48 27.0702 9.9 25.7802 12.32C25.5502 12.76 25.6702 12.87 26.1202 12.86C27.1902 12.84 28.2502 12.86 29.3202 12.85ZM59.5902 12.86C60.7002 12.86 61.8102 12.85 62.9202 12.86C63.3502 12.87 63.4402 12.74 63.2302 12.35C61.9502 9.93 60.6702 7.51 59.4002 5.08C59.2302 4.76 59.0202 4.62 58.6502 4.62C57.2202 4.63 55.8002 4.63 54.3702 4.62C53.8902 4.62 53.7202 4.75 53.8502 5.27C54.4802 7.61 55.0902 9.95 55.6902 12.29C55.8002 12.71 56.0102 12.88 56.4502 12.87C57.5002 12.84 58.5502 12.85 59.5902 12.86ZM69.7202 12.86C70.7402 12.86 71.7602 12.86 72.7702 12.86C72.9402 12.86 73.1702 12.95 73.2602 12.74C73.3302 12.58 73.1502 12.46 73.0602 12.34C71.1402 9.91 69.2202 7.48 67.3102 5.04C67.0802 4.74 66.8202 4.62 66.4502 4.62C65.1202 4.63 63.7802 4.64 62.4502 4.62C61.9802 4.61 61.8202 4.7 62.0802 5.18C63.3602 7.57 64.6202 9.97 65.8702 12.38C66.0502 12.73 66.2902 12.87 66.6702 12.87C67.6802 12.84 68.7002 12.85 69.7202 12.86ZM19.2802 12.85C20.3002 12.85 21.3202 12.84 22.3402 12.85C22.7302 12.86 22.9702 12.71 23.1502 12.37C24.4102 9.96 25.6702 7.56 26.9402 5.16C27.1602 4.75 27.1002 4.61 26.6202 4.61C25.2402 4.63 23.8602 4.62 22.4802 4.61C22.1902 4.61 21.9702 4.7 21.7802 4.94C19.8402 7.42 17.8902 9.89 15.9402 12.36C15.8502 12.48 15.6702 12.6 15.7902 12.77C15.8902 12.91 16.0802 12.85 16.2402 12.85C17.2402 12.86 18.2602 12.86 19.2802 12.85ZM49.7802 15.22C48.6002 15.22 47.4302 15.22 46.2502 15.22C45.9502 15.22 45.6702 15.21 45.6302 15.65C45.3502 19.19 47.8702 21.12 51.0802 20.29C52.9002 19.82 53.8702 18.16 53.8402 15.89C53.8302 15.4 53.6902 15.2 53.1802 15.21C52.0502 15.24 50.9102 15.22 49.7802 15.22ZM28.8102 15.22C27.6602 15.22 26.5002 15.22 25.3502 15.22C25.0502 15.22 24.7502 15.19 24.7202 15.64C24.4802 18.95 26.6302 21.05 29.9602 20.35C31.9302 19.94 32.9802 18.21 32.9202 15.84C32.9102 15.36 32.7302 15.21 32.2702 15.22C31.1102 15.23 29.9602 15.22 28.8102 15.22ZM39.3402 15.22C38.1602 15.22 36.9902 15.22 35.8102 15.22C35.5202 15.22 35.2102 15.19 35.1802 15.63C34.9202 18.93 37.1002 21.05 40.4102 20.35C42.3802 19.94 43.4402 18.21 43.3802 15.84C43.3702 15.36 43.2002 15.21 42.7402 15.22C41.6002 15.23 40.4702 15.22 39.3402 15.22ZM70.7002 15.22C69.5202 15.22 68.3502 15.22 67.1702 15.22C66.8702 15.22 66.5902 15.21 66.5502 15.65C66.2702 19.18 68.7702 21.12 71.9902 20.3C73.8002 19.84 74.7702 18.16 74.7502 15.89C74.7402 15.4 74.6002 15.2 74.0902 15.21C72.9702 15.24 71.8402 15.22 70.7002 15.22ZM18.4102 15.22C17.2302 15.22 16.0602 15.22 14.8802 15.22C14.5802 15.22 14.2802 15.2 14.2502 15.64C14.0202 18.97 16.2002 21.05 19.4902 20.35C21.4702 19.93 22.5102 18.22 22.4402 15.84C22.4302 15.36 22.2502 15.21 21.7902 15.22C20.6702 15.23 19.5402 15.22 18.4102 15.22ZM60.2202 15.22C59.0402 15.22 57.8702 15.22 56.6902 15.22C56.3802 15.22 56.1202 15.24 56.0902 15.67C55.8602 19.03 58.1202 21.09 61.3602 20.33C63.7602 19.77 64.4102 17.69 64.2802 15.6C64.2502 15.2 63.9602 15.22 63.6802 15.22C62.5302 15.22 61.3802 15.22 60.2202 15.22Z" fill="#3060A9"/>
</svg>
