<svg width="80" height="80" viewBox="0 0 80 80" fill="none" xmlns="http://www.w3.org/2000/svg">
<path d="M75.9989 24.1127V55.8889C75.3972 57.4558 74.2605 58.0045 72.6006 58.0015C55.0295 57.9657 37.46 57.9717 19.8889 57.994C18.6114 57.9955 17.7014 57.5393 16.9337 56.527C13.2939 51.7232 9.6184 46.9492 5.95629 42.1634C4.68322 40.4995 4.68025 39.5095 5.95332 37.8456C9.58432 33.1 13.2375 28.3708 16.8344 23.5983C17.6911 22.4637 18.69 22 20.1053 22.003C37.5771 22.0328 55.0488 22.0358 72.5206 22C74.1967 21.997 75.3824 22.5039 75.9989 24.1127ZM46.3878 24.3989C37.5889 24.3989 28.7886 24.4034 19.9897 24.387C19.4369 24.387 19.096 24.5555 18.7611 24.9968C15.1138 29.7946 11.4532 34.582 7.76882 39.3515C7.36867 39.8688 7.40868 40.1834 7.78957 40.6769C11.4561 45.4285 15.1049 50.1965 18.7359 54.9749C19.0871 55.4371 19.4443 55.6145 20.0223 55.613C37.5711 55.5981 55.1214 55.6011 72.6702 55.6011C73.3105 55.6011 73.6311 55.2706 73.6321 54.6096C73.6321 44.8843 73.6321 35.159 73.6321 25.4336C73.6321 24.7428 73.2759 24.3974 72.5635 24.3974C63.8388 24.3974 55.1125 24.3974 46.3878 24.3974V24.3989Z" fill="#5E713E"/>
<path d="M47.3332 41.1913C46.6767 41.154 45.9638 41.2419 45.2539 41.0839C43.0101 40.5815 41.5622 38.6582 41.6822 36.3114C41.7919 34.16 43.557 32.3366 45.7815 32.1547C46.2795 32.1145 46.4129 31.9579 46.3862 31.4972C46.3566 30.9799 46.3625 30.458 46.3921 29.9407C46.4307 29.2593 46.8812 28.8091 47.5037 28.7822C48.1172 28.7554 48.636 29.1788 48.7115 29.8453C48.7693 30.3582 48.7649 30.883 48.7382 31.4003C48.7115 31.8938 48.793 32.1145 49.3888 32.1637C51.5926 32.3456 53.3207 34.2033 53.4155 36.383C53.4526 37.2313 53.0717 37.7517 52.3692 37.8143C51.6549 37.8769 51.2073 37.4639 51.0695 36.6126C50.8323 35.1425 50.1032 34.5104 48.6256 34.5029C47.8119 34.4985 46.9998 34.4865 46.1876 34.5089C44.9353 34.5417 44.0327 35.4661 44.0431 36.6767C44.052 37.8471 44.9472 38.7685 46.1565 38.8073C47.0917 38.8356 48.0283 38.8028 48.965 38.8192C51.4014 38.8609 53.3236 40.7425 53.4229 43.1682C53.5207 45.5552 51.7794 47.6172 49.3948 47.8393C48.8108 47.893 48.7026 48.0958 48.7397 48.5997C48.7738 49.0663 48.7679 49.5405 48.7338 50.0086C48.6789 50.7675 48.1736 51.2461 47.5052 51.2192C46.859 51.1924 46.4173 50.7213 46.3877 49.9892C46.361 49.3466 46.567 48.5997 46.3017 48.0913C46.0424 47.5903 45.1947 47.8333 44.6285 47.6127C42.8916 46.9343 41.6585 45.2451 41.6778 43.4679C41.6852 42.7254 42.0839 42.2438 42.7345 42.1902C43.4266 42.132 43.9127 42.554 44.0342 43.3173C44.2862 44.9067 44.9664 45.5 46.5478 45.5045C47.3362 45.506 48.1246 45.5194 48.9131 45.5C50.155 45.4687 51.0769 44.5265 51.065 43.3292C51.0532 42.1618 50.155 41.2509 48.9442 41.2017C48.4285 41.1808 47.9098 41.1987 47.3377 41.1987L47.3332 41.1913Z" fill="#5E713E"/>
<path d="M36.965 43.3054C36.9768 45.6462 35.2577 47.6306 32.9383 47.8319C32.3069 47.887 32.2136 48.1196 32.2506 48.64C32.2818 49.0828 32.2699 49.53 32.2506 49.9743C32.2195 50.7079 31.7853 51.1805 31.1406 51.2133C30.4737 51.2461 29.9564 50.7675 29.9046 50.0131C29.869 49.4957 29.8675 48.9739 29.8986 48.4566C29.9253 48.0153 29.7816 47.8885 29.3281 47.8468C27.0531 47.638 25.3265 45.834 25.2198 43.62C25.1798 42.7746 25.5622 42.2483 26.2617 42.1842C26.9746 42.1201 27.4221 42.5301 27.5689 43.38C27.8282 44.8992 28.5337 45.4956 30.0794 45.4986C30.8679 45.5001 31.6563 45.5135 32.4448 45.4941C33.6897 45.4613 34.6071 44.528 34.5997 43.3293C34.5922 42.1604 33.6986 41.239 32.4863 41.1987C31.5511 41.1674 30.6145 41.2032 29.6778 41.1838C27.2324 41.1346 25.3236 39.2695 25.2139 36.8363C25.1057 34.4284 26.8842 32.3635 29.3132 32.1562C29.829 32.1115 29.9223 31.9251 29.8972 31.4838C29.8705 31.0157 29.8749 30.543 29.8972 30.0749C29.9357 29.2713 30.4351 28.7569 31.1228 28.7808C31.7912 28.8031 32.2284 29.2951 32.2521 30.0779C32.2714 30.6951 32.0817 31.4063 32.3292 31.9058C32.5767 32.4067 33.3859 32.1577 33.9283 32.3605C35.7038 33.021 36.9724 34.7191 36.9605 36.5232C36.9561 37.2686 36.5648 37.7517 35.9142 37.8128C35.2221 37.8784 34.7212 37.452 34.6056 36.6991C34.3625 35.1098 33.6778 34.5074 32.1009 34.503C31.3125 34.5 30.5241 34.488 29.7356 34.5074C28.4818 34.5387 27.5689 35.4616 27.5763 36.6648C27.5837 37.865 28.5011 38.7804 29.7564 38.8088C30.6915 38.8296 31.6297 38.7983 32.5648 38.8192C35.0072 38.8773 36.9487 40.8662 36.9605 43.3069L36.965 43.3054Z" fill="#5E713E"/>
<path d="M58.1197 43.5171C58.1108 42.7552 58.5391 42.2304 59.2105 42.1827C59.8996 42.1335 60.3724 42.5629 60.4776 43.3322C60.6836 44.8291 61.441 45.4941 62.9512 45.5C63.7648 45.503 64.577 45.5164 65.3906 45.4956C66.5925 45.4628 67.5144 44.5458 67.5425 43.3844C67.5707 42.214 66.6266 41.2345 65.3921 41.1972C64.4317 41.1689 63.4699 41.2091 62.5095 41.1808C60.1027 41.1093 58.1671 39.1442 58.1168 36.7468C58.0664 34.3792 59.873 32.3411 62.2516 32.1547C62.7615 32.1145 62.8637 31.9415 62.8385 31.4942C62.8089 30.9769 62.8118 30.4551 62.8415 29.9362C62.8785 29.2742 63.3543 28.8061 63.9664 28.7808C64.6022 28.7554 65.1386 29.231 65.1861 29.9198C65.2231 30.461 65.2261 31.0097 65.189 31.5509C65.1594 32.0012 65.3106 32.1145 65.7596 32.1517C68.0064 32.3351 69.7448 34.1302 69.8975 36.3651C69.9419 37.0211 69.7419 37.5579 69.0675 37.7636C68.5192 37.9306 68.0494 37.7651 67.7189 37.2656C67.5899 37.0718 67.5722 36.8541 67.5425 36.632C67.3543 35.1977 66.5673 34.5104 65.109 34.5014C64.2954 34.497 63.4832 34.4865 62.6696 34.5044C61.4173 34.5328 60.4836 35.4586 60.4821 36.6469C60.4806 37.8322 61.4172 38.7745 62.6622 38.8058C63.5973 38.8281 64.5355 38.7968 65.4706 38.8162C67.8789 38.8684 69.8145 40.7947 69.9049 43.2115C69.9923 45.5522 68.1768 47.641 65.8056 47.8393C65.2602 47.8855 65.1535 48.0674 65.1876 48.5475C65.2231 49.0395 65.2142 49.5375 65.1876 50.031C65.1475 50.7332 64.6496 51.2148 64.0108 51.2148C63.3676 51.2148 62.8741 50.7332 62.8385 50.0325C62.8133 49.539 62.8044 49.041 62.8385 48.549C62.8726 48.0704 62.7674 47.884 62.2205 47.8408C59.9693 47.6589 58.1449 45.6968 58.1182 43.5156L58.1197 43.5171Z" fill="#5E713E"/>
<path d="M12.8269 40.0209C12.8195 37.5638 14.7817 35.569 17.2167 35.5585C19.6428 35.5481 21.6436 37.5445 21.6569 39.9851C21.6702 42.4198 19.6754 44.4385 17.2508 44.446C14.8158 44.4549 12.8343 42.4705 12.8269 40.0194V40.0209ZM15.1967 39.9777C15.1863 41.1272 16.0963 42.065 17.2256 42.0694C18.352 42.0739 19.2856 41.1316 19.2797 39.9926C19.2753 38.8833 18.3801 37.9664 17.2775 37.9381C16.1541 37.9097 15.2056 38.8371 15.1952 39.9762L15.1967 39.9777Z" fill="#5E713E"/>
</svg>
