<svg width="89" height="70" viewBox="0 0 89 70" fill="none" xmlns="http://www.w3.org/2000/svg">
<path d="M29.9501 67.2502C28.3701 66.8602 26.8901 66.2702 25.6801 65.1502C23.3501 62.9902 22.4101 60.3502 22.9001 57.2002C22.9201 57.1002 22.9201 56.9902 22.9501 56.8902C23.1201 56.3802 23.0201 56.2202 22.4301 56.3402C20.0001 56.8302 17.7201 56.4002 15.6701 54.9702C12.6101 52.8502 11.2701 48.9102 12.4001 45.3202C13.5201 41.7502 16.8301 39.3202 20.5601 39.3002C23.2701 39.2902 25.4701 40.3602 27.2501 42.3702C27.6801 42.8502 27.6801 43.4402 27.2701 43.8402C26.8101 44.2802 26.2401 44.2802 25.7601 43.7502C24.7301 42.6002 23.5001 41.8002 21.9701 41.4802C18.1601 40.6902 14.5101 43.3702 14.1101 47.2102C13.6901 51.1502 16.6301 54.4302 20.6801 54.5002C22.3401 54.5302 23.8401 53.9502 25.0601 52.7802C26.1901 51.7002 27.3001 50.6002 28.3801 49.4602C30.4301 47.2902 30.6301 43.9502 28.8801 41.5202C28.2301 40.6102 28.2401 40.2702 29.0701 39.5302C32.5901 36.3902 36.1101 33.2602 39.6501 30.1502C40.0801 29.7802 40.1801 29.5702 39.7101 29.1502C38.8701 28.3802 38.8901 28.3502 38.1001 29.1502C36.4101 30.8402 34.7201 32.5302 33.0301 34.2102C32.8501 34.3902 32.6601 34.5702 32.4401 34.6902C32.0001 34.9302 31.5701 34.8602 31.2301 34.4802C30.9001 34.1102 30.8601 33.6802 31.1501 33.2602C31.2801 33.0702 31.4501 32.9102 31.6201 32.7402C33.4001 30.9602 35.1701 29.1702 36.9701 27.4102C37.3701 27.0202 37.4001 26.8002 36.9801 26.4102C36.1601 25.6502 36.1801 25.6302 35.4101 26.4102C33.7201 28.1002 32.0301 29.7902 30.3401 31.4802C30.1801 31.6402 30.0101 31.8202 29.8201 31.9402C29.4001 32.2202 28.9701 32.1802 28.6001 31.8402C28.2301 31.5002 28.1701 31.0602 28.4101 30.6302C28.5301 30.4102 28.7201 30.2302 28.8901 30.0502C30.7001 28.2402 32.5001 26.4202 34.3201 24.6302C34.6601 24.3002 34.6801 24.1102 34.3201 23.7802C33.3201 22.8502 33.6101 22.8302 32.6501 23.7802C30.9801 25.4302 29.3301 27.1002 27.6701 28.7502C27.4901 28.9302 27.3101 29.1102 27.1001 29.2502C26.6701 29.5202 26.2401 29.4802 25.8801 29.1302C25.5001 28.7602 25.4401 28.3202 25.7301 27.8602C25.8601 27.6502 26.0501 27.4702 26.2301 27.2902C27.9901 25.5202 29.7501 23.7502 31.5301 22.0002C31.9101 21.6302 31.9901 21.3902 31.5501 20.9902C30.7501 20.2502 30.7801 20.2202 29.9801 21.0102C28.2901 22.7002 26.6001 24.3902 24.9101 26.0802C24.7301 26.2602 24.5401 26.4402 24.3301 26.5602C23.8901 26.8002 23.4601 26.7402 23.1201 26.3702C22.7801 26.0002 22.7401 25.5702 23.0201 25.1502C23.1501 24.9602 23.3201 24.8002 23.4901 24.6302C25.2801 22.8302 27.0701 21.0302 28.8801 19.2502C29.2201 18.9102 29.2901 18.7102 28.9001 18.3402C28.0401 17.5202 28.0601 17.5002 27.2401 18.3202C25.5701 19.9902 23.8901 21.6702 22.2201 23.3402C22.0601 23.5002 21.8901 23.6802 21.7001 23.8002C21.2801 24.0902 20.8501 24.0502 20.4801 23.7102C20.1001 23.3702 20.0501 22.9402 20.2801 22.5002C20.4001 22.2802 20.5801 22.1002 20.7601 21.9202C22.5501 20.1202 24.3401 18.3202 26.1501 16.5502C26.5101 16.1902 26.5801 15.9802 26.1701 15.6102C25.2201 14.7402 25.4901 14.7002 24.5401 15.6402C22.9101 17.2602 21.2801 18.9002 19.6501 20.5302C19.5101 20.6602 19.3801 20.8002 19.2401 20.9302C18.7201 21.3802 18.1101 21.3902 17.7101 20.9702C17.3101 20.5502 17.3201 19.9902 17.8001 19.4902C18.5601 18.6902 19.3501 17.9302 20.1201 17.1502C21.2101 16.0602 22.2901 14.9502 23.4001 13.8802C23.7801 13.5102 23.8701 13.2702 23.4301 12.8702C22.6301 12.1302 22.6501 12.1002 21.8601 12.8902C20.1901 14.5602 18.5101 16.2402 16.8401 17.9102C16.6601 18.0902 16.4801 18.2802 16.2701 18.4102C15.8201 18.6802 15.3701 18.6402 15.0001 18.2502C14.6401 17.8602 14.6201 17.4102 14.9401 16.9802C15.0601 16.8102 15.2201 16.6602 15.3701 16.5102C17.1501 14.7302 18.9201 12.9402 20.7101 11.1802C21.0901 10.8102 21.1801 10.5902 20.7401 10.1802C19.9101 9.41024 19.9401 9.39024 19.1201 10.2002C17.4501 11.8702 15.7701 13.5502 14.1001 15.2202C13.9401 15.3802 13.7701 15.5602 13.5801 15.6902C13.1301 15.9902 12.6901 15.9302 12.3101 15.5602C11.9501 15.2002 11.9301 14.7702 12.1701 14.3402C12.2801 14.1402 12.4601 13.9802 12.6301 13.8202C15.4101 11.0402 18.1901 8.26024 20.9701 5.48024C23.2201 3.24024 26.0501 3.24024 28.3001 5.50024C34.2801 11.4802 40.2601 17.4502 46.2301 23.4502C46.6401 23.8602 46.8801 23.9102 47.3501 23.5102C55.2201 16.7502 63.2201 10.1402 71.3301 3.66024C71.6101 3.44024 71.8801 3.20024 72.1701 2.98024C73.8901 1.66024 76.0301 2.21024 76.8901 4.18024C76.9301 4.28024 76.9701 4.37024 77.0101 4.47024V5.99024C76.8001 6.50024 76.5101 6.96024 76.1601 7.40024C69.5101 15.6702 62.7501 23.8502 55.8401 31.9002C55.4101 32.4002 55.4201 32.6502 55.8801 33.1102C61.8701 39.0702 67.8501 45.0602 73.8301 51.0302C74.3601 51.5602 74.8401 52.1102 75.1101 52.8202C75.9101 54.8802 75.4801 56.6802 73.9501 58.2302C70.9601 61.2502 67.9501 64.2502 64.9501 67.2602H63.9401C63.2301 66.4402 63.2401 66.0802 63.9901 65.3202C65.6801 63.6302 67.3701 61.9402 69.0601 60.2502C69.9201 59.3902 69.9001 59.4102 69.0701 58.5402C68.7001 58.1502 68.4901 58.2502 68.1601 58.5802C66.3801 60.3902 64.5801 62.1702 62.7801 63.9702C62.6201 64.1302 62.4501 64.3102 62.2601 64.4302C61.8401 64.7102 61.4101 64.6602 61.0401 64.3202C60.6701 63.9702 60.6101 63.5502 60.8601 63.1102C60.9801 62.8902 61.1701 62.7102 61.3501 62.5302C63.0401 60.8402 64.7301 59.1502 66.4201 57.4602C67.2001 56.6802 67.1801 56.7002 66.4301 55.9002C66.0701 55.5202 65.8401 55.5202 65.4701 55.8902C63.7101 57.6902 61.9201 59.4602 60.1401 61.2302C59.9601 61.4102 59.7801 61.5902 59.5701 61.7302C59.1401 62.0002 58.7101 61.9502 58.3501 61.6102C57.9801 61.2602 57.9401 60.8202 58.1801 60.3902C58.3101 60.1602 58.5101 59.9602 58.7101 59.7602C60.3701 58.1002 62.0301 56.4402 63.6801 54.7802C64.6101 53.8402 64.5801 54.1102 63.7001 53.1502C63.3701 52.7902 63.1601 52.7702 62.8001 53.1402C61.0301 54.9502 59.2201 56.7402 57.4301 58.5302C57.2401 58.7202 57.0301 58.9202 56.8001 59.0502C56.3601 59.2902 55.9301 59.2202 55.5901 58.8402C55.2601 58.4602 55.2201 58.0402 55.5101 57.6202C55.6401 57.4302 55.8101 57.2702 55.9801 57.1002C57.6401 55.4402 59.3001 53.7802 60.9601 52.1202C61.8201 51.2602 61.8101 51.2702 60.9701 50.4102C60.6401 50.0702 60.4501 50.0602 60.1101 50.4002C58.3301 52.2102 56.5301 54.0002 54.7401 55.7902C54.5801 55.9502 54.4101 56.1202 54.2301 56.2602C53.7901 56.5802 53.3501 56.5502 52.9601 56.1902C52.5701 55.8202 52.5401 55.3702 52.8101 54.9202C52.9301 54.7202 53.1001 54.5602 53.2701 54.4002C54.9601 52.7102 56.6501 51.0202 58.3401 49.3302C59.1201 48.5502 59.1001 48.5702 58.3401 47.7702C57.9801 47.3902 57.7501 47.3902 57.3801 47.7702C55.6201 49.5702 53.8301 51.3402 52.0501 53.1102C51.8601 53.3002 51.6501 53.5002 51.4201 53.6402C51.0101 53.8802 50.5901 53.8102 50.2501 53.4902C49.8901 53.1402 49.8201 52.7102 50.0701 52.2802C50.2101 52.0502 50.4101 51.8502 50.6001 51.6502C52.2601 49.9902 53.9201 48.3302 55.5701 46.6702C56.5001 45.7302 56.4701 46.0002 55.5901 45.0402C55.2101 44.6202 55.0001 44.7102 54.6501 45.0702C52.8901 46.8702 51.1001 48.6402 49.3201 50.4102C49.1301 50.6002 48.9301 50.8002 48.6901 50.9302C48.2501 51.1702 47.8201 51.1002 47.4801 50.7302C47.1501 50.3602 47.1101 49.9302 47.4001 49.5102C47.5301 49.3202 47.7001 49.1602 47.8701 48.9902C49.5301 47.3302 51.1901 45.6702 52.8501 44.0102C53.7101 43.1502 53.6901 43.1702 52.8701 42.3002C52.5001 41.9102 52.2901 42.0002 51.9601 42.3302C50.1801 44.1402 48.3801 45.9202 46.5801 47.7202C46.4201 47.8802 46.2501 48.0602 46.0601 48.1802C45.6401 48.4602 45.2101 48.4202 44.8401 48.0802C44.4701 47.7402 44.4101 47.3102 44.6501 46.8702C44.7701 46.6502 44.9601 46.4702 45.1301 46.2902C46.7701 44.6402 48.4201 43.0002 50.0601 41.3602C50.9901 40.4302 50.9701 40.4502 50.0701 39.5302C49.7101 39.1602 49.5101 39.2402 49.2301 39.5802C48.6301 40.2902 48.0101 40.9802 47.3901 41.6802C44.2801 45.1902 41.1701 48.7102 38.0501 52.2102C37.7301 52.5702 37.6801 52.7902 38.0301 53.1902C40.6301 56.2902 40.7201 60.6902 38.2701 63.9202C36.8701 65.7602 34.9901 66.8002 32.7601 67.2602H29.9501V67.2502ZM72.0001 5.99024C71.9501 5.93024 71.8901 5.88024 71.8401 5.82024C69.8101 7.47024 67.7601 9.11024 65.7401 10.7702C58.2601 16.9102 50.8401 23.1302 43.5301 29.4702C39.4301 33.0302 35.3301 36.6002 31.3001 40.2402C30.9201 40.5802 30.8601 40.8402 31.1101 41.3102C32.7401 44.3602 32.3201 48.0702 30.0301 50.6502C28.9801 51.8302 27.8101 52.9102 26.7201 54.0602C25.2101 55.6402 24.5801 57.5002 24.8901 59.6902C25.3301 62.8102 27.9701 65.2002 31.3101 65.2702C34.6601 65.3402 37.1301 63.0702 37.7601 60.2902C38.3401 57.7702 37.6901 55.5702 35.7701 53.7702C34.9801 53.0302 34.9701 52.6102 35.6901 51.7902C36.0201 51.4102 36.3301 51.0002 36.7001 50.6602C37.1201 50.2702 37.1301 50.0302 36.6401 49.6502C35.5401 48.8002 34.9101 47.6402 34.7501 46.2502C34.6801 45.6302 35.0101 45.1802 35.5501 45.0602C36.0601 44.9502 36.5501 45.2902 36.7301 45.8802C36.7701 46.0002 36.8001 46.1202 36.8201 46.2502C36.9401 47.0002 37.3401 47.5802 37.9001 48.0602C38.4901 48.5602 38.5701 48.5602 39.0701 47.9902C42.0701 44.5802 45.0901 41.1802 48.0801 37.7602C56.3401 28.3002 64.4101 18.6902 72.3001 8.92024C72.6601 8.48024 73.0101 8.03024 73.3601 7.58024C73.3001 7.53024 73.2501 7.48024 73.1901 7.43024C72.9601 7.71024 72.7601 8.00024 72.5001 8.26024C61.0301 19.7402 49.5501 31.2202 38.0701 42.7002C37.8501 42.9202 37.6201 43.1502 37.3601 43.3302C36.9201 43.6402 36.4701 43.6002 36.0901 43.2202C35.7101 42.8502 35.6601 42.4002 35.9701 41.9502C36.1501 41.6902 36.3801 41.4702 36.6001 41.2402C48.1101 29.7402 59.6201 18.2302 71.1301 6.72024C71.4001 6.46024 71.7101 6.23024 72.0001 5.99024ZM73.4301 54.6402C73.4701 53.8002 73.0401 53.1102 72.4101 52.4802C67.9401 48.0202 63.4701 43.5502 59.0001 39.0802C57.4601 37.5402 55.9101 36.0102 54.3901 34.4602C54.0701 34.1402 53.9001 34.1302 53.6101 34.4902C52.9401 35.3102 52.2301 36.0902 51.5401 36.8902C50.9501 37.5702 50.9501 37.5702 51.5701 38.1902C57.8501 44.4702 64.1201 50.7402 70.4001 57.0202C71.3401 57.9602 71.3301 57.9502 72.2701 57.0302C72.9501 56.3802 73.4401 55.6802 73.4301 54.6402ZM24.6601 5.88024C23.8601 5.88024 23.2301 6.13024 22.7001 6.63024C22.3901 6.92024 22.1201 7.25024 21.8001 7.51024C21.4001 7.84024 21.4501 8.06024 21.8001 8.41024C24.6501 11.2402 27.4801 14.0802 30.3201 16.9202C33.9601 20.5602 37.6101 24.2002 41.2401 27.8602C41.5901 28.2202 41.8201 28.2802 42.2101 27.9102C43.0101 27.1602 43.8501 26.4502 44.7001 25.7602C45.1001 25.4302 45.1501 25.2002 44.7501 24.8202C43.5001 23.6202 42.2901 22.3802 41.0701 21.1502C36.3201 16.4002 31.5701 11.6602 26.8301 6.90024C26.2001 6.27024 25.5001 5.86024 24.6601 5.88024Z" fill="#3060A9"/>
</svg>
