<svg width="76" height="150" viewBox="0 0 76 150" fill="none" xmlns="http://www.w3.org/2000/svg">
<g clip-path="url(#clip0_2209_489)">
<path d="M74.0103 106.495C73.8512 106.619 73.6833 106.742 73.5242 106.849C72.5256 107.511 71.4829 108.077 70.3871 108.554C68.2043 109.508 65.8537 110.074 63.4765 110.224C58.7663 110.507 53.9855 109.102 50.1414 106.38C49.3814 105.85 48.321 104.348 48.321 104.348C48.4535 103.932 48.9042 103.464 49.1428 103.093C49.4256 102.651 49.7084 102.218 49.9912 101.776C50.5391 100.919 51.0516 100.044 51.5995 99.1956C52.7837 97.3664 53.7557 95.2455 54.065 93.0716C54.4097 90.6414 54.1004 88.114 53.2785 85.8075C52.8367 84.5615 52.2358 83.3685 51.4758 82.2727C48.5949 78.0928 43.0011 76.0161 38.0612 76.5905C38.0612 76.3872 37.2305 66.6134 37.1421 65.5795C37.0626 64.6516 47.128 61.0903 48.2679 60.5424C56.1329 56.7867 64.8639 49.8761 65.8448 40.5884C66.2248 36.868 64.0597 33.5541 60.3835 32.6439C58.2096 32.1136 55.8943 32.4406 53.7999 33.2006C50.0884 34.5438 46.5182 36.9033 43.8141 39.7577C41.7374 41.9493 40.023 44.4501 38.6002 47.1189C37.257 42.7534 34.3231 38.927 30.912 35.8605C25.4507 30.9383 18.4164 28.3402 12.7695 23.6654C9.38494 20.8641 5.4878 16.9139 5.4878 12.1949C5.4878 8.45686 9.39378 2.09419 18.7169 2.09419C28.0399 2.09419 35.0654 18.0009 35.0654 18.0009L35.2156 0.158877C35.2156 0.158877 34.818 7.63502 27.7837 3.28719C18.5136 -2.45689 10.7724 1.03374 10.8519 1.20165C10.8519 1.20165 0 5.3639 0 18.593C0 24.0808 3.76458 28.6142 7.79427 31.9192C11.3644 34.8354 15.4472 37.1419 19.6536 38.9977C25.76 41.6842 31.9901 46.9599 32.5733 54.056C32.6087 54.3918 32.6175 54.7276 32.6175 55.0723C32.6175 57.1578 32.2552 59.3671 31.1859 61.1963C30.1608 62.9461 27.8455 63.7502 26.087 64.5367C23.1796 65.8358 20.4754 66.4102 17.3471 65.659C9.87982 63.874 2.63344 60.5689 0.733475 48.1794V67.506C0.733475 66.419 3.19901 65.4381 3.95016 65.2349C6.30081 64.5809 8.64263 65.5353 10.737 66.5428C11.7533 67.0288 12.7519 67.559 13.7946 67.9832C14.4044 68.2218 15.023 68.4427 15.6504 68.6283C15.9332 68.7078 17.2676 69.2469 17.5062 69.0878C16.1541 70.0157 14.8639 71.0231 13.609 72.1189C11.2407 74.2045 9.08448 76.5463 7.28172 79.1267C3.90597 83.9429 1.41393 90.0935 1.93531 96.0496C2.08554 97.6757 2.44786 99.2752 3.07529 100.839C5.19618 106.071 9.8533 109.615 15.0053 111.621C15.2704 113.618 15.7388 115.597 16.375 117.488C16.7285 118.513 17.1881 119.733 18.0983 120.405C18.4783 120.687 20.7936 120.917 20.6875 120.758C19.0262 118.231 17.895 115.385 17.3471 112.425C17.7359 112.54 18.1336 112.654 18.5224 112.752C25.6981 114.572 33.7398 113.874 40.3765 110.684C40.4737 110.64 40.7388 110.481 41.1188 110.251V143.946C41.1188 148.064 36.0286 150.044 36.0286 150.044H74.6554C74.6554 146.545 74.6553 143.045 74.6642 139.546C74.1516 142.409 72.7289 145.387 70.0513 146.527C68.5578 147.172 66.8788 147.163 65.2616 147.137C62.0714 147.092 58.8901 147.048 55.6999 146.995C54.1092 146.978 52.5274 146.942 50.9367 146.942C50.0795 146.942 49.1958 146.871 48.4093 146.536C45.6787 145.36 46.5359 141.781 46.5536 139.457C46.5712 136.78 46.5801 134.084 46.5801 131.398V106.539C46.6508 106.486 46.7126 106.442 46.7656 106.398C46.7126 106.354 46.6684 106.309 46.6242 106.265C46.6861 106.327 46.7656 106.345 46.854 106.336C46.8275 106.354 46.801 106.371 46.7656 106.398C53.5613 112.822 64.5281 114.36 72.8261 110.012C73.8335 109.491 74.8233 108.872 75.5125 107.971C75.5214 107.962 75.5214 107.953 75.5302 107.935C76.2549 106.972 74.947 105.797 73.9926 106.539M38.07 60.0564C38.4588 52.6774 41.0746 44.2822 46.8894 39.3777C50.2121 36.5763 57.1492 33.0062 61.2319 36.3466C63.5825 38.2731 63.5207 41.9404 62.257 44.459C61.0728 46.8273 58.9166 48.6566 56.7427 50.097C53.6585 52.1384 50.4772 54.0383 47.2694 55.8499C45.6522 56.7601 44.035 57.6438 42.409 58.5187C40.9685 59.2964 38.0346 60.8694 38.0346 60.8694C38.0346 60.8694 38.0435 60.5424 38.07 60.0475M15.8448 100.238C15.5002 101.449 15.2351 102.695 15.0495 103.95C15.0053 104.197 14.9788 104.436 14.9434 104.692C14.7844 105.965 14.7579 107.237 14.7225 108.528C9.88865 106 6.91941 100.839 6.96359 95.4222C7.01661 90.2172 9.42029 85.0652 12.6281 81.062C17.7801 74.6463 25.9632 68.1157 34.2082 66.8874C34.217 66.8874 34.6501 70.6962 34.6501 70.6962C34.871 71.9952 35.4631 77.5891 35.4631 77.5891C35.4631 77.5891 35.0477 77.8718 34.8091 77.9779C25.6009 81.9722 18.5136 90.6149 15.836 100.247M41.1188 107.016C38.5295 108.899 34.8445 110.737 29.8339 111.4C25.9809 111.912 22.0308 111.532 18.3722 110.207C17.9127 110.039 17.4532 109.853 17.0025 109.659C16.2513 97.0924 27.006 83.722 36.2054 79.6923C37.0802 83.9164 38.2821 88.6265 39.8816 92.6827H37.4956C39.8993 92.8241 40.9244 96.8538 41.1099 98.7538C41.2337 100.017 41.1276 101.343 41.1276 102.616V104.675C41.1276 104.984 41.3309 106.875 41.1276 107.025M46.7391 101.82C46.2884 101.502 46.1824 99.8672 46.1824 99.3812C46.1736 98.0645 46.801 95.9082 47.5345 94.7859C48.0382 93.9995 49.3019 92.6827 50.3712 92.6827H42.3206C41.1453 89.9256 40.3323 87.027 39.696 84.102C39.59 83.6071 38.5649 78.8086 39.0597 78.8174C40.9067 78.8528 42.7625 79.0383 44.5299 79.6039C48.1796 80.7881 50.8218 84.0666 51.5023 87.8135C52.3418 92.3646 50.0619 97.8259 47.4284 101.467C47.1368 101.856 46.9159 101.935 46.7391 101.82Z" fill="#5E713E"/>
</g>
<defs>
<clipPath id="clip0_2209_489">
<rect width="75.7511" height="150" fill="white"/>
</clipPath>
</defs>
</svg>
