<svg width="70" height="82" viewBox="0 0 70 82" fill="none" xmlns="http://www.w3.org/2000/svg">
<g clip-path="url(#clip0_2349_12323)">
<path d="M8.64549 57.0235C9.95016 57.422 11.7123 56.3438 12.2563 55.0035C13.0494 53.0545 12.5514 50.3767 9.82836 48.949C10.6187 48.0755 11.4578 47.243 12.1887 46.3176C13.8046 44.2758 14.9767 42.0129 15.0957 39.316C15.2284 36.3188 14.1186 33.9221 11.5526 32.4371C9.49813 31.2497 6.89421 31.3725 4.89931 32.9612C3.13991 34.3616 2.68517 36.7964 3.67855 38.4206C4.10622 39.1194 4.7342 39.4934 5.50292 39.5835C6.23917 39.6708 6.87526 39.2641 7.15135 38.5926C7.47616 37.8064 7.55195 37.0367 6.93481 36.3379C6.82112 36.2096 6.72639 36.0649 6.62624 35.9311C7.70624 34.2769 9.43858 34.4762 10.6593 35.4917C11.983 36.5917 12.2266 38.2213 11.4876 40.1349C10.7866 41.9501 9.49542 43.3286 8.19887 44.6935C6.44488 46.5415 4.60156 48.3076 2.90441 50.2074C0.831021 52.5277 -0.281469 55.2628 0.062292 58.4811C0.2653 60.3865 1.03132 61.9588 2.49569 63.2417C5.53811 65.9059 9.53873 65.6439 12.4187 64.0361C12.0425 64.7813 11.0599 65.5974 10.0476 65.8786C9.45482 66.0424 9.24099 66.3645 9.17061 66.9678C8.91617 69.1815 8.61031 71.3899 8.34234 73.6009C8.31256 73.8575 8.39376 74.1305 8.42625 74.3953C8.66715 74.3024 8.93783 74.2506 9.14896 74.1059C11.0085 72.8257 12.8654 71.5427 14.6979 70.2243C14.9252 70.0605 15.0876 69.6838 15.1309 69.3835C15.2852 68.2889 15.3718 67.1834 15.4855 66.0833C15.5613 66.0833 15.6344 66.0833 15.7102 66.0806C15.7941 66.6402 15.878 67.1998 15.9646 67.7594C16.2813 69.7984 17.1042 71.54 18.8555 72.6783C20.0898 73.4808 21.4134 73.8957 22.8344 73.1724C23.2973 72.9376 23.7195 72.6237 24.1607 72.348C24.1472 72.2825 24.1337 72.217 24.1201 72.1514C23.9794 72.0996 23.8359 71.9959 23.6979 72.004C21.7409 72.1187 20.8504 70.7156 20.4119 69.1433C19.9382 67.4455 20.106 65.7066 20.1899 63.9842C20.355 60.6048 20.9505 57.2883 21.7463 54.0154C22.3824 51.3976 23.2783 48.8781 24.583 46.5114C25.2597 45.2858 26.3208 44.8763 27.5226 44.9255C28.7704 44.9773 30.0182 45.2421 31.2498 45.4905C32.6059 45.7662 33.7157 46.5469 34.7334 47.475C35.0718 47.7835 35.3479 47.6907 35.6781 47.3959C37.9545 45.365 40.6532 44.759 43.5873 45.0128C44.4589 45.0893 45.1654 45.5615 45.501 46.3613C46.4673 48.6679 47.4715 50.969 48.2457 53.3439C49.5612 57.3783 50.1323 61.5712 50.1133 65.8213C50.1079 67.1971 49.8048 68.6028 49.4475 69.9404C49.0766 71.3325 47.8938 72.0068 46.3645 71.9904C46.1533 71.9904 45.9422 72.0832 45.7338 72.1323C45.8962 72.3098 46.0288 72.5281 46.2237 72.6537C47.4147 73.4344 48.6625 73.7975 50.0944 73.3471C51.7076 72.8421 52.6009 71.6164 53.3236 70.197C54.0734 68.7175 54.2601 67.0933 54.3359 65.45C54.4063 65.4446 54.474 65.4364 54.5443 65.4309C54.7013 66.5447 54.9666 67.6556 54.9801 68.7694C54.9883 69.5255 55.2373 69.9895 55.784 70.3799C57.5732 71.6546 59.3597 72.9349 61.1543 74.1987C61.3194 74.3134 61.536 74.3543 61.877 74.4881C61.8093 73.7319 61.766 73.0905 61.6902 72.4544C61.4656 70.5655 61.2166 68.6793 61.0054 66.7903C60.954 66.329 60.7699 66.127 60.326 66.0206C59.1459 65.7449 58.3014 64.9478 57.4135 63.875C58.2229 64.1998 58.8454 64.4892 59.495 64.7021C61.4845 65.36 63.493 65.5429 65.4878 64.7512C68.2271 63.6621 69.5264 61.4319 69.908 58.5849C70.3763 55.0827 69.0852 52.1537 66.8142 49.6451C65.6475 48.354 64.3212 47.213 63.1248 45.9491C61.3005 44.0247 59.3841 42.1794 58.4989 39.5152C57.7356 37.225 59.1432 34.842 61.4575 34.7383C61.8878 34.7192 62.3507 34.8174 62.754 34.9785C63.4984 35.2733 63.5687 35.6227 63.1113 36.2778C62.4833 37.1759 62.6403 38.6663 63.4848 39.1686C64.5269 39.7909 65.6773 39.6735 66.4352 38.4807C67.4232 36.9247 66.7979 34.2933 65.5095 33.1878C63.4442 31.4108 61.1678 31.2279 58.7967 32.2515C56.458 33.2615 55.175 35.1204 55.0072 37.7791C54.8231 40.719 55.849 43.2385 57.5218 45.5069C58.3988 46.6971 59.449 47.7562 60.4451 48.9026C59.0051 49.5004 58.0469 50.6633 57.7167 52.3066C57.5137 53.3193 57.7059 54.2911 58.1823 55.2273C58.9104 56.6632 60.797 57.3265 61.7552 56.8269C61.6794 56.5976 61.6063 56.3574 61.5224 56.12C61.176 55.1291 61.3735 54.1464 62.0394 53.5349C62.8975 52.7488 63.9802 52.5877 64.9275 52.9999C66.3784 53.6332 66.668 54.9735 66.7952 56.3192C66.9793 58.2819 66.3405 59.9361 64.6271 61.017C63.9017 61.4756 63.1221 61.6066 62.256 61.5466C60.9161 61.4565 59.7387 60.9106 58.6992 60.1708C57.538 59.3464 56.5447 58.2846 55.7489 57.0399C54.547 55.1564 53.8081 53.0763 53.0935 50.9717C52.3167 48.6815 51.4424 46.4268 50.6466 44.1448C49.7452 41.5543 48.8763 38.9502 48.0048 36.3488C46.4781 31.8011 44.9596 27.2534 43.4384 22.703C42.9079 21.1144 42.3638 19.5284 41.8523 17.9315C41.6844 17.4129 41.4056 17.4184 41.0267 17.6285C39.925 18.24 39.5921 19.3155 39.3052 20.4729C38.6826 22.9978 39.5001 25.3072 40.1741 27.6602C41.4489 32.1123 42.6832 36.5781 43.9338 41.0357C43.9798 41.2022 44.0069 41.3741 44.0637 41.6417H26.0799C26.3343 40.6617 26.5752 39.6763 26.8432 38.7018C27.3602 36.8292 27.8853 34.9594 28.4158 33.0923C29.1683 30.4472 29.8666 27.7857 30.7084 25.1707C31.2742 23.4073 31.1036 21.7258 30.5812 20.0334C30.389 19.4165 30.094 18.8351 29.8152 18.2509C29.7367 18.0899 29.5689 17.9534 29.4119 17.8551C28.34 17.1918 28.2832 17.23 27.9123 18.4256C25.9662 24.7203 24.066 31.0286 22.0359 37.296C20.5986 41.7372 19.0558 46.1484 17.4073 50.5104C16.5709 52.7242 15.5153 54.8779 14.3406 56.9252C13.4121 58.5412 12.0885 59.9142 10.3968 60.7604C8.7267 61.5957 6.94834 61.8496 5.26744 60.8942C4.07104 60.2145 3.416 59.0216 3.30502 57.5885C3.1778 55.9371 3.77058 53.8325 5.42172 52.9972C7.0106 52.1947 8.5264 53.0518 8.63737 54.8752C8.67798 55.5631 8.64279 56.2564 8.64279 57.0071" fill="#957711"/>
<path d="M55.9005 20.1641C55.4349 20.5272 55.0614 20.8275 54.677 21.1195C52.6713 22.6318 50.8578 24.357 49.5396 26.5325C47.975 29.1093 47.4147 31.9455 48.1429 34.9127C48.5787 36.687 49.3203 38.3712 51.1582 39.1437C51.9242 39.4658 52.72 39.5532 53.4969 39.1437C54.4388 38.6442 54.7772 37.6123 54.3143 36.6433C53.93 35.8408 53.1098 35.3167 51.8647 35.8299C51.1934 34.5442 50.9227 33.1821 51.1311 31.7326C51.5155 29.0766 52.9122 27.0593 54.853 25.3287C56.3633 23.983 58.1228 23.0795 59.8605 22.1377C61.0028 21.5181 62.2289 21.0622 63.4199 20.5327C63.6256 20.4426 63.8286 20.3498 64.167 20.1969C63.8936 19.9867 63.7447 19.8502 63.5769 19.7438C61.3574 18.3271 59.6007 16.4163 58.028 14.3089C57.3946 13.4627 56.7667 12.6111 56.1549 11.7485C55.9709 11.4864 55.8382 11.3636 55.4836 11.5001C54.6391 11.8222 53.7784 12.1061 52.9068 12.3408C51.9784 12.592 51.0391 12.8513 50.0917 12.9605C47.8072 13.2253 45.5173 13.5419 43.2246 13.591C38.6339 13.6893 34.0405 13.6893 29.4526 13.602C26.6348 13.5474 23.817 13.3072 21.0074 13.0533C18.9665 12.8704 16.9608 12.4309 15.1066 11.4728C14.5193 11.1698 14.143 11.2899 13.7965 11.8768C12.4919 14.0906 10.8056 15.9959 8.99472 17.7729C8.09877 18.6519 7.03772 19.3534 5.94688 20.2187C6.22568 20.3634 6.41245 20.4917 6.61546 20.5627C9.82841 21.66 12.7463 23.3415 15.3746 25.5007C17.8324 27.5207 19.2778 30.1193 18.9936 33.4796C18.9286 34.2548 18.7229 35.0191 18.5903 35.737C18.0543 35.737 17.6158 35.7016 17.1881 35.7452C16.3301 35.8326 15.6101 36.6433 15.6399 37.4404C15.6805 38.5814 16.3274 39.2966 17.3045 39.4167C19.3238 39.6623 20.9154 38.191 21.565 36.3922C22.867 32.7862 22.5151 29.3086 20.393 26.1913C19.2588 24.5262 17.6835 23.1723 16.276 21.7091C15.7265 21.1359 15.0904 20.6528 14.4245 20.0686C15.3502 19.0422 16.2245 18.0432 17.1421 17.085C17.3018 16.9213 17.6483 16.8967 17.9081 16.8912C21.0751 16.8394 24.2474 16.8448 27.4143 16.7466C29.7801 16.6729 30.8195 18.106 31.193 20.0386C32.0754 24.6081 32.3244 29.2376 32.2324 33.8918C32.1891 36.081 32.2324 38.2729 32.2081 40.4621C32.2026 40.9999 32.3488 41.1582 32.901 41.1446C34.3491 41.1064 35.7972 41.1582 37.2481 41.1801C37.784 41.1882 38.0087 40.9972 38.0033 40.3803C37.9654 37.1374 37.9789 33.8945 37.9735 30.6544C37.9681 27.0321 38.3497 23.4452 39.021 19.8939C39.3621 18.1005 40.7128 16.7247 43.1055 16.7356C46.2021 16.7493 49.3014 16.7875 52.3979 16.823C52.5766 16.823 52.8093 16.8612 52.9203 16.9786C53.9056 18.0077 54.8665 19.0586 55.9032 20.1723" fill="#957711"/>
<path d="M37.4969 76.7424C38.742 77.4604 39.9844 77.5286 41.2647 77.1628C42.2716 76.8762 43.0349 76.262 43.5628 75.3421C43.7495 75.0173 43.69 74.7498 43.284 74.7771C40.4094 74.9709 38.8124 72.4623 38.3874 70.1639C38.1194 68.7117 38.0112 67.2103 38.003 65.7309C37.9624 59.6846 37.9895 53.6356 37.9868 47.5893C37.9868 47.3791 37.9597 47.1689 37.9354 46.8223C37.2803 47.2017 36.7227 47.5238 36.1651 47.8486C35.4614 48.2608 34.7739 48.1407 34.1107 47.7531C33.7399 47.5374 33.3961 47.2727 33.0334 47.0434C32.5002 46.7049 32.2674 46.8414 32.2674 47.5047C32.2674 49.1916 32.2836 50.8786 32.2809 52.5628C32.2728 57.2251 32.3459 61.8929 32.2078 66.5525C32.1537 68.3677 31.7612 70.2076 31.2821 71.9655C30.7868 73.7807 29.3874 74.6924 27.3925 74.7388C27.138 74.7443 26.8836 74.8071 26.5507 74.8535C27.1813 76.1419 28.0935 76.8898 29.3062 77.171C30.489 77.444 31.6665 77.3348 32.8358 76.6305C32.8629 78.5358 33.886 79.9526 34.6114 81.4894C34.9227 82.1472 35.2069 82.1773 35.5534 81.5167C36.3411 80.0126 37.4481 78.645 37.4996 76.7397" fill="#957711"/>
<path d="M39.4486 6.36838C38.6826 3.84068 36.9124 1.96811 35.0393 0C33.5343 2.18648 31.3418 3.71238 30.8546 6.28649C29.8964 6.23735 28.9978 6.08722 28.1208 6.16911C26.0934 6.36019 24.5993 7.98981 24.4558 10.0644C24.4287 10.4684 24.5153 10.8887 24.5911 11.2927C24.6236 11.462 24.7644 11.6094 24.8564 11.7677C25.0296 11.6613 25.2245 11.5821 25.368 11.4429C25.6278 11.1917 25.8173 10.8533 26.0988 10.6431C27.6363 9.49661 28.746 10.3346 29.1575 11.8687C29.4417 12.9278 29.4011 12.9306 30.519 12.9442C31.3635 12.9551 32.2134 12.9442 33.0552 13.0288C33.5452 13.078 33.759 12.8569 33.9268 12.4638C34.3003 11.5848 34.6793 10.7086 35.1043 9.72044C35.5157 10.7195 35.8622 11.6121 36.2601 12.4774C36.3575 12.6903 36.6255 12.9633 36.8149 12.966C38.0898 12.977 39.3647 12.9306 40.6369 12.8814C41.0186 12.865 41.0077 12.5866 40.9915 12.2645C40.9374 11.2136 41.6303 10.3455 42.621 10.1599C43.1732 10.0562 44.3208 10.6676 44.6863 11.2627C44.7648 11.391 44.8108 11.5466 44.9055 11.6613C45.0219 11.8032 45.1735 11.9124 45.3115 12.0352C45.4198 11.8905 45.5795 11.7623 45.6255 11.5985C46.0586 10.0425 45.658 8.68862 44.6944 7.44661C43.8796 6.3984 42.7238 6.33016 41.5843 6.25373C40.913 6.20732 40.2336 6.31924 39.4459 6.36838" fill="#957711"/>
</g>
<defs>
<clipPath id="clip0_2349_12323">
<rect width="70" height="82" fill="white" transform="matrix(-1 0 0 1 70 0)"/>
</clipPath>
</defs>
</svg>
