<svg width="800" height="131" viewBox="0 0 800 131" fill="none" xmlns="http://www.w3.org/2000/svg">
<g clip-path="url(#clip0_2349_12307)">
<path d="M22.7698 115.71C22.7698 110.87 24.4398 104.24 26.8898 97.5498C28.9198 92.0398 31.8498 85.5598 35.3098 78.8398C32.8898 77.5098 30.9498 75.8698 30.9498 74.0598C30.9498 72.9398 31.7398 71.6998 33.6498 70.4598C35.4098 69.3098 38.0998 68.3098 41.5198 67.4298C48.2998 55.5298 55.9598 43.9398 62.3498 36.0698C49.0298 43.0298 30.1998 54.8698 14.1198 54.8698L12.2698 54.8098C3.57977 54.2998 0.00976562 48.6898 0.00976562 45.7898C0.00976562 45.2098 0.129766 44.7598 0.369766 44.4598C0.829766 43.8798 1.24977 43.6698 1.66977 43.6698C3.14977 43.6698 4.20977 46.9098 4.78977 48.0298C6.81977 51.9098 10.6898 53.4498 15.5698 53.4498C31.1598 53.4498 56.8598 37.7698 64.0998 33.9798C75.9398 19.2098 85.9898 10.6998 92.8598 6.63978C95.7998 4.87978 98.1898 4.27979 99.9398 4.27979C101.42 4.27979 102.45 4.72979 102.94 5.33979C103.27 5.72979 103.46 6.21978 103.46 6.78978C103.46 8.20978 102.34 10.1798 100.16 12.6598C95.7998 17.5898 86.2698 23.6798 72.7898 30.6398C65.2798 39.8698 58.8998 49.3198 52.4198 58.9798C51.3598 60.6498 49.9098 63.0998 48.1498 66.0298C51.7798 65.3598 55.8398 64.8198 60.2298 64.3598C65.0398 58.5198 70.0998 52.6998 75.1898 47.2598C85.4798 36.2998 96.0198 26.7998 105.34 21.4098C110.21 18.5598 114.57 17.1998 118.02 17.1998C123.26 17.1998 126.47 20.3498 126.47 26.3398C126.47 30.4598 124.93 35.9398 121.51 42.6298C117.91 49.6498 112.94 55.9798 107.07 61.5798C118.33 61.2798 127.53 61.2198 131.65 61.1898H133.32C133.59 61.1898 133.83 61.3998 133.83 61.6998C133.83 61.9698 133.62 62.2098 133.32 62.2098C127.99 62.2098 119.67 62.2398 105.92 62.6298C90.6598 76.6798 78.5798 84.5198 61.5998 84.5198C57.1498 84.5198 52.3098 83.9798 47.0098 82.8498C36.9298 96.3198 29.2398 108.16 26.2998 113.79C26.2998 113.97 26.1198 114.12 26.0298 114.27C25.6398 115.06 25.3598 115.69 25.1798 116.18C25.2398 116.18 25.2998 116.18 25.3298 116.24C25.7498 116.88 25.9398 117.06 25.9998 117.06C26.1198 117.06 25.9398 116.52 26.2398 116.52C26.4498 116.52 26.8798 116.73 27.6898 117.52C27.5998 120.03 27.0598 121.43 24.8398 122.24C23.4198 120.97 22.7798 118.67 22.7798 115.7L22.7698 115.71ZM45.8998 82.6498C44.2398 82.2598 42.4798 81.8298 39.8198 80.8298C33.7898 91.9998 27.8598 104.26 26.5598 111.16C30.0998 104.98 37.0998 94.4498 45.8998 82.6398V82.6498ZM40.8098 68.6598C37.9598 69.4498 35.7198 70.3598 34.2098 71.3198C32.6998 72.3198 32.0898 73.2298 32.0898 74.1098C32.0898 75.5298 33.7598 76.7998 35.8098 77.8298C37.3798 74.7998 39.0498 71.7098 40.7998 68.6598H40.8098ZM48.2598 79.4698C51.3198 75.4398 54.5298 71.3298 57.8898 67.2098C58.6198 66.3298 59.1598 65.8498 59.1598 65.6698C59.1598 65.5798 59.0398 65.5498 58.8298 65.5498C58.6198 65.5498 58.2898 65.5798 57.7998 65.6398C54.0498 66.0898 50.5898 66.6098 47.4798 67.1798C45.3598 70.8098 42.9098 75.1098 40.4598 79.6198C41.8498 80.0698 43.0598 80.3798 43.7298 80.5898C45.2098 80.9798 45.8798 81.3498 46.3598 81.3498C46.8998 81.3498 47.2098 80.8698 48.2698 79.4698H48.2598ZM99.3898 62.8498C87.3098 63.2698 73.8698 63.9698 62.1498 65.1498C59.2098 65.4498 49.9798 78.8898 47.6798 81.9498C50.1898 82.4598 52.7698 82.7098 55.3098 82.7098C71.2598 82.7098 87.3098 73.2298 99.3898 62.8498ZM100.63 61.7598C110.29 53.2198 118.07 43.4398 121.55 35.0898C123.25 31.0598 123.94 28.0398 123.94 25.7698C123.94 21.5898 121.49 20.1398 118.22 20.1398C114.47 20.1398 109.62 22.0498 106.11 24.0198C96.8498 29.2298 85.8898 38.0098 75.5298 48.8098C70.8698 53.6798 66.2398 58.9198 61.7898 64.1898C74.0198 62.9198 88.1598 62.1898 100.63 61.7698V61.7598ZM80.2898 25.2198C94.3998 17.0798 100.33 10.7798 100.33 8.74978C100.33 8.29978 100.03 8.04979 99.4798 8.04979H99.4498C96.6598 8.04979 87.3998 13.7698 74.5898 28.4498L80.2798 25.2098L80.2898 25.2198Z" fill="#3060A9"/>
<path d="M127.91 103.63C124.22 103.21 121.76 99.3898 121.37 95.3998C121.34 94.8898 121.31 94.3398 121.31 93.7698C121.31 90.2598 122.1 85.5998 123.61 80.9598C125.4 75.5098 127.82 70.0598 129.51 66.6398C129.27 66.1598 129.15 66.3698 129.09 65.5498C131.15 64.0098 132.24 60.9798 133.78 58.0698C137.9 50.3498 143.04 41.6898 147.77 34.4598C149.98 31.1298 153.22 26.4398 156.61 21.9298C159.94 17.5098 163.36 13.3598 165.87 10.6998C168.41 8.03979 171.23 4.82979 173.92 2.88979C174.55 2.43979 176.52 1.55979 177.76 1.52979C177.97 1.52979 178.18 1.55979 178.34 1.61979C179.22 1.94979 179.85 2.55979 179.85 3.61979C179.85 3.85979 179.82 4.12979 179.76 4.40979C178.79 8.58978 173.55 15.3698 171.4 18.1798C168.16 22.5398 164.74 26.8998 161.38 31.0798C159.5 33.5298 156.44 37.2598 153.39 40.9798C150.27 44.7598 147.18 48.5498 145.03 50.7898C143.09 52.8798 141.31 54.9098 139.28 57.2098C136.8 60.0298 136.8 60.2398 134.53 64.7498C130.63 72.7998 126.75 81.2498 124.78 89.3598C124.27 91.8098 123.9 93.9598 123.9 95.7198C123.9 99.0198 125.11 100.96 128.62 100.96L129.41 100.93C132.32 100.69 135.59 99.1998 139.04 96.8698C142.52 94.5398 146.18 91.3298 149.88 87.7598C153.66 84.1298 157.51 80.1598 161.11 76.3498C164.68 72.5998 168.07 68.9898 170.92 65.8798C172.71 64.0898 174.46 62.3098 176.25 60.5798L176.28 60.8798C176.28 61.2398 176.07 61.4898 175.64 62.0898L172.28 66.0298C171.46 66.9698 171.07 67.5098 170.07 68.6298C168.53 70.2598 167.01 71.8998 165.53 73.5298C164.62 74.6498 164.26 75.0998 163.35 76.0098C161.05 78.4598 158.78 80.9398 156.54 83.4598C153 87.5798 147.73 92.9098 142.43 97.1098C137.62 100.92 132.68 103.71 128.75 103.71L127.9 103.65L127.91 103.63ZM145.53 48.1698C147.38 46.1398 148.83 44.0498 150.77 41.9598C152.8 39.7798 159.13 31.6698 160.88 29.4298C162.58 27.2798 164 25.4298 165.69 23.1598C169.72 17.8898 176.5 9.50979 178.13 3.56979C176.5 4.32979 172.59 8.28979 168.59 12.8898C164.47 17.6398 160.3 23.0898 158.33 25.7598C156.88 27.6998 152.79 33.5098 148.88 39.5598C144.94 45.6798 141.25 51.9098 140.16 54.2998C141.95 52.2398 143.7 50.1798 145.52 48.1498L145.53 48.1698Z" fill="#3060A9"/>
<path d="M180.52 74.4701V74.2301C180.58 70.8701 182.67 67.5101 182.67 67.0901C182.67 67.0901 182.66 67.0801 182.64 67.0601L182.52 67.1201C179.82 69.0901 177.58 70.4201 174.8 72.6001C174.32 72.9601 173.71 73.3601 173.14 73.3601C172.66 73.3601 172.2 73.1201 171.78 72.4201C170.93 71.0601 170.75 71.6901 170.54 70.5101C170.51 70.3301 170.48 70.1201 170.48 69.8701C170.48 66.3601 174.66 57.8501 181.44 55.9401C182.2 55.7301 182.89 55.6401 183.47 55.6401H183.53C186.5 55.6401 187.28 58.0301 188.68 58.9701C189.32 58.6101 190.13 58.3901 190.83 58.3001H190.89C191.19 58.3001 191.28 58.6001 191.28 59.0001C191.28 59.7301 190.98 60.7601 190.92 60.9101C190.44 61.3001 190.29 61.2701 190.29 61.3901L190.38 61.9001C190.38 62.4401 189.99 62.8101 189.59 62.8101C189.38 62.8101 189.2 62.7201 189.05 62.4801C186.2 65.3001 182.72 70.4401 182.72 74.8301C182.72 75.1901 182.72 75.5601 182.78 75.8901C183.54 79.4901 185.78 80.9501 188.92 80.9501C190.98 80.9501 193.46 80.3101 196.16 79.2501C207.42 74.8001 222.13 62.9601 225.22 60.8101L225.31 60.7801C225.55 60.7801 225.85 61.1701 225.95 61.3901L225.98 61.4801C225.98 61.7201 225.47 62.2401 225.25 62.3901C222.46 64.3001 207.99 75.3201 196.34 80.1301C192.95 81.5501 189.8 82.4301 187.23 82.4301C183.17 82.4301 180.54 80.2201 180.54 74.4701H180.52ZM184.7 62.2401C185.88 61.2701 186.3 61.1201 187.55 59.9101C187.19 59.2401 186.61 58.9401 185.92 58.9401C182.71 58.9401 176.78 65.1201 175.87 68.6301C177.32 68.1201 182.89 63.7301 184.71 62.2401H184.7Z" fill="#3060A9"/>
<path d="M219.91 72.11C219.91 71.57 219.94 70.99 220.03 70.35C220.24 68.56 220.49 66.99 221.27 65.54C223.21 61.97 228.63 56.46 232.77 56.46H232.86C235.13 56.49 238.76 58.19 238.76 61.09C238.76 61.27 238.76 61.45 238.73 61.63C238.46 63.26 236.91 65.9 235.31 67.35C234.43 68.14 233.74 68.41 233.22 68.41C231.98 68.41 231.59 66.87 231.59 65.99C231.59 65.72 231.65 65.51 231.71 65.45C233.28 63.85 236.1 62.12 236.1 59.67C236.1 59.43 236.07 59.16 236.01 58.88C235.83 58.85 235.62 58.82 235.4 58.82C232.25 58.82 227.41 62.85 225.77 64.48C222.41 67.9 220.99 70.63 220.99 72.59C220.99 75.31 223.62 76.68 227.47 76.68C230.83 76.68 235.1 75.68 239.4 73.59C247.54 69.71 257.66 64.57 261.86 61.75C262.22 61.51 263.25 61.11 263.65 61.11C263.74 61.11 263.8 61.11 263.8 61.17C263.8 61.26 263.59 61.47 263.04 61.87L260.92 63.2C258.26 64.77 248.87 70.98 239.88 74.95C237.49 76.01 231.5 78.46 226.68 78.46C222.93 78.46 219.9 76.98 219.9 72.1L219.91 72.11Z" fill="#3060A9"/>
<path d="M263.62 78.2902C259.72 78.2902 254.63 75.4702 254.24 71.8402C253.15 71.7802 252.67 71.8402 252.39 71.1702C252.3 70.9902 252.27 70.8702 252.27 70.7802C252.27 70.6902 252.33 70.6602 252.45 70.6602C252.6 70.6602 252.87 70.7502 253.21 70.7502C253.42 70.7502 253.67 70.6902 253.94 70.6002C254.46 70.3902 254.58 70.1202 254.76 69.6002C256.36 65.3602 264.96 57.4902 269.32 57.2202H269.59C270.92 57.2202 272.8 57.8302 273.22 58.6702C273.31 58.8502 273.37 59.0602 273.37 59.2802C273.37 63.0002 259.72 70.4802 258.39 70.5102C258.03 71.3002 257.87 72.0202 257.87 72.6602C257.87 75.3502 260.75 76.5702 263.38 76.6302H263.84C273.53 76.6302 288.45 67.2502 295.87 61.7402C296.38 61.3802 296.75 61.1302 296.9 61.1302C296.96 61.1302 297.02 61.1602 297.02 61.2202C297.02 61.4002 296.84 61.7602 296.44 62.4002C280 74.4802 269.74 77.9902 264.05 78.2902H263.63H263.62ZM272.55 59.1602C272.55 59.0702 272.52 59.0102 272.46 58.9502C272.34 58.8602 272.16 58.8002 271.95 58.8002C269.29 58.8302 260.41 66.9702 259.2 69.1202C264.44 67.1502 272.55 60.6702 272.55 59.1602Z" fill="#3060A9"/>
<path d="M289.99 89.5502C288.99 89.4602 288.32 87.9802 287.87 87.2202C287.57 86.7402 287.45 86.2202 287.45 85.7402C287.45 84.9802 287.75 84.2902 288.24 83.7402C290.24 81.5602 293.14 79.1402 296.47 76.6902C295.32 72.8102 293.41 68.5502 293.17 67.4902C293.05 66.9502 292.99 66.4002 292.99 65.8902C292.99 60.8902 298.08 56.2002 301.92 56.2002C302.62 56.2002 303.25 56.3502 303.83 56.6502C304.16 56.8302 305.86 58.4102 306.28 58.8002C307.49 59.8902 307.61 60.8902 307.61 61.9802C307.61 65.1002 305.67 67.6402 303.13 67.6402C302.01 67.6402 301.1 67.1002 301.1 65.9702C301.1 65.7902 301.1 65.6102 301.16 65.3902C302.16 64.8802 304.55 60.1802 304.55 58.4302C304.55 58.0402 304.43 57.7902 304.13 57.7902H304.01C300.11 58.4902 295.65 64.0302 295.65 67.9302C295.65 70.3802 296.95 72.7402 297.89 75.6502C305.85 70.0202 315.84 64.3902 322.32 61.2402C322.41 61.2102 322.5 61.1802 322.59 61.1802C322.8 61.1802 322.92 61.2102 322.92 61.4202C322.92 61.5702 322.8 61.7202 322.59 61.8402C316.11 65.0502 306 70.8902 298.28 76.8002C298.82 78.5302 299.46 80.7702 299.46 82.8202C299.46 84.7602 298.89 86.5402 297.19 87.5702C295.58 88.5402 292.47 89.5702 290.44 89.5702L289.99 89.5402V89.5502ZM294.77 84.6502C296.71 83.7102 297.4 82.7702 297.4 81.2302C297.4 80.3502 297.16 79.2902 296.83 77.9602C293.95 80.2302 291.53 82.4702 289.84 84.5602C289.57 84.8602 289.33 85.3202 289.33 85.6802C289.33 86.0102 289.54 86.2902 290.09 86.2902H290.15C291 86.2602 293.96 85.0502 294.78 84.6602L294.77 84.6502Z" fill="#3060A9"/>
<path d="M341 72.9299C340.73 72.7199 338.55 71.5699 338.37 70.9899C338.25 70.6599 338.19 70.2299 338.19 69.8099C338.19 67.8999 339.31 65.3599 339.98 64.2099C340.34 63.5399 340.74 63.0599 341.1 62.5099C342.16 60.8799 342.98 60.5099 344.1 59.5999C344.46 59.3299 344.64 58.8999 345.1 58.8999C345.64 58.8999 346.98 59.0499 347.31 59.1699L348.94 60.1399C350.7 61.4399 354.3 61.7399 357.42 61.7399C361.78 61.7399 364.32 61.3499 367.02 60.9499C368.35 60.7699 369.65 60.5299 370.83 60.0999C371.04 60.0099 371.34 59.8599 371.53 59.8599C371.68 59.8599 371.8 59.9499 371.8 60.1899C371.77 61.3999 363.51 62.3399 361.72 62.5199C360.21 62.6699 358.39 62.8199 356.57 62.8199C354.24 62.8199 351.91 62.5799 350 61.7899C349.79 63.7899 349.24 64.8199 348.52 66.0899C348.04 66.9399 343.89 73.1099 341.65 73.1099C341.41 73.1099 341.19 73.0499 341.01 72.8999L341 72.9299ZM349.02 61.8199C349.02 60.7299 348.23 59.9699 346.14 59.9699C346.41 60.2399 346.5 60.4799 346.5 60.6999C346.5 61.4599 345.44 62.1199 344.93 62.8499C343.69 64.6099 341.51 68.2099 341.48 70.9299C343.24 70.3899 349.02 64.8099 349.02 61.8199Z" fill="#3060A9"/>
<path d="M345.15 121.88C345.15 113.95 347.81 104.26 350.48 96.7798C353.02 90.8498 355.78 84.9098 358.74 79.0098C358.62 76.3198 358.35 74.6498 357.89 74.5298C357.62 74.4698 357.44 74.3498 357.32 74.1698C357.23 74.0498 357.2 73.9298 357.2 73.8098C357.2 73.2698 357.81 72.5998 358.99 71.9898C360.11 71.4498 361.71 70.7798 363.65 70.0198C364.32 68.8998 364.95 67.7798 365.44 66.8698L370.13 59.5398C378.61 45.9498 404.13 14.5498 419.63 9.0698C421.9 8.2798 424.56 7.7998 425.87 7.7998C426.38 7.7998 426.69 7.8598 426.69 8.0098L426.66 8.0698C426.27 8.7698 424.06 9.6098 419.27 12.8798C412.79 17.2698 406.1 23.1398 400.53 28.4098C388.51 39.7598 379.55 50.9598 370.44 64.3698C369.77 65.3398 368.62 67.1598 367.81 68.5198C378.37 64.8598 394.3 60.4998 401.87 60.0998H401.9C402.17 60.0998 402.6 60.3698 402.6 60.5798C402.6 60.6998 402.45 60.8198 401.99 60.8198C394.15 61.2398 377.14 66.4498 366.72 70.2698C364.39 74.4198 362.09 78.5598 359.91 82.7098L359.94 84.7098C359.94 87.5298 359.82 90.7298 359.61 94.0298C359.1 103.2 358.19 114.98 355.92 123.91C354.86 128.06 352.47 130.45 350.17 130.45C347.87 130.45 345.54 127.82 345.18 121.85L345.15 121.88ZM354.26 123.67C356.56 114.68 357.86 103.17 358.41 93.9698C358.59 90.7298 358.71 87.6398 358.77 84.9498C357.53 87.3698 356.35 89.8198 355.29 92.2498C352.02 99.6698 349.54 107.24 347.81 114.96C347.39 117.41 347.08 119.71 346.96 122.32C347.05 127.04 348.5 129.43 350.14 129.43C351.62 129.43 353.26 127.52 354.26 123.68V123.67ZM362.53 71.8998C361.44 72.3498 360.47 72.7498 359.77 73.1098C359.07 73.4698 358.5 73.5598 358.38 73.5898C358.92 73.9798 359.32 75.3198 359.56 77.3698C360.5 75.5198 361.13 74.2498 362.53 71.8898V71.8998Z" fill="#3060A9"/>
<path d="M418.8 113.65C417.95 113.35 417.29 112.56 417.29 112.11C417.29 111.9 417.41 111.81 417.68 111.81C418.1 111.81 419.01 112.17 419.8 112.48C421.28 113.09 422.83 113.36 424.34 113.36C436.63 113.36 450.04 95.3801 463.76 75.0301C479.5 51.6901 494.37 25.3801 498.51 16.9101C499.75 14.3401 502.93 8.71006 502.93 5.29006C502.93 3.62006 502.17 2.47006 500.08 2.47006C499.5 2.47006 498.81 2.56006 498.02 2.74006C487.97 5.07006 458.27 16.5701 435.63 30.8901C421.28 40.0001 410.44 50.2701 410.44 60.1001C410.44 65.8201 414.07 71.3901 422.82 76.5101C423.97 77.1801 424.42 77.7201 424.42 78.1401C424.42 78.6801 423.6 78.9601 422.54 78.9601C421.48 78.9601 420.24 78.6901 419.42 78.0501C412.06 72.4501 408.95 66.6101 408.95 60.7301C408.95 48.6501 422.15 36.4801 438.83 26.2801C462.75 11.6301 491.96 1.06006 500.59 1.06006C503.98 1.06006 506.01 2.54006 506.01 6.60006C506.01 9.45006 504.92 13.5601 502.47 19.1601C498.93 27.0601 484.31 53.4601 467.81 76.8301C453.64 96.9301 439.17 114.73 424.79 114.73C422.79 114.73 420.79 114.37 418.8 113.64V113.65Z" fill="#3060A9"/>
<path d="M529.18 125.54C528.51 124.3 527.94 122.94 527.39 121.51C526.66 118.27 526.3 114.7 526.3 111.01C526.3 106.92 526.75 102.68 527.66 98.48C531.38 81.5 540.47 62.94 550.88 46.05C534.17 61.43 516.34 74.75 507.07 74.75C505.07 74.75 503.44 74.11 502.35 72.72C501.26 71.36 500.11 70.75 500.11 68V67.49C500.26 64.98 502.47 60.71 502.99 58.47C496.87 61.53 491.43 65.52 487.55 71.25C487.22 71.95 487.04 73.34 486.46 73.34C485.95 73.34 485.19 72.28 485.19 71.58C485.22 68.67 489.22 61.47 492.09 58.59C492.67 57.98 493.24 57.77 493.76 57.77C494.94 57.77 495.79 58.92 495.79 59.28L495.76 59.34C494.94 60.7 492.64 63.58 492.28 64.55C492.58 64.25 492.95 64.07 493.31 63.73C494.31 62.82 500.21 58.58 502.63 57.65C502.78 57.59 502.93 57.56 503.11 57.56C504.38 57.56 505.9 59.19 505.9 60.92C505.9 61.19 505.87 61.43 505.81 61.68C505.11 64.22 502.78 68.04 502.78 70.52C502.78 71.49 503.14 72.28 504.11 72.67C505.05 73.03 506.08 73.21 507.23 73.21C518.07 73.21 537.62 56.95 554.79 39.85C556 38.03 557.18 36.19 558.39 34.43C553.7 34.1 548.25 33.79 543.47 33.79C536.9 33.79 530.51 34.27 524.4 35.3C520.19 36.39 514.98 38.12 514.14 39.84C513.93 40.29 513.6 40.81 513.32 41.26C512.71 41.56 512.29 41.65 511.99 41.65C511.63 41.65 511.51 41.47 511.51 41.29C511.57 40.81 512.05 40.41 512.42 39.81C513.15 38.57 514.24 37.54 516.23 36.21C520.01 34.24 527.28 32.64 532.73 32.03C535.52 31.88 538.45 31.79 541.45 31.79C547.5 31.79 553.38 32.21 559.58 32.7C565.48 24.04 572.08 15.23 578.23 8.51C580.83 5.82 583.59 2.76 586.1 0.61C586.83 0.13 587.34 0.03 587.95 0C588.43 0 588.86 0.21 589.1 0.61L589.07 0.64C589.19 0.76 589.28 1 589.28 1.34C589.28 5.12 578.38 18.66 564.21 33.13C577.41 34.34 593.42 36.52 606.32 36.52C609.29 36.52 612.16 36.4 614.89 36.16C617.98 35.65 620.67 34.98 622.79 33.65C623.61 33.04 624.03 32.41 624.24 31.95V31.89C624.24 31.56 623.76 31.53 623.76 30.98C623.76 30.83 623.79 30.65 623.88 30.44C624.09 29.77 625 28.96 625.48 28.96C625.87 28.96 625.78 29.23 625.81 29.69C625.81 30.33 625.66 31.23 625.3 32.2C624.91 33.29 623.88 34.14 622.88 34.89C618.91 36.74 611.74 37.74 603.63 37.74C602.36 37.74 601.09 37.74 599.79 37.68C590.04 37.29 579.87 36.17 573.42 35.62C569.85 35.32 566.25 35.01 562.64 34.74L560.91 36.47C549.47 53.48 538.75 73.16 533.03 90.9C531.06 97.05 529.79 103.37 529 110.21L528.94 112.96C528.94 117.32 529.39 120.89 530.39 123.5C530.39 123.5 531.81 126.83 533.81 128.43C534.23 128.76 534.42 129.01 534.42 129.13C534.42 129.22 534.33 129.28 534.21 129.28C533.51 129.28 531.3 128.19 529.18 125.56V125.54ZM588.06 1.85L581.46 9.84C577.4 14.29 573.38 19.13 569.02 25.01C579.22 13.87 586.76 4.48 588.06 1.85Z" fill="#3060A9"/>
<path d="M557.15 78.2902C553.24 78.2902 548.16 75.4702 547.77 71.8402C546.68 71.7802 546.2 71.8402 545.92 71.1702C545.83 70.9902 545.8 70.8702 545.8 70.7802C545.8 70.6902 545.86 70.6602 545.98 70.6602C546.13 70.6602 546.4 70.7502 546.74 70.7502C546.95 70.7502 547.19 70.6902 547.47 70.6002C547.98 70.3902 548.11 70.1202 548.29 69.6002C549.89 65.3602 558.49 57.4902 562.85 57.2202H563.12C564.45 57.2202 566.33 57.8302 566.75 58.6702C566.84 58.8502 566.9 59.0602 566.9 59.2802C566.9 63.0002 553.25 70.4802 551.91 70.5102C551.55 71.3002 551.4 72.0202 551.4 72.6602C551.4 75.3502 554.28 76.5702 556.91 76.6302H557.36C567.05 76.6302 581.97 67.2502 589.39 61.7402C589.9 61.3802 590.27 61.1302 590.42 61.1302C590.48 61.1302 590.54 61.1602 590.54 61.2202C590.54 61.4002 590.36 61.7602 589.96 62.4002C573.52 74.4802 563.26 77.9902 557.57 78.2902H557.15ZM566.08 59.1602C566.08 59.0702 566.05 59.0102 565.99 58.9502C565.87 58.8602 565.69 58.8002 565.48 58.8002C562.82 58.8302 553.95 66.9702 552.73 69.1202C557.97 67.1502 566.08 60.6702 566.08 59.1602Z" fill="#3060A9"/>
<path d="M581.31 89.9102C581.31 89.0302 581.55 88.0302 582.16 87.0002C584.76 82.5502 594.21 70.8902 594.21 65.5702C594.21 65.1802 594.15 64.7802 594.03 64.4502C593.76 63.7502 592.24 62.4202 591.21 61.4502C590.27 62.4802 589.88 63.0802 589.18 63.0802C588.85 63.0802 588.6 62.8702 588.6 62.5002C588.6 61.9902 589.11 61.2902 589.57 60.8302C589.9 60.5302 590.18 60.5602 590.45 60.2202C590.18 59.5802 590.06 58.9502 590.06 58.3102C590.06 54.3402 594.39 50.2002 596.33 50.2002C597.15 50.2302 598.12 51.2002 598.6 51.7702C598.9 52.1302 599.05 52.5302 599.05 52.9502C599.05 55.3102 594.57 58.3402 593.09 60.0602C593.06 60.1502 593.06 60.2702 593.06 60.3602C593.06 61.4802 594.73 62.4502 595.6 63.3302C596.57 64.3302 596.96 65.3002 596.96 66.4202C596.96 67.3002 596.72 68.2702 596.32 69.3902C594.05 75.8102 590.08 80.4702 586.54 85.7102C584.54 88.6502 583.72 90.3702 583.72 91.1902C583.72 91.5802 583.9 91.8002 584.3 91.8002C584.72 91.8002 585.36 91.5302 586.18 91.1002C595.87 85.9202 609.88 69.9402 618.21 61.6702C618.27 61.6102 619.36 60.8502 619.75 60.8502C619.81 60.8502 619.87 60.8802 619.87 60.9402C619.87 61.0902 619.75 61.3602 619.39 61.8202C614.55 68.2402 595.87 85.8302 592.48 88.8502C590.51 90.5802 586.88 93.6002 584.4 93.6002C582.77 93.6002 581.31 92.0302 581.31 89.8802V89.9102Z" fill="#3060A9"/>
<path d="M619.94 78.2902C616.03 78.2902 610.95 75.4702 610.56 71.8402C609.47 71.7802 608.99 71.8402 608.71 71.1702C608.62 70.9902 608.59 70.8702 608.59 70.7802C608.59 70.6902 608.65 70.6602 608.77 70.6602C608.92 70.6602 609.19 70.7502 609.53 70.7502C609.74 70.7502 609.98 70.6902 610.26 70.6002C610.77 70.3902 610.9 70.1202 611.08 69.6002C612.68 65.3602 621.28 57.4902 625.64 57.2202H625.91C627.24 57.2202 629.12 57.8302 629.54 58.6702C629.63 58.8502 629.69 59.0602 629.69 59.2802C629.69 63.0002 616.04 70.4802 614.7 70.5102C614.34 71.3002 614.19 72.0202 614.19 72.6602C614.19 75.3502 617.07 76.5702 619.7 76.6302H620.15C629.84 76.6302 644.76 67.2502 652.18 61.7402C652.69 61.3802 653.06 61.1302 653.21 61.1302C653.27 61.1302 653.33 61.1602 653.33 61.2202C653.33 61.4002 653.15 61.7602 652.75 62.4002C636.31 74.4802 626.05 77.9902 620.36 78.2902H619.94ZM628.87 59.1602C628.87 59.0702 628.84 59.0102 628.78 58.9502C628.66 58.8602 628.48 58.8002 628.27 58.8002C625.61 58.8302 616.74 66.9702 615.52 69.1202C620.76 67.1502 628.87 60.6702 628.87 59.1602Z" fill="#3060A9"/>
<path d="M646.31 89.5502C645.31 89.4602 644.64 87.9802 644.19 87.2202C643.89 86.7402 643.77 86.2202 643.77 85.7402C643.77 84.9802 644.07 84.2902 644.56 83.7402C646.56 81.5602 649.46 79.1402 652.79 76.6902C651.64 72.8102 649.73 68.5502 649.49 67.4902C649.37 66.9502 649.31 66.4002 649.31 65.8902C649.31 60.8902 654.4 56.2002 658.24 56.2002C658.94 56.2002 659.57 56.3502 660.15 56.6502C660.48 56.8302 662.18 58.4102 662.6 58.8002C663.81 59.8902 663.93 60.8902 663.93 61.9802C663.93 65.1002 661.99 67.6402 659.45 67.6402C658.33 67.6402 657.42 67.1002 657.42 65.9702C657.42 65.7902 657.42 65.6102 657.48 65.3902C658.48 64.8802 660.87 60.1802 660.87 58.4302C660.87 58.0402 660.75 57.7902 660.45 57.7902H660.33C656.42 58.4902 651.97 64.0302 651.97 67.9302C651.97 70.3802 653.27 72.7402 654.21 75.6502C662.17 70.0202 672.16 64.3902 678.64 61.2402C678.73 61.2102 678.82 61.1802 678.91 61.1802C679.12 61.1802 679.24 61.2102 679.24 61.4202C679.24 61.5702 679.12 61.7202 678.91 61.8402C672.43 65.0502 662.32 70.8902 654.6 76.8002C655.14 78.5302 655.78 80.7702 655.78 82.8202C655.78 84.7602 655.2 86.5402 653.51 87.5702C651.91 88.5402 648.79 89.5702 646.76 89.5702L646.31 89.5402V89.5502ZM651.09 84.6502C653.03 83.7102 653.72 82.7702 653.72 81.2302C653.72 80.3502 653.48 79.2902 653.14 77.9602C650.26 80.2302 647.84 82.4702 646.15 84.5602C645.88 84.8602 645.64 85.3202 645.64 85.6802C645.64 86.0102 645.85 86.2902 646.4 86.2902H646.46C647.31 86.2602 650.27 85.0502 651.09 84.6602V84.6502Z" fill="#3060A9"/>
<path d="M660.2 115.4C659.05 114.76 658.11 113.67 658.11 111.37C658.11 110.55 658.23 109.58 658.5 108.43C660.98 97.71 665.61 86.18 670.16 76.01C670.01 75.65 669.86 75.83 669.86 75.19V74.98C672.07 72.47 673.55 68.62 675.49 64.78C680.64 54.94 687.18 43.86 693.32 34.42C688.23 34.06 683.24 33.78 678.46 33.78C671.86 33.78 665.41 34.26 659.24 35.29C655.3 36.32 649.86 38.01 649.01 39.83C648.8 40.28 648.43 40.77 648.19 41.22C647.58 41.52 647.13 41.64 646.86 41.64C646.5 41.64 646.38 41.46 646.38 41.28C646.44 40.8 646.96 40.31 647.29 39.8C647.99 38.56 649.11 37.53 651.1 36.23C654.85 34.2 662.15 32.63 667.57 32.02C670.36 31.9 673.32 31.81 676.32 31.81C682.5 31.81 688.22 32.17 694.48 32.72C700.38 24.03 706.35 15.83 713.04 8.53002C715.61 5.84002 718.4 2.78002 720.88 0.66002C721.49 0.24002 722.12 0.0200195 722.64 0.0200195C723.49 0.0200195 724.09 0.53002 724.09 1.53002C724.09 2.14002 723.91 2.89002 723.39 3.80002C721.27 7.71002 717.43 12.94 713.55 18.12C707.77 25.81 705.13 29.08 701.96 33.41L717.31 34.92C725.09 35.65 733.11 36.49 741.07 36.49C744.04 36.49 746.94 36.37 749.67 36.13C752.73 35.62 755.42 34.95 757.54 33.62C758.36 33.01 758.78 32.38 758.99 31.92V31.86C758.99 31.53 758.51 31.5 758.51 30.95C758.51 30.83 758.54 30.65 758.63 30.44C758.84 29.74 759.75 28.93 760.23 28.93C760.62 28.93 760.53 29.2 760.56 29.69C760.56 30.3 760.44 31.2 760.08 32.2C759.66 33.26 758.63 34.11 757.63 34.86C753.66 36.71 746.52 37.71 738.41 37.71C737.14 37.71 735.87 37.71 734.57 37.65C724.79 37.26 714.65 36.14 708.2 35.59L700.78 34.98C698.27 38.37 695.12 42.61 692.03 46.91C686.22 55.11 681.16 62.5 677.26 68.16L675.38 72.04C670.14 83.54 664.69 97.02 661.7 109.31C661.61 109.7 661.55 110.13 661.55 110.55C661.55 111.61 661.88 112.67 662.82 113.4C676.99 96.36 741.17 40.14 776.28 40.14C789.36 40.14 798.44 47.95 799.35 68.51C799.35 68.51 798.62 69.02 797.68 69.02C797.1 69.02 796.41 68.81 795.77 68.14C795.89 66.57 795.95 65.08 795.95 63.66C795.95 48.25 788.96 42.26 778.15 42.26C745.12 42.26 676.61 98.42 664.35 113.68C663.2 115.1 662.35 115.8 661.44 115.8C661.05 115.8 660.65 115.68 660.2 115.41V115.4ZM682.09 59.21C684.51 55.82 686.57 52.55 689.14 49.07C690.99 46.62 695.8 39.93 699.43 34.9L696.98 34.69C690.41 44.29 684.05 55.28 681.87 59.54L682.08 59.21H682.09ZM703.31 29.57C705.04 27.36 719.96 7.74002 719.96 6.38002C719.96 6.35002 719.93 6.32002 719.9 6.32002C719.36 6.32002 712.27 13.98 706.7 21.18C705.28 23.03 701.92 27.57 698.13 33.02C698.98 33.11 699.8 33.2 700.61 33.26L703.3 29.57H703.31Z" fill="#3060A9"/>
</g>
<defs>
<clipPath id="clip0_2349_12307">
<rect width="799.34" height="130.48" fill="white"/>
</clipPath>
</defs>
</svg>
