<svg width="752" height="319" viewBox="0 0 752 319" fill="none" xmlns="http://www.w3.org/2000/svg">
<g clip-path="url(#clip0_99_2)">
<path d="M2.45093 149.007C1.26121 146.423 0.757324 143.98 0.757324 141.69C0.757324 131.622 10.667 124.36 19.6949 119.92L19.8209 119.836C33.3418 113.077 52.5314 107.617 74.2683 103.47C86.9354 101.054 100.456 99.0715 114.229 97.5494C127.54 84.144 140.333 70.1102 155.464 54.0097C157.703 51.6358 166.521 41.7493 175.465 31.9885C175.759 31.4439 176.137 30.8853 176.529 30.2988C176.571 30.215 187.418 10.6375 191.449 8.19382C191.911 7.90058 192.345 7.7749 192.723 7.7749C193.997 7.7749 194.584 9.38076 194.584 11.3218C194.584 13.4722 193.871 16.0974 192.597 17.5357C192.429 17.7033 192.261 17.9547 192.051 18.1641L189.21 21.3758C186.452 24.42 183.695 27.5479 180.91 30.6759C177.103 37.1831 173.659 42.8106 170.146 48.6475C165.989 55.5318 161.72 62.6813 156.625 71.8557C154.386 75.9611 151.586 80.9881 148.703 86.6575C147.345 89.2827 145.988 92.0755 144.63 94.8963L153.238 94.3936C153.658 94.3936 153.784 94.8125 153.784 95.371C153.784 96.4742 153.238 98.1638 153.07 98.1638L152.776 98.2057C151.964 98.2057 151.041 97.6192 150.145 97.6192H150.019C148.031 97.8706 145.694 97.9544 143.202 98.0382C142.139 100.412 141.089 102.814 140.109 105.272C137.52 111.653 135.49 118.286 134.132 124.723C132.943 130.435 132.313 135.964 132.313 140.908L132.355 142.639L132.901 147.666C133.489 150.082 134.972 151.562 134.972 153.629C134.972 154.048 134.888 154.523 134.762 154.983C131.333 154.048 128.702 139.511 128.66 134.861C128.912 129.625 129.975 123.62 131.669 117.364C133.321 111.108 135.616 104.559 138.359 98.3035L138.401 98.1359C132.299 98.1778 125.482 98.1778 119.128 98.7643C109.428 108.832 99.6305 118.551 89.8467 127.516L84.9758 131.789C74.8842 140.586 58.2 153.559 45.8269 158.502C37.8208 161.672 30.9903 163.068 25.2377 163.068C13.2844 163.068 6.09009 157.064 2.47893 149.035L2.45093 149.007ZM40.1162 154.159C43.7974 152.721 47.8284 150.822 52.1114 148.448C73.8904 136.481 94.7456 116.917 112.326 99.4066C101.604 100.594 90.4626 102.199 79.6571 104.182C56.2685 108.413 34.2376 114.334 20.3388 121.218C8.55352 127.097 3.13677 134.666 3.13677 141.801C3.13677 144.929 4.15854 148.015 6.14608 150.934C9.15538 155.332 14.4042 158.125 22.0324 158.125C27.0292 158.125 33.0479 156.896 40.1302 154.145L40.1162 154.159ZM139.689 95.2314C144.896 83.6552 151.041 72.9169 155.324 65.516C158.879 59.302 162.406 53.3813 165.835 47.67C151.307 64.0358 136.26 80.8485 120.962 96.8372C127.19 96.2089 133.419 95.6503 139.689 95.2314Z" fill="#333333"/>
<path d="M221.822 185.788C220.884 184.056 220.087 182.157 219.317 180.16C218.295 175.636 217.791 170.651 217.791 165.498C217.791 159.787 218.421 153.866 219.695 148.001C224.902 124.29 237.625 98.3733 252.195 74.7881C228.807 96.2647 203.85 114.865 190.875 114.865C188.076 114.865 185.795 113.971 184.269 112.03C182.743 110.131 181.134 109.279 181.134 105.439V104.727C181.344 101.222 184.437 95.2593 185.165 92.1314C176.599 96.4044 168.984 101.976 163.554 109.977C163.092 110.955 162.84 112.896 162.028 112.896C161.314 112.896 160.25 111.416 160.25 110.438C160.292 106.375 165.891 96.3206 169.908 92.2989C170.72 91.4471 171.518 91.1539 172.246 91.1539C173.897 91.1539 175.087 92.7597 175.087 93.2624L175.045 93.3462C173.897 95.2453 170.678 99.267 170.174 100.621C170.594 100.203 171.112 99.9512 171.616 99.4764C173.016 98.2057 181.274 92.285 184.661 90.9863C184.871 90.9025 185.081 90.8606 185.333 90.8606C187.11 90.8606 189.238 93.1368 189.238 95.5525C189.238 95.9296 189.196 96.2647 189.112 96.6138C188.132 100.161 184.871 105.495 184.871 108.958C184.871 110.312 185.375 111.416 186.732 111.96C188.048 112.463 189.49 112.714 191.099 112.714C206.272 112.714 233.636 90.0088 257.668 66.1304C259.362 63.589 261.013 61.0196 262.707 58.5619C256.142 58.1011 248.514 57.6682 241.824 57.6682C232.628 57.6682 223.684 58.3385 215.132 59.7768C209.239 61.2989 201.947 63.7146 200.771 66.1164C200.477 66.7448 200.015 67.4709 199.623 68.0993C198.77 68.5182 198.182 68.6439 197.762 68.6439C197.258 68.6439 197.09 68.3926 197.09 68.1412C197.174 67.4709 197.846 66.9124 198.364 66.0745C199.385 64.343 200.911 62.9047 203.696 61.0475C208.987 58.2966 219.163 56.0624 226.791 55.2106C230.696 55.0011 234.797 54.8754 238.996 54.8754C247.464 54.8754 255.694 55.4619 264.372 56.1461C272.631 44.0533 281.868 31.7511 290.476 22.3672C294.116 18.6109 297.979 14.3379 301.492 11.3357C302.514 10.6654 303.227 10.5258 304.081 10.4839C304.753 10.4839 305.355 10.7771 305.691 11.3357L305.649 11.3776C305.817 11.5452 305.943 11.8803 305.943 12.3551C305.943 17.6335 290.686 36.5407 270.853 56.7466C289.329 58.4362 311.737 61.4804 329.793 61.4804C333.95 61.4804 337.967 61.3128 341.789 60.9777C346.114 60.2655 349.879 59.3299 352.846 57.4727C353.994 56.6209 354.582 55.7412 354.876 55.0989V55.0151C354.876 54.5543 354.204 54.5124 354.204 53.7443C354.204 53.5349 354.246 53.2835 354.372 52.9903C354.666 52.0547 355.939 50.9236 356.611 50.9236C357.157 50.9236 357.031 51.3006 357.073 51.943C357.073 52.8367 356.863 54.0934 356.359 55.4479C355.813 56.97 354.372 58.157 352.972 59.2043C347.415 61.7876 337.38 63.184 326.028 63.184C324.251 63.184 322.473 63.184 320.653 63.1002C307.007 62.5556 292.772 60.9917 283.744 60.2236C278.747 59.8047 273.708 59.3718 268.655 58.9948L266.234 61.4106C250.222 85.1633 235.217 112.644 227.211 137.417C224.454 146.004 222.676 154.83 221.57 164.381L221.486 168.221C221.486 174.309 222.116 179.295 223.516 182.939C223.516 182.939 225.503 187.589 228.303 189.823C228.891 190.284 229.157 190.633 229.157 190.801C229.157 190.927 229.031 191.01 228.863 191.01C227.883 191.01 224.79 189.488 221.822 185.816V185.788ZM304.235 13.0533L294.997 24.2105C289.315 30.4245 283.688 37.183 277.585 45.3939C291.862 29.838 302.416 16.7258 304.235 13.0533Z" fill="#333333"/>
<path d="M254.659 107.492C254.659 100.775 258.382 91.9357 261.909 87.914C263.015 86.6014 264.107 86.1406 265.086 86.1406C267.466 86.1406 269.159 89.1429 269.159 89.7294V89.7713C267.592 92.9411 258.9 104.657 257.64 111.164C258.018 112.309 258.788 112.77 259.712 112.77C263.701 112.77 271.497 104.615 273.316 102.758C273.946 100.091 276.662 92.4384 282.26 92.4384C282.848 92.4384 283.282 92.6478 283.282 93.1087C283.282 93.2762 283.198 93.4857 283.114 93.6951C282.092 96.0271 278.789 101.599 275.57 104.015C275.234 104.95 275.024 105.872 275.024 106.765C275.024 109.726 277.096 112.309 282.316 112.896C283.128 113.063 283.926 113.105 284.738 113.105C292.912 113.105 301.52 105.872 308.546 101.655L316.888 96.1528C317.35 95.9852 317.644 95.9015 317.826 95.9015C318.008 95.9015 318.078 95.9434 318.078 96.069C318.078 96.2785 317.826 96.6136 317.406 97.0884L311.849 101.11C306.517 105.174 292.142 114.934 282.568 114.934C277.613 114.934 273.918 112.351 273.372 105.006C271.217 107.156 263.841 114.976 259.096 114.976C256.17 114.976 254.687 111.639 254.687 107.492H254.659Z" fill="#333333"/>
<path d="M324.447 114.473V114.138C324.531 109.446 327.456 104.754 327.456 104.168C327.456 104.168 327.442 104.154 327.414 104.126L327.246 104.21C323.481 106.961 320.346 108.818 316.44 111.862C315.769 112.365 314.915 112.923 314.103 112.923C313.431 112.923 312.787 112.588 312.199 111.611C311.01 109.712 310.758 110.591 310.464 108.944C310.422 108.692 310.38 108.399 310.38 108.05C310.38 103.149 316.231 91.2652 325.72 88.5981C326.784 88.3049 327.75 88.1792 328.562 88.1792H328.646C332.803 88.1792 333.894 91.5166 335.854 92.8292C336.75 92.3265 337.884 92.0193 338.863 91.8936H338.947C339.367 91.8936 339.493 92.3125 339.493 92.8711C339.493 93.8905 339.073 95.3288 338.989 95.5382C338.317 96.0828 338.093 96.0409 338.093 96.2085L338.219 96.9207C338.219 97.6747 337.674 98.1914 337.114 98.1914C336.82 98.1914 336.568 98.0657 336.358 97.7306C332.369 101.668 327.498 108.846 327.498 114.976C327.498 115.479 327.498 115.995 327.582 116.456C328.646 121.483 331.781 123.522 336.19 123.522C339.073 123.522 342.544 122.628 346.324 121.148C362.084 114.934 382.673 98.4008 386.998 95.3986L387.124 95.3567C387.46 95.3567 387.88 95.9013 388.02 96.2085L388.062 96.3342C388.062 96.6693 387.348 97.3954 387.04 97.6049C383.135 100.272 362.882 115.66 346.576 122.377C341.831 124.36 337.422 125.589 333.824 125.589C328.142 125.589 324.461 122.503 324.461 114.473H324.447ZM330.297 97.3954C331.949 96.0409 332.537 95.8315 334.286 94.1418C333.782 93.2062 332.971 92.7873 332.005 92.7873C327.512 92.7873 319.212 101.417 317.938 106.318C319.968 105.606 327.764 99.4761 330.311 97.3954H330.297Z" fill="#333333"/>
<path d="M402.871 111.932C401.345 110.075 399.735 109.223 399.735 105.341V104.629C399.945 101.166 403.038 95.2034 403.808 92.0754C395.2 96.3484 387.586 101.92 382.155 109.921C381.693 110.899 381.441 112.84 380.672 112.84C380.546 112.84 380.42 112.798 380.252 112.714C379.538 112.211 378.894 111.234 378.894 110.34C378.894 106.319 384.535 96.2646 388.51 92.243C389.364 91.3912 390.161 91.0979 390.847 91.0979C392.499 91.0979 393.689 92.7457 393.689 93.2484L393.647 93.3322C392.499 95.1894 389.28 99.211 388.776 100.566C389.196 100.147 389.714 99.8952 390.217 99.4205C391.659 98.1497 399.875 92.229 403.262 90.9304C403.472 90.8466 403.724 90.8047 403.934 90.8047C405.712 90.8047 407.839 93.0808 407.839 95.4966C407.839 95.8736 407.797 96.2088 407.713 96.5579C406.734 100.105 403.472 105.397 403.472 108.86C403.472 110.257 404.018 111.36 405.376 111.904C406.566 112.365 407.923 112.575 409.407 112.575C419.443 112.575 435.091 102.423 442.327 97.0606C442.453 96.9768 445.253 95.3709 445.799 95.3709C445.883 95.3709 445.925 95.4128 445.925 95.4547C445.925 95.4966 445.799 95.6642 445.589 95.8736C439.696 101.669 419.485 114.139 408.595 114.139C406.09 114.139 404.102 113.51 402.871 111.946V111.932Z" fill="#333333"/>
<path d="M478.509 185.746C477.571 184.015 476.773 182.115 476.003 180.119C474.982 175.594 474.478 170.651 474.478 165.498C474.478 159.787 475.107 153.824 476.381 148.001C481.98 122.643 496.131 94.7846 511.891 69.9147C505.788 75.3747 500.54 80.0247 497.236 83.1945C480.622 99.1693 459.991 119.04 445.63 119.808H445.042C439.57 119.808 432.417 115.912 431.857 110.843C430.332 110.759 429.66 110.843 429.268 109.866L429.142 109.363C429.142 109.195 429.226 109.154 429.352 109.154C429.604 109.154 429.982 109.279 430.458 109.279C430.752 109.279 431.088 109.195 431.48 109.07C432.151 108.777 432.333 108.4 432.627 107.673C434.867 101.753 446.904 90.763 453.007 90.386H453.343C455.204 90.386 457.835 91.2797 458.465 92.4107C458.591 92.6621 458.675 92.9553 458.675 93.2625C458.675 98.4572 439.57 108.902 437.694 108.944C437.19 110.047 436.98 111.053 436.98 111.946C436.98 115.703 441.011 117.406 444.651 117.49H445.07C458.423 117.49 479.306 98.5968 496.592 82.0634C500.064 78.726 507.608 71.5765 516.384 63.0026L519.393 58.5201C514.69 58.185 510.029 57.9336 505.326 57.7661C503.129 57.6823 500.917 57.6404 498.72 57.6404C489.482 57.6404 480.454 58.3107 471.776 59.749C467.871 60.7683 464.064 61.9832 460.719 63.5053C459.067 64.4409 457.877 65.2368 457.458 66.0886C457.164 66.717 456.646 67.4431 456.31 68.0715C455.456 68.4904 454.868 68.6161 454.448 68.6161C453.944 68.6161 453.776 68.3647 453.776 68.1134V67.9877C453.902 67.4012 454.63 66.717 455.05 66.0467C456.072 64.3152 457.598 62.8769 460.383 61.0616C465.674 58.2688 475.849 56.0345 483.478 55.1827C487.383 55.0152 491.526 54.8895 495.767 54.8895C499.322 54.8895 502.975 54.9733 506.614 55.1408C511.443 55.3503 516.314 55.7273 521.059 56.1183C525.258 49.9881 529.485 44.1512 533.642 38.6633C538.009 32.9102 542.586 27.3385 547.163 22.3813C550.802 18.625 554.665 14.3101 558.178 11.3498C559.032 10.7633 559.872 10.4561 560.642 10.4561C561.356 10.4561 561.999 10.7074 562.377 11.3079L562.335 11.3498C562.419 11.4335 562.503 11.5173 562.545 11.6849C562.713 12.1457 562.797 12.7043 562.797 13.2489C562.797 21.9205 544.447 40.3111 526.658 56.621L530.297 56.998C537.841 57.7521 545.553 58.4782 553.181 59.2323C560.474 59.9026 568.354 60.7125 576.15 61.1314C579.621 61.299 583.051 61.4246 586.452 61.4246C590.609 61.4246 594.668 61.2571 598.489 60.9219C602.814 60.2098 606.579 59.2742 609.546 57.417C610.694 56.5652 611.282 55.6854 611.576 55.0431V54.9593C611.576 54.4985 610.904 54.4566 610.904 53.6886C610.904 53.4791 610.946 53.2278 611.072 52.9345C611.366 51.9989 612.64 50.8679 613.312 50.8679C613.521 50.8679 613.689 50.9935 613.731 51.2449L613.773 51.8733C613.773 52.767 613.563 54.0237 613.06 55.4201C612.514 56.9422 611.072 58.0872 609.672 59.1345C604.116 61.7179 594.08 63.1143 582.729 63.1143C580.951 63.1143 579.173 63.1143 577.354 63.0305C563.665 62.5278 549.43 60.9219 540.444 60.1539L524.642 58.8832C507.944 83.1945 492.226 111.681 483.925 137.347C481.168 145.935 479.39 154.76 478.285 164.311C478.243 165.708 478.201 167.02 478.201 168.291C478.201 174.338 478.789 179.281 480.23 182.87C480.23 182.87 482.218 187.561 485.017 189.754C485.605 190.215 485.871 190.564 485.871 190.773C485.871 190.899 485.745 190.983 485.577 190.983C484.597 190.983 481.504 189.419 478.537 185.746H478.509ZM457.486 93.081C457.486 92.9553 457.444 92.8715 457.36 92.7878C457.192 92.6621 456.94 92.5783 456.646 92.5783C452.923 92.6202 440.549 103.987 438.856 106.989C446.148 104.238 457.5 95.1477 457.5 93.081H457.486ZM561.23 12.6344L551.698 24.1687C551.236 24.6295 550.802 25.1881 550.256 25.7746C544.531 32.1142 540.08 37.616 534.832 44.626C548.814 30.2989 561.062 16.6421 561.23 12.6205V12.6344Z" fill="#333333"/>
</g>
<path d="M259.473 280.421C244.944 273.509 237.05 261.626 237.05 248.974C237.05 238.166 242.803 226.814 255.134 217.555C260.747 213.338 267.465 211.286 273.974 210.713C272.196 206.566 270.81 201.986 270.81 196.749C270.81 193.523 271.342 190.088 272.546 186.29C275.961 175.719 285.619 167.034 298.062 165.581C299.588 165.372 301.043 165.26 302.429 165.26H302.541C314.228 165.26 321.059 172.354 321.059 180.998C321.059 187.659 316.972 195.255 307.944 201.176H307.902C307.622 201.176 306.334 200.072 306.334 199.123C306.334 198.774 306.516 198.411 307.006 198.159C315.824 193.579 319.617 187.03 319.617 181.067C319.617 173.415 313.361 166.782 303.451 166.782C301.785 166.782 300.008 166.992 298.118 167.383C284.975 170.217 275.975 183.651 275.975 196.777C275.975 201.106 276.969 205.393 279.097 209.261C279.279 209.61 279.6 210.071 279.95 210.573C288.768 210.992 296.187 213.981 298.398 217.486C298.748 218.058 298.93 218.728 298.93 219.399C298.93 222.443 295.487 225.99 291.26 225.99C290.588 225.99 289.916 225.92 289.202 225.71C282.736 223.909 277.683 218.547 275.275 213.548C275.024 213.087 274.814 212.584 274.604 212.123C266.471 212.626 258.969 215.991 253.175 221.13C244.958 228.433 241.417 236.979 241.417 245.316C241.417 257.73 249.339 269.669 261.811 276.414C266.821 279.151 272.966 280.533 279.125 280.533C288.544 280.533 297.992 277.307 303.647 270.605C306.992 266.639 308.728 261.668 308.728 257.129C308.728 250.427 304.921 244.757 296.719 244.757C294.661 244.757 292.282 245.106 289.608 245.93C286.655 246.852 283.534 248.374 280.622 250.65C280.44 250.762 280.272 250.832 280.048 250.832C279.377 250.832 278.621 250.329 278.621 249.728C278.621 249.337 278.901 248.919 279.656 248.528C291.596 242.355 302.933 240.582 316.552 240.442C351.88 239.982 366.058 219.594 366.058 201.692C366.058 189.851 359.844 179.14 349.458 176.026C347.499 175.426 345.483 175.147 343.412 175.147C340.92 175.147 338.401 175.608 336.021 176.487C334.314 177.13 332.648 177.981 331.081 179.071C330.941 179.182 330.829 179.21 330.731 179.21C330.059 179.21 329.849 177.549 329.849 176.585C329.849 176.236 329.891 175.985 329.919 175.943C330.703 175.594 331.486 175.231 332.27 174.951C335.434 173.778 338.737 173.178 341.97 173.178C344.853 173.178 347.653 173.639 350.326 174.602C361.062 178.428 367.276 189.46 367.276 201.511C367.276 220.125 352.426 241.182 316.566 241.643C309.819 241.713 302.961 241.825 295.851 243.626H296.383C305.522 243.626 309.987 249.756 309.987 257.101C309.987 261.919 308.028 267.281 304.193 271.75C297.362 279.625 285.675 283.563 274.8 283.563C269.215 283.563 263.854 282.53 259.487 280.449L259.473 280.421ZM298.174 219.901C298.174 219.371 298.034 218.798 297.67 218.198C295.935 215.112 289.216 212.668 281.182 212.137C284.023 215.573 288.852 220.25 293.093 221.954C293.807 222.233 294.479 222.373 295.123 222.373C296.858 222.373 298.174 221.382 298.174 219.887V219.901Z" fill="#333333"/>
<path d="M398.652 303.937C397.252 303.476 395.81 302.205 395.81 301.605C395.81 301.353 395.978 301.311 396.272 301.269C397.252 301.269 399.743 302.708 402.081 302.708C424.364 302.708 467.502 212.919 492.542 171.153C493.774 169.17 494.697 168.109 494.697 167.69C494.697 167.564 494.571 167.48 494.278 167.48C493.858 167.48 493.046 167.648 491.772 167.899C438.346 178.889 384.823 192.378 377.279 192.378C376.649 192.378 376.299 192.252 376.257 191.624C376.257 191.289 376.425 190.996 376.761 190.912C377.908 190.577 436.681 175.691 496.713 164.366C498.826 161.071 500.786 158.236 502.522 156.002C503.627 154.522 504.719 152.623 505.909 151.226C507.351 149.704 508.54 148.392 509.716 146.869C510.178 146.283 511.2 145.138 511.787 144.845C512.165 144.719 512.417 144.635 512.641 144.635C513.187 144.635 513.397 145.138 514.461 145.571C514.419 147.596 512.809 149.634 511.871 151.073C509.926 154.242 507.588 158.222 505.055 162.83C529.297 158.432 548.991 155.555 566.921 154.033C572.813 153.488 578.104 153.181 582.723 153.181C588.658 153.181 593.403 153.684 596.706 154.745C601.535 155.974 604.25 158.083 604.25 161.211C604.25 164.171 601.969 167.969 596.244 173.052C596.202 173.094 596.076 173.136 595.908 173.136C595.054 173.136 592.983 172.591 592.731 172.284C592.605 172.158 592.563 171.991 592.563 171.823C592.563 171.614 592.647 171.362 592.815 171.237C598.106 166.587 600.611 162.956 600.611 160.373C600.611 158.599 599.421 157.412 597.266 156.435C593.711 155.374 588.238 154.871 581.925 154.871C575.235 154.871 567.271 155.374 558.369 156.309C542.398 158.292 523.279 161.671 503.543 165.567C478.671 210.21 430.83 304.565 402.361 304.565C401.087 304.565 399.813 304.355 398.638 303.978L398.652 303.937Z" fill="#333333"/>
<path d="M489.883 238.571C489.505 238.278 486.454 236.672 486.202 235.862C486.034 235.401 485.95 234.801 485.95 234.214C485.95 231.547 487.518 228 488.456 226.394C488.959 225.459 489.519 224.789 490.023 224.02C491.507 221.744 492.655 221.228 494.222 219.957C494.726 219.58 494.978 218.979 495.622 218.979C496.378 218.979 498.253 219.189 498.715 219.357L500.997 220.711C503.46 222.526 508.499 222.945 512.866 222.945C518.969 222.945 522.524 222.401 526.303 221.842C528.164 221.591 529.984 221.256 531.636 220.655C531.93 220.529 532.349 220.32 532.615 220.32C532.825 220.32 532.993 220.446 532.993 220.781C532.951 222.47 521.39 223.783 518.885 224.034C516.771 224.244 514.224 224.453 511.676 224.453C508.415 224.453 505.154 224.118 502.48 223.015C502.186 225.808 501.417 227.246 500.409 229.02C499.737 230.207 493.928 238.822 490.793 238.822C490.457 238.822 490.163 238.739 489.897 238.529L489.883 238.571ZM501.109 223.057C501.109 221.535 500.003 220.474 497.078 220.474C497.456 220.851 497.582 221.186 497.582 221.493C497.582 222.554 496.098 223.476 495.384 224.495C493.648 226.953 490.597 231.98 490.555 235.778C493.019 235.024 501.109 227.232 501.109 223.057Z" fill="#333333"/>
<path d="M539.627 318.054C531.621 313.655 528.948 302.414 528.948 290.07C528.948 275.017 532.937 258.274 535.946 250.203C538.829 242.425 542.385 234.898 546.458 227.539C540.691 232.608 532.391 238.529 530.823 239.716C530.012 240.344 527.478 242.299 526.372 242.718C525.743 242.969 525.309 243.095 524.973 243.095C524.385 243.095 524.035 242.802 523.573 242.201C522.341 241.391 521.795 239.967 521.795 238.18C521.795 231.156 530.263 218.644 537.388 217.038C538.018 216.913 538.83 216.829 539.767 216.829C541.839 216.829 544.386 217.122 545.87 217.332C549.005 217.792 549.047 218.002 550.993 219.705C553.064 216.326 555.276 212.989 557.515 209.637C569.468 192.308 607.904 141.786 626.323 130.168C630.004 127.836 633.448 126.747 636.275 126.747H636.359C640.936 126.747 643.987 129.498 643.987 134.106C643.987 136.522 643.133 139.384 641.314 142.652C629.613 163.542 571.988 209.232 555.598 222.889C549.201 232.901 543.14 243.598 538.606 254.546C534.966 263.301 531.439 277.209 531.439 290.14C531.439 300.836 533.861 310.848 540.635 316.727C541.181 317.02 541.531 317.579 541.531 317.956C541.531 318.249 541.363 318.501 540.985 318.501C540.649 318.501 540.229 318.375 539.627 318.04V318.054ZM536.366 232.231C539.081 230.039 546.5 223.685 548.865 222.512L549.453 222.261L549.999 221.325L549.915 220.99C549.103 220.697 547.969 220.571 546.696 220.571C544.414 220.613 541.825 220.99 540.677 221.591C535.722 224.09 528.976 234.102 527.884 238.417C529.242 237.998 534.742 233.6 536.352 232.245L536.366 232.231ZM638.025 142.526C639.55 139.817 640.95 135.81 640.95 133.017C640.95 131.076 640.278 129.68 638.528 129.68C637.339 129.721 635.645 130.35 633.28 131.956C625.651 137.108 614.846 148.992 613.866 150.095C601.283 164.715 588.658 178.931 576.243 193.802C570.56 201.077 564.374 209.442 558.397 218.532C573.947 205.518 627.723 160.749 638.011 142.526H638.025Z" fill="#333333"/>
<path d="M588.532 239.758C588.532 236.043 590.057 231.268 592.381 226.269C586.698 231.589 577.082 238.445 575.431 239.716C574.619 240.344 572.043 242.299 570.938 242.718C570.308 242.97 569.874 243.095 569.538 243.095C568.95 243.095 568.6 242.802 568.138 242.202C566.907 241.392 566.361 239.967 566.361 238.18C566.361 231.156 574.829 218.644 581.953 217.038C582.583 216.913 583.395 216.871 584.291 216.871C586.404 216.871 588.952 217.122 590.435 217.332C593.612 217.793 593.612 218.044 595.684 219.789C595.684 219.789 595.684 219.831 595.726 219.831C597.714 216.326 599.925 212.807 602.081 209.679C613.992 192.308 652.413 141.87 670.805 130.21C674.612 127.795 678.013 126.831 680.896 126.831C685.431 126.831 688.483 129.582 688.483 134.19C688.483 136.564 687.629 139.468 685.809 142.736C674.108 163.57 616.525 209.233 600.135 222.889C595.936 229.48 593.319 235.485 593.319 239.59C593.319 242.97 595.138 245.05 599.421 245.05C603.326 245.05 609.247 243.319 617.729 239.297C642.139 227.665 685.613 201.161 717.386 201.161C732.936 201.161 745.645 207.501 751.958 225.04L752 225.207C752 225.668 751.188 225.961 750.222 225.961C748.991 225.961 747.465 225.417 747.129 223.979C743.91 208.506 733.482 202.879 719.667 202.879C688.483 202.879 640.012 231.715 618.401 241.182C608.575 245.497 601.619 247.312 596.916 247.312C590.855 247.312 588.532 244.31 588.532 239.744V239.758ZM580.945 232.231C583.619 230.039 591.037 223.685 593.445 222.512C594.634 221.968 594.466 222.135 594.634 221.8L594.508 220.99C593.655 220.697 592.479 220.613 591.205 220.613C588.924 220.613 586.376 220.99 585.27 221.591C580.316 224.09 573.569 234.102 572.477 238.417C573.835 237.998 579.294 233.6 580.945 232.245V232.231ZM682.506 142.61C684.032 139.901 685.431 135.894 685.431 133.059C685.431 131.118 684.759 129.763 683.052 129.763C681.82 129.763 680.211 130.35 677.803 131.998C670.175 137.15 659.369 149.034 658.39 150.137C645.806 164.757 633.181 178.973 620.766 193.844C615.084 201.078 608.897 209.484 602.92 218.575C618.471 205.518 672.246 160.833 682.492 142.61H682.506Z" fill="#333333"/>
<defs>
<clipPath id="clip0_99_2">
<rect width="603.845" height="191.754" fill="white" transform="translate(0.757324 0.499512)"/>
</clipPath>
</defs>
</svg>
