<svg width="511" height="142" viewBox="0 0 511 142" fill="none" xmlns="http://www.w3.org/2000/svg">
<g clip-path="url(#clip0_2349_12272)">
<path d="M41.391 75.6438C41.391 75.1237 41.4107 74.5246 41.4697 73.853C42.2045 64.1284 48.9751 43.5929 51.1991 36.818C43.6544 45.4101 26.354 54.1997 25.2978 60.6784C25.2584 60.8364 25.1206 60.9352 24.9632 60.9352C24.1103 60.8562 23.7298 59.9607 23.7298 58.802C23.7298 49.8938 43.451 16.5458 45.0781 13.2341C46.6264 10.1066 47.3021 7.74957 47.3021 6.07723C47.3021 3.50289 45.7145 2.4692 43.1886 2.4692C37.986 2.4692 28.8864 6.8344 21.696 11.0811C12.2553 16.6841 1.09562 24.4993 1.09562 32.7885C1.09562 37.4105 4.55308 42.1773 13.7052 46.7993C14.5974 47.2404 14.9582 47.7738 14.9582 48.2346C14.9582 48.7943 14.4006 49.2288 13.6658 49.2288C13.3115 49.2288 12.9113 49.1301 12.4914 48.893C3.49682 43.7904 0 38.5298 0 33.4667C0 24.6178 10.6479 16.3417 21.0531 10.4622C28.9192 6.01798 39.1079 0.599342 45.1634 0.57959C47.348 0.57959 48.8767 1.3565 49.395 3.27245C49.8542 5.00404 50.0904 6.18258 50.0904 7.25577C50.0904 9.09271 49.395 10.607 47.8663 14.09C41.4107 26.8037 28.8602 42.8489 25.8423 57.6629C31.2023 49.749 44.4548 44.3896 51.2254 34.8428C51.8421 33.9671 52.5769 33.5457 53.1542 33.5457C53.7315 33.5457 54.1449 33.9671 54.1449 34.7835C54.1449 35.0403 54.1055 35.3234 54.0268 35.6394C53.9874 35.7382 43.8972 63.6807 43.2214 73.6884C43.1821 74.169 43.1821 74.5641 43.1821 74.9064C43.1821 76.1047 43.3592 76.5788 43.7003 76.5788C44.199 76.5788 45.0518 75.5451 46.1803 74.2283C57.9369 60.5928 88.68 8.78985 101.493 7.77591H101.532C101.808 7.77591 102.09 7.99318 102.09 8.15778C102.09 8.23679 102.011 8.29605 101.854 8.3158C89.7559 9.55359 58.7767 61.1985 47.4924 74.8669C45.5832 77.1779 43.8381 78.9556 42.7031 78.9556C41.8896 78.9556 41.391 78.0207 41.391 75.6438Z" fill="#1D1D1B"/>
<path d="M80.7349 53.0014C78.1697 53.0014 74.8369 51.1447 74.581 48.7547C73.8659 48.7152 73.551 48.7547 73.3673 48.3136C73.3083 48.1951 73.2886 48.1161 73.2886 48.0568C73.2886 47.9976 73.3279 47.9778 73.4067 47.9778C73.5051 47.9778 73.6822 48.0371 73.9053 48.0371C74.043 48.0371 74.2005 47.9976 74.3842 47.9383C74.7188 47.8 74.8041 47.6223 74.9222 47.2799C75.9719 44.4883 81.614 39.3067 84.4744 39.1289H84.6516C85.5241 39.1289 86.7575 39.5305 87.0331 40.0836C87.0921 40.2021 87.1315 40.3404 87.1315 40.4852C87.1315 42.9345 78.1762 47.8593 77.2971 47.8791C77.0609 48.3992 76.9625 48.8732 76.9625 49.2946C76.9625 51.0657 78.852 51.869 80.5774 51.9085H80.8727C87.2299 51.9085 97.0184 45.7327 101.886 42.1049C102.221 41.8679 102.464 41.7033 102.562 41.7033C102.601 41.7033 102.641 41.723 102.641 41.7625C102.641 41.881 102.523 42.118 102.26 42.5394C91.4746 50.4929 84.7434 52.8039 81.0104 53.0014H80.7349ZM86.5935 40.4062C86.5935 40.3469 86.5738 40.3074 86.5345 40.2679C86.4558 40.2087 86.3377 40.1692 86.1999 40.1692C84.4548 40.1889 78.6355 45.5483 77.8351 46.9639C81.2729 45.6668 86.5935 41.4004 86.5935 40.4062Z" fill="#1D1D1B"/>
<path d="M98.7114 69.6851C96.2905 69.4086 94.6766 66.8935 94.4207 64.2665C94.401 63.9307 94.3813 63.5686 94.3813 63.1933C94.3813 60.8823 94.8996 57.8142 95.8903 54.7592C97.0646 51.1709 98.6523 47.5826 99.7611 45.3309C99.6036 45.0148 99.5249 45.1531 99.4855 44.6132C100.837 43.5993 101.552 41.6043 102.562 39.6884C105.265 34.6055 108.638 28.9038 111.741 24.1435C113.191 21.9511 115.316 18.8632 117.54 15.8938C119.725 12.9836 121.969 10.2513 123.616 8.49994C125.282 6.74859 127.132 4.63512 128.897 3.35783C129.317 3.06155 130.603 2.48215 131.416 2.4624C131.554 2.4624 131.692 2.48215 131.797 2.52166C132.374 2.73893 132.787 3.14056 132.787 3.83846C132.787 3.99648 132.768 4.17424 132.728 4.3586C132.092 7.11071 128.654 11.5747 127.244 13.4248C125.118 16.2954 122.874 19.166 120.67 21.9181C119.436 23.5312 117.435 25.9871 115.428 28.4363C113.381 30.9251 111.354 33.4204 109.943 34.8952C108.67 36.2713 107.503 37.6078 106.171 39.1222C104.544 40.9788 104.544 41.1171 103.054 44.0865C100.489 49.3866 97.9503 54.9501 96.6579 60.2897C96.3233 61.9028 96.0805 63.3184 96.0805 64.4772C96.0805 66.6499 96.8744 67.9272 99.1772 67.9272L99.6955 67.9074C101.605 67.7494 103.75 66.7684 106.013 65.2343C108.296 63.7003 110.698 61.5868 113.125 59.2363C115.605 56.8463 118.131 54.2325 120.493 51.7239C122.835 49.2549 125.059 46.8781 126.929 44.8305C128.103 43.652 129.251 42.48 130.425 41.341L130.445 41.5385C130.445 41.7755 130.307 41.9401 130.025 42.3352L127.821 44.9292C127.283 45.5481 127.027 45.9037 126.371 46.6411C125.361 47.7143 124.363 48.7941 123.392 49.8673C122.795 50.6047 122.559 50.9009 121.962 51.5001C120.453 53.1132 118.964 54.746 117.494 56.4052C115.172 59.1178 111.715 62.6271 108.237 65.3923C105.082 67.9009 101.841 69.7378 99.2625 69.7378L98.7048 69.6983L98.7114 69.6851ZM110.271 33.1702C111.485 31.8337 112.436 30.4576 113.709 29.0815C115.041 27.6462 119.194 22.3066 120.342 20.8318C121.457 19.4162 122.389 18.1982 123.497 16.7036C126.141 13.2338 130.589 7.71644 131.659 3.80554C130.589 4.30592 128.024 6.91319 125.4 9.94183C122.697 13.0692 119.961 16.6575 118.669 18.4155C117.718 19.6927 115.034 23.5181 112.469 27.5014C109.884 31.5308 107.463 35.6326 106.748 37.2062C107.922 35.8499 109.071 34.4936 110.265 33.157L110.271 33.1702Z" fill="#1D1D1B"/>
<path d="M126.279 48.9324C126.279 48.5769 126.299 48.195 126.358 47.7736C126.496 46.5951 126.653 45.5614 127.171 44.6067C128.444 42.2562 132 38.6284 134.716 38.6284H134.775C136.264 38.6482 138.646 39.7675 138.646 41.6768C138.646 41.7953 138.646 41.9138 138.626 42.0324C138.449 43.1055 137.432 44.8437 136.382 45.7984C135.805 46.3185 135.352 46.4963 135.011 46.4963C134.198 46.4963 133.942 45.4824 133.942 44.903C133.942 44.7252 133.981 44.5869 134.021 44.5474C135.051 43.494 136.901 42.355 136.901 40.7419C136.901 40.5839 136.881 40.4061 136.842 40.2217C136.724 40.202 136.586 40.1822 136.441 40.1822C134.375 40.1822 131.199 42.8356 130.124 43.9088C127.919 46.1605 126.988 47.958 126.988 49.2484C126.988 51.0393 128.713 51.9413 131.239 51.9413C133.443 51.9413 136.245 51.2829 139.066 49.9068C144.406 47.3522 151.039 43.968 153.801 42.1114C154.037 41.9533 154.713 41.69 154.975 41.69C155.034 41.69 155.074 41.69 155.074 41.7295C155.074 41.7887 154.936 41.927 154.575 42.1904L153.184 43.066C151.439 44.0997 145.279 48.1884 139.381 50.8022C137.813 51.5002 133.876 53.1132 130.721 53.1132C128.26 53.1132 126.272 52.1388 126.272 48.9258L126.279 48.9324Z" fill="#1D1D1B"/>
<path d="M173.784 51.8818C173.784 49.1297 177.183 41.6174 178.967 38.3056L180.358 36.1724C168.621 40.8141 162.067 41.4725 159.364 41.4725L158.59 41.4528C158.866 41.8939 158.971 42.1704 158.971 42.1704C158.833 43.4675 158.492 44.1456 158 44.9818C157.704 45.5414 154.982 49.6038 153.512 49.6038C153.355 49.6038 153.197 49.5642 153.073 49.4655C152.915 49.347 151.485 48.5701 151.347 48.1882C151.268 47.9709 151.229 47.7076 151.229 47.431C151.229 46.1735 151.983 44.4814 152.403 43.7242C152.659 43.2831 152.902 42.9671 153.138 42.605C153.853 41.5318 154.391 41.3079 155.126 40.7088C155.362 40.5112 155.283 40.2676 155.684 40.2479L155.979 40.2281C156.674 40.2281 157.35 40.4652 157.986 40.7088C158.341 40.7483 158.643 40.8075 159.837 40.8075C162.795 40.8075 169.507 40.1689 180.929 35.5666C181.526 35.2704 182.418 34.9478 183.074 34.9478C183.593 34.9478 183.967 35.1453 183.967 35.6654C183.967 36.0473 183.789 36.5608 183.37 37.2982C181.998 39.6092 178.108 46.8846 176.658 49.1363C178.383 46.9043 186.788 38.8521 189.53 38.8521C190.147 38.9311 190.383 39.1088 190.383 39.8858C190.383 40.4652 190.147 41.2026 189.845 41.782C189.569 42.2626 187.837 44.3958 187.083 46.0286C189.806 44.1324 194.116 40.9063 196.917 39.5302C197.016 39.4907 197.114 39.471 197.212 39.471C197.829 39.471 198.525 40.0504 198.525 40.4849C198.525 40.5639 198.505 40.6429 198.446 40.7219C198.21 41.0577 197.849 41.3803 197.573 41.6964C196.104 43.5333 193.643 46.6212 193.643 48.8137C193.643 50.407 195.015 51.3222 198.19 51.3222C203.176 51.3222 209.369 46.8977 213.522 44.5077L218.187 41.5778C218.462 41.4593 218.666 41.4198 218.764 41.4198C218.843 41.4198 218.863 41.4396 218.863 41.4791C218.863 41.5778 218.744 41.7359 218.482 41.9795L215.385 44.0337C212.269 46.2459 203.071 51.9082 197.252 51.9082C194.49 51.9082 192.482 50.6309 192.285 47.1874C192.285 45.4558 193.519 43 194.91 41.3079C193.978 41.9466 187.68 46.9504 186.506 46.9504C186.446 46.9504 186.407 46.9504 186.368 46.9109C185.928 46.45 185.751 45.8114 185.751 45.1595C185.751 44.4221 185.968 43.6847 186.309 43.1053C186.965 42.0058 186.768 42.2692 187.444 41.2486C187.424 41.1499 187.345 41.0906 187.207 41.0906C185.915 41.0906 179.682 45.5743 175.208 52.1913C174.893 52.4875 174.67 52.9089 174.355 52.9089C174.099 52.9089 173.798 52.5929 173.798 51.8752L173.784 51.8818ZM158.216 42.2165C158.216 41.4593 157.717 40.959 156.451 40.959C156.628 41.117 156.707 41.2947 156.707 41.4396C156.707 41.9202 155.992 42.3548 155.657 42.8354C154.883 43.9349 153.453 46.4039 153.394 48.1553C154.824 47.7141 158.223 44.1522 158.223 42.2165H158.216Z" fill="#1D1D1B"/>
<path d="M218.692 53.0014C216.127 53.0014 212.794 51.1447 212.538 48.7547C211.823 48.7152 211.508 48.7547 211.324 48.3136C211.265 48.1951 211.246 48.1161 211.246 48.0568C211.246 47.9976 211.285 47.9778 211.364 47.9778C211.462 47.9778 211.639 48.0371 211.862 48.0371C212 48.0371 212.158 47.9976 212.341 47.9383C212.676 47.8 212.761 47.6223 212.879 47.2799C213.929 44.4883 219.571 39.3067 222.431 39.1289H222.609C223.481 39.1289 224.715 39.5305 224.99 40.0836C225.049 40.2021 225.089 40.3404 225.089 40.4852C225.089 42.9345 216.133 47.8593 215.254 47.8791C215.018 48.3992 214.92 48.8732 214.92 49.2946C214.92 51.0657 216.809 51.869 218.534 51.9085H218.83C225.187 51.9085 234.975 45.7327 239.843 42.1049C240.178 41.8679 240.421 41.7033 240.519 41.7033C240.558 41.7033 240.598 41.723 240.598 41.7625C240.598 41.881 240.48 42.118 240.217 42.5394C229.432 50.4929 222.7 52.8039 218.967 53.0014H218.692ZM224.551 40.4062C224.551 40.3469 224.531 40.3074 224.492 40.2679C224.413 40.2087 224.295 40.1692 224.157 40.1692C222.412 40.1889 216.593 45.5483 215.792 46.9639C219.23 45.6668 224.551 41.4004 224.551 40.4062Z" fill="#1D1D1B"/>
<path d="M253.128 77.6385C253.128 74.4519 254.224 70.0867 255.831 65.682C257.163 62.0542 259.086 57.7878 261.356 53.3633C259.768 52.4876 258.495 51.4079 258.495 50.2161C258.495 49.4787 259.013 48.6623 260.26 47.8459C261.415 47.0887 263.179 46.4303 265.423 45.851C269.871 38.016 274.897 30.3851 279.089 25.2035C270.35 29.786 257.996 37.5814 247.447 37.5814L246.233 37.5419C240.532 37.2061 238.19 33.5125 238.19 31.6032C238.19 31.2213 238.269 30.925 238.426 30.7275C238.721 30.3456 239.003 30.2074 239.279 30.2074C240.25 30.2074 240.945 32.3406 241.326 33.078C242.658 35.6326 245.197 36.6465 248.398 36.6465C258.626 36.6465 275.487 26.3228 280.237 23.8274C288.005 14.1029 294.598 8.49988 299.105 5.82678C301.034 4.66799 302.602 4.27295 303.75 4.27295C304.721 4.27295 305.397 4.56923 305.718 4.97085C305.935 5.22763 306.053 5.55025 306.053 5.92554C306.053 6.86046 305.318 8.15751 303.888 9.79035C301.028 13.0363 294.769 17.0459 285.932 21.6284C281.005 27.7054 276.812 33.9273 272.568 40.2875C271.872 41.387 270.921 43.0001 269.766 44.9292C272.148 44.4881 274.811 44.1325 277.691 43.8297C280.847 39.9846 284.167 36.1527 287.506 32.571C294.257 25.3549 301.172 19.1001 307.286 15.5514C310.482 13.6749 313.342 12.7795 315.605 12.7795C319.043 12.7795 321.149 14.8534 321.149 18.7973C321.149 21.5099 320.139 25.1179 317.895 29.5226C315.533 34.1446 312.273 38.3123 308.421 41.9993C315.809 41.8018 321.845 41.7623 324.547 41.7425H325.643C325.82 41.7425 325.978 41.8808 325.978 42.0783C325.978 42.2561 325.84 42.4141 325.643 42.4141C322.146 42.4141 316.688 42.4339 307.667 42.6906C297.655 51.9412 289.73 57.103 278.59 57.103C275.671 57.103 272.495 56.7475 269.018 56.0035C262.405 64.8721 257.36 72.6676 255.431 76.3744C255.431 76.4929 255.313 76.5917 255.254 76.6904C254.998 77.2106 254.815 77.6254 254.696 77.948C254.736 77.948 254.775 77.948 254.795 77.9875C255.07 78.4089 255.195 78.5274 255.234 78.5274C255.313 78.5274 255.195 78.1718 255.392 78.1718C255.53 78.1718 255.812 78.3101 256.343 78.8302C256.284 80.4828 255.923 81.4046 254.473 81.9379C253.542 81.1017 253.122 79.5874 253.122 77.632L253.128 77.6385ZM268.303 55.8718C267.208 55.615 266.059 55.3319 264.314 54.6735C260.365 62.0279 256.468 70.0998 255.615 74.6428C257.937 70.5739 262.53 63.6409 268.303 55.8652V55.8718ZM264.964 46.6608C263.094 47.1809 261.624 47.7801 260.634 48.4121C259.643 49.0705 259.243 49.6697 259.243 50.2491C259.243 51.184 260.339 52.0202 261.684 52.6983C262.714 50.7034 263.809 48.6689 264.964 46.6608ZM269.852 53.7781C271.859 51.1247 273.965 48.4187 276.169 45.7061C276.648 45.1267 277.003 44.8107 277.003 44.6922C277.003 44.6329 276.924 44.6132 276.786 44.6132C276.648 44.6132 276.432 44.6329 276.11 44.6724C273.65 44.9687 271.38 45.3111 269.34 45.6864C267.949 48.0763 266.342 50.9075 264.734 53.8769C265.646 54.1731 266.44 54.3772 266.88 54.5155C267.851 54.7723 268.29 55.0159 268.605 55.0159C268.959 55.0159 269.163 54.6999 269.858 53.7781H269.852ZM303.396 42.8355C295.471 43.112 286.653 43.5729 278.964 44.3498C277.035 44.5473 270.98 53.3962 269.471 55.4109C271.118 55.7467 272.81 55.9113 274.477 55.9113C284.941 55.9113 295.471 49.6697 303.396 42.8355ZM304.21 42.1178C310.547 36.4951 315.651 30.0559 317.934 24.5583C319.05 21.9049 319.502 19.9165 319.502 18.422C319.502 15.6699 317.895 14.7152 315.75 14.7152C313.289 14.7152 310.108 15.9727 307.805 17.2698C301.73 20.7 294.539 26.4808 287.742 33.5915C284.685 36.7979 281.648 40.248 278.728 43.7177C286.752 42.8816 296.028 42.4009 304.21 42.1244V42.1178ZM290.865 18.0599C300.122 12.7005 304.013 8.55255 304.013 7.216C304.013 6.91972 303.816 6.75512 303.455 6.75512H303.435C301.605 6.75512 295.53 10.5212 287.132 20.1865L290.865 18.0533V18.0599Z" fill="#1D1D1B"/>
<path d="M321.294 55.9507C321.274 55.5951 321.274 55.233 321.274 54.8972C321.274 51.8291 321.93 48.7609 322.822 46.1471C326.752 34.8423 333.227 25.5391 340.779 16.4466C342.806 14.0171 344.951 11.581 346.755 9.57291C348.343 7.90057 349.97 6.2019 351.623 4.50981C354.759 1.46141 357.285 0.0260997 358.735 0.00634766H358.755C359.647 0.00634766 360.146 0.546236 360.146 1.57993C360.146 2.83747 359.391 4.84559 357.744 7.49895C355.579 10.9687 352.306 14.5373 350.672 16.3676C349.203 18.0597 347.195 20.3114 345.187 22.4842C343.219 24.6569 341.258 26.7901 339.867 28.2452C339.407 28.706 339.112 28.9628 338.712 29.4039C336.508 31.8334 334.185 34.1708 332.001 36.2579C330.295 37.871 328.602 39.4841 326.955 41.1037L326.936 41.163C325.925 43.4147 325.027 45.7257 324.311 47.9182C326.955 44.4089 333.306 39.1088 336.764 37.6142C337 37.5154 337.242 37.4562 337.459 37.4562C338.371 37.4562 338.968 38.3121 338.968 39.4906C338.968 40.1095 338.81 40.8469 338.391 41.5844C337.498 43.1974 336.226 45.0936 336.226 46.6672C336.226 47.3256 336.442 47.905 337 48.3988C337.295 48.6753 337.676 48.8794 338.135 48.9979C338.673 49.156 339.125 49.235 339.624 49.235C340.438 49.235 341.349 49.0374 342.839 48.7148C346.729 47.8787 351.263 46.2853 355.015 44.771C358.729 43.2764 361.825 41.8411 362.901 41.321H362.94C363.039 41.321 363.321 41.321 363.321 41.4395C363.321 41.5185 363.144 41.6765 362.527 41.9596H362.507C361.556 42.4205 358.637 43.7702 355.022 45.2516C351.368 46.7462 346.86 48.3593 342.786 49.2811C340.779 49.7222 339.171 49.9197 337.879 49.9197C336.586 49.9197 335.655 49.7222 334.979 49.3798C333.844 48.8004 333.431 47.8457 333.431 46.7462C333.431 44.0929 335.793 40.5441 336.527 38.773C334.244 38.931 324.633 47.2466 323.655 50.1765C323.36 51.0522 323.157 51.9871 323.039 52.6257C322.862 53.4026 322.461 55.8519 322.461 57.0699C322.461 57.2675 322.481 57.4518 322.501 57.5703C322.599 58.0707 322.901 58.209 322.901 58.446C322.901 58.4855 322.901 58.5448 322.862 58.604C322.803 58.7225 322.724 58.762 322.625 58.762C322.186 58.762 321.392 57.6625 321.294 55.9507ZM332.315 34.7238C334.979 32.0507 337.82 29.1998 338.673 28.2649C340.162 26.6518 341.992 24.7161 343.993 22.5434C345.994 20.3707 348.186 18.0004 350.331 15.5249C352.24 13.3324 354.996 10.1457 356.964 6.91297C358.748 3.96334 359.509 2.23174 359.509 1.38899C359.509 1.00712 359.332 0.829349 359.03 0.829349C357.935 0.829349 355.061 3.17984 351.978 6.47184C349.517 9.08569 347.169 11.8707 346.139 13.0888C339.84 20.4036 332.158 30.3125 327.907 39.0627C329.022 38.0092 330.629 36.3896 332.315 34.7172V34.7238Z" fill="#1D1D1B"/>
<path d="M365.545 50.4861V50.3281C365.584 48.1158 366.956 45.9036 366.956 45.6271C366.956 45.6271 366.949 45.6205 366.936 45.6073L366.857 45.6468C365.092 46.9439 363.623 47.8195 361.792 49.2549C361.478 49.4919 361.077 49.7552 360.697 49.7552C360.382 49.7552 360.08 49.5972 359.805 49.1363C359.247 48.2409 359.129 48.6557 358.991 47.8788C358.971 47.7603 358.952 47.622 358.952 47.4574C358.952 45.1464 361.694 39.5434 366.142 38.2859C366.641 38.1476 367.093 38.0884 367.474 38.0884H367.513C369.462 38.0884 369.974 39.662 370.892 40.2809C371.312 40.0438 371.843 39.899 372.303 39.8397H372.342C372.539 39.8397 372.598 40.0372 372.598 40.3006C372.598 40.7812 372.401 41.4594 372.362 41.5582C372.047 41.8149 371.942 41.7952 371.942 41.8742L372.001 42.21C372.001 42.5655 371.745 42.8091 371.482 42.8091C371.345 42.8091 371.227 42.7499 371.128 42.5918C369.258 44.4485 366.975 47.8327 366.975 50.7231C366.975 50.9601 366.975 51.2037 367.015 51.421C367.513 53.7912 368.983 54.7525 371.049 54.7525C372.401 54.7525 374.028 54.3311 375.799 53.6332C383.187 50.7033 392.837 42.9079 394.865 41.4923L394.924 41.4726C395.081 41.4726 395.278 41.7293 395.343 41.8742L395.363 41.9334C395.363 42.0915 395.029 42.4338 394.884 42.5326C393.054 43.7901 383.561 51.0457 375.917 54.2126C373.693 55.1475 371.627 55.7269 369.941 55.7269C367.277 55.7269 365.552 54.2719 365.552 50.4861H365.545ZM368.287 42.4338C369.062 41.7952 369.337 41.6964 370.157 40.8998C369.921 40.4586 369.541 40.2611 369.088 40.2611C366.982 40.2611 363.091 44.33 362.494 46.641C363.446 46.3052 367.1 43.4148 368.294 42.4338H368.287Z" fill="#1D1D1B"/>
<path d="M419.946 84.1107C419.506 83.2943 419.132 82.3989 418.771 81.4573C418.292 79.3241 418.056 76.9736 418.056 74.5441C418.056 71.8513 418.351 69.0597 418.948 66.2944C421.389 55.1147 427.353 42.8948 434.182 31.7744C423.219 41.9006 411.522 50.6705 405.44 50.6705C404.128 50.6705 403.059 50.2492 402.344 49.334C401.628 48.4385 400.874 48.0369 400.874 46.2263V45.8905C400.972 44.238 402.422 41.4266 402.763 39.9518C398.748 41.9665 395.179 44.5935 392.634 48.3661C392.417 48.827 392.299 49.7422 391.919 49.7422C391.584 49.7422 391.085 49.0443 391.085 48.5834C391.105 46.6675 393.729 41.927 395.612 40.0308C395.993 39.6291 396.367 39.4909 396.708 39.4909C397.482 39.4909 398.04 40.248 398.04 40.4851L398.02 40.5246C397.482 41.42 395.973 43.3162 395.737 43.9548C395.934 43.7573 396.176 43.6388 396.413 43.415C397.069 42.8158 400.94 40.0242 402.527 39.4119C402.626 39.3724 402.724 39.3526 402.842 39.3526C403.675 39.3526 404.673 40.4258 404.673 41.5648C404.673 41.7426 404.653 41.9006 404.613 42.0652C404.154 43.7376 402.626 46.2527 402.626 47.8855C402.626 48.5241 402.862 49.0443 403.498 49.3011C404.115 49.5381 404.791 49.6566 405.545 49.6566C412.657 49.6566 425.483 38.951 436.747 27.6923C437.541 26.4941 438.315 25.2826 439.109 24.1238C436.032 23.9065 432.457 23.7024 429.321 23.7024C425.01 23.7024 420.818 24.0185 416.81 24.6966C414.048 25.4143 410.63 26.5533 410.078 27.6858C409.941 27.982 409.724 28.3244 409.54 28.6207C409.14 28.8182 408.865 28.8775 408.668 28.8775C408.432 28.8775 408.353 28.759 408.353 28.6404C408.392 28.3244 408.707 28.061 408.95 27.666C409.429 26.8496 410.144 26.1714 411.45 25.2958C413.93 23.9987 418.699 22.9453 422.275 22.5437C424.105 22.4449 426.027 22.3856 427.996 22.3856C431.965 22.3856 435.822 22.6622 439.89 22.9848C443.761 17.283 448.091 11.4825 452.126 7.05807C453.831 5.28697 455.642 3.27226 457.289 1.8567C457.768 1.54067 458.102 1.47483 458.502 1.45508C458.817 1.45508 459.1 1.59334 459.257 1.8567L459.237 1.87645C459.316 1.95546 459.375 2.11348 459.375 2.33733C459.375 4.82609 452.224 13.7408 442.928 23.2679C451.588 24.0646 462.091 25.4999 470.554 25.4999C472.503 25.4999 474.386 25.4209 476.177 25.2628C478.204 24.9271 479.969 24.4859 481.36 23.6103C481.898 23.2086 482.173 22.7938 482.311 22.491V22.4515C482.311 22.2342 481.996 22.2145 481.996 21.8523C481.996 21.7536 482.016 21.6351 482.075 21.4968C482.213 21.0557 482.81 20.5224 483.125 20.5224C483.38 20.5224 483.321 20.7001 483.341 21.003C483.341 21.4244 483.243 22.0169 483.006 22.6556C482.751 23.3732 482.075 23.9329 481.419 24.4267C478.814 25.6447 474.11 26.3031 468.79 26.3031C467.956 26.3031 467.123 26.3031 466.27 26.2636C459.874 26.0068 453.202 25.2694 448.97 24.9073C446.628 24.7098 444.266 24.5057 441.898 24.3279L440.763 25.467C433.257 36.6663 426.224 49.6237 422.472 61.3037C421.179 65.3529 420.346 69.514 419.828 74.0174L419.788 75.828C419.788 78.6986 420.083 81.0491 420.739 82.7676C420.739 82.7676 421.671 84.96 422.983 86.0135C423.259 86.2307 423.383 86.3953 423.383 86.4743C423.383 86.5336 423.324 86.5731 423.246 86.5731C422.786 86.5731 421.336 85.8555 419.946 84.1239V84.1107ZM458.575 2.67312L454.245 7.93374C451.581 10.8636 448.944 14.0503 446.083 17.9217C452.775 10.5871 457.722 4.40471 458.575 2.67312Z" fill="#1D1D1B"/>
<path d="M457.125 51.8818C457.125 49.1297 460.523 41.6174 462.308 38.3056L463.698 36.1724C451.962 40.8141 445.407 41.4725 442.704 41.4725L441.93 41.4528C442.206 41.8939 442.311 42.1704 442.311 42.1704C442.173 43.4675 441.832 44.1456 441.34 44.9818C441.045 45.5414 438.322 49.6038 436.852 49.6038C436.695 49.6038 436.538 49.5642 436.413 49.4655C436.255 49.347 434.825 48.5701 434.687 48.1882C434.609 47.9709 434.569 47.7076 434.569 47.431C434.569 46.1735 435.324 44.4814 435.744 43.7242C436 43.2831 436.242 42.9671 436.478 42.605C437.194 41.5318 437.732 41.3079 438.466 40.7088C438.703 40.5112 438.624 40.2676 439.024 40.2479L439.319 40.2281C440.015 40.2281 440.69 40.4652 441.327 40.7088C441.681 40.7483 441.983 40.8075 443.177 40.8075C446.136 40.8075 452.847 40.1689 464.269 35.5666C464.866 35.2704 465.759 34.9478 466.415 34.9478C466.933 34.9478 467.307 35.1453 467.307 35.6654C467.307 36.0473 467.13 36.5608 466.71 37.2982C465.339 39.6092 461.448 46.8846 459.998 49.1363C461.724 46.9043 470.128 38.8521 472.87 38.8521C473.487 38.9311 473.723 39.1088 473.723 39.8858C473.723 40.4652 473.487 41.2026 473.185 41.782C472.91 42.2626 471.178 44.3958 470.423 46.0286C473.146 44.1324 477.456 40.9063 480.258 39.5302C480.356 39.4907 480.454 39.471 480.553 39.471C481.169 39.471 481.865 40.0504 481.865 40.4849C481.865 40.5639 481.845 40.6429 481.786 40.7219C481.55 41.0577 481.189 41.3803 480.914 41.6964C479.444 43.5333 476.984 46.6212 476.984 48.8137C476.984 50.407 478.355 51.3222 481.53 51.3222C486.516 51.3222 492.71 46.8977 496.862 44.5077L501.527 41.5778C501.803 41.4593 502.006 41.4198 502.104 41.4198C502.183 41.4198 502.203 41.4396 502.203 41.4791C502.203 41.5778 502.085 41.7359 501.822 41.9795L498.726 44.0337C495.609 46.2459 486.411 51.9082 480.592 51.9082C477.83 51.9082 475.823 50.6309 475.626 47.1874C475.626 45.4558 476.859 43 478.25 41.3079C477.318 41.9466 471.02 46.9504 469.846 46.9504C469.787 46.9504 469.747 46.9504 469.708 46.9109C469.268 46.45 469.091 45.8114 469.091 45.1595C469.091 44.4221 469.308 43.6847 469.649 43.1053C470.305 42.0058 470.108 42.2692 470.784 41.2486C470.764 41.1499 470.686 41.0906 470.548 41.0906C469.255 41.0906 463.023 45.5743 458.548 52.1913C458.234 52.4875 458.01 52.9089 457.696 52.9089C457.44 52.9089 457.138 52.5929 457.138 51.8752L457.125 51.8818ZM441.556 42.2165C441.556 41.4593 441.058 40.959 439.792 40.959C439.969 41.117 440.047 41.2947 440.047 41.4396C440.047 41.9202 439.332 42.3548 438.998 42.8354C438.224 43.9349 436.793 46.4039 436.734 48.1553C438.165 47.7141 441.563 44.1522 441.563 42.2165H441.556Z" fill="#1D1D1B"/>
<path d="M180.187 147.017C180.187 145.641 180.443 143.409 181.177 139.959C182.293 135.574 183.598 131.446 185.166 127.483C186.774 123.499 188.643 119.667 190.631 115.882C195.952 106.058 197.382 103.925 202.985 95.2342C203.818 93.9371 206.934 89.1176 207.971 88.1761C208.05 88.0971 208.168 88.0576 208.286 88.0576C208.804 88.0576 209.5 88.6963 209.677 89.3547C209.139 90.4739 201.338 102.253 200.603 103.425C198.018 107.573 195.138 112.096 192.658 116.777C188.604 124.428 186.262 129.353 184.254 135.397C186.222 130.63 188.604 125.988 191.143 121.623C192.134 119.951 207.964 93.3972 214.184 93.3972C215.319 93.3972 216.172 94.3322 216.172 95.8267C216.172 98.2957 213.928 101.706 211.881 104.261C216.808 103.161 222.345 101.752 227.253 99.6784L227.351 99.6586C227.489 99.6586 227.528 99.7376 227.568 99.8957C227.568 99.9747 227.509 100.054 227.43 100.093C222.306 102.266 216.487 103.701 211.422 104.814C210.392 106.071 209.434 107.066 208.962 107.546C207.315 109.219 204.415 111.892 201.988 112.471C201.811 112.511 201.653 112.53 201.509 112.53C200.295 112.53 199.783 111.312 199.521 110.101C196.483 114.269 193.662 118.449 191.792 121.643C189.07 126.265 181.223 141.059 181.223 147.156C181.223 147.491 181.263 147.794 181.302 148.071C181.223 148.591 180.987 148.986 180.725 148.986C180.449 148.986 180.167 148.466 180.167 147.011L180.187 147.017ZM204.356 109.344C205.885 108.145 207.256 106.954 208.686 105.4L207.335 105.696C202.014 106.796 199.987 108.784 199.987 109.923C199.987 110.443 200.407 110.779 201.122 110.779C201.896 110.779 203.031 110.358 204.356 109.344ZM209.224 104.82C211.507 102.266 214.131 98.5196 214.663 95.5107C214.722 95.2144 214.742 94.9511 214.742 94.7536C214.742 94.1742 214.545 93.9174 214.204 93.9174C212.576 93.9174 207.492 99.6389 202.368 106.315C204.573 105.716 206.501 105.459 209.217 104.82H209.224Z" fill="#1D1D1B"/>
<path d="M230.776 107.968V107.81C230.815 105.598 232.186 103.386 232.186 103.109C232.186 103.109 232.18 103.102 232.166 103.089L232.088 103.129C230.323 104.426 228.853 105.301 227.023 106.737C226.708 106.974 226.308 107.237 225.927 107.237C225.612 107.237 225.311 107.079 225.035 106.618C224.477 105.723 224.359 106.138 224.221 105.361C224.202 105.242 224.182 105.104 224.182 104.939C224.182 102.628 226.924 97.0254 231.373 95.7678C231.871 95.6296 232.324 95.5703 232.704 95.5703H232.744C234.692 95.5703 235.204 97.1439 236.122 97.7628C236.542 97.5258 237.074 97.3809 237.533 97.3217H237.572C237.769 97.3217 237.828 97.5192 237.828 97.7825C237.828 98.2632 237.631 98.9413 237.592 99.0401C237.277 99.2969 237.172 99.2771 237.172 99.3561L237.231 99.6919C237.231 100.047 236.975 100.291 236.713 100.291C236.575 100.291 236.457 100.232 236.359 100.074C234.489 101.93 232.206 105.315 232.206 108.205C232.206 108.442 232.206 108.686 232.245 108.903C232.744 111.273 234.213 112.234 236.28 112.234C237.631 112.234 239.258 111.813 241.03 111.115C248.417 108.185 258.068 100.39 260.095 98.9742L260.154 98.9545C260.312 98.9545 260.508 99.2113 260.574 99.3561L260.594 99.4154C260.594 99.5734 260.259 99.9158 260.115 100.015C258.284 101.272 248.791 108.528 241.148 111.695C238.924 112.629 236.857 113.209 235.171 113.209C232.508 113.209 230.782 111.754 230.782 107.968H230.776ZM233.518 99.9158C234.292 99.2771 234.568 99.1783 235.388 98.3817C235.152 97.9406 234.771 97.743 234.318 97.743C232.212 97.743 228.322 101.812 227.725 104.123C228.676 103.787 232.33 100.897 233.524 99.9158H233.518Z" fill="#1D1D1B"/>
<path d="M254.433 118.133C254.433 117.554 254.591 116.896 254.991 116.217C256.697 113.288 262.896 105.611 262.896 102.108C262.896 101.851 262.857 101.588 262.778 101.37C262.601 100.91 261.604 100.034 260.928 99.3953C260.311 100.073 260.056 100.468 259.596 100.468C259.38 100.468 259.216 100.33 259.216 100.087C259.216 99.7508 259.55 99.2899 259.852 98.9871C260.069 98.7896 260.252 98.8093 260.43 98.5855C260.252 98.1641 260.174 97.7493 260.174 97.3279C260.174 94.7141 263.014 91.9883 264.287 91.9883C264.825 92.008 265.462 92.6467 265.776 93.022C265.973 93.259 266.072 93.5224 266.072 93.7989C266.072 95.3527 263.133 97.3477 262.162 98.4801C262.142 98.5394 262.142 98.6184 262.142 98.6776C262.142 99.415 263.237 100.054 263.808 100.633C264.445 101.291 264.701 101.93 264.701 102.668C264.701 103.247 264.543 103.886 264.281 104.623C262.791 108.85 260.187 111.918 257.864 115.368C256.552 117.304 256.014 118.436 256.014 118.976C256.014 119.233 256.132 119.378 256.395 119.378C256.67 119.378 257.09 119.2 257.628 118.917C263.985 115.506 273.177 104.985 278.642 99.5401C278.681 99.5006 279.396 99.0002 279.652 99.0002C279.692 99.0002 279.731 99.02 279.731 99.0595C279.731 99.1583 279.652 99.336 279.416 99.6389C276.241 103.866 263.985 115.447 261.761 117.435C260.469 118.574 258.087 120.563 256.46 120.563C255.391 120.563 254.433 119.529 254.433 118.114V118.133Z" fill="#1D1D1B"/>
<path d="M269.785 141.553C269.365 140.736 268.972 139.841 268.631 138.899C268.132 136.766 267.896 134.416 267.896 131.96C267.896 123.888 270.815 115.776 273.833 108.975C273.715 108.718 273.617 108.876 273.617 108.297C275.067 106.644 276.038 104.11 277.31 101.581C280.709 95.1027 284.999 87.8076 289.028 81.5923C285.61 81.3553 282.552 81.1512 279.279 81.1512C274.949 81.1512 270.717 81.4672 266.649 82.1454C263.986 82.8433 260.515 83.956 259.938 85.1542C259.8 85.4505 259.557 85.7731 259.4 86.0694C259 86.2669 258.724 86.3262 258.527 86.3262C258.291 86.3262 258.212 86.2077 258.212 86.0892C258.252 85.7929 258.527 85.5295 258.809 85.1147C259.269 84.2983 260.003 83.6202 261.309 82.7642C263.769 81.4474 268.559 80.394 272.134 79.9924C273.964 79.9134 275.906 79.8541 277.875 79.8541C281.824 79.8541 285.76 80.0911 289.769 80.4533C293.699 74.6923 297.517 69.4119 301.965 64.5266C303.671 62.7555 305.482 60.721 307.128 59.3252C307.529 59.0487 307.922 58.9038 308.283 58.9038C308.841 58.9038 309.234 59.2396 309.234 59.898C309.234 60.2799 309.097 60.7934 308.755 61.4123C307.365 63.9867 304.865 67.4301 302.3 70.8406C298.862 75.4428 296.736 78.1159 294.696 80.9076L304.767 81.9017C309.471 82.3429 315.211 82.9354 320.296 82.9354C322.283 82.9354 324.186 82.8564 326.016 82.6984C328.024 82.3626 329.789 81.9215 331.199 81.0458C331.718 80.6442 331.993 80.2294 332.131 79.9265V79.887C332.131 79.6698 331.816 79.65 331.816 79.2879C331.816 79.2089 331.836 79.0904 331.895 78.9521C332.033 78.4912 332.649 77.9579 332.964 77.9579C333.22 77.9579 333.161 78.1357 333.181 78.4583C333.181 78.8797 333.082 79.4525 332.846 80.1109C332.571 80.8285 331.895 81.3684 331.239 81.882C328.654 83.0803 324.009 83.7584 318.747 83.7584C317.875 83.7584 317.002 83.7387 316.103 83.6992C309.687 83.4622 303.015 82.7247 298.803 82.3429C297.176 82.2244 295.569 82.0861 293.935 81.9412C292.269 84.193 290.202 86.9648 288.175 89.8157C285.373 93.7595 282.67 97.8285 280.866 100.337C280.053 101.496 279.259 102.648 278.465 103.807C278.17 104.465 277.77 105.262 277.251 106.361C273.177 115.329 270.756 121.985 269.667 131.453C269.648 132.032 269.648 132.612 269.648 133.165C269.648 136.055 269.903 138.445 270.579 140.183C270.579 140.183 271.53 142.396 272.843 143.429C273.118 143.647 273.243 143.811 273.243 143.91C273.243 143.969 273.184 144.009 273.085 144.009C272.626 144.009 271.196 143.271 269.785 141.54V141.553ZM281.64 97.9206C283.248 95.6887 284.599 93.5357 286.285 91.2247C287.499 89.6314 290.655 85.2069 293.056 81.8952L291.429 81.7569C287.335 87.7944 283.208 94.734 281.955 97.3215L281.496 98.1182L281.634 97.9206H281.64ZM295.582 78.3859C296.736 76.9308 306.525 64.013 306.525 63.1176C306.525 63.0978 306.505 63.0781 306.486 63.0781C306.085 63.0781 301.736 67.7988 297.825 72.8619C296.874 74.0799 294.67 77.0691 292.183 80.6771C292.721 80.7166 293.279 80.7759 293.81 80.8351L295.575 78.3859H295.582Z" fill="#1D1D1B"/>
<path d="M258.58 139.301C258.58 138.465 258.737 137.55 259.118 136.569C261.761 129.511 277.507 118.792 283.569 114.545C286.252 112.689 288.988 110.898 291.711 109.225C292.76 107.112 293.856 104.998 295.011 102.984C293.285 104.636 290.996 106.789 289.572 106.789C289.355 106.789 289.152 106.73 288.975 106.631C288.778 106.493 288.339 106.052 288.142 105.874C287.925 105.657 287.309 105.473 287.309 104.617L287.348 104.261C287.702 102.227 291.002 94.3126 293.587 94.3126C293.685 94.3126 293.784 94.3324 293.882 94.3522C294.597 94.5299 294.952 94.7077 294.952 95.0501C294.952 95.3068 294.794 95.6295 294.473 96.1035C293.043 98.2367 289.211 103.655 289.192 105.571C289.369 105.808 289.592 105.927 289.867 105.927C291.278 105.927 293.902 103.056 296.165 100.982C297.458 98.8293 298.829 96.7948 300.338 94.9052C300.574 94.6287 301.033 94.0888 301.25 93.8913C301.886 93.3514 302.483 93.1144 302.916 93.1144C303.395 93.1144 303.69 93.3909 303.69 93.911C303.69 94.3324 303.494 94.8855 303.015 95.5834C302.3 96.5775 301.348 97.6771 300.909 98.1577C300.45 98.6581 298.882 100.172 298.626 100.587C297.156 102.859 295.687 105.268 294.591 107.481C307.522 99.6259 332.603 87.6299 348.65 87.6299C357.35 87.6299 363.386 91.1589 363.386 100.765C363.386 101.983 363.287 103.273 363.09 104.689C363.09 104.689 362.533 105.091 361.896 105.091C361.542 105.091 361.162 104.952 360.847 104.551C361.463 102.26 361.739 100.245 361.739 98.5132C361.739 91.2379 356.773 88.5253 349.405 88.5253C333.338 88.5253 305.947 101.463 294.132 108.396C288.529 119.338 280.407 136.22 269.962 143.061C268.158 144.239 266.288 144.772 264.602 144.772C261.224 144.772 258.586 142.639 258.586 139.288L258.58 139.301ZM268.591 140.954C278.124 134.357 286.206 120.161 291.311 109.983C288.765 111.576 286.187 113.248 283.707 114.986C277.553 119.273 262.457 130.156 259.813 137.491C259.478 138.406 259.334 139.222 259.334 139.92C259.334 142.034 260.725 143.087 262.772 143.087C264.438 143.087 266.505 142.389 268.591 140.954Z" fill="#1D1D1B"/>
</g>
<defs>
<clipPath id="clip0_2349_12272">
<rect width="511" height="142" fill="white"/>
</clipPath>
</defs>
</svg>
