<svg width="568" height="124" viewBox="0 0 568 124" fill="none" xmlns="http://www.w3.org/2000/svg">
<g clip-path="url(#clip0_2349_12262)">
<path d="M42.389 99.3568C41.9188 97.7441 41.7011 96.0356 41.7011 94.2399C41.7011 92.4442 41.9362 90.4392 42.3629 88.4866C42.5196 87.6934 42.7286 86.9263 42.9463 86.1417C41.6314 84.3983 40.5169 82.3934 39.7332 80.0485C38.9147 77.7298 38.6012 75.6115 38.6012 73.5282C38.6012 71.8894 38.8102 70.3116 39.1323 68.6728C39.2891 67.8795 39.4981 67.0601 39.7158 66.2407C35.3968 67.958 27.6121 70.0675 20.1061 70.0675C10.3274 70.0675 0.966712 66.5022 0.0175781 53.8887V53.6271C0.0175781 52.1714 1.04508 51.936 1.68074 51.936C1.94197 51.936 2.15095 51.9883 2.15095 51.9883C3.28295 65.4998 11.4333 69.3527 20.3412 69.3527C27.5338 69.3527 35.2052 66.8422 40.1424 64.8896C47.2914 41.5628 80.215 9.73682 106.233 9.73682H106.39C108.602 9.76297 110.77 9.99833 112.851 10.5039C121.838 12.6134 127.428 18.3144 127.802 28.2867C127.881 29.0538 127.907 29.847 127.907 30.6316C127.907 34.6414 126.984 39.0784 125.321 43.6723C122.186 52.276 116.439 61.5945 109.264 70.3552C103.438 77.4508 96.6638 84.2066 89.5758 89.9598C103.438 87.0832 118.494 79.0373 142.301 58.8487C142.353 58.8225 142.405 58.7964 142.457 58.7964C142.692 58.7964 143.015 59.0579 143.145 59.2148L143.171 59.2932C143.171 59.3717 143.041 59.424 142.91 59.5809C126.749 74.304 107.374 87.9985 85.5441 93.0979C76.5056 99.8014 67.1449 104.788 58.6288 106.714C56.9134 107.106 54.989 107.376 53.0907 107.376C48.1361 107.376 43.2598 105.555 42.389 99.3568ZM50.1649 69.3789C52.5073 65.4998 54.8061 61.7253 57.2791 58.16C54.8845 59.3455 42.6502 64.4712 42.1191 65.9966C41.1699 68.821 40.6649 71.4361 40.6649 73.8856C40.6649 75.5505 40.9 77.1283 41.3789 78.6625C41.9362 80.3536 42.7983 81.8268 43.8867 83.1256C45.7327 77.9826 48.345 73.0749 50.1649 69.3789ZM87.0941 90.4131C94.5565 84.5029 101.697 77.4073 107.81 69.8844C115.168 60.9146 121.045 51.3346 124.258 42.4955C125.974 37.797 126.923 33.2816 126.923 29.2194L126.897 28.2693C126.078 19.9793 119.887 13.6508 112.007 12.6483C111.031 12.5176 110.03 12.4653 109.029 12.4391H108.924C86.2233 12.4391 52.0632 41.2315 42.9724 63.7128C46.4032 62.318 57.2356 58.1426 59.1599 55.5623C62.3731 51.291 65.9606 47.4119 70.149 44.0297C70.5931 43.742 75.5042 40.1506 79.4575 38.6687C80.5633 38.2503 81.408 38.0585 82.0959 38.0585C83.2018 38.0585 83.9419 38.5902 84.8388 39.6973C84.9694 39.8542 85.0217 40.0373 85.0217 40.2552C85.0217 41.31 83.463 43.0011 81.0161 44.666C77.6724 46.8802 72.5001 50.0793 66.1261 53.5574C61.6155 56.0418 54.8148 67.1996 52.2112 71.7412C49.6512 76.1782 47.4917 80.8156 46.0462 85.2003C51.2621 89.367 59.308 90.7443 65.2118 91.0582C68.451 91.2412 71.5422 91.372 74.5725 91.372C78.8131 91.372 82.958 91.1105 87.1202 90.4218L87.0941 90.4131ZM58.3588 105.825C66.0825 104.029 74.5464 99.6532 82.7925 93.682C77.864 94.6583 72.8048 95.19 67.6325 95.19C66.1522 95.19 64.7067 95.1377 63.2264 95.0593C56.2951 94.667 49.7034 92.819 45.0361 88.4343C44.2699 91.2325 43.8519 93.8738 43.8519 96.114L43.878 97.0119C44.3482 104.352 48.1448 106.54 52.9166 106.54C54.632 106.54 56.478 106.252 58.3501 105.825H58.3588ZM82.2178 41.5889C83.2975 40.5603 83.8287 40.0024 83.8287 39.8716C83.8287 39.8455 83.8026 39.8193 83.7765 39.8193C83.5675 39.8193 82.9318 40.1332 81.7998 40.7695C78.9786 42.3037 72.9703 45.4157 67.0404 51.5612C66.8053 51.8227 66.5092 52.1191 66.2218 52.4591C74.9469 47.656 80.0844 43.6984 82.2265 41.5889H82.2178Z" fill="#1D1D1B"/>
<path d="M138.713 66.7898C138.713 62.5969 141.029 57.079 143.223 54.5685C143.911 53.7491 144.591 53.4614 145.2 53.4614C146.68 53.4614 147.734 55.3356 147.734 55.7017V55.7279C146.759 57.7066 141.351 65.0202 140.568 69.0824C140.803 69.7972 141.282 70.0848 141.856 70.0848C144.338 70.0848 149.188 64.9941 150.32 63.8347C150.712 62.1698 152.401 57.3928 155.884 57.3928C156.25 57.3928 156.52 57.5236 156.52 57.8112C156.52 57.9158 156.468 58.0466 156.416 58.1773C155.78 59.6331 153.725 63.1112 151.722 64.6192C151.513 65.2033 151.383 65.7786 151.383 66.3365C151.383 68.1845 152.671 69.7972 155.919 70.1633C156.424 70.2679 156.921 70.294 157.426 70.294C162.511 70.294 167.866 65.7786 172.237 63.1461L177.427 59.7115C177.714 59.6069 177.897 59.5546 178.011 59.5546C178.124 59.5546 178.167 59.5808 178.167 59.6592C178.167 59.79 178.011 59.9992 177.749 60.2956L174.292 62.8061C170.975 65.3428 162.032 71.436 156.076 71.436C152.993 71.436 150.695 69.8233 150.355 65.2382C149.014 66.5806 144.425 71.4621 141.473 71.4621C139.653 71.4621 138.73 69.3788 138.73 66.7898H138.713Z" fill="#1D1D1B"/>
<path d="M170 84.6076C170 83.8405 170.209 82.9688 170.74 82.0709C173.004 78.1918 181.232 68.0278 181.232 63.3903C181.232 63.0503 181.18 62.7016 181.076 62.414C180.841 61.8038 179.517 60.6444 178.62 59.7989C177.802 60.6967 177.462 61.2197 176.852 61.2197C176.565 61.2197 176.347 61.0367 176.347 60.7142C176.347 60.2696 176.791 59.6594 177.192 59.2584C177.479 58.9969 177.723 59.0231 177.958 58.7267C177.723 58.1688 177.619 57.6196 177.619 57.0617C177.619 53.601 181.389 49.9922 183.078 49.9922C183.792 50.0183 184.637 50.8639 185.055 51.3608C185.316 51.6746 185.447 52.0233 185.447 52.3894C185.447 54.4466 181.546 57.0879 180.257 58.5872C180.231 58.6656 180.231 58.7703 180.231 58.8487C180.231 59.825 181.685 60.6706 182.443 61.4377C183.287 62.3094 183.627 63.1549 183.627 64.1312C183.627 64.8983 183.418 65.7439 183.07 66.7202C181.093 72.3165 177.636 76.3787 174.554 80.9464C172.812 83.5092 172.098 85.0086 172.098 85.7234C172.098 86.0633 172.255 86.2551 172.603 86.2551C172.969 86.2551 173.526 86.0197 174.24 85.6449C182.678 81.1295 194.877 67.1996 202.131 59.9906C202.183 59.9383 203.132 59.2758 203.472 59.2758C203.524 59.2758 203.576 59.302 203.576 59.3543C203.576 59.485 203.472 59.7204 203.158 60.1214C198.944 65.7177 182.678 81.051 179.726 83.6836C178.011 85.1916 174.85 87.8242 172.69 87.8242C171.271 87.8242 170 86.4556 170 84.5814V84.6076Z" fill="#1D1D1B"/>
<path d="M258.73 104.447C258.73 103.759 258.756 102.966 258.835 102.076C259.81 89.2013 268.796 62.0129 271.748 53.043C261.734 64.4188 238.772 76.056 237.37 84.6336C237.318 84.8428 237.135 84.9736 236.926 84.9736C235.794 84.869 235.289 83.6834 235.289 82.1492C235.289 70.3551 261.465 26.2032 263.624 21.8185C265.679 17.6779 266.576 14.5572 266.576 12.3431C266.576 8.93475 264.469 7.56617 261.116 7.56617C254.211 7.56617 242.134 13.3456 232.59 18.9681C220.042 26.3863 205.231 36.7247 205.231 47.7082C205.231 53.8275 209.819 60.1387 221.967 66.2581C223.151 66.8421 223.63 67.5482 223.63 68.1584C223.63 68.8993 222.89 69.4746 221.914 69.4746C221.444 69.4746 220.913 69.3439 220.356 69.0301C208.418 62.2744 203.776 55.3094 203.776 48.606C203.776 36.8903 217.909 25.9417 231.719 18.1487C242.16 12.2647 255.683 5.08182 263.72 5.05566C266.619 5.05566 268.648 6.08428 269.336 8.62094C269.946 10.9135 270.259 12.4739 270.259 13.8947C270.259 16.3268 269.336 18.3317 267.307 22.943C258.739 39.7757 242.081 61.0191 238.076 80.6325C245.19 70.1546 262.779 63.0589 271.766 50.4192C272.584 49.2598 273.559 48.7019 274.326 48.7019C275.092 48.7019 275.641 49.2598 275.641 50.3407C275.641 50.6807 275.588 51.0555 275.484 51.4739C275.432 51.6047 262.039 88.5998 261.142 101.85C261.09 102.486 261.09 103.009 261.09 103.462C261.09 105.049 261.325 105.677 261.778 105.677C262.44 105.677 263.572 104.308 265.07 102.565C280.674 84.5116 321.486 15.9258 338.484 14.5834H338.536C338.902 14.5834 339.276 14.8711 339.276 15.089C339.276 15.1936 339.172 15.272 338.963 15.2982C322.906 16.937 281.788 85.3135 266.811 103.41C264.277 106.47 261.961 108.823 260.454 108.823C259.375 108.823 258.713 107.586 258.713 104.439L258.73 104.447Z" fill="#1D1D1B"/>
<path d="M310.959 74.4698C307.554 74.4698 303.131 72.0116 302.791 68.8474C301.842 68.7951 301.424 68.8473 301.18 68.2633C301.102 68.1064 301.076 68.0018 301.076 67.9233C301.076 67.8449 301.128 67.8187 301.232 67.8187C301.363 67.8187 301.598 67.8972 301.894 67.8972C302.077 67.8972 302.286 67.8449 302.53 67.7664C302.974 67.5834 303.087 67.348 303.244 66.8947C304.637 63.1987 312.126 56.3384 315.922 56.103H316.157C317.315 56.103 318.952 56.6348 319.318 57.367C319.397 57.5239 319.449 57.707 319.449 57.8987C319.449 61.1415 307.563 67.6618 306.396 67.688C306.083 68.3766 305.952 69.0043 305.952 69.5622C305.952 71.907 308.46 72.9705 310.75 73.0228H311.142C319.579 73.0228 332.571 64.8462 339.032 60.0431C339.476 59.7293 339.799 59.5114 339.929 59.5114C339.981 59.5114 340.034 59.5375 340.034 59.5898C340.034 59.7468 339.877 60.0606 339.529 60.6185C325.213 71.1487 316.279 74.2083 311.325 74.4698H310.959ZM318.735 57.7941C318.735 57.7157 318.709 57.6634 318.656 57.6111C318.552 57.5326 318.395 57.4803 318.212 57.4803C315.896 57.5065 308.172 64.6021 307.11 66.4763C311.673 64.7591 318.735 59.1104 318.735 57.7941Z" fill="#1D1D1B"/>
<path d="M380.969 119.467C375.988 116.721 374.325 109.704 374.325 101.972C374.325 92.5751 376.78 82.1495 378.644 77.0849C380.464 72.2295 382.649 67.531 385.183 62.9371C381.622 66.1276 376.432 69.7975 375.483 70.5646C374.978 70.9307 373.376 72.1511 372.688 72.4387C372.322 72.5956 372.052 72.6741 371.817 72.6741C371.451 72.6741 371.233 72.4649 370.946 72.09C370.18 71.5845 369.84 70.7215 369.84 69.6057C369.84 67.2608 371.347 63.9309 373.454 61.185C367.628 65.221 360.062 68.0715 355.185 68.0715C352.233 68.0715 350.257 67.0167 350.257 64.5324C350.257 64.0006 350.361 63.3992 350.544 62.7105C346.957 65.4825 341.688 68.6207 340.739 69.257C340.234 69.5708 338.632 70.5994 337.944 70.8174C337.631 70.8958 337.387 70.9481 337.204 70.9481C336.76 70.9481 336.542 70.7128 336.203 70.2595C335.436 69.6754 335.097 68.7514 335.097 67.6444C335.097 63.1289 340.478 55.7979 345.215 55.5538C346.582 55.5538 348.881 56.0594 350.091 56.3732C351.807 56.8178 352.042 57.0096 352.913 57.8813C354.175 55.824 355.499 53.793 356.892 51.7619C364.328 40.9179 379.244 18.1141 390.712 10.8615C393.029 9.37961 395.197 8.72584 396.956 8.72584C399.803 8.72584 401.702 10.4431 401.702 13.3197C401.702 14.8016 401.17 16.6148 400.038 18.6546C392.733 31.6953 365.878 51.5091 355.673 60.0344C354.114 62.5187 353.435 64.2534 353.435 65.4215C353.435 66.8424 354.41 67.4003 355.969 67.4003C360.976 67.4003 371.947 61.5424 376.136 58.2997C376.319 58.1428 376.502 58.012 376.667 57.8551C376.719 57.8551 376.745 57.829 376.798 57.7767C378.034 56.8526 379.062 56.2686 381.012 56.2686C382.301 56.2686 383.912 56.4517 384.835 56.5824C386.759 56.8701 386.811 57.0008 388.022 58.0643C389.311 55.9548 390.66 53.8714 392.08 51.7793C399.49 40.9353 423.427 9.4232 434.886 2.14447C437.176 0.688719 439.319 0.0349402 441.104 0.00878906C443.977 0.00878906 445.875 1.72605 445.875 4.62882C445.875 6.11072 445.344 7.92387 444.212 9.96366C436.933 23.0044 401.083 51.5265 390.86 60.0518C386.907 66.3019 383.137 73.0053 380.289 79.8482C378.052 85.34 375.831 94.0221 375.831 102.094C375.831 108.745 377.337 114.995 381.552 118.665C381.918 118.848 382.135 119.197 382.135 119.432C382.135 119.615 382.031 119.772 381.77 119.772C381.587 119.772 381.326 119.694 380.951 119.485L380.969 119.467ZM344.196 65.0031C345.781 63.896 350.022 60.7317 351.737 59.9385C351.946 59.5724 352.077 59.276 352.373 58.8576C351.502 58.5438 350.187 58.3869 349.055 58.3869C348.132 58.413 347.34 58.4915 346.896 58.6745C343.813 59.86 339.616 65.6394 338.937 68.2546C339.755 68.0715 343.177 65.7179 344.205 65.0118L344.196 65.0031ZM398.001 18.5848C398.95 16.8937 399.821 14.3919 399.821 12.6224C399.821 11.4368 399.429 10.5651 398.366 10.5651C397.6 10.5651 396.547 10.9836 395.075 11.986C390.329 15.2026 383.581 22.6208 382.997 23.3095C375.143 32.4362 376.249 32.6018 368.525 41.9116C364.99 46.4009 361.141 51.6486 357.423 57.3234C367.123 49.1991 391.583 29.9867 397.992 18.5848H398.001ZM378.94 65.8748C380.603 64.5324 385.218 60.54 386.716 59.8077C387.325 59.5201 387.029 59.7031 387.404 59.0668L387.377 58.8576C386.872 58.6745 386.141 58.6222 385.375 58.6222C383.92 58.6222 382.318 58.8576 381.63 59.2324C378.548 60.7928 374.351 67.0429 373.672 69.7626C374.49 69.4749 377.912 66.7291 378.94 65.8835V65.8748ZM442.183 9.86777C443.133 8.17666 444.003 5.67487 444.003 3.90531C444.003 2.69364 443.585 1.84809 442.523 1.84809C441.757 1.84809 440.755 2.2142 439.258 3.24281C434.512 6.4594 427.763 13.8776 427.18 14.5663C419.326 23.7192 411.445 32.5931 403.748 41.9029C400.186 46.3922 396.364 51.6399 392.619 57.3147C402.294 49.1904 435.801 21.2435 442.175 9.86777H442.183Z" fill="#1D1D1B"/>
<path d="M401.98 67.7923C401.536 66.9206 401.031 66.5284 401.031 65.2295C401.031 63.5646 402.267 61.6643 403.086 60.5572C403.591 59.8686 405.062 58.2123 406.064 57.5498C406.168 57.4975 406.377 57.4452 406.647 57.4452C407.309 57.4452 408.232 57.7067 408.232 58.3692C408.232 58.6569 408.075 59.0056 407.675 59.4501C406.09 61.2197 402.981 64.8111 402.981 67.6616V67.7923C403.669 68.2631 404.618 68.4548 405.672 68.4548C409.86 68.4548 416.139 65.4475 417.958 64.5496C420.388 63.3379 423.601 61.6468 425.917 60.3567L427.894 59.3542C428.077 59.3019 428.286 59.2235 428.399 59.2235C428.451 59.2235 428.477 59.2496 428.477 59.2758C428.477 59.3281 428.399 59.4327 428.19 59.6419C426.797 60.932 420.971 63.861 419.909 64.4188C418.141 65.3952 410.287 69.4573 405.463 69.4573C403.852 69.4573 402.563 68.9866 401.98 67.7923ZM408.937 50.9597V50.8813C408.937 50.0619 410.392 49.3209 411.149 48.981C411.706 49.2163 411.915 49.4865 411.915 49.8004C411.915 50.0357 411.759 50.3321 411.576 50.6721C411.106 51.4392 410.548 51.7007 410.069 51.7007C409.434 51.7007 408.963 51.2823 408.937 50.9597Z" fill="#1D1D1B"/>
<path d="M437.194 69.5619C436.244 68.4026 435.243 67.8708 435.243 65.4475V65.0029C435.374 62.8411 437.298 59.1189 437.777 57.1663C432.422 59.8337 427.685 63.3118 424.306 68.3067C424.019 68.9169 423.862 70.1285 423.383 70.1285C423.305 70.1285 423.226 70.1024 423.122 70.0501C422.678 69.7363 422.277 69.1261 422.277 68.5682C422.277 66.0577 425.787 59.7814 428.259 57.2709C428.791 56.7392 429.287 56.5561 429.714 56.5561C430.741 56.5561 431.481 57.5847 431.481 57.8985L431.455 57.9508C430.741 59.1102 428.738 61.6207 428.425 62.4663C428.686 62.2048 429.008 62.0478 429.322 61.7515C430.219 60.9582 435.33 57.2622 437.437 56.4515C437.568 56.3992 437.725 56.373 437.855 56.373C438.961 56.373 440.285 57.7939 440.285 59.302C440.285 59.5373 440.259 59.7465 440.206 59.9645C439.597 62.1786 437.568 65.4824 437.568 67.6442C437.568 68.5159 437.908 69.2045 438.752 69.5445C439.492 69.8322 440.337 69.9629 441.26 69.9629C447.503 69.9629 457.239 63.6256 461.74 60.2783C461.819 60.226 463.56 59.2235 463.9 59.2235C463.952 59.2235 463.978 59.2497 463.978 59.2758C463.978 59.302 463.9 59.4066 463.769 59.5373C460.103 63.1549 447.53 70.9392 440.755 70.9392C439.196 70.9392 437.96 70.547 437.194 69.5707V69.5619Z" fill="#1D1D1B"/>
<path d="M418.063 117.489C418.063 114.9 419.247 111.709 421.964 108.196C430.454 97.2214 450.856 83.4921 467.888 73.389C469.203 71.018 470.474 68.6906 471.763 66.4764C473.635 63.1814 476.056 59.4854 477.745 56.2077C475.951 57.7419 473.975 59.9822 471.894 62.3533C471.789 63.5388 471.258 65.0991 470.709 67.1041C470.553 67.6358 470.37 67.8189 470.204 67.8189C470.074 67.8189 469.943 67.6619 469.943 67.4527L469.969 67.322C470.283 65.9273 470.5 64.7853 470.605 63.8352C466.599 68.4029 462.193 72.9358 458.954 72.9358C458.588 72.9358 458.266 72.8573 458.083 72.6742C456.925 71.541 456.446 70.2771 456.446 68.9521C456.446 66.1016 458.606 63.0419 460.826 60.7406C463.517 58.0209 465.964 56.9923 467.784 56.9923C469.604 56.9923 470.605 58.047 471.293 58.8403C471.798 59.3459 471.902 60.052 471.955 60.7406C473.984 58.6311 475.725 56.7569 476.622 55.7806L479.339 52.7471C479.731 52.3025 480.105 52.1369 480.418 52.1369C480.68 52.1369 480.95 52.2415 481.185 52.3461C481.524 52.503 481.873 52.7122 481.873 53.1393C481.873 53.3224 481.794 53.5316 481.664 53.828L476.396 63.5649C475.159 65.8575 473.836 68.2634 472.468 70.7129C488.787 61.3421 525.507 43.3501 548.39 43.3501C559.989 43.3762 568.026 47.9963 568.026 60.7668C568.026 62.3533 567.896 64.0618 567.634 65.936C567.634 65.9621 566.894 66.4677 566.05 66.4677C565.579 66.4677 565.074 66.3108 564.656 65.7529C565.449 62.7455 565.841 60.1304 565.841 57.8378C565.841 48.2316 559.17 44.6664 549.313 44.6664C525.777 44.6664 483.963 65.1166 471.545 72.3779C461.819 89.873 449.48 110.088 435.295 120.139C431.525 122.832 427.99 123.992 425.116 123.992C420.876 123.992 418.08 121.455 418.08 117.471L418.063 117.489ZM432.822 119.546C447.268 109.887 458.475 90.5442 466.93 75.1325C457.57 80.7811 447.103 87.162 438.622 93.7608C432.082 98.8254 426.84 104.134 423.357 108.667C420.614 112.285 419.43 115.397 419.43 117.741C419.43 120.801 421.381 122.597 424.515 122.597C426.779 122.597 429.653 121.647 432.822 119.537V119.546ZM470.753 61.961L470.779 61.22C470.779 60.5052 470.675 59.7992 470.065 59.7992C469.961 59.7992 469.83 59.8253 469.699 59.8776C466.538 60.9585 462.481 66.7379 460.661 70.1725C460.373 70.7042 460.243 71.0442 460.243 71.2272C460.243 71.358 460.295 71.4103 460.4 71.4103C461.349 71.4103 466.434 66.4241 470.762 61.961H470.753Z" fill="#1D1D1B"/>
</g>
<defs>
<clipPath id="clip0_2349_12262">
<rect width="568" height="124" fill="white"/>
</clipPath>
</defs>
</svg>
