<svg width="792" height="149" viewBox="0 0 792 149" fill="none" xmlns="http://www.w3.org/2000/svg">
<path d="M41.9502 105.33C38.2902 101.24 36.8002 96.4003 36.8002 91.2503C36.8002 78.5403 45.8202 64.0003 52.9702 54.5903C55.3602 51.4703 55.9702 50.7803 58.4202 47.9603C52.0002 49.0503 45.5202 49.6903 39.3502 49.6903C23.4902 49.6903 9.56016 45.3303 3.75016 32.5203C3.69016 32.4303 3.66016 32.3403 3.66016 32.2503C3.66016 32.1003 3.75016 31.9203 3.90016 31.8003C4.20016 31.5903 4.96016 31.4403 5.72016 31.4403C6.45016 31.4403 7.17016 31.5903 7.39016 31.9503C10.7502 44.7303 22.8302 48.4803 36.8502 48.4803C44.2102 48.4803 52.1102 47.4503 59.5902 46.1503C74.8002 29.3203 96.6502 16.6003 110.15 16.5703C115.63 16.5703 118.84 18.6303 118.84 21.6603C118.84 24.5703 115.81 28.4103 108.82 32.1003C99.1902 37.2503 82.7202 43.1203 64.8302 46.7503C59.5902 52.1103 53.5402 59.2803 48.7502 67.0603C44.0002 74.7803 40.7302 83.0103 39.9702 90.1003L39.9402 91.7303C39.9402 103.14 44.4802 107.41 51.3202 107.41C69.0002 107.41 102.21 78.8303 112.44 71.5703C112.56 71.4803 112.65 71.4503 112.77 71.4503C113.04 71.4503 113.25 71.6903 113.25 71.9603C113.25 72.1703 113.13 72.2603 112.95 72.4403C100.42 82.0703 70.2302 109.4 51.7702 109.4C47.8802 109.42 44.5202 108.21 41.9502 105.33ZM108.4 31.1903C114.67 27.7103 117.18 24.9503 117.18 23.0503C117.18 21.0203 114.36 19.9303 110.25 19.9303C109.71 19.9303 109.1 19.9603 108.49 19.9903C93.2302 21.0203 77.4902 35.3403 66.2902 45.4203C83.4502 41.7903 99.1102 36.1303 108.4 31.1903Z" fill="#1D1D1B"/>
<path d="M118.06 84.81V84.57C118.12 81.21 120.21 77.85 120.21 77.43C120.21 77.4 120.21 77.4 120.18 77.4L120.06 77.46C117.37 79.43 115.13 80.76 112.34 82.94C111.86 83.3 111.25 83.7 110.67 83.7C110.19 83.7 109.73 83.46 109.31 82.76C108.46 81.4 108.28 82.03 108.07 80.85C108.04 80.67 108.01 80.46 108.01 80.21C108.01 76.7 112.19 68.19 118.97 66.28C119.73 66.07 120.42 65.98 121 65.98H121.06C124.03 65.98 124.81 68.37 126.21 69.31C126.85 68.95 127.66 68.73 128.36 68.64H128.42C128.72 68.64 128.81 68.94 128.81 69.34C128.81 70.07 128.51 71.1 128.45 71.25C127.97 71.64 127.81 71.61 127.81 71.73L127.9 72.24C127.9 72.78 127.51 73.15 127.11 73.15C126.9 73.15 126.72 73.06 126.57 72.82C123.72 75.64 120.24 80.78 120.24 85.17C120.24 85.53 120.24 85.9 120.3 86.23C121.06 89.83 123.3 91.29 126.45 91.29C128.51 91.29 130.99 90.65 133.69 89.59C144.95 85.14 159.66 73.3 162.75 71.15L162.84 71.12C163.08 71.12 163.38 71.51 163.48 71.73L163.51 71.82C163.51 72.06 163 72.58 162.78 72.73C159.99 74.64 145.52 85.66 133.87 90.47C130.48 91.89 127.33 92.77 124.76 92.77C120.69 92.77 118.06 90.56 118.06 84.81ZM122.23 72.58C123.41 71.61 123.83 71.46 125.08 70.25C124.72 69.58 124.14 69.28 123.45 69.28C120.24 69.28 114.31 75.46 113.4 78.97C114.85 78.45 120.42 74.06 122.23 72.58Z" fill="#1D1D1B"/>
<path d="M154.11 100.25C154.11 99.37 154.35 98.37 154.96 97.34C157.56 92.89 167.01 81.23 167.01 75.91C167.01 75.52 166.95 75.12 166.83 74.79C166.56 74.09 165.04 72.76 164.01 71.79C163.07 72.82 162.68 73.42 161.98 73.42C161.65 73.42 161.4 73.21 161.4 72.84C161.4 72.33 161.91 71.63 162.37 71.17C162.7 70.87 162.98 70.9 163.25 70.56C162.98 69.92 162.86 69.29 162.86 68.65C162.86 64.68 167.19 60.54 169.13 60.54C169.95 60.57 170.92 61.54 171.4 62.11C171.7 62.47 171.85 62.87 171.85 63.29C171.85 65.65 167.37 68.68 165.89 70.4C165.86 70.49 165.86 70.61 165.86 70.7C165.86 71.82 167.53 72.79 168.4 73.67C169.37 74.67 169.76 75.64 169.76 76.76C169.76 77.64 169.52 78.61 169.12 79.73C166.85 86.15 162.88 90.81 159.34 96.05C157.34 98.99 156.52 100.71 156.52 101.53C156.52 101.92 156.7 102.14 157.1 102.14C157.52 102.14 158.16 101.87 158.98 101.44C168.67 96.26 182.68 80.28 191.01 72.01C191.07 71.95 192.16 71.19 192.55 71.19C192.61 71.19 192.67 71.22 192.67 71.28C192.67 71.43 192.55 71.7 192.19 72.16C187.35 78.58 168.67 96.17 165.28 99.19C163.31 100.92 159.68 103.94 157.2 103.94C155.57 103.97 154.11 102.4 154.11 100.25Z" fill="#1D1D1B"/>
<path d="M177.51 135.82C176.87 134.58 176.27 133.22 175.75 131.79C174.99 128.55 174.63 124.98 174.63 121.25C174.63 108.99 179.08 96.67 183.68 86.34C183.5 85.95 183.35 86.19 183.35 85.31C185.56 82.8 187.04 78.95 188.98 75.11C194.16 65.27 200.7 54.19 206.84 44.75C201.63 44.39 196.97 44.08 191.98 44.08C185.38 44.08 178.93 44.56 172.73 45.59C168.67 46.65 163.38 48.34 162.5 50.16C162.29 50.61 161.92 51.1 161.68 51.55C161.07 51.85 160.65 51.94 160.35 51.94C159.99 51.94 159.87 51.76 159.87 51.58C159.93 51.13 160.35 50.73 160.78 50.1C161.48 48.86 162.6 47.83 164.59 46.53C168.34 44.53 175.64 42.93 181.09 42.32C183.88 42.2 186.84 42.11 189.84 42.11C195.86 42.11 201.86 42.47 207.97 43.02C213.96 34.27 219.78 26.25 226.56 18.83C229.16 16.14 231.92 13.05 234.43 10.93C235.04 10.51 235.64 10.29 236.19 10.29C237.04 10.29 237.64 10.8 237.64 11.8C237.64 12.38 237.43 13.16 236.91 14.1C234.79 18.01 230.98 23.24 227.07 28.42C221.83 35.41 218.59 39.47 215.48 43.71L230.83 45.22C238 45.89 246.75 46.79 254.5 46.79C257.53 46.79 260.43 46.67 263.22 46.43C266.28 45.92 268.97 45.25 271.12 43.92C271.91 43.31 272.33 42.68 272.54 42.22V42.16C272.54 41.83 272.06 41.8 272.06 41.25C272.06 41.13 272.09 40.95 272.18 40.74C272.39 40.04 273.33 39.23 273.81 39.23C274.2 39.23 274.11 39.5 274.14 39.99C274.14 40.63 273.99 41.5 273.63 42.5C273.21 43.59 272.18 44.41 271.18 45.19C267.24 47.01 260.16 48.04 252.14 48.04C250.81 48.04 249.48 48.01 248.11 47.95C238.33 47.59 228.16 46.47 221.74 45.89C219.26 45.71 216.81 45.5 214.32 45.28C211.78 48.7 208.63 52.91 205.54 57.24C201.27 63.23 197.15 69.41 194.4 73.22C193.16 74.98 191.95 76.73 190.74 78.49C190.29 79.49 189.68 80.7 188.89 82.37C182.68 95.99 178.99 106.1 177.33 120.48C177.3 121.36 177.3 122.24 177.3 123.08C177.3 127.47 177.69 131.1 178.72 133.74C178.72 133.74 180.17 137.1 182.17 138.67C182.59 139 182.78 139.25 182.78 139.4C182.78 139.49 182.69 139.55 182.54 139.55C181.84 139.57 179.66 138.45 177.51 135.82ZM195.59 69.55C198.04 66.16 200.1 62.89 202.67 59.38C204.52 56.96 209.33 50.24 212.99 45.21L210.51 45C204.27 54.17 197.98 64.71 196.07 68.64L195.37 69.85L195.59 69.55ZM216.84 39.88C218.6 37.67 233.52 18.05 233.52 16.69C233.52 16.66 233.49 16.63 233.46 16.63C232.85 16.63 226.22 23.8 220.26 31.49C218.81 33.34 215.45 37.88 211.66 43.36C212.48 43.42 213.33 43.51 214.14 43.6L216.84 39.88Z" fill="#1D1D1B"/>
<path d="M213.78 84.81V84.57C213.84 81.21 215.93 77.85 215.93 77.43C215.93 77.4 215.93 77.4 215.9 77.4L215.78 77.46C213.09 79.43 210.85 80.76 208.06 82.94C207.58 83.3 206.97 83.7 206.39 83.7C205.91 83.7 205.45 83.46 205.03 82.76C204.18 81.4 204 82.03 203.79 80.85C203.76 80.67 203.73 80.46 203.73 80.21C203.73 76.7 207.91 68.19 214.69 66.28C215.45 66.07 216.14 65.98 216.72 65.98H216.78C219.75 65.98 220.53 68.37 221.93 69.31C222.57 68.95 223.38 68.73 224.08 68.64H224.14C224.44 68.64 224.53 68.94 224.53 69.34C224.53 70.07 224.23 71.1 224.17 71.25C223.69 71.64 223.53 71.61 223.53 71.73L223.62 72.24C223.62 72.78 223.23 73.15 222.83 73.15C222.62 73.15 222.44 73.06 222.29 72.82C219.44 75.64 215.96 80.78 215.96 85.17C215.96 85.53 215.96 85.9 216.02 86.23C216.78 89.83 219.02 91.29 222.17 91.29C224.23 91.29 226.71 90.65 229.41 89.59C240.67 85.14 255.38 73.3 258.47 71.15L258.56 71.12C258.8 71.12 259.1 71.51 259.2 71.73L259.23 71.82C259.23 72.06 258.72 72.58 258.5 72.73C255.71 74.64 241.24 85.66 229.59 90.47C226.2 91.89 223.05 92.77 220.48 92.77C216.41 92.77 213.78 90.56 213.78 84.81ZM217.96 72.58C219.14 71.61 219.56 71.46 220.81 70.25C220.45 69.58 219.87 69.28 219.18 69.28C215.97 69.28 210.04 75.46 209.13 78.97C210.57 78.45 216.14 74.06 217.96 72.58Z" fill="#1D1D1B"/>
<path d="M207.27 138C207.27 135.03 208.63 131.37 211.75 127.34C215.81 122.07 222.32 116.23 229.94 110.36C240.41 102.31 253.07 94.1603 264.51 87.4103C265.99 84.6903 267.48 82.0203 268.93 79.4503C271.11 75.6703 273.89 71.4303 275.83 67.6403C273.77 69.4003 271.5 72.0003 269.11 74.7203C268.99 76.0803 268.38 77.8703 267.72 80.1703C267.54 80.7803 267.33 80.9903 267.14 80.9903C266.99 80.9903 266.87 80.8103 266.87 80.5703L266.9 80.4203C267.26 78.8203 267.51 77.5103 267.63 76.4203C264.12 80.3903 260.46 84.3503 256.97 86.1103C256.03 86.5903 255.03 86.9003 254.28 86.9003C253.83 86.9003 253.46 86.7803 253.22 86.5703C251.89 85.2703 251.34 83.8203 251.34 82.3003C251.34 79.0303 253.82 75.5203 256.4 72.8803C259.49 69.7303 262.27 68.5803 264.39 68.5803C265.51 68.5803 266.45 68.9103 267.11 69.4603C267.59 69.8803 268.05 70.3103 268.41 70.7003C268.95 71.2803 269.11 72.0903 269.14 72.8803C271.5 70.4603 273.5 68.3103 274.5 67.1903C275.83 65.7103 277.65 63.7103 277.65 63.6803C278.1 63.1703 278.5 63.0103 278.89 63.0103H278.98C279.25 63.0103 279.52 63.1003 279.77 63.2203C280.16 63.4003 280.56 63.6403 280.56 64.1603C280.56 64.3703 280.47 64.6103 280.32 64.9503C274.93 74.8803 275.63 73.7303 269.75 84.3603C282.25 77.1503 292.18 72.4003 295.36 71.4003C295.54 71.3703 295.84 71.2803 296.09 71.2803C296.21 71.2803 296.33 71.3103 296.36 71.4003L296.39 71.5503C296.39 71.7903 296.24 72.0003 296.03 72.0603C292.76 73.0603 281.8 78.6003 268.69 86.2303C257.52 106.33 243.32 129.52 227.03 141.09C222.7 144.15 218.64 145.51 215.34 145.51C210.48 145.51 207.27 142.57 207.27 138ZM224.19 140.36C240.81 129.28 253.71 107.06 263.39 89.3803C252.64 95.8603 240.62 103.21 230.88 110.78C223.34 116.59 217.32 122.68 213.35 127.88C210.17 132.03 208.81 135.6 208.81 138.32C208.81 141.8 211.05 143.89 214.65 143.89C217.26 143.9 220.56 142.78 224.19 140.36ZM267.82 74.2703L267.85 73.4203C267.85 72.6003 267.73 71.7903 267.03 71.7903C266.91 71.7903 266.76 71.8203 266.58 71.8803C262.95 73.1203 258.29 79.7503 256.2 83.6903C255.87 84.3003 255.72 84.6903 255.72 84.9003C255.72 85.0503 255.78 85.1103 255.9 85.1103C256.98 85.1103 262.82 79.3903 267.82 74.2703Z" fill="#1D1D1B"/>
<path d="M296.19 88.6203C292.28 88.6203 287.2 85.8003 286.81 82.1703C285.72 82.1103 285.24 82.1703 284.96 81.5003C284.87 81.3203 284.84 81.2003 284.84 81.1103C284.84 81.0203 284.9 80.9903 285.02 80.9903C285.17 80.9903 285.44 81.0803 285.78 81.0803C285.99 81.0803 286.23 81.0203 286.51 80.9303C287.02 80.7203 287.15 80.4503 287.33 79.9303C288.93 75.6903 297.53 67.8203 301.89 67.5503H302.16C303.49 67.5503 305.37 68.1603 305.79 69.0003C305.88 69.1803 305.94 69.3903 305.94 69.6103C305.94 73.3303 292.29 80.8103 290.95 80.8403C290.59 81.6303 290.44 82.3503 290.44 82.9903C290.44 85.6803 293.32 86.9003 295.95 86.9603H296.4C306.09 86.9603 321.01 77.5803 328.43 72.0703C328.94 71.7103 329.31 71.4603 329.46 71.4603C329.52 71.4603 329.58 71.4903 329.58 71.5503C329.58 71.7303 329.4 72.0903 329 72.7303C312.56 84.8103 302.3 88.3203 296.61 88.6203H296.19ZM305.12 69.4903C305.12 69.4003 305.09 69.3403 305.03 69.2803C304.91 69.1903 304.73 69.1303 304.52 69.1303C301.86 69.1603 292.99 77.3003 291.77 79.4503C297 77.4803 305.12 71.0003 305.12 69.4903Z" fill="#1D1D1B"/>
<path d="M340.32 82.9903C339.23 81.6603 338.08 81.0503 338.08 78.2703V77.7604C338.23 75.2804 340.44 71.0103 340.99 68.7703C334.84 71.8303 329.4 75.8204 325.52 81.5504C325.19 82.2504 325.01 83.6404 324.46 83.6404C324.37 83.6404 324.28 83.6104 324.16 83.5504C323.65 83.1904 323.19 82.4903 323.19 81.8503C323.19 78.9703 327.22 71.7704 330.06 68.8904C330.67 68.2804 331.24 68.0704 331.73 68.0704C332.91 68.0704 333.76 69.2504 333.76 69.6104L333.73 69.6703C332.91 71.0003 330.61 73.8803 330.25 74.8503C330.55 74.5503 330.92 74.3703 331.28 74.0303C332.31 73.1203 338.18 68.8803 340.6 67.9503C340.75 67.8903 340.93 67.8604 341.08 67.8604C342.35 67.8604 343.87 69.4904 343.87 71.2204C343.87 71.4904 343.84 71.7304 343.78 71.9804C343.08 74.5204 340.75 78.3104 340.75 80.7904C340.75 81.7904 341.14 82.5804 342.11 82.9704C342.96 83.3004 343.93 83.4503 344.99 83.4503C352.16 83.4503 363.34 76.1803 368.51 72.3403C368.6 72.2803 370.6 71.1303 370.99 71.1303C371.05 71.1303 371.08 71.1604 371.08 71.1904C371.08 71.2204 370.99 71.3403 370.84 71.4903C366.63 75.6403 352.19 84.5704 344.41 84.5704C342.62 84.5704 341.2 84.1103 340.32 82.9903Z" fill="#1D1D1B"/>
<path d="M374.78 84.81V84.57C374.84 81.21 376.93 77.85 376.93 77.43C376.93 77.4 376.93 77.4 376.9 77.4L376.78 77.46C374.09 79.43 371.85 80.76 369.06 82.94C368.58 83.3 367.97 83.7 367.39 83.7C366.91 83.7 366.45 83.46 366.03 82.76C365.18 81.4 365 82.03 364.79 80.85C364.76 80.67 364.73 80.46 364.73 80.21C364.73 76.7 368.91 68.19 375.69 66.28C376.45 66.07 377.14 65.98 377.72 65.98H377.78C380.75 65.98 381.53 68.37 382.93 69.31C383.57 68.95 384.38 68.73 385.08 68.64H385.14C385.44 68.64 385.53 68.94 385.53 69.34C385.53 70.07 385.23 71.1 385.17 71.25C384.69 71.64 384.53 71.61 384.53 71.73L384.62 72.24C384.62 72.78 384.23 73.15 383.83 73.15C383.62 73.15 383.44 73.06 383.29 72.82C380.44 75.64 376.96 80.78 376.96 85.17C376.96 85.53 376.96 85.9 377.02 86.23C377.78 89.83 380.02 91.29 383.17 91.29C385.23 91.29 387.71 90.65 390.41 89.59C401.67 85.14 416.38 73.3 419.47 71.15L419.56 71.12C419.8 71.12 420.1 71.51 420.2 71.73L420.23 71.82C420.23 72.06 419.72 72.58 419.5 72.73C416.71 74.64 402.24 85.66 390.59 90.47C387.2 91.89 384.05 92.77 381.48 92.77C377.41 92.77 374.78 90.56 374.78 84.81ZM378.95 72.58C380.13 71.61 380.55 71.46 381.8 70.25C381.44 69.58 380.86 69.28 380.17 69.28C376.96 69.28 371.03 75.46 370.12 78.97C371.57 78.45 377.14 74.06 378.95 72.58Z" fill="#1D1D1B"/>
<path d="M447.1 140.18C441.38 137.03 439.47 128.98 439.47 120.14C439.47 109.36 442.32 97.3702 444.47 91.5902C446.53 86.0202 449.07 80.6302 451.98 75.3602C447.86 78.9902 441.93 83.2302 440.81 84.0802C440.23 84.5302 438.42 85.9302 437.63 86.2302C437.18 86.4102 436.87 86.5002 436.63 86.5002C436.21 86.5002 435.96 86.2902 435.63 85.8602C434.75 85.2802 434.36 84.2602 434.36 82.9802C434.36 77.9502 440.41 68.9902 445.5 67.8402C445.95 67.7502 446.53 67.6902 447.2 67.6902C448.68 67.6902 450.5 67.9002 451.56 68.0502C453.8 68.3802 453.83 68.5302 455.22 69.7502C456.7 67.3302 458.28 64.9402 459.88 62.5402C468.42 50.1302 495.88 13.9502 509.04 5.63018C511.67 3.96018 514.13 3.18018 516.15 3.18018H516.21C519.48 3.18018 521.66 5.15018 521.66 8.45018C521.66 10.1802 521.05 12.2302 519.75 14.5702C511.39 29.5302 470.22 62.2502 458.51 72.0302C453.94 79.2002 449.61 86.8602 446.37 94.7002C443.77 100.97 441.25 110.93 441.25 120.19C441.25 127.85 442.98 135.02 447.82 139.23C448.21 139.44 448.46 139.84 448.46 140.11C448.46 140.32 448.34 140.5 448.07 140.5C447.82 140.51 447.52 140.42 447.1 140.18ZM444.77 78.7202C446.71 77.1502 452.01 72.6002 453.7 71.7602L454.12 71.5802L454.51 70.9102L454.45 70.6702C453.87 70.4602 453.06 70.3702 452.15 70.3702C450.52 70.4002 448.67 70.6702 447.85 71.1002C444.31 72.8902 439.49 80.0602 438.71 83.1502C439.68 82.8402 443.62 79.6902 444.77 78.7202ZM517.39 14.4802C518.48 12.5402 519.48 9.67018 519.48 7.67018C519.48 6.28018 519 5.28018 517.75 5.28018C516.9 5.31018 515.69 5.76018 514 6.91018C508.55 10.6002 500.83 19.1102 500.13 19.9002C491.14 30.3702 482.12 40.5502 473.25 51.2002C469.19 56.4102 464.77 62.4002 460.5 68.9102C471.62 59.5902 510.04 27.5302 517.39 14.4802Z" fill="#1D1D1B"/>
<path d="M473.32 88.6203C469.41 88.6203 464.33 85.8003 463.94 82.1703C462.85 82.1103 462.37 82.1703 462.09 81.5003C462 81.3203 461.97 81.2003 461.97 81.1103C461.97 81.0203 462.03 80.9903 462.15 80.9903C462.3 80.9903 462.57 81.0803 462.91 81.0803C463.12 81.0803 463.36 81.0203 463.64 80.9303C464.15 80.7203 464.28 80.4503 464.46 79.9303C466.06 75.6903 474.66 67.8203 479.02 67.5503H479.29C480.62 67.5503 482.5 68.1603 482.92 69.0003C483.01 69.1803 483.07 69.3903 483.07 69.6103C483.07 73.3303 469.42 80.8103 468.08 80.8403C467.72 81.6303 467.57 82.3503 467.57 82.9903C467.57 85.6803 470.45 86.9003 473.08 86.9603H473.53C483.22 86.9603 498.14 77.5803 505.56 72.0703C506.07 71.7103 506.44 71.4603 506.59 71.4603C506.65 71.4603 506.71 71.4903 506.71 71.5503C506.71 71.7303 506.53 72.0903 506.13 72.7303C489.69 84.8103 479.43 88.3203 473.74 88.6203H473.32ZM482.25 69.4903C482.25 69.4003 482.22 69.3403 482.16 69.2803C482.04 69.1903 481.86 69.1303 481.65 69.1303C478.99 69.1603 470.12 77.3003 468.9 79.4503C474.13 77.4803 482.25 71.0003 482.25 69.4903Z" fill="#1D1D1B"/>
<path d="M544.73 123.98C543.88 123.68 543.22 122.89 543.22 122.44C543.22 122.23 543.34 122.14 543.61 122.14C544.03 122.14 544.94 122.5 545.73 122.81C547.21 123.42 548.76 123.69 550.27 123.69C562.56 123.69 575.97 105.71 589.69 85.3601C605.43 62.0201 620.3 35.7101 624.44 27.2401C625.68 24.6701 628.86 19.0401 628.86 15.6201C628.86 13.9501 628.1 12.8001 626.01 12.8001C625.43 12.8001 624.74 12.8901 623.95 13.0701C613.9 15.4001 584.2 26.9001 561.56 41.2201C547.21 50.3301 536.37 60.6001 536.37 70.4301C536.37 76.1501 540 81.7201 548.75 86.8401C549.9 87.5101 550.35 88.0501 550.35 88.4701C550.35 89.0101 549.53 89.2901 548.47 89.2901C547.44 89.2901 546.17 89.0201 545.35 88.3801C537.99 82.7801 534.88 76.9401 534.88 71.0601C534.88 58.9801 548.08 46.8101 564.76 36.6101C588.68 21.9601 617.89 11.3901 626.52 11.3901C629.91 11.3901 631.94 12.8701 631.94 16.9301C631.94 19.7801 630.85 23.8901 628.4 29.4901C624.86 37.3901 610.24 63.7901 593.74 87.1601C579.57 107.26 565.1 125.06 550.72 125.06C548.73 125.07 546.73 124.71 544.73 123.98Z" fill="#1D1D1B"/>
<path d="M628.22 82.9903C627.13 81.6603 625.98 81.0503 625.98 78.2703V77.7604C626.13 75.2804 628.34 71.0103 628.89 68.7703C622.74 71.8303 617.3 75.8204 613.42 81.5504C613.09 82.2504 612.91 83.6404 612.36 83.6404C612.27 83.6404 612.18 83.6104 612.06 83.5504C611.55 83.1904 611.09 82.4903 611.09 81.8503C611.09 78.9703 615.12 71.7704 617.96 68.8904C618.57 68.2804 619.14 68.0704 619.63 68.0704C620.81 68.0704 621.66 69.2504 621.66 69.6104L621.63 69.6703C620.81 71.0003 618.51 73.8803 618.15 74.8503C618.45 74.5503 618.82 74.3703 619.18 74.0303C620.21 73.1203 626.08 68.8803 628.5 67.9503C628.65 67.8903 628.83 67.8604 628.98 67.8604C630.25 67.8604 631.77 69.4904 631.77 71.2204C631.77 71.4904 631.74 71.7304 631.68 71.9804C630.98 74.5204 628.65 78.3104 628.65 80.7904C628.65 81.7904 629.04 82.5804 630.01 82.9704C630.86 83.3004 631.83 83.4503 632.89 83.4503C640.06 83.4503 651.24 76.1803 656.41 72.3403C656.5 72.2803 658.5 71.1303 658.89 71.1303C658.95 71.1303 658.98 71.1604 658.98 71.1904C658.98 71.2204 658.89 71.3403 658.74 71.4903C654.53 75.6403 640.09 84.5704 632.31 84.5704C630.53 84.5704 629.1 84.1103 628.22 82.9903Z" fill="#1D1D1B"/>
<path d="M663.98 140.18C658.26 137.03 656.35 128.98 656.35 120.14C656.35 109.36 659.2 97.3702 661.35 91.5902C663.41 86.0202 665.95 80.6302 668.86 75.3602C664.74 78.9902 658.81 83.2302 657.69 84.0802C657.11 84.5302 655.3 85.9302 654.51 86.2302C654.06 86.4102 653.75 86.5002 653.51 86.5002C653.09 86.5002 652.84 86.2902 652.51 85.8602C651.63 85.2802 651.24 84.2602 651.24 82.9802C651.24 77.9502 657.29 68.9902 662.38 67.8402C662.83 67.7502 663.41 67.6902 664.08 67.6902C665.56 67.6902 667.38 67.9002 668.44 68.0502C670.68 68.3802 670.71 68.5302 672.1 69.7502C673.58 67.3302 675.16 64.9402 676.76 62.5402C685.3 50.1302 712.76 13.9502 725.92 5.63018C728.55 3.96018 731.01 3.18018 733.03 3.18018H733.09C736.36 3.18018 738.54 5.15018 738.54 8.45018C738.54 10.1802 737.93 12.2302 736.63 14.5702C728.27 29.5302 687.1 62.2502 675.39 72.0302C670.82 79.2002 666.49 86.8602 663.25 94.7002C660.65 100.97 658.13 110.93 658.13 120.19C658.13 127.85 659.86 135.02 664.7 139.23C665.09 139.44 665.34 139.84 665.34 140.11C665.34 140.32 665.22 140.5 664.95 140.5C664.7 140.51 664.4 140.42 663.98 140.18ZM661.65 78.7202C663.59 77.1502 668.89 72.6002 670.58 71.7602L671 71.5802L671.39 70.9102L671.33 70.6702C670.75 70.4602 669.94 70.3702 669.03 70.3702C667.4 70.4002 665.55 70.6702 664.73 71.1002C661.19 72.8902 656.37 80.0602 655.59 83.1502C656.56 82.8402 660.5 79.6902 661.65 78.7202ZM734.27 14.4802C735.36 12.5402 736.36 9.67018 736.36 7.67018C736.36 6.28018 735.88 5.28018 734.63 5.28018C733.78 5.31018 732.57 5.76018 730.88 6.91018C725.43 10.6002 717.71 19.1102 717.01 19.9002C708.02 30.3702 699 40.5502 690.13 51.2002C686.07 56.4102 681.65 62.4002 677.38 68.9102C688.5 59.5902 726.92 27.5302 734.27 14.4802Z" fill="#1D1D1B"/>
<path d="M686.08 80.9604C685.57 79.9604 684.99 79.5104 684.99 78.0204C684.99 76.1104 686.41 73.9304 687.35 72.6604C687.93 71.8704 689.62 69.9704 690.77 69.2104C690.89 69.1504 691.13 69.0904 691.44 69.0904C692.2 69.0904 693.26 69.3904 693.26 70.1504C693.26 70.4804 693.08 70.8804 692.62 71.3904C690.8 73.4204 687.23 77.5404 687.23 80.8104V80.9604C688.02 81.5004 689.11 81.7204 690.32 81.7204C695.13 81.7204 702.34 78.2704 704.43 77.2404C707.22 75.8504 710.91 73.9104 713.57 72.4304L715.84 71.2804C716.05 71.2204 716.29 71.1304 716.42 71.1304C716.48 71.1304 716.51 71.1604 716.51 71.1904C716.51 71.2504 716.42 71.3704 716.18 71.6104C714.58 73.0904 707.89 76.4504 706.67 77.0904C704.64 78.2104 695.62 82.8704 690.08 82.8704C688.23 82.8704 686.74 82.3304 686.08 80.9604ZM694.07 61.6504V61.5604C694.07 60.6204 695.74 59.7704 696.61 59.3804C697.25 59.6504 697.49 59.9604 697.49 60.3204C697.49 60.5904 697.31 60.9304 697.1 61.3204C696.56 62.2004 695.92 62.5004 695.37 62.5004C694.64 62.5004 694.1 62.0104 694.07 61.6504Z" fill="#1D1D1B"/>
<path d="M756.22 102.94C755.22 102.85 754.55 101.37 754.1 100.61C753.83 100.13 753.71 99.61 753.71 99.13C753.71 98.37 753.98 97.68 754.5 97.13C756.5 94.95 759.37 92.53 762.73 90.08C761.61 86.33 758.58 77.73 758.19 76.4C750.5 82.52 741.84 88.93 738.03 90.51C734.64 91.93 731.25 92.81 728.37 92.81C723.8 92.81 720.5 90.6 720.5 84.82C720.53 81.31 722.65 77.89 722.65 77.46C722.65 77.43 722.62 77.4 722.59 77.4L722.47 77.46C719.81 79.43 717.57 80.76 714.75 82.97C714.27 83.36 713.75 83.51 713.27 83.51C711.97 83.51 710.76 82.33 710.48 80.85L710.42 80.24C710.42 76.79 714.6 68.19 721.38 66.31C722.29 66.04 723.05 65.95 723.65 65.95C726.07 65.95 726.5 67.77 728.61 69.34C729.31 68.92 732.45 66.77 733.18 66.74C733.48 66.74 733.57 67.04 733.57 67.44C733.57 68.17 733.27 69.2 733.21 69.35C729.55 71.83 722.64 80.07 722.64 85.52L722.7 86.28C723.49 89.88 726.36 91.34 730 91.34C732.42 91.34 735.18 90.7 737.87 89.64C741.71 88.1 750.34 81.68 758.03 75.5C758.27 69.81 764.02 64.96 767.02 64.96C767.66 65.02 767.93 65.08 767.93 65.6C767.93 67.48 762.24 73.17 761.27 73.96C760.94 74.75 760.79 75.66 760.79 76.65C760.79 80.65 763.12 85.85 764.15 89.06C771.81 83.19 781.38 74.74 787.85 71.59C787.97 71.53 788.09 71.53 788.18 71.53C788.36 71.53 788.45 71.65 788.45 71.8C788.45 71.92 788.33 72.07 788.12 72.19C781.64 75.43 771.98 84.18 764.51 90.2C765.09 91.93 765.72 94.17 765.72 96.22C765.72 98.16 765.14 99.94 763.45 100.97C761.82 101.94 758.7 102.97 756.67 102.97L756.22 102.94ZM724.65 72.61C725.83 71.61 726.28 71.49 727.5 70.28C727.14 69.58 726.59 69.28 725.87 69.28C722.66 69.31 716.73 75.46 715.82 78.97C717.26 78.48 722.86 74.09 724.65 72.61ZM761 98.04C762.94 97.1 763.63 96.16 763.63 94.65C763.63 93.77 763.42 92.68 763.05 91.32C760.2 93.59 757.78 95.86 756.09 97.95C755.82 98.25 755.58 98.71 755.58 99.1C755.58 99.43 755.79 99.68 756.34 99.68H756.37C757.22 99.64 760.19 98.43 761 98.04Z" fill="#1D1D1B"/>
</svg>
