<svg width="954" height="240" viewBox="0 0 954 240" fill="none" xmlns="http://www.w3.org/2000/svg">
<g clip-path="url(#clip0_2349_12250)">
<path d="M1.42199 124.689C0.42307 122.52 0 120.469 0 118.546C0 110.092 8.32038 103.996 15.9004 100.267L16.0062 100.197C27.3585 94.5224 43.4705 89.9381 61.7213 86.456C72.3568 84.4276 83.7092 82.7628 95.2731 81.4848C106.449 70.2294 117.19 58.4463 129.894 44.928C131.775 42.9349 139.178 34.634 146.688 26.4386C146.935 25.9813 147.252 25.5123 147.581 25.0199C147.616 24.9496 156.724 8.51191 160.109 6.46013C160.496 6.21392 160.861 6.1084 161.178 6.1084C162.247 6.1084 162.741 7.45671 162.741 9.08641C162.741 10.892 162.142 13.0962 161.072 14.3038C160.931 14.4445 160.79 14.6555 160.614 14.8314L158.228 17.528C155.913 20.0839 153.598 22.7102 151.259 25.3365C148.063 30.8001 145.172 35.525 142.222 40.4258C138.732 46.206 135.147 52.2089 130.87 59.9118C128.989 63.3588 126.639 67.5796 124.218 72.3398C123.078 74.5439 121.938 76.8888 120.798 79.2572L128.026 78.8351C128.378 78.8351 128.484 79.1868 128.484 79.6558C128.484 80.582 128.026 82.0007 127.885 82.0007L127.638 82.0359C126.956 82.0359 126.181 81.5434 125.429 81.5434H125.323C123.654 81.7545 121.691 81.8248 119.6 81.8952C118.706 83.8883 117.825 85.9049 117.002 87.9684C114.828 93.3265 113.124 98.8956 111.984 104.301C110.985 109.096 110.457 113.739 110.457 117.889L110.492 119.343L110.95 123.564C111.444 125.592 112.689 126.835 112.689 128.57C112.689 128.922 112.619 129.321 112.513 129.707C109.634 128.922 107.425 116.717 107.389 112.813C107.601 108.416 108.494 103.374 109.916 98.1218C111.303 92.8692 113.23 87.3705 115.533 82.1179L115.569 81.9772C110.445 82.0124 104.722 82.0124 99.3863 82.5048C91.2422 90.9582 83.0158 99.1184 74.8012 106.645L70.7115 110.233C62.2383 117.62 48.23 128.512 37.8413 132.662C31.1192 135.323 25.3842 136.496 20.5542 136.496C10.518 136.496 4.47749 131.454 1.44549 124.713L1.42199 124.689ZM33.0465 129.016C36.1373 127.808 39.5218 126.214 43.1179 124.22C61.4039 114.173 78.9144 97.7466 93.6748 83.0442C84.6728 84.0407 75.3183 85.3891 66.2458 87.0539C46.6082 90.6064 28.1107 95.5776 16.441 101.358C6.54584 106.294 1.99783 112.648 1.99783 118.64C1.99783 121.266 2.85572 123.857 4.5245 126.307C7.05117 130.001 11.4582 132.345 17.863 132.345C22.0584 132.345 27.1118 131.314 33.0582 129.004L33.0465 129.016ZM116.65 79.5386C121.022 69.819 126.181 60.8029 129.777 54.589C132.762 49.3716 135.723 44.4004 138.603 39.6051C126.404 53.3462 113.771 67.4624 100.926 80.8869C106.155 80.3593 111.385 79.8903 116.65 79.5386Z" fill="#3060A9"/>
<path d="M185.61 155.571C184.823 154.118 184.153 152.523 183.507 150.846C182.649 147.048 182.226 142.862 182.226 138.536C182.226 133.741 182.755 128.769 183.824 123.845C188.196 103.937 198.878 82.1764 211.112 62.3739C191.475 80.406 170.521 96.023 159.627 96.023C157.276 96.023 155.361 95.2726 154.08 93.6429C152.799 92.0484 151.447 91.3332 151.447 88.109V87.511C151.624 84.5682 154.221 79.5619 154.832 76.9356C147.64 80.5233 141.247 85.2013 136.687 91.9194C136.299 92.7401 136.088 94.3698 135.406 94.3698C134.807 94.3698 133.914 93.1271 133.914 92.3063C133.949 88.8945 138.65 80.4529 142.022 77.0763C142.704 76.3611 143.374 76.1149 143.985 76.1149C145.372 76.1149 146.371 77.4632 146.371 77.8853L146.335 77.9556C145.372 79.5502 142.669 82.9268 142.246 84.0641C142.598 83.7123 143.033 83.5013 143.456 83.1027C144.631 82.0357 151.565 77.0646 154.409 75.9742C154.585 75.9039 154.762 75.8687 154.973 75.8687C156.466 75.8687 158.252 77.7798 158.252 79.8081C158.252 80.1247 158.217 80.406 158.146 80.6992C157.323 83.6772 154.585 88.1559 154.585 91.0636C154.585 92.2008 155.008 93.1271 156.148 93.5843C157.253 94.0064 158.463 94.2174 159.815 94.2174C172.554 94.2174 195.529 75.1535 215.707 55.1047C217.129 52.9709 218.516 50.8136 219.938 48.7501C214.426 48.3631 208.021 47.9997 202.404 47.9997C194.683 47.9997 187.173 48.5625 179.993 49.7701C175.045 51.048 168.923 53.0764 167.935 55.093C167.689 55.6206 167.301 56.2302 166.972 56.7578C166.255 57.1096 165.761 57.2151 165.409 57.2151C164.986 57.2151 164.845 57.0041 164.845 56.793C164.915 56.2302 165.479 55.7613 165.914 55.0578C166.772 53.604 168.053 52.3964 170.392 50.837C174.834 48.5273 183.378 46.6514 189.782 45.9362C193.061 45.7603 196.504 45.6548 200.03 45.6548C207.14 45.6548 214.05 46.1472 221.336 46.7217C228.27 36.5684 236.026 26.2391 243.254 18.3603C246.309 15.2064 249.553 11.6188 252.503 9.098C253.36 8.53523 253.96 8.41799 254.677 8.38281C255.241 8.38281 255.746 8.62903 256.028 9.098L255.993 9.13318C256.134 9.27387 256.24 9.55526 256.24 9.95389C256.24 14.3857 243.43 30.2606 226.778 47.2259C242.29 48.6445 261.105 51.2005 276.265 51.2005C279.755 51.2005 283.128 51.0598 286.336 50.7784C289.968 50.1804 293.129 49.3949 295.62 47.8355C296.584 47.1204 297.078 46.3817 297.324 45.8424V45.772C297.324 45.3851 296.76 45.35 296.76 44.7051C296.76 44.5293 296.796 44.3182 296.901 44.072C297.148 43.2865 298.218 42.3368 298.782 42.3368C299.24 42.3368 299.134 42.6533 299.17 43.1927C299.17 43.943 298.993 44.9982 298.57 46.1355C298.112 47.4135 296.901 48.41 295.726 49.2894C291.061 51.4584 282.635 52.6308 273.104 52.6308C271.611 52.6308 270.119 52.6308 268.591 52.5605C257.133 52.1032 245.181 50.7901 237.601 50.1453C233.406 49.7935 229.175 49.4301 224.932 49.1135L222.899 51.1418C209.455 71.0851 196.857 94.1588 190.135 114.958C187.82 122.168 186.327 129.578 185.399 137.598L185.328 140.822C185.328 145.934 185.857 150.12 187.032 153.18C187.032 153.18 188.701 157.084 191.052 158.96C191.545 159.347 191.768 159.64 191.768 159.78C191.768 159.886 191.663 159.956 191.522 159.956C190.699 159.956 188.102 158.678 185.61 155.595V155.571ZM254.806 10.5401L247.05 19.9079C242.278 25.1253 237.554 30.7999 232.43 37.6939C244.417 24.6329 253.278 13.6236 254.806 10.5401Z" fill="#3060A9"/>
<path d="M213.18 89.8324C213.18 84.193 216.306 76.7714 219.268 73.3948C220.196 72.2927 221.113 71.9058 221.935 71.9058C223.933 71.9058 225.355 74.4265 225.355 74.9189V74.9541C224.039 77.6156 216.741 87.4524 215.683 92.916C216.001 93.8774 216.647 94.2643 217.423 94.2643C220.772 94.2643 227.318 87.4172 228.846 85.8578C229.374 83.6185 231.654 77.1935 236.355 77.1935C236.849 77.1935 237.213 77.3693 237.213 77.7563C237.213 77.8969 237.142 78.0728 237.072 78.2487C236.214 80.2067 233.441 84.8847 230.738 86.913C230.456 87.6986 230.279 88.4724 230.279 89.2228C230.279 91.7083 232.019 93.8774 236.402 94.3698C237.084 94.5105 237.754 94.5456 238.435 94.5456C245.298 94.5456 252.526 88.4724 258.425 84.9316L265.429 80.3122C265.817 80.1715 266.064 80.1011 266.217 80.1011C266.37 80.1011 266.428 80.1363 266.428 80.2418C266.428 80.4177 266.217 80.6991 265.864 81.0977L261.199 84.4744C256.721 87.8862 244.652 96.0815 236.614 96.0815C232.453 96.0815 229.351 93.9125 228.893 87.7455C227.083 89.551 220.889 96.1167 216.906 96.1167C214.449 96.1167 213.204 93.3146 213.204 89.8324H213.18Z" fill="#3060A9"/>
<path d="M271.776 95.6948V95.4134C271.846 91.474 274.302 87.5346 274.302 87.0422C274.302 87.0422 274.29 87.0304 274.267 87.007L274.126 87.0773C270.965 89.387 268.332 90.9464 265.053 93.5023C264.489 93.9244 263.772 94.3934 263.091 94.3934C262.527 94.3934 261.986 94.112 261.493 93.2913C260.494 91.6968 260.282 92.4354 260.035 91.0519C260 90.8409 259.965 90.5947 259.965 90.3015C259.965 86.1863 264.877 76.2088 272.845 73.9694C273.738 73.7232 274.549 73.6177 275.231 73.6177H275.301C278.791 73.6177 279.708 76.4198 281.353 77.5219C282.106 77.0998 283.057 76.8419 283.88 76.7364H283.951C284.303 76.7364 284.409 77.0881 284.409 77.5571C284.409 78.413 284.056 79.6206 283.986 79.7965C283.422 80.2537 283.234 80.2185 283.234 80.3592L283.339 80.9572C283.339 81.5903 282.881 82.0241 282.411 82.0241C282.164 82.0241 281.953 81.9186 281.776 81.6372C278.427 84.9435 274.337 90.9698 274.337 96.1169C274.337 96.539 274.337 96.9728 274.408 97.3597C275.301 101.58 277.934 103.292 281.635 103.292C284.056 103.292 286.971 102.542 290.144 101.299C303.377 96.0817 320.664 82.2 324.295 79.6792L324.401 79.644C324.683 79.644 325.035 80.1013 325.153 80.3592L325.188 80.4647C325.188 80.7461 324.589 81.3558 324.33 81.5317C321.051 83.771 304.046 96.6914 290.355 102.331C286.371 103.996 282.67 105.027 279.649 105.027C274.878 105.027 271.787 102.436 271.787 95.6948H271.776ZM276.688 81.3558C278.075 80.2185 278.568 80.0427 280.037 78.624C279.614 77.8385 278.932 77.4867 278.122 77.4867C274.349 77.4867 267.38 84.7324 266.311 88.8477C268.015 88.2498 274.561 83.1027 276.7 81.3558H276.688Z" fill="#3060A9"/>
<path d="M337.622 93.5609C336.341 92.0015 334.989 91.2863 334.989 88.0269V87.429C335.166 84.5213 337.763 79.515 338.409 76.8887C331.182 80.4764 324.789 85.1544 320.229 91.8725C319.841 92.6932 319.63 94.3229 318.983 94.3229C318.877 94.3229 318.772 94.2878 318.631 94.2174C318.031 93.7953 317.491 92.9746 317.491 92.2243C317.491 88.8476 322.227 80.406 325.564 77.0294C326.281 76.3142 326.951 76.068 327.527 76.068C328.914 76.068 329.913 77.4515 329.913 77.8736L329.877 77.9439C328.914 79.5033 326.211 82.8799 325.788 84.0172C326.14 83.6654 326.575 83.4544 326.998 83.0558C328.208 81.9888 335.107 77.0177 337.951 75.9273C338.127 75.857 338.339 75.8218 338.515 75.8218C340.007 75.8218 341.794 77.7329 341.794 79.7612C341.794 80.0777 341.758 80.3591 341.688 80.6522C340.865 83.6303 338.127 88.0738 338.127 90.9815C338.127 92.1539 338.585 93.0802 339.725 93.5374C340.724 93.9243 341.864 94.1002 343.11 94.1002C351.536 94.1002 364.675 85.5765 370.751 81.0743C370.856 81.004 373.207 79.6557 373.665 79.6557C373.736 79.6557 373.771 79.6908 373.771 79.726C373.771 79.7612 373.665 79.9019 373.489 80.0778C368.541 84.9434 351.571 95.4133 342.428 95.4133C340.325 95.4133 338.656 94.8857 337.622 93.5726V93.5609Z" fill="#3060A9"/>
<path d="M401.129 155.536C400.342 154.082 399.672 152.488 399.026 150.811C398.168 147.013 397.745 142.862 397.745 138.536C397.745 133.741 398.274 128.734 399.343 123.845C404.044 102.554 415.925 79.1633 429.158 58.282C424.034 62.8663 419.627 66.7705 416.853 69.432C402.904 82.8447 385.581 99.5286 373.524 100.173H373.03C368.435 100.173 362.43 96.9023 361.96 92.6464C360.679 92.576 360.115 92.6464 359.786 91.8257L359.68 91.4036C359.68 91.2629 359.751 91.2277 359.856 91.2277C360.068 91.2277 360.385 91.3332 360.785 91.3332C361.032 91.3332 361.314 91.2629 361.643 91.1574C362.207 90.9112 362.36 90.5946 362.606 89.9849C364.487 85.0138 374.593 75.7866 379.717 75.4701H379.999C381.562 75.4701 383.772 76.2204 384.301 77.1701C384.406 77.3811 384.477 77.6274 384.477 77.8853C384.477 82.2468 368.435 91.0167 366.861 91.0518C366.438 91.9781 366.261 92.8222 366.261 93.5726C366.261 96.7265 369.646 98.1569 372.701 98.2272H373.054C384.265 98.2272 401.799 82.364 416.313 68.4823C419.227 65.6802 425.562 59.6772 432.93 52.4784L435.457 48.7149C431.508 48.4335 427.595 48.2225 423.646 48.0818C421.801 48.0114 419.944 47.9762 418.099 47.9762C410.343 47.9762 402.763 48.539 395.477 49.7466C392.198 50.6025 389.001 51.6226 386.193 52.9005C384.806 53.6861 383.807 54.3543 383.454 55.0695C383.208 55.5971 382.773 56.2068 382.491 56.7344C381.774 57.0861 381.28 57.1917 380.928 57.1917C380.505 57.1917 380.364 56.9806 380.364 56.7696V56.6641C380.469 56.1716 381.08 55.5971 381.433 55.0344C382.291 53.5805 383.572 52.3729 385.911 50.8487C390.353 48.5039 398.896 46.6279 405.301 45.9128C408.58 45.7721 412.059 45.6665 415.619 45.6665C418.604 45.6665 421.672 45.7369 424.727 45.8776C428.782 46.0534 432.871 46.37 436.855 46.6983C440.381 41.5513 443.93 36.6504 447.42 32.0427C451.087 27.2123 454.93 22.5342 458.773 18.372C461.828 15.2182 465.072 11.5953 468.021 9.10974C468.738 8.61731 469.443 8.35938 470.09 8.35938C470.689 8.35938 471.23 8.57041 471.547 9.07457L471.512 9.10974C471.582 9.18009 471.653 9.25043 471.688 9.39113C471.829 9.77803 471.9 10.247 471.9 10.7043C471.9 17.9851 456.493 33.4262 441.556 47.1204L444.612 47.4369C450.946 48.07 457.421 48.6797 463.826 49.3128C469.949 49.8756 476.565 50.5556 483.111 50.9074C486.025 51.0481 488.905 51.1536 491.76 51.1536C495.251 51.1536 498.659 51.0129 501.867 50.7315C505.498 50.1335 508.66 49.348 511.151 47.7887C512.115 47.0735 512.608 46.3348 512.855 45.7955V45.7252C512.855 45.3383 512.291 45.3031 512.291 44.6582C512.291 44.4824 512.326 44.2713 512.432 44.0251C512.679 43.2396 513.748 42.2899 514.312 42.2899C514.489 42.2899 514.63 42.3954 514.665 42.6065L514.7 43.1341C514.7 43.8844 514.524 44.9396 514.101 46.1121C513.642 47.39 512.432 48.3514 511.257 49.2308C506.591 51.3998 498.165 52.5722 488.634 52.5722C487.142 52.5722 485.649 52.5722 484.122 52.5019C472.628 52.0798 460.676 50.7315 453.132 50.0867L439.864 49.0197C425.844 69.432 412.646 93.3498 405.677 114.899C403.362 122.11 401.87 129.52 400.941 137.539C400.906 138.712 400.871 139.814 400.871 140.881C400.871 145.957 401.364 150.108 402.575 153.121C402.575 153.121 404.244 157.06 406.594 158.901C407.088 159.288 407.311 159.581 407.311 159.757C407.311 159.863 407.205 159.933 407.064 159.933C406.241 159.933 403.644 158.62 401.153 155.536H401.129ZM383.478 77.7329C383.478 77.6274 383.443 77.557 383.372 77.4867C383.231 77.3811 383.02 77.3108 382.773 77.3108C379.647 77.346 369.258 86.8897 367.836 89.4104C373.959 87.1007 383.49 79.4681 383.49 77.7329H383.478ZM470.583 10.1884L462.58 19.8728C462.192 20.2597 461.828 20.7287 461.37 21.2211C456.563 26.544 452.826 31.1634 448.419 37.0491C460.159 25.0198 470.442 13.5533 470.583 10.1767V10.1884Z" fill="#3060A9"/>
<path d="M522.069 129.016C509.87 123.212 503.242 113.235 503.242 102.612C503.242 93.5375 508.072 84.0055 518.426 76.2322C523.138 72.6915 528.779 70.968 534.244 70.4873C532.751 67.0051 531.588 63.1595 531.588 58.7628C531.588 56.0545 532.034 53.1703 533.045 49.9812C535.913 41.1058 544.021 33.8132 554.469 32.5939C555.75 32.418 556.972 32.3242 558.136 32.3242H558.23C568.042 32.3242 573.777 38.2802 573.777 45.5377C573.777 51.1302 570.346 57.5083 562.766 62.4795H562.731C562.496 62.4795 561.414 61.5532 561.414 60.756C561.414 60.4629 561.567 60.158 561.978 59.947C569.382 56.1014 572.567 50.6026 572.567 45.5963C572.567 39.1713 567.314 33.6022 558.993 33.6022C557.595 33.6022 556.102 33.778 554.516 34.1063C543.481 36.4864 535.924 47.7653 535.924 58.7863C535.924 62.4209 536.759 66.0203 538.545 69.2679C538.698 69.561 538.968 69.9479 539.262 70.37C546.666 70.7218 552.894 73.2308 554.751 76.1736C555.045 76.6543 555.198 77.2171 555.198 77.7799C555.198 80.3358 552.307 83.3138 548.758 83.3138C548.193 83.3138 547.629 83.2552 547.03 83.0793C541.601 81.5669 537.358 77.0647 535.337 72.8673C535.125 72.4804 534.949 72.0583 534.773 71.6714C527.945 72.0935 521.646 74.9191 516.78 79.2337C509.882 85.3656 506.909 92.5409 506.909 99.5404C506.909 109.963 513.56 119.988 524.031 125.651C528.239 127.949 533.398 129.109 538.569 129.109C546.478 129.109 554.41 126.401 559.158 120.773C561.967 117.444 563.424 113.27 563.424 109.459C563.424 103.832 560.227 99.0714 553.341 99.0714C551.613 99.0714 549.615 99.3646 547.371 100.056C544.891 100.83 542.27 102.108 539.826 104.019C539.673 104.113 539.532 104.172 539.344 104.172C538.78 104.172 538.145 103.749 538.145 103.245C538.145 102.917 538.381 102.565 539.015 102.237C549.04 97.0548 558.559 95.5658 569.993 95.4486C599.655 95.0617 611.56 77.944 611.56 62.9133C611.56 52.971 606.342 43.9783 597.622 41.3638C595.977 40.8596 594.285 40.6251 592.545 40.6251C590.453 40.6251 588.338 41.012 586.34 41.7507C584.906 42.29 583.508 43.0052 582.192 43.9197C582.074 44.0135 581.98 44.0369 581.898 44.0369C581.334 44.0369 581.158 42.6417 581.158 41.8327C581.158 41.5396 581.193 41.3286 581.216 41.2934C581.875 41.0003 582.533 40.6955 583.191 40.461C585.847 39.4761 588.62 38.972 591.335 38.972C593.756 38.972 596.106 39.3589 598.351 40.1679C607.364 43.3804 612.582 52.6427 612.582 62.7609C612.582 78.3895 600.114 96.07 570.005 96.4569C564.341 96.5155 558.582 96.6093 552.612 98.1218H553.059C560.733 98.1218 564.482 103.269 564.482 109.436C564.482 113.481 562.836 117.983 559.616 121.735C553.881 128.347 544.068 131.654 534.937 131.654C530.248 131.654 525.747 130.786 522.081 129.039L522.069 129.016ZM554.563 78.2019C554.563 77.7564 554.445 77.2757 554.14 76.7716C552.683 74.1805 547.042 72.1287 540.296 71.6832C542.682 74.5674 546.736 78.4951 550.297 79.9254C550.896 80.1599 551.46 80.2772 552.001 80.2772C553.458 80.2772 554.563 79.4447 554.563 78.1902V78.2019Z" fill="#3060A9"/>
<path d="M657.322 148.76C656.147 148.373 654.936 147.306 654.936 146.802C654.936 146.591 655.078 146.556 655.324 146.52C656.147 146.52 658.239 147.728 660.201 147.728C678.911 147.728 715.13 72.3398 736.154 37.272C737.188 35.6072 737.964 34.7161 737.964 34.3644C737.964 34.2589 737.858 34.1885 737.612 34.1885C737.259 34.1885 736.577 34.3292 735.508 34.5402C690.651 43.7674 645.711 55.0932 639.377 55.0932C638.848 55.0932 638.554 54.9877 638.519 54.4601C638.519 54.1787 638.66 53.9325 638.942 53.8621C639.906 53.5807 689.252 41.0825 739.656 31.574C741.431 28.807 743.076 26.4269 744.533 24.551C745.462 23.3082 746.378 21.7137 747.377 20.5413C748.588 19.2633 749.587 18.1612 750.574 16.8832C750.962 16.3908 751.82 15.4294 752.313 15.1832C752.63 15.0777 752.842 15.0073 753.03 15.0073C753.488 15.0073 753.665 15.4294 754.558 15.7929C754.523 17.4929 753.171 19.2047 752.384 20.4123C750.75 23.0737 748.788 26.4152 746.66 30.2843C767.015 26.5911 783.55 24.1758 798.604 22.8979C803.552 22.4406 807.994 22.1827 811.872 22.1827C816.855 22.1827 820.839 22.6048 823.612 23.4958C827.667 24.5276 829.947 26.298 829.947 28.9242C829.947 31.4098 828.031 34.5989 823.224 38.8666C823.189 38.9017 823.083 38.9369 822.942 38.9369C822.226 38.9369 820.486 38.4796 820.275 38.2217C820.169 38.1162 820.134 37.9755 820.134 37.8348C820.134 37.6589 820.204 37.4479 820.345 37.3424C824.787 33.4381 826.891 30.3898 826.891 28.2208C826.891 26.7318 825.892 25.7352 824.082 24.9145C821.097 24.0234 816.502 23.6013 811.202 23.6013C805.585 23.6013 798.898 24.0234 791.424 24.809C778.015 26.4738 761.962 29.3111 745.391 32.5823C724.508 70.0653 684.34 149.287 660.436 149.287C659.367 149.287 658.298 149.111 657.31 148.795L657.322 148.76Z" fill="#3060A9"/>
<path d="M733.921 93.8776C733.604 93.6314 731.042 92.2831 730.831 91.6031C730.69 91.2162 730.619 90.712 730.619 90.2196C730.619 87.9802 731.935 85.0022 732.723 83.6539C733.146 82.8684 733.616 82.3056 734.039 81.6607C735.285 79.7497 736.248 79.3159 737.565 78.2489C737.988 77.9324 738.199 77.4282 738.74 77.4282C739.374 77.4282 740.949 77.6041 741.337 77.7448L743.252 78.8821C745.321 80.4062 749.552 80.758 753.218 80.758C758.342 80.758 761.327 80.3007 764.5 79.8317C766.063 79.6207 767.591 79.3393 768.978 78.8352C769.224 78.7296 769.577 78.5538 769.8 78.5538C769.976 78.5538 770.117 78.6593 770.117 78.9407C770.082 80.3593 760.375 81.4614 758.271 81.6725C756.497 81.8483 754.358 82.0242 752.219 82.0242C749.481 82.0242 746.743 81.7428 744.498 80.8166C744.251 83.1615 743.605 84.3691 742.759 85.8581C742.195 86.8547 737.318 94.0886 734.685 94.0886C734.403 94.0886 734.156 94.0183 733.933 93.8424L733.921 93.8776ZM743.347 80.8518C743.347 79.5738 742.418 78.6827 739.962 78.6827C740.279 78.9993 740.385 79.2807 740.385 79.5386C740.385 80.4297 739.139 81.2035 738.54 82.0594C737.083 84.1229 734.521 88.3437 734.486 91.5327C736.554 90.8996 743.347 84.3574 743.347 80.8518Z" fill="#3060A9"/>
<path d="M775.688 160.613C768.966 156.92 766.721 147.482 766.721 137.117C766.721 124.478 770.07 110.421 772.597 103.644C775.018 97.1135 778.003 90.7941 781.423 84.6153C776.581 88.8713 769.612 93.8424 768.296 94.839C767.614 95.3666 765.487 97.008 764.559 97.3597C764.03 97.5708 763.666 97.6763 763.384 97.6763C762.89 97.6763 762.596 97.4301 762.208 96.9259C761.174 96.2459 760.716 95.05 760.716 93.5493C760.716 87.6519 767.826 77.1468 773.808 75.7985C774.336 75.693 775.018 75.6226 775.805 75.6226C777.545 75.6226 779.683 75.8689 780.929 76.0447C783.562 76.4316 783.597 76.6075 785.23 78.0379C786.97 75.2006 788.827 72.3984 790.707 69.5845C800.743 55.0345 833.014 12.6155 848.479 2.86077C851.57 0.902788 854.461 -0.0117188 856.835 -0.0117188H856.906C860.748 -0.0117188 863.31 2.298 863.31 6.16706C863.31 8.19539 862.594 10.5989 861.066 13.3424C851.241 30.8822 802.858 69.2445 789.097 80.711C783.726 89.1175 778.638 98.0984 774.83 107.29C771.774 114.642 768.813 126.319 768.813 137.176C768.813 146.157 770.846 154.563 776.534 159.499C776.992 159.745 777.286 160.214 777.286 160.531C777.286 160.777 777.145 160.988 776.828 160.988C776.546 160.988 776.193 160.883 775.688 160.601V160.613ZM772.95 88.5547C775.229 86.714 781.458 81.3793 783.444 80.3945L783.938 80.1834L784.396 79.3979L784.326 79.1165C783.644 78.8703 782.692 78.7648 781.623 78.7648C779.707 78.8 777.533 79.1165 776.569 79.6207C772.409 81.7193 766.745 90.1258 765.828 93.7486C766.968 93.3969 771.586 89.7037 772.938 88.5664L772.95 88.5547ZM858.304 13.2369C859.585 10.9624 860.76 7.59744 860.76 5.25255C860.76 3.62286 860.196 2.45041 858.727 2.45041C857.728 2.48559 856.306 3.01319 854.32 4.3615C847.915 8.68781 838.843 18.6653 838.02 19.5915C827.455 31.867 816.855 43.8025 806.431 56.289C801.66 62.3975 796.465 69.4204 791.447 77.053C804.504 66.1258 849.655 28.5373 858.292 13.2369H858.304Z" fill="#3060A9"/>
<path d="M816.749 94.8741C816.749 91.7554 818.03 87.7457 819.981 83.5483C815.209 88.0153 807.136 93.772 805.749 94.839C805.067 95.3666 802.905 97.008 801.977 97.3597C801.448 97.5707 801.083 97.6763 800.801 97.6763C800.308 97.6763 800.014 97.4301 799.626 96.9259C798.592 96.2459 798.134 95.05 798.134 93.5493C798.134 87.6519 805.244 77.1468 811.225 75.7985C811.754 75.6929 812.436 75.6578 813.188 75.6578C814.963 75.6578 817.101 75.8688 818.347 76.0447C821.015 76.4316 821.015 76.6426 822.754 78.1082C822.754 78.1082 822.754 78.1434 822.789 78.1434C824.458 75.2005 826.315 72.246 828.125 69.6197C838.126 55.0345 870.385 12.6858 885.827 2.89591C889.023 0.86758 891.879 0.0585938 894.3 0.0585938C898.108 0.0585938 900.67 2.36831 900.67 6.23737C900.67 8.23053 899.953 10.6692 898.425 13.4127C888.6 30.9056 840.253 69.2445 826.491 80.711C822.966 86.2449 820.768 91.2865 820.768 94.7334C820.768 97.5708 822.296 99.3177 825.892 99.3177C829.171 99.3177 834.142 97.8639 841.263 94.4872C861.759 84.7208 898.26 62.4678 924.937 62.4678C937.994 62.4678 948.665 67.7907 953.965 82.5166L954 82.6573C954 83.0442 953.318 83.2904 952.507 83.2904C951.473 83.2904 950.192 82.8331 949.91 81.6255C947.207 68.6348 938.452 63.9099 926.853 63.9099C900.67 63.9099 859.973 88.1209 841.828 96.07C833.578 99.6929 827.737 101.217 823.788 101.217C818.7 101.217 816.749 98.6963 816.749 94.8624V94.8741ZM810.379 88.5547C812.624 86.7139 818.852 81.3793 820.874 80.3944C821.873 79.9372 821.732 80.0779 821.873 79.7965L821.767 79.1165C821.05 78.8703 820.063 78.7999 818.994 78.7999C817.078 78.7999 814.939 79.1165 814.011 79.6206C809.85 81.7193 804.186 90.1257 803.269 93.7486C804.409 93.3968 808.993 89.7036 810.379 88.5664V88.5547ZM895.651 13.3072C896.932 11.0327 898.108 7.66775 898.108 5.28769C898.108 3.658 897.544 2.52073 896.11 2.52073C895.076 2.52073 893.724 3.01315 891.703 4.39664C885.298 8.72295 876.226 18.7005 875.403 19.6267C864.838 31.9022 854.238 43.8377 843.814 56.3242C839.042 62.3974 833.848 69.4555 828.83 77.0882C841.886 66.1258 887.037 28.6076 895.64 13.3072H895.651Z" fill="#3060A9"/>
<path d="M302.275 192.6H301.525L291.325 169.53V185.82C291.325 188.31 291.385 189.6 291.625 192H290.485C290.695 189.6 290.755 188.31 290.755 185.82V174.18C290.755 171.69 290.695 170.4 290.485 168H295.225L303.805 187.11L311.875 168H316.255C316.045 170.4 315.955 171.69 315.955 174.18V185.82C315.955 188.31 316.045 189.6 316.255 192H311.605C311.815 189.6 311.875 188.31 311.875 185.82V169.44L302.275 192.6ZM327.256 192.6C324.766 192.6 322.186 191.49 322.186 188.61C322.186 185.07 326.026 184.11 329.026 183.6C331.606 183.15 333.106 182.61 333.106 180.72C333.106 178.71 332.206 177.63 330.466 177.63C327.706 177.63 326.896 179.43 326.056 180.45C324.976 181.86 322.996 181.56 322.666 179.73C324.676 178.35 327.676 177.06 330.916 177.06C334.276 177.06 336.646 178.23 336.676 181.62V185.94C336.676 188.1 336.676 189.57 337.126 192H333.376C333.196 190.59 333.136 189.69 333.136 188.61C332.386 190.83 330.556 192.6 327.256 192.6ZM328.936 191.37C331.486 191.37 333.106 189.06 333.106 186V182.55C332.506 183.39 331.306 183.66 329.716 184.02C327.286 184.65 326.086 185.91 326.086 188.07C326.086 190.29 327.256 191.37 328.936 191.37ZM355.086 177.66C355.446 179.34 354.456 180.48 352.626 179.85C351.066 179.34 349.986 179.49 347.106 182.58V183.57V186.12C347.106 188.1 347.106 189.57 347.376 192H343.236C343.536 189.57 343.536 188.1 343.536 186.12V183.57C343.536 181.59 343.536 180.09 343.236 177.66H347.376C347.196 179.28 347.136 180.51 347.106 181.74C349.386 179.1 351.246 176.97 355.086 177.66ZM367.065 192.6C362.655 192.6 359.175 189.84 359.175 184.83C359.175 179.85 362.655 177.06 367.215 177.06C370.965 177.06 373.095 179.16 373.755 181.35C372.855 182.67 370.995 182.31 370.695 180.6C370.485 179.4 369.915 177.63 367.395 177.63C364.365 177.63 363.075 180.06 363.075 184.44C363.075 188.22 364.545 191.52 368.325 191.52C371.235 191.52 373.095 189.42 373.995 186.36H374.475C373.485 189.66 371.535 192.6 367.065 192.6ZM394.672 192H390.532C390.832 189.09 390.832 187.92 390.832 185.94V181.71C390.832 179.31 390.082 178.02 388.372 178.02C386.272 178.02 384.712 179.85 383.692 181.89V185.82C383.692 187.8 383.692 189.42 383.962 192H379.822C380.122 189.42 380.122 187.8 380.122 185.82V174.18C380.122 172.2 380.122 170.58 379.822 168H383.962C383.692 170.58 383.692 172.2 383.692 174.18V180.96C384.772 178.98 386.662 177.06 389.692 177.06C392.692 177.06 394.402 178.71 394.402 182.88V185.94C394.402 187.92 394.402 189.09 394.672 192ZM419.879 192H415.649C416.789 190.44 417.449 189.39 418.469 187.5L427.439 170.4H421.769C419.459 170.4 416.549 170.7 414.089 171.84L411.509 168H429.329V168.57L421.439 187.35C420.629 189.27 420.329 190.29 419.879 192ZM433.829 185.01V183.42C438.899 183.66 445.229 183.66 450.269 183.42V185.01C445.229 184.74 438.899 184.74 433.829 185.01ZM466.843 192.6C461.713 192.6 457.213 190.47 457.213 185.61C457.213 181.68 460.153 179.4 463.963 178.71C460.663 177.96 458.863 175.62 458.863 173.16C458.863 170.04 461.563 167.4 466.843 167.4C472.063 167.4 474.793 170.04 474.793 173.16C474.793 175.62 472.963 177.96 469.693 178.71C473.503 179.4 476.413 181.68 476.413 185.61C476.413 190.47 471.913 192.6 466.843 192.6ZM466.843 178.5C469.963 178.5 471.133 175.59 471.133 173.16C471.133 170.73 469.963 167.97 466.843 167.97C463.663 167.97 462.523 170.73 462.523 173.16C462.523 175.59 463.663 178.5 466.843 178.5ZM466.843 192.03C470.173 192.03 472.243 189.42 472.243 185.61C472.243 181.8 470.173 179.07 466.843 179.07C463.453 179.07 461.413 181.8 461.413 185.61C461.413 189.42 463.453 192.03 466.843 192.03ZM488.914 192.75C486.154 192.75 484.954 191.22 484.954 187.65V178.23H481.714V177.66H482.134C486.214 177.66 486.064 174.69 486.064 171.36H489.124C489.124 173.91 488.644 176.58 485.764 177.66H492.844V178.23H488.524V188.16C488.524 190.92 489.064 191.79 490.174 191.79C491.524 191.79 492.544 190.23 493.174 185.88H493.684C492.934 191.22 491.434 192.75 488.914 192.75ZM514.01 192H509.87C510.17 189.09 510.17 187.92 510.17 185.94V181.71C510.17 179.31 509.42 178.02 507.71 178.02C505.61 178.02 504.05 179.85 503.03 181.89V185.82C503.03 187.8 503.03 189.42 503.3 192H499.16C499.46 189.42 499.46 187.8 499.46 185.82V174.18C499.46 172.2 499.46 170.58 499.16 168H503.3C503.03 170.58 503.03 172.2 503.03 174.18V180.96C504.11 178.98 506 177.06 509.03 177.06C512.03 177.06 513.74 178.71 513.74 182.88V185.94C513.74 187.92 513.74 189.09 514.01 192ZM524.965 190.62L521.185 197.13L520.975 196.92L522.955 192.6L520.975 190.62L522.955 188.61L524.965 190.62ZM560.44 192H543.43C544.81 185.73 548.23 183.48 551.59 180.96C554.83 178.59 557.05 176.58 557.05 173.28C557.05 170.1 555.16 167.97 552.13 167.97C549.07 167.97 547.06 169.95 547.06 172.32C547.06 174.27 548.38 175.53 550.21 176.19L547.63 178.56C545.32 177.3 543.97 175.47 543.97 173.13C543.97 169.59 548.08 167.4 552.46 167.4C556.9 167.4 561.22 169.53 561.22 173.82C561.22 178.08 557.32 179.91 553.93 181.62C549.46 183.54 546.58 185.13 544.57 189.6L553 189.54C556.33 189.51 558.4 189.36 561.85 187.83L560.44 192ZM578.401 192.6C572.071 192.6 567.151 187.56 567.151 180C567.151 172.47 572.071 167.4 578.401 167.4C584.671 167.4 589.621 172.47 589.621 180C589.621 187.56 584.671 192.6 578.401 192.6ZM578.401 192.03C583.501 192.03 585.451 186.93 585.451 180C585.451 173.1 583.501 167.97 578.401 167.97C573.271 167.97 571.321 173.1 571.321 180C571.321 186.93 573.271 192.03 578.401 192.03ZM611.997 192H594.987C596.367 185.73 599.787 183.48 603.147 180.96C606.387 178.59 608.607 176.58 608.607 173.28C608.607 170.1 606.717 167.97 603.687 167.97C600.627 167.97 598.617 169.95 598.617 172.32C598.617 174.27 599.937 175.53 601.767 176.19L599.187 178.56C596.877 177.3 595.527 175.47 595.527 173.13C595.527 169.59 599.637 167.4 604.017 167.4C608.457 167.4 612.777 169.53 612.777 173.82C612.777 178.08 608.877 179.91 605.487 181.62C601.017 183.54 598.137 185.13 596.127 189.6L604.557 189.54C607.887 189.51 609.957 189.36 613.407 187.83L611.997 192ZM626.975 192.6C621.455 192.6 618.695 189.93 618.275 184.98H618.755C619.205 189.81 621.875 191.64 625.505 191.64C629.225 191.64 631.805 188.52 631.805 183.78C631.805 179.67 629.645 177.33 626.495 177.33C624.785 177.33 622.955 177.93 620.315 180.06L620.015 179.79L621.695 168H634.145L635.405 172.11C631.805 170.55 629.915 170.4 625.655 170.4H621.905L620.675 179.16C622.895 177.33 625.205 176.46 627.905 176.46C631.925 176.46 636.245 178.71 636.245 183.99C636.245 189.9 631.595 192.6 626.975 192.6Z" fill="#6886A0"/>
<path d="M253.309 234.48C247.189 234.48 243.469 230.136 243.469 224.16C243.469 218.184 247.837 214.32 253.237 214.32C257.125 214.32 259.765 216.384 261.397 219.744L258.253 220.632C257.605 217.32 256.093 214.776 253.237 214.776C249.373 214.776 247.021 218.88 247.021 223.944C247.021 229.128 249.253 233.496 254.197 233.496C258.157 233.496 260.821 230.688 261.901 225.912H262.285C261.109 231.144 258.301 234.48 253.309 234.48ZM270.126 234.48C268.134 234.48 266.07 233.592 266.07 231.288C266.07 228.456 269.142 227.688 271.542 227.28C273.606 226.92 274.806 226.488 274.806 224.976C274.806 223.368 274.086 222.504 272.694 222.504C270.486 222.504 269.838 223.944 269.166 224.76C268.302 225.888 266.718 225.648 266.454 224.184C268.062 223.08 270.462 222.048 273.054 222.048C275.742 222.048 277.638 222.984 277.662 225.696V229.152C277.662 230.88 277.662 232.056 278.022 234H275.022C274.878 232.872 274.83 232.152 274.83 231.288C274.23 233.064 272.766 234.48 270.126 234.48ZM271.47 233.496C273.51 233.496 274.806 231.648 274.806 229.2V226.44C274.326 227.112 273.366 227.328 272.094 227.616C270.15 228.12 269.19 229.128 269.19 230.856C269.19 232.632 270.126 233.496 271.47 233.496ZM292.39 222.528C292.678 223.872 291.886 224.784 290.422 224.28C289.174 223.872 288.31 223.992 286.006 226.464V227.256V229.296C286.006 230.88 286.006 232.056 286.222 234H282.91C283.15 232.056 283.15 230.88 283.15 229.296V227.256C283.15 225.672 283.15 224.472 282.91 222.528H286.222C286.078 223.824 286.03 224.808 286.006 225.792C287.83 223.68 289.318 221.976 292.39 222.528ZM301.521 234.6C299.313 234.6 298.353 233.376 298.353 230.52V222.984H295.761V222.528H296.097C299.361 222.528 299.241 220.152 299.241 217.488H301.689C301.689 219.528 301.305 221.664 299.001 222.528H304.665V222.984H301.209V230.928C301.209 233.136 301.641 233.832 302.529 233.832C303.609 233.832 304.425 232.584 304.929 229.104H305.337C304.737 233.376 303.537 234.6 301.521 234.6ZM313.537 234.48C311.545 234.48 309.481 233.592 309.481 231.288C309.481 228.456 312.553 227.688 314.953 227.28C317.017 226.92 318.217 226.488 318.217 224.976C318.217 223.368 317.497 222.504 316.105 222.504C313.897 222.504 313.249 223.944 312.577 224.76C311.713 225.888 310.129 225.648 309.865 224.184C311.473 223.08 313.873 222.048 316.465 222.048C319.153 222.048 321.049 222.984 321.073 225.696V229.152C321.073 230.88 321.073 232.056 321.433 234H318.433C318.289 232.872 318.241 232.152 318.241 231.288C317.641 233.064 316.177 234.48 313.537 234.48ZM314.881 233.496C316.921 233.496 318.217 231.648 318.217 229.2V226.44C317.737 227.112 316.777 227.328 315.505 227.616C313.561 228.12 312.601 229.128 312.601 230.856C312.601 232.632 313.537 233.496 314.881 233.496ZM331.556 240.24C328.772 240.24 325.844 239.52 325.844 237.432C325.844 236.592 326.372 235.92 327.236 235.44C326.396 235.056 325.844 234.36 325.844 233.376C325.844 232.08 326.9 231.096 328.844 230.352C327.692 229.536 326.948 228.336 326.948 226.824C326.948 223.824 329.924 222.048 333.404 222.048C334.796 222.048 336.116 222.36 337.196 222.888C338.468 221.448 339.74 220.248 342.212 220.608C342.5 221.904 341.804 222.672 340.46 222.336C339.26 222.192 338.852 221.952 337.556 223.056C338.948 223.872 339.86 225.168 339.86 226.824C339.86 229.824 336.86 231.6 333.404 231.6C331.964 231.6 330.62 231.288 329.564 230.712C328.196 231.504 327.716 232.128 327.716 233.04C327.716 233.832 328.244 234.6 329.564 234.6C333.38 234.6 335.876 232.344 339.068 232.344C340.94 232.344 342.284 233.208 342.284 234.912C342.284 238.584 336.188 240.24 331.556 240.24ZM333.404 231.144C335.516 231.144 336.716 229.44 336.716 226.824C336.716 224.208 335.516 222.504 333.404 222.504C331.292 222.504 330.068 224.208 330.068 226.824C330.068 229.44 331.292 231.144 333.404 231.144ZM331.244 239.4C335.156 239.4 339.668 237.672 339.668 234.912C339.668 234.072 339.164 233.328 337.844 233.328C335.204 233.328 332.492 235.8 329.084 235.8C328.628 235.8 328.172 235.752 327.74 235.632C326.948 236.064 326.612 236.616 326.612 237.288C326.612 238.776 328.82 239.4 331.244 239.4ZM351.935 234.48C348.191 234.48 345.119 232.224 345.119 228.264C345.119 224.328 348.263 222.048 351.695 222.048C355.319 222.048 357.407 224.352 357.431 226.92H348.335C348.263 227.28 348.239 227.664 348.239 228.048C348.239 231.096 349.775 233.712 352.823 233.712C355.031 233.712 356.783 232.32 357.623 229.608H358.031C357.167 232.584 355.271 234.48 351.935 234.48ZM348.359 226.464H354.407C354.407 224.16 353.567 222.504 351.647 222.504C349.919 222.504 348.719 223.848 348.359 226.464ZM374.196 234H370.884C371.124 231.672 371.124 230.736 371.124 229.152V225.768C371.124 223.848 370.524 222.816 369.156 222.816C367.476 222.816 366.228 224.28 365.412 225.912V227.256V229.296C365.412 230.88 365.412 232.056 365.628 234H362.316C362.556 232.056 362.556 230.88 362.556 229.296V227.256C362.556 225.672 362.556 224.472 362.316 222.528H365.628C365.508 223.536 365.46 224.352 365.436 225.12C366.3 223.56 367.812 222.048 370.212 222.048C372.612 222.048 373.98 223.368 373.98 226.704V229.152C373.98 230.736 373.98 231.672 374.196 234ZM382.926 234.48C380.934 234.48 378.87 233.592 378.87 231.288C378.87 228.456 381.942 227.688 384.342 227.28C386.406 226.92 387.606 226.488 387.606 224.976C387.606 223.368 386.886 222.504 385.494 222.504C383.286 222.504 382.638 223.944 381.966 224.76C381.102 225.888 379.518 225.648 379.254 224.184C380.862 223.08 383.262 222.048 385.854 222.048C388.542 222.048 390.438 222.984 390.462 225.696V229.152C390.462 230.88 390.462 232.056 390.822 234H387.822C387.678 232.872 387.63 232.152 387.63 231.288C387.03 233.064 385.566 234.48 382.926 234.48ZM384.27 233.496C386.31 233.496 387.606 231.648 387.606 229.2V226.44C387.126 227.112 386.166 227.328 384.894 227.616C382.95 228.12 381.99 229.128 381.99 230.856C381.99 232.632 382.926 233.496 384.27 233.496ZM410.8 234.48C407.776 234.48 405.016 232.488 405.016 228.264C405.016 224.04 407.92 222.048 410.584 222.048C412.648 222.048 414.304 223.056 415.504 224.52V219.648C415.504 218.064 415.504 217.128 415.216 214.8H418.36V229.296C418.36 230.88 418.36 231.792 418.744 234H415.744C415.576 232.68 415.528 232.056 415.504 231C414.904 232.992 413.392 234.48 410.8 234.48ZM411.76 233.712C414.04 233.712 415.504 231.744 415.504 228.624V225.144C414.52 223.848 413.032 222.72 411.472 222.72C409.432 222.72 408.136 224.712 408.136 228.264C408.136 231.264 409.168 233.712 411.76 233.712ZM430.193 234.48C426.449 234.48 423.377 232.224 423.377 228.264C423.377 224.328 426.521 222.048 429.953 222.048C433.577 222.048 435.665 224.352 435.689 226.92H426.593C426.521 227.28 426.497 227.664 426.497 228.048C426.497 231.096 428.033 233.712 431.081 233.712C433.289 233.712 435.041 232.32 435.881 229.608H436.289C435.425 232.584 433.529 234.48 430.193 234.48ZM426.617 226.464H432.665C432.665 224.16 431.825 222.504 429.905 222.504C428.177 222.504 426.977 223.848 426.617 226.464ZM454.293 234H450.573C450.741 232.08 450.789 231.048 450.789 229.056V219.744C450.789 217.752 450.741 216.72 450.573 214.8H454.293C454.125 216.72 454.077 217.752 454.077 219.744V229.056C454.077 231.048 454.125 232.08 454.293 234ZM471.504 234H468.192C468.432 231.672 468.432 230.736 468.432 229.152V225.768C468.432 223.848 467.832 222.816 466.464 222.816C464.784 222.816 463.536 224.28 462.72 225.912V227.256V229.296C462.72 230.88 462.72 232.056 462.936 234H459.624C459.864 232.056 459.864 230.88 459.864 229.296V227.256C459.864 225.672 459.864 224.472 459.624 222.528H462.936C462.816 223.536 462.768 224.352 462.744 225.12C463.608 223.56 465.12 222.048 467.52 222.048C469.92 222.048 471.288 223.368 471.288 226.704V229.152C471.288 230.736 471.288 231.672 471.504 234ZM481.839 234.48C478.815 234.48 476.055 232.488 476.055 228.264C476.055 224.04 478.959 222.048 481.623 222.048C483.687 222.048 485.343 223.056 486.543 224.52V219.648C486.543 218.064 486.543 217.128 486.255 214.8H489.399V229.296C489.399 230.88 489.399 231.792 489.783 234H486.783C486.615 232.68 486.567 232.056 486.543 231C485.943 232.992 484.431 234.48 481.839 234.48ZM482.799 233.712C485.079 233.712 486.543 231.744 486.543 228.624V225.144C485.559 223.848 484.071 222.72 482.511 222.72C480.471 222.72 479.175 224.712 479.175 228.264C479.175 231.264 480.207 233.712 482.799 233.712ZM498.667 218.016L496.651 219.816L494.635 218.016L496.651 216.216L498.667 218.016ZM498.307 234H494.995C495.235 232.056 495.235 230.88 495.235 229.296V227.256C495.235 225.672 495.235 224.472 494.995 222.528H498.307C498.091 224.472 498.091 225.672 498.091 227.256V229.296C498.091 230.88 498.091 232.056 498.307 234ZM507.463 234.48C505.471 234.48 503.407 233.592 503.407 231.288C503.407 228.456 506.479 227.688 508.879 227.28C510.943 226.92 512.143 226.488 512.143 224.976C512.143 223.368 511.423 222.504 510.031 222.504C507.823 222.504 507.175 223.944 506.503 224.76C505.639 225.888 504.055 225.648 503.791 224.184C505.399 223.08 507.799 222.048 510.391 222.048C513.079 222.048 514.975 222.984 514.999 225.696V229.152C514.999 230.88 514.999 232.056 515.359 234H512.359C512.215 232.872 512.167 232.152 512.167 231.288C511.567 233.064 510.103 234.48 507.463 234.48ZM508.807 233.496C510.847 233.496 512.143 231.648 512.143 229.2V226.44C511.663 227.112 510.703 227.328 509.431 227.616C507.487 228.12 506.527 229.128 506.527 230.856C506.527 232.632 507.463 233.496 508.807 233.496ZM525.03 234.48C522.15 234.48 519.99 233.208 519.39 230.736C520.038 229.488 521.814 229.728 522.078 231.264C522.174 232.656 523.014 234.024 525.15 234.024C526.806 234.024 527.55 233.04 527.55 231.816C527.55 230.52 526.686 229.992 523.998 228.648C521.79 227.544 520.014 226.704 520.014 224.832C520.014 222.792 522.318 222.048 524.286 222.048C526.638 222.048 528.366 223.152 529.326 225C528.654 225.984 527.286 225.816 526.926 224.544C526.59 223.32 525.99 222.528 524.334 222.528C523.062 222.528 522.198 223.032 522.198 224.04C522.198 225.168 523.254 225.792 525.51 226.848C527.958 228 529.83 228.816 529.83 231.048C529.83 233.112 527.982 234.48 525.03 234.48ZM537.235 232.896L534.211 238.104L534.043 237.936L535.627 234.48L534.043 232.896L535.627 231.288L537.235 232.896ZM561.943 234.48C555.823 234.48 552.103 230.136 552.103 224.16C552.103 218.184 556.471 214.32 561.871 214.32C565.759 214.32 568.399 216.384 570.031 219.744L566.887 220.632C566.239 217.32 564.727 214.776 561.871 214.776C558.007 214.776 555.655 218.88 555.655 223.944C555.655 229.128 557.887 233.496 562.831 233.496C566.791 233.496 569.455 230.688 570.535 225.912H570.919C569.743 231.144 566.935 234.48 561.943 234.48ZM582.226 234.48C578.074 234.48 575.05 232.128 575.05 228.264C575.05 224.4 578.074 222.048 582.226 222.048C586.354 222.048 589.402 224.4 589.402 228.264C589.402 232.128 586.354 234.48 582.226 234.48ZM582.226 234.024C584.89 234.024 586.258 231.912 586.258 228.264C586.258 224.64 584.89 222.504 582.226 222.504C579.538 222.504 578.17 224.64 578.17 228.264C578.17 231.912 579.538 234.024 582.226 234.024ZM597.458 234H594.146C594.386 231.936 594.386 230.64 594.386 229.056V219.744C594.386 218.16 594.386 216.864 594.146 214.8H597.458C597.242 216.864 597.242 218.16 597.242 219.744V229.056C597.242 230.64 597.242 231.936 597.458 234ZM609.268 234.48C605.116 234.48 602.092 232.128 602.092 228.264C602.092 224.4 605.116 222.048 609.268 222.048C613.396 222.048 616.444 224.4 616.444 228.264C616.444 232.128 613.396 234.48 609.268 234.48ZM609.268 234.024C611.932 234.024 613.3 231.912 613.3 228.264C613.3 224.64 611.932 222.504 609.268 222.504C606.58 222.504 605.212 224.64 605.212 228.264C605.212 231.912 606.58 234.024 609.268 234.024ZM624.149 234H620.837C621.077 232.056 621.077 230.88 621.077 229.296V227.256C621.077 225.672 621.077 224.472 620.837 222.528H624.149C624.053 223.512 623.981 224.328 623.957 225.12C624.725 223.656 626.093 222.048 628.109 222.048C629.765 222.048 630.749 223.056 631.037 225.144C631.901 223.68 633.293 222.048 635.309 222.048C637.253 222.048 638.333 223.368 638.333 226.296V229.152C638.333 230.736 638.333 231.672 638.549 234H635.237C635.477 231.672 635.477 230.736 635.477 229.152V225.48C635.477 223.824 635.213 222.936 634.253 222.936C632.981 222.936 631.973 224.232 631.109 225.768C631.133 225.984 631.133 226.2 631.133 226.464V229.152C631.133 230.736 631.133 231.672 631.349 234H628.061C628.277 231.672 628.277 230.736 628.277 229.152V225.48C628.277 223.824 628.013 222.936 627.077 222.936C625.757 222.936 624.749 224.28 623.933 225.888V229.296C623.933 230.88 623.933 232.056 624.149 234ZM651.474 234.48C648.906 234.48 647.37 233.016 646.77 231.024C646.77 231.984 646.842 232.728 647.01 234H643.914V219.648C643.914 218.064 643.914 217.128 643.674 214.8H646.986C646.77 217.128 646.77 218.064 646.77 219.648V224.52C647.97 223.056 649.602 222.048 651.666 222.048C654.354 222.048 657.258 224.04 657.258 228.264C657.258 232.488 654.474 234.48 651.474 234.48ZM650.514 233.712C653.106 233.712 654.114 231.264 654.114 228.264C654.114 224.712 652.842 222.72 650.778 222.72C649.242 222.72 647.754 223.848 646.77 225.144V228.624C646.77 231.744 648.234 233.712 650.514 233.712ZM665.926 218.016L663.91 219.816L661.894 218.016L663.91 216.216L665.926 218.016ZM665.566 234H662.254C662.494 232.056 662.494 230.88 662.494 229.296V227.256C662.494 225.672 662.494 224.472 662.254 222.528H665.566C665.35 224.472 665.35 225.672 665.35 227.256V229.296C665.35 230.88 665.35 232.056 665.566 234ZM674.723 234.48C672.731 234.48 670.667 233.592 670.667 231.288C670.667 228.456 673.739 227.688 676.139 227.28C678.203 226.92 679.403 226.488 679.403 224.976C679.403 223.368 678.683 222.504 677.291 222.504C675.083 222.504 674.435 223.944 673.763 224.76C672.899 225.888 671.315 225.648 671.051 224.184C672.659 223.08 675.059 222.048 677.651 222.048C680.339 222.048 682.235 222.984 682.259 225.696V229.152C682.259 230.88 682.259 232.056 682.619 234H679.619C679.475 232.872 679.427 232.152 679.427 231.288C678.827 233.064 677.363 234.48 674.723 234.48ZM676.067 233.496C678.107 233.496 679.403 231.648 679.403 229.2V226.44C678.923 227.112 677.963 227.328 676.691 227.616C674.747 228.12 673.787 229.128 673.787 230.856C673.787 232.632 674.723 233.496 676.067 233.496Z" fill="#6886A0"/>
</g>
<defs>
<clipPath id="clip0_2349_12250">
<rect width="954" height="240" fill="white"/>
</clipPath>
</defs>
</svg>
